0
SECTION
2
HEADER
9
$INSUNITS
70
4
9
$ACADVER
1
AC1014
9
$HANDSEED
5
FFFF
0
ENDSEC
0
SECTION
2
TABLES
0
TABLE
2
VPORT
5
8
100
AcDbSymbolTable
0
ENDTAB
0
TABLE
2
LTYPE
5
5
100
AcDbSymbolTable
0
LTYPE
5
14
100
AcDbSymbolTableRecord
100
AcDbLinetypeTableRecord
2
BYBLOCK
70
0
0
LTYPE
5
15
100
AcDbSymbolTableRecord
100
AcDbLinetypeTableRecord
2
BYLAYER
70
0
0
LTYPE
5
16
100
AcDbSymbolTableRecord
100
AcDbLinetypeTableRecord
2
DASHED
70
0
3
Dashed __ __ __ __ __ __ __ __ __ __ __ __ __ _
72
65
73
2
40
0.75
49
0.5
74
0
49
-0.25
74
0
0
ENDTAB
0
TABLE
2
LAYER
5
2
100
AcDbSymbolTable
70
2
0
LAYER
5
50
100
AcDbSymbolTableRecord
100
AcDbLayerTableRecord
2
0
70
0
62
7
6
CONTINUOUS
0
ENDTAB
0
TABLE
2
STYLE
5
3
100
AcDbSymbolTable
70
1
0
STYLE
5
11
100
AcDbSymbolTableRecord
100
AcDbTextStyleTableRecord
2
STANDARD
70
0
0
ENDTAB
0
TABLE
2
VIEW
5
6
100
AcDbSymbolTable
70
0
0
ENDTAB
0
TABLE
2
UCS
5
7
100
AcDbSymbolTable
70
0
0
ENDTAB
0
TABLE
2
APPID
5
9
100
AcDbSymbolTable
70
2
0
APPID
5
12
100
AcDbSymbolTableRecord
100
AcDbRegAppTableRecord
2
ACAD
70
0
0
ENDTAB
0
TABLE
2
DIMSTYLE
5
A
100
AcDbSymbolTable
70
1
0
ENDTAB
0
TABLE
2
BLOCK_RECORD
5
1
100
AcDbSymbolTable
70
1
0
BLOCK_RECORD
5
1F
100
AcDbSymbolTableRecord
100
AcDbBlockTableRecord
2
*MODEL_SPACE
0
BLOCK_RECORD
5
1B
100
AcDbSymbolTableRecord
100
AcDbBlockTableRecord
2
*PAPER_SPACE
0
ENDTAB
0
ENDSEC
0
SECTION
2
BLOCKS
0
BLOCK
5
20
100
AcDbEntity
100
AcDbBlockBegin
2
*MODEL_SPACE
0
ENDBLK
5
21
100
AcDbEntity
100
AcDbBlockEnd
0
BLOCK
5
1C
100
AcDbEntity
100
AcDbBlockBegin
2
*PAPER_SPACE
0
ENDBLK
5
1D
100
AcDbEntity
100
AcDbBlockEnd
0
ENDSEC
0
SECTION
2
ENTITIES
0
LWPOLYLINE
5
100
100
AcDbEntity
8
OUTER_PROFILES
100
AcDbPolyline
90
36
70
1
43
0.0
10
36.950194526192107
20
42.351548318278908
10
36.950194526192107
20
37.348842011010923
10
16.000000238418583
20
37.348842011010923
10
16.000000238418576
20
42.351548318278908
10
13.000000199430769
20
42.351548318278908
10
13.000000199430776
20
37.351548318278908
10
0
20
37.351548243773109
10
0
20
33.348841951406278
10
-5
20
33.348841951406278
10
-5
20
22.851530278446525
10
0
20
22.851530278446525
10
0
20
21.986083771578649
10
-14.000000000000004
20
21.986083771578649
10
-14.000000000000004
20
16.986083771578649
10
0
20
16.986083771578649
10
0
20
15.848841653383055
10
-5.9999999999999787
20
15.848841653383055
10
-5.9999999999999787
20
13.348841653383055
10
0
20
13.348841653383055
10
0
20
12.348841638481893
10
-5.000000074505806
20
12.348841638481893
10
-5.000000074505806
20
5
10
0
20
5
10
0
20
0
10
124.04774881514321
20
8.8817841970012523e-15
10
124.04774881514321
20
7.4811134009643521
10
138.04774881514328
20
7.4811134009643521
10
138.04774881514328
20
12.481113400964352
10
124.04774881514321
20
12.481113400964352
10
124.04774881514321
20
25.805773093061749
10
138.04774881514328
20
25.805773093061749
10
138.04774881514328
20
30.805773093061749
10
124.04774881514321
20
30.805773093061749
10
124.04774881514321
20
33.348841951406278
10
39.450194526192099
20
33.348841951406278
10
39.450194526192107
20
42.351548318278908
0
CIRCLE
5
101
100
AcDbEntity
8
INTERIOR_PROFILES
100
AcDbCircle
10
10.638891339754597
20
19.448842130220214
30
0
40
1.9999999999999929
210
0
220
0
230
-1
0
LWPOLYLINE
5
102
100
AcDbEntity
8
INTERIOR_PROFILES
100
AcDbPolyline
90
4
70
1
43
0.0
10
14.275503514776249
20
24.460510948397499
10
14.275503514776249
20
13.680872686219026
10
11.21819779738578
20
13.680872686219026
10
11.21819779738578
20
24.460510948397499
0
CIRCLE
5
103
100
AcDbEntity
8
INTERIOR_PROFILES
100
AcDbCircle
10
-134.98762193398977
20
28.448842130220218
30
0
40
2.0000000000000107
210
0
220
0
230
-1
0
LWPOLYLINE
5
104
100
AcDbEntity
8
INTERIOR_PROFILES
100
AcDbPolyline
90
4
70
1
43
0.0
10
41.000000610947609
20
17.348841712987699
10
41.000000610947609
20
24.348841817295828
10
60.000000894069672
20
24.348841817295828
10
60.000000894069672
20
17.348841712987699
0
CIRCLE
5
105
100
AcDbEntity
8
INTERIOR_PROFILES
100
AcDbCircle
10
-135.10762193398978
20
10.098842130220218
30
0
40
2.0000000000000107
210
0
220
0
230
-1
0
CIRCLE
5
106
100
AcDbEntity
8
INTERIOR_PROFILES
100
AcDbCircle
10
-119.10000093877304
20
28.448842130220218
30
0
40
1.9999999999999929
210
0
220
0
230
-1
0
CIRCLE
5
107
100
AcDbEntity
8
INTERIOR_PROFILES
100
AcDbCircle
10
-4.7000009387731989
20
19.448842130220214
30
0
40
1.9999999999999929
210
0
220
0
230
-1
0
CIRCLE
5
108
100
AcDbEntity
8
INTERIOR_PROFILES
100
AcDbCircle
10
-118.98000093877303
20
10.098842130220218
30
0
40
1.9999999999999929
210
0
220
0
230
-1
0
LINE
5
109
100
AcDbEntity
8
BEND
100
AcDbLine
10
16.000000238418583
20
38.470816305076283
30
2.7809644738532827e-14
11
13.000000199430776
21
38.470816305076283
31
2.7809644738532833e-14
0
LINE
5
110
100
AcDbEntity
8
BEND
100
AcDbLine
10
39.450194526192107
20
38.470816305076298
30
2.4310659252837898e-14
11
36.950194526192107
21
38.470816305076291
31
2.4310659252837914e-14
0
LINE
5
111
100
AcDbEntity
8
BEND
100
AcDbLine
10
-5.3734037233352172
20
21.986083771578649
30
7.5130768784067412e-14
11
-5.3734037233352172
21
16.986083771578649
31
6.534928692312499e-14
0
LINE
5
112
100
AcDbEntity
8
BEND
100
AcDbLine
10
-2.4232184602361162
20
15.848841653383055
30
3.9603631996062264e-14
11
-2.4232184602361162
21
13.348841653383055
31
3.8703934332121227e-14
0
LINE
5
113
100
AcDbEntity
8
BEND
100
AcDbLine
10
129.47438737997342
20
7.4811134009643521
30
2.6414575545743123e-14
11
129.47438737997342
21
12.481113400964352
31
2.715368539242032e-14
0
LINE
5
114
100
AcDbEntity
8
BEND
100
AcDbLine
10
129.47438737997342
20
25.805773093061749
30
2.6414575545743123e-14
11
129.47438737997342
21
30.805773093061749
31
2.715368539242032e-14
0
LINE
5
115
100
AcDbEntity
8
BEND
100
AcDbLine
10
39.450194526192114
20
33.914328629052449
30
2.9559688030644793e-14
11
0
21
33.914328629052449
31
2.9559688030644793e-14
0
LINE
5
116
100
AcDbEntity
8
BEND
100
AcDbLine
10
-0.56548667764611871
20
33.348841951406278
30
3.5232989624314911e-14
11
-0.56548667764611871
21
22.851530278446525
31
3.5821283951694325e-14
0
LINE
5
117
100
AcDbEntity
8
BEND
100
AcDbLine
10
0
20
4.434513322353828
30
2.9559688030644793e-14
11
124.04774881514321
21
4.434513322353828
31
2.9559688030644793e-14
0
LINE
5
118
100
AcDbEntity
8
BEND
100
AcDbLine
10
-0.56548667764611871
20
15.848841653383055
30
3.5232989624314911e-14
11
-0.56548667764611871
21
13.348841653383055
31
3.5821283951694325e-14
0
LINE
5
119
100
AcDbEntity
8
BEND
100
AcDbLine
10
-0.56548667764611871
20
12.348841638481893
30
3.5232989624314911e-14
11
-0.56548667764611871
21
5
31
3.5821283951694325e-14
0
LINE
5
120
100
AcDbEntity
8
BEND
100
AcDbLine
10
-0.56548667764611871
20
21.986083771578649
30
4.4114773821316157e-14
11
-0.56548667764611871
21
16.986083771578649
31
3.5821283951694325e-14
0
LINE
5
121
100
AcDbEntity
8
BEND
100
AcDbLine
10
124.61323549278941
20
7.4811134009643521
30
2.3298092109594576e-14
11
124.61323549278941
21
12.481113400964352
31
1.5004602239972927e-14
0
LINE
5
122
100
AcDbEntity
8
BEND
100
AcDbLine
10
124.61323549278941
20
25.805773093061749
30
2.3298092109594576e-14
11
124.61323549278941
21
30.805773093061749
31
1.5004602239972927e-14
0
LINE
5
123
100
AcDbEntity
8
BEND_EXTENT
100
AcDbLine
10
36.950194526192107
20
39.036302982722461
30
2.6645352591003757e-14
11
39.450194526192107
21
39.036302982722461
31
2.6645352591003757e-14
0
LINE
5
124
100
AcDbEntity
8
BEND_EXTENT
100
AcDbLine
10
36.950194526192107
20
37.905329627430135
30
1.7763568394002505e-14
11
39.450194526192107
21
37.905329627430135
31
1.7763568394002505e-14
0
LINE
5
125
100
AcDbEntity
8
BEND_EXTENT
100
AcDbLine
10
13.000000199430776
20
37.90532962743012
30
2.4424906541753444e-14
11
16.000000238418583
21
37.90532962743012
31
1.7763568394002505e-14
0
LINE
5
126
100
AcDbEntity
8
BEND_EXTENT
100
AcDbLine
10
0
20
34.479815306698612
30
2.886579864025407e-14
11
39.450194526192107
21
34.479815306698605
31
2.886579864025407e-14
0
LINE
5
127
100
AcDbEntity
8
BEND_EXTENT
100
AcDbLine
10
13.000000199430769
20
39.036302982722447
30
3.5527136788005009e-14
11
16.000000238418576
21
39.036302982722447
31
2.6645352591003757e-14
0
LINE
5
128
100
AcDbEntity
8
BEND_EXTENT
100
AcDbLine
10
-2.9887051378822704
20
13.348841653383055
30
2.6645352591003757e-14
11
-2.9887051378822704
21
15.848841653383055
31
2.6645352591003757e-14
0
LINE
5
129
100
AcDbEntity
8
BEND_EXTENT
100
AcDbLine
10
-1.857731782589962
20
13.348841653383055
30
3.5527136788005009e-14
11
-1.857731782589962
21
15.848841653383055
31
4.4408920985006262e-14
0
LINE
5
130
100
AcDbEntity
8
BEND_EXTENT
100
AcDbLine
10
130.03987405761964
20
30.805773093061749
30
2.6645352591003757e-14
11
130.03987405761964
21
25.805773093061749
31
2.6645352591003757e-14
0
LINE
5
131
100
AcDbEntity
8
BEND_EXTENT
100
AcDbLine
10
128.90890070232726
20
30.805773093061749
30
1.7763568394002505e-14
11
128.90890070232726
21
25.805773093061749
31
1.7763568394002505e-14
0
LINE
5
132
100
AcDbEntity
8
BEND_EXTENT
100
AcDbLine
10
130.03987405761964
20
12.481113400964352
30
2.6645352591003757e-14
11
130.03987405761964
21
7.4811134009643521
31
2.6645352591003757e-14
0
LINE
5
133
100
AcDbEntity
8
BEND_EXTENT
100
AcDbLine
10
128.90890070232726
20
12.481113400964352
30
1.7763568394002505e-14
11
128.90890070232726
21
7.4811134009643521
31
1.7763568394002505e-14
0
LINE
5
134
100
AcDbEntity
8
BEND_EXTENT
100
AcDbLine
10
125.17872217043558
20
12.481113400964352
30
8.8817841970012523e-15
11
125.17872217043558
21
7.4811134009643521
31
1.7763568394002505e-14
0
LINE
5
135
100
AcDbEntity
8
BEND_EXTENT
100
AcDbLine
10
-5.9388904009813892
20
16.986083771578649
30
5.3290705182007514e-14
11
-5.9388904009813892
21
21.986083771578649
31
6.2172489379008766e-14
0
LINE
5
136
100
AcDbEntity
8
BEND_EXTENT
100
AcDbLine
10
-4.807917045689063
20
16.986083771578649
30
6.2172489379008766e-14
11
-4.807917045689063
21
21.986083771578649
31
7.1054273576010019e-14
0
LINE
5
137
100
AcDbEntity
8
BEND_EXTENT
100
AcDbLine
10
-1.1309733552923174
20
16.986083771578649
30
3.5527136788005009e-14
11
-1.1309733552923174
21
21.986083771578649
31
4.4408920985006262e-14
0
LINE
5
138
100
AcDbEntity
8
BEND_EXTENT
100
AcDbLine
10
125.17872217043558
20
30.805773093061749
30
8.8817841970012523e-15
11
125.17872217043558
21
25.805773093061749
31
1.7763568394002505e-14
0
LINE
5
139
100
AcDbEntity
8
BEND_EXTENT
100
AcDbLine
10
124.04774881514321
20
12.481113400964352
30
2.6645352591003757e-14
11
124.04774881514321
21
7.4811134009643521
31
2.6645352591003757e-14
0
LINE
5
140
100
AcDbEntity
8
BEND_EXTENT
100
AcDbLine
10
124.04774881514321
20
30.805773093061749
30
2.6645352591003757e-14
11
124.04774881514321
21
25.805773093061749
31
2.6645352591003757e-14
0
LINE
5
141
100
AcDbEntity
8
BEND_EXTENT
100
AcDbLine
10
0
20
33.348841951406278
30
2.6645352591003757e-14
11
39.450194526192107
21
33.348841951406278
31
2.6645352591003757e-14
0
LINE
5
142
100
AcDbEntity
8
BEND_EXTENT
100
AcDbLine
10
0
20
22.851530278446525
30
2.6645352591003757e-14
11
0
21
33.348841951406278
31
2.6645352591003757e-14
0
LINE
5
143
100
AcDbEntity
8
BEND_EXTENT
100
AcDbLine
10
0
20
16.986083771578649
30
2.6645352591003757e-14
11
0
21
21.986083771578649
31
2.6645352591003757e-14
0
LINE
5
144
100
AcDbEntity
8
BEND_EXTENT
100
AcDbLine
10
0
20
13.348841653383055
30
2.6645352591003757e-14
11
0
21
15.848841653383055
31
2.6645352591003757e-14
0
LINE
5
145
100
AcDbEntity
8
BEND_EXTENT
100
AcDbLine
10
0
20
5
30
2.6645352591003757e-14
11
0
21
12.348841638481893
31
2.6645352591003757e-14
0
LINE
5
146
100
AcDbEntity
8
BEND_EXTENT
100
AcDbLine
10
124.04774881514321
20
5
30
2.6645352591003757e-14
11
0
21
5
31
2.6645352591003757e-14
0
LINE
5
147
100
AcDbEntity
8
BEND_EXTENT
100
AcDbLine
10
-1.1309733552923174
20
5
30
3.5527136788005009e-14
11
-1.1309733552923174
21
12.348841638481893
31
3.5527136788005009e-14
0
LINE
5
148
100
AcDbEntity
8
BEND_EXTENT
100
AcDbLine
10
-1.1309733552923174
20
13.348841653383055
30
3.5527136788005009e-14
11
-1.1309733552923174
21
15.848841653383055
31
3.5527136788005009e-14
0
LINE
5
149
100
AcDbEntity
8
BEND_EXTENT
100
AcDbLine
10
-1.1309733552923174
20
22.851530278446525
30
3.5527136788005009e-14
11
-1.1309733552923174
21
33.348841951406278
31
3.5527136788005009e-14
0
LINE
5
150
100
AcDbEntity
8
BEND_EXTENT
100
AcDbLine
10
124.04774881514321
20
3.8690266447076826
30
1.7763568394002505e-14
11
0
21
3.8690266447076738
31
1.7763568394002505e-14
0
ENDSEC
0
SECTION
2
OBJECTS
0
DICTIONARY
5
C
100
AcDbDictionary
3
ACAD_GROUP
350
D
3
ACAD_MLINESTYLE
350
17
0
DICTIONARY
5
D
100
AcDbDictionary
0
DICTIONARY
5
1A
330
C
100
AcDbDictionary
0
DICTIONARY
5
17
100
AcDbDictionary
0
ENDSEC
0
EOF
