0
SECTION
2
HEADER
9
$INSUNITS
70
4
9
$ACADVER
1
AC1014
9
$HANDSEED
5
FFFF
0
ENDSEC
0
SECTION
2
TABLES
0
TABLE
2
VPORT
5
8
100
AcDbSymbolTable
0
ENDTAB
0
TABLE
2
LTYPE
5
5
100
AcDbSymbolTable
0
LTYPE
5
14
100
AcDbSymbolTableRecord
100
AcDbLinetypeTableRecord
2
BYBLOCK
70
0
0
LTYPE
5
15
100
AcDbSymbolTableRecord
100
AcDbLinetypeTableRecord
2
BYLAYER
70
0
0
LTYPE
5
16
100
AcDbSymbolTableRecord
100
AcDbLinetypeTableRecord
2
DASHED
70
0
3
Dashed __ __ __ __ __ __ __ __ __ __ __ __ __ _
72
65
73
2
40
0.75
49
0.5
74
0
49
-0.25
74
0
0
ENDTAB
0
TABLE
2
LAYER
5
2
100
AcDbSymbolTable
70
2
0
LAYER
5
50
100
AcDbSymbolTableRecord
100
AcDbLayerTableRecord
2
0
70
0
62
7
6
CONTINUOUS
0
ENDTAB
0
TABLE
2
STYLE
5
3
100
AcDbSymbolTable
70
1
0
STYLE
5
11
100
AcDbSymbolTableRecord
100
AcDbTextStyleTableRecord
2
STANDARD
70
0
0
ENDTAB
0
TABLE
2
VIEW
5
6
100
AcDbSymbolTable
70
0
0
ENDTAB
0
TABLE
2
UCS
5
7
100
AcDbSymbolTable
70
0
0
ENDTAB
0
TABLE
2
APPID
5
9
100
AcDbSymbolTable
70
2
0
APPID
5
12
100
AcDbSymbolTableRecord
100
AcDbRegAppTableRecord
2
ACAD
70
0
0
ENDTAB
0
TABLE
2
DIMSTYLE
5
A
100
AcDbSymbolTable
70
1
0
ENDTAB
0
TABLE
2
BLOCK_RECORD
5
1
100
AcDbSymbolTable
70
1
0
BLOCK_RECORD
5
1F
100
AcDbSymbolTableRecord
100
AcDbBlockTableRecord
2
*MODEL_SPACE
0
BLOCK_RECORD
5
1B
100
AcDbSymbolTableRecord
100
AcDbBlockTableRecord
2
*PAPER_SPACE
0
ENDTAB
0
ENDSEC
0
SECTION
2
BLOCKS
0
BLOCK
5
20
100
AcDbEntity
100
AcDbBlockBegin
2
*MODEL_SPACE
0
ENDBLK
5
21
100
AcDbEntity
100
AcDbBlockEnd
0
BLOCK
5
1C
100
AcDbEntity
100
AcDbBlockBegin
2
*PAPER_SPACE
0
ENDBLK
5
1D
100
AcDbEntity
100
AcDbBlockEnd
0
ENDSEC
0
SECTION
2
ENTITIES
0
LWPOLYLINE
5
100
100
AcDbEntity
8
OUTER_PROFILES
100
AcDbPolyline
90
46
70
1
43
0.0
10
17.525472672926217
20
24.953120438134349
10
14.617294143967392
20
24.953120438134349
10
14.617294143967406
20
18.363395724364089
10
10.856099041019252
20
18.363395724364086
10
10.856099041019242
20
24.953120438134334
10
-24.22735957505796
20
24.95312043813427
10
-24.227359575057935
20
18.363395724364015
10
-27.130528035058706
20
18.363395724364008
10
-27.130528035058727
20
24.95312043813427
10
-30.130528035058724
20
24.953120438134256
10
-30.130528035058703
20
18.363395724364008
10
-57.26794025686538
20
18.363395724363933
10
-57.267940256865344
20
-0.085297351052495696
10
-75.267940525086246
20
-0.085297351052522341
10
-75.267940525086317
20
33.563395724363943
10
-85.267940674097929
20
33.563395724363929
10
-85.267940674097844
20
-8.7836354423387242
10
-85.017940674097829
20
-8.7836354423387224
10
-85.017940674097829
20
-9.2836354423387295
10
-100.26794067409784
20
-9.2836354423387597
10
-100.26794067409784
20
-14.574984033625078
10
-85.017940674097829
20
-14.574984033625046
10
-85.017940674097829
20
-15.074984033625045
10
-85.267940674097844
20
-15.074984033625045
10
-85.267940674097815
20
-31.08529781298855
10
-78.267940569789687
20
-31.085297812988539
10
-78.267940569789673
20
-34.085297857692012
10
-65.427826030440016
20
-34.085297857691984
10
-65.427826030440045
20
-28.973630966143922
10
-53.26794019726065
20
-28.973630966143908
10
-53.26794019726065
20
-34.08529785769197
10
-49.76794019726065
20
-34.08529785769197
10
-49.76794019726065
20
-29.990310079609237
10
4.4408920985006262e-14
20
-29.990310079609142
10
0
20
0
10
51.523564249476223
20
7.1054273576010019e-14
10
51.523564249476195
20
11.914702827761667
10
45.156753524750677
20
11.914702827761642
10
45.15675352475067
20
13.814700512866242
10
50.098220427898674
20
13.814700512866247
10
50.098220427898674
20
18.36339572436415
10
34.458104101659202
20
18.363395724364125
10
34.458104101659188
20
24.953120438134384
10
31.266616222256687
20
24.95312043813437
10
31.266616222256705
20
18.363395724364125
10
17.525472672926231
20
18.363395724364089
0
CIRCLE
5
101
100
AcDbEntity
8
INTERIOR_PROFILES
100
AcDbCircle
10
96.221548299104498
20
-11.844255812755609
30
0
40
1.9999999999999929
210
0
220
0
230
-1
0
CIRCLE
5
102
100
AcDbEntity
8
INTERIOR_PROFILES
100
AcDbCircle
10
82.349894280967703
20
-11.844255812755582
30
0
40
1.9999999999999929
210
0
220
0
230
-1
0
LWPOLYLINE
5
103
100
AcDbEntity
8
INTERIOR_PROFILES
100
AcDbPolyline
90
4
70
1
43
0.0
10
-21.563403513072558
20
17.150840471403811
10
-2.267939437301516
20
17.150840471403846
10
-2.2679394373015107
20
11.91470282776155
10
-21.563403513072554
20
11.914702827761513
0
LWPOLYLINE
5
104
100
AcDbEntity
8
INTERIOR_PROFILES
100
AcDbPolyline
90
4
70
1
43
0.0
10
-78.295098068120424
20
1.9147026787497889
10
-78.29509806812041
20
-9.2836354423387153
10
-82.26794062939436
20
-9.2836354423387242
10
-82.26794062939436
20
1.9147026787497845
0
LINE
5
105
100
AcDbEntity
8
BEND
100
AcDbLine
10
34.458104101659195
20
22.929860924586769
30
4.6024771848540759e-14
11
31.26661622225669
21
22.929860924586766
31
5.4866745514270613e-14
0
LINE
5
106
100
AcDbEntity
8
BEND
100
AcDbLine
10
17.525472672926224
20
22.929860924586734
30
4.6024771848540696e-14
11
14.617294143967399
21
22.92986092458673
31
5.486674551427055e-14
0
LINE
5
107
100
AcDbEntity
8
BEND
100
AcDbLine
10
-27.130528035058713
20
22.929860924586656
30
4.6024771848540752e-14
11
-30.130528035058713
21
22.929860924586652
31
5.4866745514270607e-14
0
LINE
5
108
100
AcDbEntity
8
BEND
100
AcDbLine
10
-75.267940525086317
20
27.554536017039133
30
-4.6324309952427439e-14
11
-85.267940674097929
21
27.554536017039112
31
-4.8876086027218156e-14
0
LINE
5
109
100
AcDbEntity
8
BEND
100
AcDbLine
10
-92.738015228328294
20
-9.2836354423387473
30
-8.3395802013480675e-14
11
-92.738015228328294
21
-14.57498403362507
31
-1.0551896152494464e-13
0
LINE
5
110
100
AcDbEntity
8
BEND
100
AcDbLine
10
-85.267940674097815
20
-27.214105856918831
30
-6.1300308040651081e-15
11
3.5527136788005009e-14
21
-27.214105856918795
31
-6.1300308040650687e-15
0
LINE
5
111
100
AcDbEntity
8
BEND
100
AcDbLine
10
45.72224020239684
20
-6.6613381477509392e-15
30
1.6719348907051389e-15
11
45.722240202396819
21
11.914702827761644
31
-2.7689572077954762e-15
0
LINE
5
112
100
AcDbEntity
8
BEND
100
AcDbLine
10
45.722240202396812
20
13.814700512866246
30
-2.7184343140981938e-15
11
45.722240202396812
21
18.363395724364146
31
8.5049065990025852e-16
0
LINE
5
113
100
AcDbEntity
8
BEND
100
AcDbLine
10
-27.13052803505871
20
18.928882402010181
30
-3.7915745270147967e-15
11
-30.13052803505871
21
18.928882402010178
31
7.3846120929561067e-16
0
LINE
5
114
100
AcDbEntity
8
BEND
100
AcDbLine
10
17.525472672926227
20
18.928882402010267
30
-3.7915745270147919e-15
11
14.617294143967403
21
18.92888240201026
31
7.3846120929561609e-16
0
LINE
5
115
100
AcDbEntity
8
BEND
100
AcDbLine
10
10.856099041019252
20
18.928882402010252
30
7.384612092956156e-16
11
-24.227359575057939
21
18.928882402010188
31
-3.7915745270147983e-15
0
LINE
5
116
100
AcDbEntity
8
BEND
100
AcDbLine
10
34.458104101659202
20
18.928882402010299
30
-3.7915745270147896e-15
11
31.266616222256701
21
18.928882402010291
31
7.3846120929561806e-16
0
LINE
5
117
100
AcDbEntity
8
BEND
100
AcDbLine
10
-85.833427351743978
20
-9.2836354423387295
30
-1.5265566588596009e-15
11
-85.833427351743978
21
-14.574984033625052
31
-3.7470027081099144e-15
0
LINE
5
118
100
AcDbEntity
8
BEND
100
AcDbLine
10
-75.267940525086289
20
20.98018963206745
30
7.3846120929560515e-16
11
-85.267940674097886
21
20.980189632067436
31
-1.5711284777644899e-15
0
LINE
5
119
100
AcDbEntity
8
BEND_EXTENT
100
AcDbLine
10
-93.303501905974542
20
-14.57498403362507
30
-1.1546319456101631e-13
11
-93.303501905974542
21
-9.2836354423387473
31
-9.7699626167013788e-14
0
LINE
5
120
100
AcDbEntity
8
BEND_EXTENT
100
AcDbLine
10
-92.172528550682173
20
-14.57498403362507
30
-7.1054273576010031e-14
11
-92.172528550682173
21
-9.2836354423387473
31
-7.1054273576010031e-14
0
LINE
5
121
100
AcDbEntity
8
BEND_EXTENT
100
AcDbLine
10
-86.39891402939017
20
-14.574984033625061
30
1.7763568394002495e-14
11
-86.39891402939017
21
-9.2836354423387384
31
-9.8607613152626476e-30
0
LINE
5
122
100
AcDbEntity
8
BEND_EXTENT
100
AcDbLine
10
-30.13052803505872
20
23.495347602232815
30
6.8833827526759706e-14
11
-27.130528035058724
21
23.495347602232826
31
5.9952043329758453e-14
0
LINE
5
123
100
AcDbEntity
8
BEND_EXTENT
100
AcDbLine
10
-30.130528035058713
20
22.364374246940489
30
4.4408920985006262e-14
11
-27.130528035058713
21
22.364374246940493
31
4.4408920985006262e-14
0
LINE
5
124
100
AcDbEntity
8
BEND_EXTENT
100
AcDbLine
10
14.617294143967396
20
23.495347602232908
30
6.8833827526759706e-14
11
17.52547267292622
21
23.495347602232908
31
5.9952043329758453e-14
0
LINE
5
125
100
AcDbEntity
8
BEND_EXTENT
100
AcDbLine
10
14.617294143967401
20
22.364374246940571
30
4.4408920985006262e-14
11
17.525472672926227
21
22.364374246940578
31
4.4408920985006262e-14
0
LINE
5
126
100
AcDbEntity
8
BEND_EXTENT
100
AcDbLine
10
31.26661622225669
20
23.495347602232929
30
6.8833827526759718e-14
11
34.458104101659195
21
23.495347602232943
31
5.9952043329758466e-14
0
LINE
5
127
100
AcDbEntity
8
BEND_EXTENT
100
AcDbLine
10
31.266616222256694
20
22.364374246940603
30
4.4408920985006268e-14
11
34.458104101659195
21
22.364374246940606
31
4.4408920985006268e-14
0
LINE
5
128
100
AcDbEntity
8
BEND_EXTENT
100
AcDbLine
10
-85.267940674097929
20
28.120022694685289
30
-5.4400928206632677e-14
11
-75.267940525086317
21
28.120022694685307
31
-5.4400928206632677e-14
0
LINE
5
129
100
AcDbEntity
8
BEND_EXTENT
100
AcDbLine
10
-85.267940674097929
20
26.989049339392956
30
-4.4408920985006268e-14
11
-75.267940525086317
21
26.989049339392967
31
-4.4408920985006268e-14
0
LINE
5
130
100
AcDbEntity
8
BEND_EXTENT
100
AcDbLine
10
4.6351811278100286e-14
20
-27.779592534564941
30
-4.4408920985006262e-15
11
-85.267940674097815
21
-27.779592534564969
31
-8.8817841970012618e-15
0
LINE
5
131
100
AcDbEntity
8
BEND_EXTENT
100
AcDbLine
10
4.9682480351975755e-14
20
-26.648619179272615
30
-2.2204460492503131e-15
11
-85.267940674097815
21
-26.648619179272643
31
-2.2204460492503241e-15
0
LINE
5
132
100
AcDbEntity
8
BEND_EXTENT
100
AcDbLine
10
45.156753524750677
20
11.914702827761642
30
2.2204460492503186e-15
11
45.156753524750684
21
-6.6613381477509392e-15
31
5.6699377562760224e-30
0
LINE
5
133
100
AcDbEntity
8
BEND_EXTENT
100
AcDbLine
10
45.156753524750656
20
18.363395724364146
30
5.600907661334072e-30
11
45.15675352475067
21
13.814700512866242
31
5.6009076613340734e-30
0
LINE
5
134
100
AcDbEntity
8
BEND_EXTENT
100
AcDbLine
10
31.266616222256705
20
18.363395724364125
30
3.8780783974482295e-30
11
34.458104101659202
21
18.363395724364125
31
4.2739268037115979e-30
0
LINE
5
135
100
AcDbEntity
8
BEND_EXTENT
100
AcDbLine
10
14.617294143967406
20
18.363395724364089
30
1.8130203871730341e-30
11
17.525472672926231
21
18.363395724364089
31
2.1737292099285261e-30
0
LINE
5
136
100
AcDbEntity
8
BEND_EXTENT
100
AcDbLine
10
-24.227359575057935
20
18.363395724364015
30
-3.0049813874122308e-30
11
10.856099041019252
21
18.363395724364086
31
1.3465097365274318e-30
0
LINE
5
137
100
AcDbEntity
8
BEND_EXTENT
100
AcDbLine
10
-30.130528035058703
20
18.363395724364008
30
-3.73716647320769e-30
11
-27.130528035058706
21
18.363395724364008
31
-3.3650687984979137e-30
0
LINE
5
138
100
AcDbEntity
8
BEND_EXTENT
100
AcDbLine
10
-85.267940674097886
20
20.414702954421262
30
-1.0576000817374328e-29
11
-75.267940525086289
21
20.41470295442128
31
-9.335675216526115e-30
0
LINE
5
139
100
AcDbEntity
8
BEND_EXTENT
100
AcDbLine
10
-85.267940674097844
20
-14.574984033625052
30
-1.0576000817374323e-29
11
-85.267940674097844
21
-9.2836354423387295
31
-2.2204460492503241e-15
0
LINE
5
140
100
AcDbEntity
8
BEND_EXTENT
100
AcDbLine
10
-85.267940674097929
20
21.545676309713571
30
-1.0576000817374331e-29
11
-75.267940525086317
21
21.545676309713588
31
-9.3356752165261192e-30
0
LINE
5
141
100
AcDbEntity
8
BEND_EXTENT
100
AcDbLine
10
46.287726880042996
20
11.914702827761644
30
-4.4408920985006206e-15
11
46.287726880043003
21
-4.4408920985006262e-15
31
5.4234187233944562e-30
0
LINE
5
142
100
AcDbEntity
8
BEND_EXTENT
100
AcDbLine
10
46.287726880042975
20
18.36339572436415
30
4.4408920985006325e-15
11
46.287726880042975
21
13.814700512866246
31
5.9164567891575885e-30
0
LINE
5
143
100
AcDbEntity
8
BEND_EXTENT
100
AcDbLine
10
-30.130528035058713
20
19.494369079656344
30
8.8817841970012492e-15
11
-27.130528035058713
21
19.494369079656352
31
8.8817841970012492e-15
0
LINE
5
144
100
AcDbEntity
8
BEND_EXTENT
100
AcDbLine
10
-24.227359575057946
20
19.494369079656359
30
8.8817841970012492e-15
11
10.856099041019252
21
19.494369079656423
31
8.8817841970012539e-15
0
LINE
5
145
100
AcDbEntity
8
BEND_EXTENT
100
AcDbLine
10
14.617294143967403
20
19.49436907965643
30
8.8817841970012539e-15
11
17.525472672926227
21
19.494369079656437
31
8.8817841970012539e-15
0
LINE
5
146
100
AcDbEntity
8
BEND_EXTENT
100
AcDbLine
10
31.266616222256694
20
19.494369079656462
30
8.8817841970012555e-15
11
34.458104101659195
21
19.494369079656465
31
8.8817841970012555e-15
0
ENDSEC
0
SECTION
2
OBJECTS
0
DICTIONARY
5
C
100
AcDbDictionary
3
ACAD_GROUP
350
D
3
ACAD_MLINESTYLE
350
17
0
DICTIONARY
5
D
100
AcDbDictionary
0
DICTIONARY
5
1A
330
C
100
AcDbDictionary
0
DICTIONARY
5
17
100
AcDbDictionary
0
ENDSEC
0
EOF
