<?xml version="1.0" encoding="UTF-8" standalone="no"?>
<!DOCTYPE svg PUBLIC "-//W3C//DTD SVG 1.1//EN"
 "http://www.w3.org/Graphics/SVG/1.1/DTD/svg11.dtd">
<!-- Generated by graphviz version 13.1.2 (20250808.2320)
 -->
<!-- Title: window_open Pages: 1 -->
<svg width="1042pt" height="180pt"
 viewBox="0.00 0.00 1042.00 180.00" xmlns="http://www.w3.org/2000/svg" xmlns:xlink="http://www.w3.org/1999/xlink">
<g id="graph0" class="graph" transform="scale(1 1) rotate(0) translate(4 176)">
<title>window_open</title>
<!-- Node1 -->
<g id="Node000001" class="node">
<title>Node1</title>
<g id="a_Node000001"><a xlink:title="Activate selection window and enable LED feedback.">
<polygon fill="#999999" stroke="#666666" points="75.25,-115 0,-115 0,-95 75.25,-95 75.25,-115"/>
<text xml:space="preserve" text-anchor="middle" x="37.62" y="-101.5" font-family="Helvetica,sans-Serif" font-size="10.00">window_open</text>
</a>
</g>
</g>
<!-- Node2 -->
<g id="Node000002" class="node">
<title>Node2</title>
<g id="a_Node000002"><a xlink:href="group__driver01.html#gabe577d3f3ce0d1daffbfc739aaaba34a" target="_top" xlink:title="Control visibility of a single channel selection LED.">
<polygon fill="white" stroke="#666666" points="245.38,-134 127.38,-134 127.38,-114 245.38,-114 245.38,-134"/>
<text xml:space="preserve" text-anchor="middle" x="186.38" y="-120.5" font-family="Helvetica,sans-Serif" font-size="10.00">ButtonDrv_SelectShow</text>
</a>
</g>
</g>
<!-- Node1&#45;&gt;Node2 -->
<g id="edge1_Node000001_Node000002" class="edge">
<title>Node1&#45;&gt;Node2</title>
<g id="a_edge1_Node000001_Node000002"><a xlink:title=" ">
<path fill="none" stroke="#63b8ff" d="M75.66,-109.79C87.92,-111.38 101.99,-113.2 115.88,-115"/>
<polygon fill="#63b8ff" stroke="#63b8ff" points="115.07,-118.43 125.43,-116.24 115.97,-111.48 115.07,-118.43"/>
</a>
</g>
</g>
<!-- Node16 -->
<g id="Node000016" class="node">
<title>Node16</title>
<g id="a_Node000016"><a xlink:href="group__tasks11.html#gab96571983d5766b065d2f4452bd023f1" target="_top" xlink:title="Enable/disable front&#45;panel (manual) selection updates.">
<polygon fill="white" stroke="#666666" points="261.5,-96 111.25,-96 111.25,-76 261.5,-76 261.5,-96"/>
<text xml:space="preserve" text-anchor="middle" x="186.38" y="-82.5" font-family="Helvetica,sans-Serif" font-size="10.00">Switch_SetManualPanelActive</text>
</a>
</g>
</g>
<!-- Node1&#45;&gt;Node16 -->
<g id="edge17_Node000001_Node000016" class="edge">
<title>Node1&#45;&gt;Node16</title>
<g id="a_edge17_Node000001_Node000016"><a xlink:title=" ">
<path fill="none" stroke="#63b8ff" d="M75.66,-100.21C83.07,-99.25 91.15,-98.2 99.44,-97.13"/>
<polygon fill="#63b8ff" stroke="#63b8ff" points="99.88,-100.6 109.35,-95.84 98.98,-93.66 99.88,-100.6"/>
</a>
</g>
</g>
<!-- Node3 -->
<g id="Node000003" class="node">
<title>Node3</title>
<g id="a_Node000003"><a xlink:href="group__tasks10.html#ga78c530f9c7ec4d2330e6d1a092df6dc0" target="_top" xlink:title="Enqueue an error code for deferred EEPROM logging (non&#45;blocking).">
<polygon fill="white" stroke="#666666" points="435,-172 297.5,-172 297.5,-152 435,-152 435,-172"/>
<text xml:space="preserve" text-anchor="middle" x="366.25" y="-158.5" font-family="Helvetica,sans-Serif" font-size="10.00">Storage_EnqueueErrorCode</text>
</a>
</g>
</g>
<!-- Node2&#45;&gt;Node3 -->
<g id="edge2_Node000002_Node000003" class="edge">
<title>Node2&#45;&gt;Node3</title>
<g id="a_edge2_Node000002_Node000003"><a xlink:title=" ">
<path fill="none" stroke="#63b8ff" d="M236.45,-134.48C257.74,-139.03 282.87,-144.4 305.26,-149.18"/>
<polygon fill="#63b8ff" stroke="#63b8ff" points="304.34,-152.57 314.85,-151.23 305.81,-145.72 304.34,-152.57"/>
</a>
</g>
</g>
<!-- Node4 -->
<g id="Node000004" class="node">
<title>Node4</title>
<g id="a_Node000004"><a xlink:href="group__tasks11.html#gaadad543913d4fa9faefda9082b0b7c91" target="_top" xlink:title="Check if SwitchTask is ready for operations.">
<polygon fill="white" stroke="#666666" points="410.25,-134 322.25,-134 322.25,-114 410.25,-114 410.25,-134"/>
<text xml:space="preserve" text-anchor="middle" x="366.25" y="-120.5" font-family="Helvetica,sans-Serif" font-size="10.00">Switch_IsReady</text>
</a>
</g>
</g>
<!-- Node2&#45;&gt;Node4 -->
<g id="edge3_Node000002_Node000004" class="edge">
<title>Node2&#45;&gt;Node4</title>
<g id="a_edge3_Node000002_Node000004"><a xlink:title=" ">
<path fill="none" stroke="#63b8ff" d="M245.62,-124C266.47,-124 289.88,-124 310.43,-124"/>
<polygon fill="#63b8ff" stroke="#63b8ff" points="310.32,-127.5 320.32,-124 310.32,-120.5 310.32,-127.5"/>
</a>
</g>
</g>
<!-- Node5 -->
<g id="Node000005" class="node">
<title>Node5</title>
<g id="a_Node000005"><a xlink:href="group__tasks11.html#ga350ee69c82fbab2a27ec7bb3a723806f" target="_top" xlink:title="Show (or hide) the selection LED for a given index.">
<polygon fill="white" stroke="#666666" points="418.12,-96 314.38,-96 314.38,-76 418.12,-76 418.12,-96"/>
<text xml:space="preserve" text-anchor="middle" x="366.25" y="-82.5" font-family="Helvetica,sans-Serif" font-size="10.00">Switch_SelectShow</text>
</a>
</g>
</g>
<!-- Node2&#45;&gt;Node5 -->
<g id="edge4_Node000002_Node000005" class="edge">
<title>Node2&#45;&gt;Node5</title>
<g id="a_edge4_Node000002_Node000005"><a xlink:title=" ">
<path fill="none" stroke="#63b8ff" d="M236.45,-113.52C257.74,-108.97 282.87,-103.6 305.26,-98.82"/>
<polygon fill="#63b8ff" stroke="#63b8ff" points="305.81,-102.28 314.85,-96.77 304.34,-95.43 305.81,-102.28"/>
</a>
</g>
</g>
<!-- Node6 -->
<g id="Node000006" class="node">
<title>Node6</title>
<g id="a_Node000006"><a xlink:href="_switch_task_8c.html#a2a7f01bd659f5eea0a4a131d8c57c207" target="_top" xlink:title=" ">
<polygon fill="white" stroke="#666666" points="533.12,-172 499.12,-172 499.12,-152 533.12,-152 533.12,-172"/>
<text xml:space="preserve" text-anchor="middle" x="516.12" y="-158.5" font-family="Helvetica,sans-Serif" font-size="10.00">lock</text>
</a>
</g>
</g>
<!-- Node5&#45;&gt;Node6 -->
<g id="edge5_Node000005_Node000006" class="edge">
<title>Node5&#45;&gt;Node6</title>
<g id="a_edge5_Node000005_Node000006"><a xlink:title=" ">
<path fill="none" stroke="#63b8ff" d="M416.68,-96.45C423.07,-98.78 429.35,-101.59 435,-105 454.92,-117.02 451.92,-129.68 471,-143 476.3,-146.7 482.43,-149.9 488.41,-152.57"/>
<polygon fill="#63b8ff" stroke="#63b8ff" points="486.81,-155.69 497.39,-156.21 489.44,-149.21 486.81,-155.69"/>
</a>
</g>
</g>
<!-- Node7 -->
<g id="Node000007" class="node">
<title>Node7</title>
<g id="a_Node000007"><a xlink:href="group__drivers06.html#gae6acbfdd05b6bdd8877262ce03f77eeb" target="_top" xlink:title="Get selection MCP23017 device context.">
<polygon fill="white" stroke="#666666" points="555.62,-134 476.62,-134 476.62,-114 555.62,-114 555.62,-134"/>
<text xml:space="preserve" text-anchor="middle" x="516.12" y="-120.5" font-family="Helvetica,sans-Serif" font-size="10.00">mcp_selection</text>
</a>
</g>
</g>
<!-- Node5&#45;&gt;Node7 -->
<g id="edge6_Node000005_Node000007" class="edge">
<title>Node5&#45;&gt;Node7</title>
<g id="a_edge6_Node000005_Node000007"><a xlink:title=" ">
<path fill="none" stroke="#63b8ff" d="M408.05,-96.48C425.76,-101.04 446.67,-106.41 465.29,-111.19"/>
<polygon fill="#63b8ff" stroke="#63b8ff" points="464.22,-114.53 474.78,-113.63 465.96,-107.75 464.22,-114.53"/>
</a>
</g>
</g>
<!-- Node8 -->
<g id="Node000008" class="node">
<title>Node8</title>
<g id="a_Node000008"><a xlink:href="group__drivers06.html#ga0dfecc1e56ba649b3a89936c6206c9e2" target="_top" xlink:title="Atomic masked write to a port.">
<polygon fill="white" stroke="#666666" points="561.25,-58 471,-58 471,-38 561.25,-38 561.25,-58"/>
<text xml:space="preserve" text-anchor="middle" x="516.12" y="-44.5" font-family="Helvetica,sans-Serif" font-size="10.00">mcp_write_mask</text>
</a>
</g>
</g>
<!-- Node5&#45;&gt;Node8 -->
<g id="edge7_Node000005_Node000008" class="edge">
<title>Node5&#45;&gt;Node8</title>
<g id="a_edge7_Node000005_Node000008"><a xlink:title=" ">
<path fill="none" stroke="#63b8ff" d="M408.05,-75.52C425.18,-71.11 445.31,-65.94 463.46,-61.28"/>
<polygon fill="#63b8ff" stroke="#63b8ff" points="464.18,-64.71 472.99,-58.83 462.44,-57.93 464.18,-64.71"/>
</a>
</g>
</g>
<!-- Node14 -->
<g id="Node000014" class="node">
<title>Node14</title>
<g id="a_Node000014"><a xlink:href="group__drivers06.html#ga8b8bc528b75e419262e7663ee669dc31" target="_top" xlink:title="Write a logic level to a pin.">
<polygon fill="white" stroke="#666666" points="555.62,-96 476.62,-96 476.62,-76 555.62,-76 555.62,-96"/>
<text xml:space="preserve" text-anchor="middle" x="516.12" y="-82.5" font-family="Helvetica,sans-Serif" font-size="10.00">mcp_write_pin</text>
</a>
</g>
</g>
<!-- Node5&#45;&gt;Node14 -->
<g id="edge13_Node000005_Node000014" class="edge">
<title>Node5&#45;&gt;Node14</title>
<g id="a_edge13_Node000005_Node000014"><a xlink:title=" ">
<path fill="none" stroke="#63b8ff" d="M418.55,-86C433.71,-86 450.27,-86 465.33,-86"/>
<polygon fill="#63b8ff" stroke="#63b8ff" points="464.99,-89.5 474.99,-86 464.99,-82.5 464.99,-89.5"/>
</a>
</g>
</g>
<!-- Node15 -->
<g id="Node000015" class="node">
<title>Node15</title>
<g id="a_Node000015"><a xlink:href="_switch_task_8c.html#abb7cc7eb4e959fda6a43c8dd85f20090" target="_top" xlink:title=" ">
<polygon fill="white" stroke="#666666" points="538.38,-20 493.88,-20 493.88,0 538.38,0 538.38,-20"/>
<text xml:space="preserve" text-anchor="middle" x="516.12" y="-6.5" font-family="Helvetica,sans-Serif" font-size="10.00">unlock</text>
</a>
</g>
</g>
<!-- Node5&#45;&gt;Node15 -->
<g id="edge16_Node000005_Node000015" class="edge">
<title>Node5&#45;&gt;Node15</title>
<g id="a_edge16_Node000005_Node000015"><a xlink:title=" ">
<path fill="none" stroke="#63b8ff" d="M384.97,-75.59C405.41,-63.73 440.16,-44.07 471,-29 474.82,-27.13 478.87,-25.26 482.91,-23.45"/>
<polygon fill="#63b8ff" stroke="#63b8ff" points="484.24,-26.68 492,-19.47 481.44,-20.27 484.24,-26.68"/>
</a>
</g>
</g>
<!-- Node9 -->
<g id="Node000009" class="node">
<title>Node9</title>
<g id="a_Node000009"><a xlink:href="group__drivers05.html#gab7b4aa096ded6cebd93256e5b5994e42" target="_top" xlink:title="Write 8&#45;bit register with 8&#45;bit value: [reg, value].">
<polygon fill="white" stroke="#666666" points="705.88,-96 605.88,-96 605.88,-76 705.88,-76 705.88,-96"/>
<text xml:space="preserve" text-anchor="middle" x="655.88" y="-82.5" font-family="Helvetica,sans-Serif" font-size="10.00">i2c_bus_write_reg8</text>
</a>
</g>
</g>
<!-- Node8&#45;&gt;Node9 -->
<g id="edge8_Node000008_Node000009" class="edge">
<title>Node8&#45;&gt;Node9</title>
<g id="a_edge8_Node000008_Node000009"><a xlink:title=" ">
<path fill="none" stroke="#63b8ff" d="M555.13,-58.48C570.94,-62.85 589.48,-67.96 606.27,-72.59"/>
<polygon fill="#63b8ff" stroke="#63b8ff" points="604.96,-75.86 615.53,-75.15 606.83,-69.11 604.96,-75.86"/>
</a>
</g>
</g>
<!-- Node13 -->
<g id="Node000013" class="node">
<title>Node13</title>
<g id="a_Node000013"><a xlink:href="_m_c_p23017__driver_8c.html#a0ff45ad384852ba5f69f0fd781c2f46a" target="_top" xlink:title=" ">
<polygon fill="white" stroke="#666666" points="714.5,-58 597.25,-58 597.25,-38 714.5,-38 714.5,-58"/>
<text xml:space="preserve" text-anchor="middle" x="655.88" y="-44.5" font-family="Helvetica,sans-Serif" font-size="10.00">mcp_diag_display_ping</text>
</a>
</g>
</g>
<!-- Node8&#45;&gt;Node13 -->
<g id="edge12_Node000008_Node000013" class="edge">
<title>Node8&#45;&gt;Node13</title>
<g id="a_edge12_Node000008_Node000013"><a xlink:title=" ">
<path fill="none" stroke="#63b8ff" d="M561.47,-48C569.25,-48 577.52,-48 585.79,-48"/>
<polygon fill="#63b8ff" stroke="#63b8ff" points="585.52,-51.5 595.52,-48 585.52,-44.5 585.52,-51.5"/>
</a>
</g>
</g>
<!-- Node10 -->
<g id="Node000010" class="node">
<title>Node10</title>
<g id="a_Node000010"><a xlink:href="i2c__bus_8c.html#a1ebc752812bef8ea35845f0b4eb80217" target="_top" xlink:title=" ">
<polygon fill="white" stroke="#666666" points="860.62,-115 769.62,-115 769.62,-95 860.62,-95 860.62,-115"/>
<text xml:space="preserve" text-anchor="middle" x="815.12" y="-101.5" font-family="Helvetica,sans-Serif" font-size="10.00">i2c_bus_diag_log</text>
</a>
</g>
</g>
<!-- Node9&#45;&gt;Node10 -->
<g id="edge9_Node000009_Node000010" class="edge">
<title>Node9&#45;&gt;Node10</title>
<g id="a_edge9_Node000009_Node000010"><a xlink:title=" ">
<path fill="none" stroke="#63b8ff" d="M706.2,-91.96C722.59,-93.94 740.97,-96.16 757.85,-98.2"/>
<polygon fill="#63b8ff" stroke="#63b8ff" points="757.4,-101.67 767.74,-99.4 758.24,-94.72 757.4,-101.67"/>
</a>
</g>
</g>
<!-- Node11 -->
<g id="Node000011" class="node">
<title>Node11</title>
<g id="a_Node000011"><a xlink:href="group__drivers05.html#ga170d6c4ff97ddc2d314f0a7a0054f283" target="_top" xlink:title="Queue a write on the specified I2C controller and wait synchronously. Mirrors Pico SDK i2c_write_time...">
<polygon fill="white" stroke="#666666" points="879.75,-77 750.5,-77 750.5,-57 879.75,-57 879.75,-77"/>
<text xml:space="preserve" text-anchor="middle" x="815.12" y="-63.5" font-family="Helvetica,sans-Serif" font-size="10.00">i2c_bus_write_timeout_us</text>
</a>
</g>
</g>
<!-- Node9&#45;&gt;Node11 -->
<g id="edge10_Node000009_Node000011" class="edge">
<title>Node9&#45;&gt;Node11</title>
<g id="a_edge10_Node000009_Node000011"><a xlink:title=" ">
<path fill="none" stroke="#63b8ff" d="M706.2,-80.04C716.67,-78.78 727.95,-77.41 739.13,-76.06"/>
<polygon fill="#63b8ff" stroke="#63b8ff" points="739.24,-79.57 748.74,-74.9 738.4,-72.62 739.24,-79.57"/>
</a>
</g>
</g>
<!-- Node12 -->
<g id="Node000012" class="node">
<title>Node12</title>
<g id="a_Node000012"><a xlink:href="i2c__bus_8c.html#afbaa64f79bdd1fa39c8fa5b7a9c2717b" target="_top" xlink:title=" ">
<polygon fill="white" stroke="#666666" points="1033.75,-77 915.75,-77 915.75,-57 1033.75,-57 1033.75,-77"/>
<text xml:space="preserve" text-anchor="middle" x="974.75" y="-63.5" font-family="Helvetica,sans-Serif" font-size="10.00">i2c_bus_submit_simple</text>
</a>
</g>
</g>
<!-- Node11&#45;&gt;Node12 -->
<g id="edge11_Node000011_Node000012" class="edge">
<title>Node11&#45;&gt;Node12</title>
<g id="a_edge11_Node000011_Node000012"><a xlink:title=" ">
<path fill="none" stroke="#63b8ff" d="M880.24,-67C888.03,-67 896.01,-67 903.88,-67"/>
<polygon fill="#63b8ff" stroke="#63b8ff" points="903.77,-70.5 913.77,-67 903.77,-63.5 903.77,-70.5"/>
</a>
</g>
</g>
<!-- Node14&#45;&gt;Node9 -->
<g id="edge14_Node000014_Node000009" class="edge">
<title>Node14&#45;&gt;Node9</title>
<g id="a_edge14_Node000014_Node000009"><a xlink:title=" ">
<path fill="none" stroke="#63b8ff" d="M555.86,-86C567.8,-86 581.25,-86 594.29,-86"/>
<polygon fill="#63b8ff" stroke="#63b8ff" points="594.09,-89.5 604.09,-86 594.09,-82.5 594.09,-89.5"/>
</a>
</g>
</g>
<!-- Node14&#45;&gt;Node13 -->
<g id="edge15_Node000014_Node000013" class="edge">
<title>Node14&#45;&gt;Node13</title>
<g id="a_edge15_Node000014_Node000013"><a xlink:title=" ">
<path fill="none" stroke="#63b8ff" d="M555.13,-75.52C570.94,-71.15 589.48,-66.04 606.27,-61.41"/>
<polygon fill="#63b8ff" stroke="#63b8ff" points="606.83,-64.89 615.53,-58.85 604.96,-58.14 606.83,-64.89"/>
</a>
</g>
</g>
</g>
</svg>
