<?xml version="1.0" encoding="UTF-8" standalone="no"?>
<!DOCTYPE svg PUBLIC "-//W3C//DTD SVG 1.1//EN"
 "http://www.w3.org/Graphics/SVG/1.1/DTD/svg11.dtd">
<!-- Generated by graphviz version 13.1.2 (20250808.2320)
 -->
<!-- Title: storage_erase_step Pages: 1 -->
<!--zoomable 123 -->

<svg id="main" version="1.1" xmlns="http://www.w3.org/2000/svg" xmlns:xlink="http://www.w3.org/1999/xlink" xml:space="preserve" onload="init(evt)">

<style type="text/css"><![CDATA[
.node, .edge {opacity: 0.7;}
.node.selected, .edge.selected {opacity: 1;}
.edge:hover path { stroke: red; }
.edge:hover polygon { stroke: red; fill: red; }
]]></style>

<defs>
  <circle id="rim" cx="0" cy="0" r="7"/>
  <circle id="rim2" cx="0" cy="0" r="3.5"/>
  <g id="zoomPlus">
    <use xlink:href="#rim" fill="#404040"><set attributeName="fill" to="#808080" begin="zoomplus.mouseover" end="zoomplus.mouseout"/></use>
    <path d="M-4,0h8M0,-4v8" fill="none" stroke="white" stroke-width="1.5" pointer-events="none"/>
  </g>
  <g id="zoomMin">
    <use xlink:href="#rim" fill="#404040"><set attributeName="fill" to="#808080" begin="zoomminus.mouseover" end="zoomminus.mouseout"/></use>
    <path d="M-4,0h8" fill="none" stroke="white" stroke-width="1.5" pointer-events="none"/>
  </g>
  <g id="arrowUp" transform="translate(30 24)">
    <use xlink:href="#rim"/>
    <path pointer-events="none" fill="none" stroke="white" stroke-width="1.5" d="M0,-3.0v7 M-2.5,-0.5L0,-3.0L2.5,-0.5"/>
  </g>
  <g id="arrowRight" transform="rotate(90) translate(36 -43)">
    <use xlink:href="#rim"/>
    <path pointer-events="none" fill="none" stroke="white" stroke-width="1.5" d="M0,-3.0v7 M-2.5,-0.5L0,-3.0L2.5,-0.5"/>
  </g>
  <g id="arrowDown" transform="rotate(180) translate(-30 -48)">
    <use xlink:href="#rim"/>
    <path pointer-events="none" fill="none" stroke="white" stroke-width="1.5" d="M0,-3.0v7 M-2.5,-0.5L0,-3.0L2.5,-0.5"/>
  </g>
  <g id="arrowLeft" transform="rotate(270) translate(-36 17)">
    <use xlink:href="#rim"/>
    <path pointer-events="none" fill="none" stroke="white" stroke-width="1.5" d="M0,-3.0v7 M-2.5,-0.5L0,-3.0L2.5,-0.5"/>
  </g>
  <g id="resetDef">
    <use xlink:href="#rim2" fill="#404040"><set attributeName="fill" to="#808080" begin="reset.mouseover" end="reset.mouseout"/></use>
  </g>
</defs>
<script type="application/ecmascript">
var viewWidth = 761;
var viewHeight = 123;
var sectionId = 'dynsection-15';
</script>
<script type="application/ecmascript" xlink:href="svg.min.js"/>
<svg id="graph" class="graph">
<g id="viewport">
<title>storage_erase_step</title>
<!-- Node1 -->
<g id="Node000001" class="node">
<title>Node1</title>
<g id="a_Node000001"><a xlink:title=" ">
<polygon fill="#999999" stroke="#666666" points="101.5,-58 0,-58 0,-38 101.5,-38 101.5,-58"/>
<text xml:space="preserve" text-anchor="middle" x="50.75" y="-44.5" font-family="Helvetica,sans-Serif" font-size="10.00">storage_erase_step</text>
</a>
</g>
</g>
<!-- Node2 -->
<g id="Node000002" class="node">
<title>Node2</title>
<g id="a_Node000002"><a xlink:href="group__driver02.html#ga8088b9a17773cb65bb6b5d89d3598125" target="_top" xlink:title="Write buffer to EEPROM with automatic page boundary handling.">
<polygon fill="white" stroke="#666666" points="260,-58 137.5,-58 137.5,-38 260,-38 260,-58"/>
<text xml:space="preserve" text-anchor="middle" x="198.75" y="-44.5" font-family="Helvetica,sans-Serif" font-size="10.00">CAT24C256_WriteBuffer</text>
</a>
</g>
</g>
<!-- Node1&#45;&gt;Node2 -->
<g id="edge1_Node000001_Node000002" class="edge">
<title>Node1&#45;&gt;Node2</title>
<g id="a_edge1_Node000001_Node000002"><a xlink:title=" ">
<path fill="none" stroke="#63b8ff" d="M101.99,-48C109.68,-48 117.73,-48 125.77,-48"/>
<polygon fill="#63b8ff" stroke="#63b8ff" points="125.57,-51.5 135.57,-48 125.57,-44.5 125.57,-51.5"/>
</a>
</g>
</g>
<!-- Node3 -->
<g id="Node000003" class="node">
<title>Node3</title>
<g id="a_Node000003"><a xlink:href="group__drivers05.html#ga77ca38d627119d534873e177c5f4a667" target="_top" xlink:title="Write to 16&#45;bit memory address: [mem_hi, mem_lo, data...].">
<polygon fill="white" stroke="#666666" points="421.5,-96 308,-96 308,-76 421.5,-76 421.5,-96"/>
<text xml:space="preserve" text-anchor="middle" x="364.75" y="-82.5" font-family="Helvetica,sans-Serif" font-size="10.00">i2c_bus_write_mem16</text>
</a>
</g>
</g>
<!-- Node2&#45;&gt;Node3 -->
<g id="edge2_Node000002_Node000003" class="edge">
<title>Node2&#45;&gt;Node3</title>
<g id="a_edge2_Node000002_Node000003"><a xlink:title=" ">
<path fill="none" stroke="#63b8ff" d="M245,-58.48C264.36,-62.97 287.16,-68.25 307.59,-72.99"/>
<polygon fill="#63b8ff" stroke="#63b8ff" points="306.64,-76.36 317.18,-75.21 308.22,-69.54 306.64,-76.36"/>
</a>
</g>
</g>
<!-- Node7 -->
<g id="Node000007" class="node">
<title>Node7</title>
<g id="a_Node000007"><a xlink:href="group__tasks10.html#ga78c530f9c7ec4d2330e6d1a092df6dc0" target="_top" xlink:title="Enqueue an error code for deferred EEPROM logging (non&#45;blocking).">
<polygon fill="white" stroke="#666666" points="433.5,-58 296,-58 296,-38 433.5,-38 433.5,-58"/>
<text xml:space="preserve" text-anchor="middle" x="364.75" y="-44.5" font-family="Helvetica,sans-Serif" font-size="10.00">Storage_EnqueueErrorCode</text>
</a>
</g>
</g>
<!-- Node2&#45;&gt;Node7 -->
<g id="edge6_Node000002_Node000007" class="edge">
<title>Node2&#45;&gt;Node7</title>
<g id="a_edge6_Node000002_Node000007"><a xlink:title=" ">
<path fill="none" stroke="#63b8ff" d="M260.35,-48C268.17,-48 276.26,-48 284.32,-48"/>
<polygon fill="#63b8ff" stroke="#63b8ff" points="284.15,-51.5 294.15,-48 284.15,-44.5 284.15,-51.5"/>
</a>
</g>
</g>
<!-- Node8 -->
<g id="Node000008" class="node">
<title>Node8</title>
<g id="a_Node000008"><a xlink:href="_c_a_t24_c256__driver_8c.html#aeba5f43a83c24289211b7d919c260978" target="_top" xlink:title="RTOS&#45;compatible write cycle delay.">
<polygon fill="white" stroke="#666666" points="411.75,-20 317.75,-20 317.75,0 411.75,0 411.75,-20"/>
<text xml:space="preserve" text-anchor="middle" x="364.75" y="-6.5" font-family="Helvetica,sans-Serif" font-size="10.00">write_cycle_delay</text>
</a>
</g>
</g>
<!-- Node2&#45;&gt;Node8 -->
<g id="edge7_Node000002_Node000008" class="edge">
<title>Node2&#45;&gt;Node8</title>
<g id="a_edge7_Node000002_Node000008"><a xlink:title=" ">
<path fill="none" stroke="#63b8ff" d="M245,-37.52C264.36,-33.03 287.16,-27.75 307.59,-23.01"/>
<polygon fill="#63b8ff" stroke="#63b8ff" points="308.22,-26.46 317.18,-20.79 306.64,-19.64 308.22,-26.46"/>
</a>
</g>
</g>
<!-- Node4 -->
<g id="Node000004" class="node">
<title>Node4</title>
<g id="a_Node000004"><a xlink:href="i2c__bus_8c.html#a1ebc752812bef8ea35845f0b4eb80217" target="_top" xlink:title=" ">
<polygon fill="white" stroke="#666666" points="579.62,-115 488.62,-115 488.62,-95 579.62,-95 579.62,-115"/>
<text xml:space="preserve" text-anchor="middle" x="534.12" y="-101.5" font-family="Helvetica,sans-Serif" font-size="10.00">i2c_bus_diag_log</text>
</a>
</g>
</g>
<!-- Node3&#45;&gt;Node4 -->
<g id="edge3_Node000003_Node000004" class="edge">
<title>Node3&#45;&gt;Node4</title>
<g id="a_edge3_Node000003_Node000004"><a xlink:title=" ">
<path fill="none" stroke="#63b8ff" d="M421.95,-92.38C439.63,-94.39 459.16,-96.6 476.85,-98.61"/>
<polygon fill="#63b8ff" stroke="#63b8ff" points="476.34,-102.08 486.67,-99.73 477.13,-95.12 476.34,-102.08"/>
</a>
</g>
</g>
<!-- Node5 -->
<g id="Node000005" class="node">
<title>Node5</title>
<g id="a_Node000005"><a xlink:href="group__drivers05.html#ga170d6c4ff97ddc2d314f0a7a0054f283" target="_top" xlink:title="Queue a write on the specified I2C controller and wait synchronously. Mirrors Pico SDK i2c_write_time...">
<polygon fill="white" stroke="#666666" points="598.75,-77 469.5,-77 469.5,-57 598.75,-57 598.75,-77"/>
<text xml:space="preserve" text-anchor="middle" x="534.12" y="-63.5" font-family="Helvetica,sans-Serif" font-size="10.00">i2c_bus_write_timeout_us</text>
</a>
</g>
</g>
<!-- Node3&#45;&gt;Node5 -->
<g id="edge4_Node000003_Node000005" class="edge">
<title>Node3&#45;&gt;Node5</title>
<g id="a_edge4_Node000003_Node000005"><a xlink:title=" ">
<path fill="none" stroke="#63b8ff" d="M421.95,-79.62C433.58,-78.3 446.01,-76.89 458.19,-75.51"/>
<polygon fill="#63b8ff" stroke="#63b8ff" points="458.24,-79.02 467.78,-74.42 457.45,-72.07 458.24,-79.02"/>
</a>
</g>
</g>
<!-- Node6 -->
<g id="Node000006" class="node">
<title>Node6</title>
<g id="a_Node000006"><a xlink:href="i2c__bus_8c.html#afbaa64f79bdd1fa39c8fa5b7a9c2717b" target="_top" xlink:title=" ">
<polygon fill="white" stroke="#666666" points="752.75,-77 634.75,-77 634.75,-57 752.75,-57 752.75,-77"/>
<text xml:space="preserve" text-anchor="middle" x="693.75" y="-63.5" font-family="Helvetica,sans-Serif" font-size="10.00">i2c_bus_submit_simple</text>
</a>
</g>
</g>
<!-- Node5&#45;&gt;Node6 -->
<g id="edge5_Node000005_Node000006" class="edge">
<title>Node5&#45;&gt;Node6</title>
<g id="a_edge5_Node000005_Node000006"><a xlink:title=" ">
<path fill="none" stroke="#63b8ff" d="M599.24,-67C607.03,-67 615.01,-67 622.88,-67"/>
<polygon fill="#63b8ff" stroke="#63b8ff" points="622.77,-70.5 632.77,-67 622.77,-63.5 622.77,-70.5"/>
</a>
</g>
</g>
</g>
</svg>

<g id="navigator" transform="translate(0 0)" fill="#404254">
  <rect fill="#f2f5e9" fill-opacity="0.5" stroke="#606060" stroke-width=".5" x="0" y="0" width="60" height="60"/>
  <use id="zoomplus" xlink:href="#zoomPlus" x="17" y="9" onmousedown="handleZoom(evt,'in')"/>
  <use id="zoomminus" xlink:href="#zoomMin" x="42" y="9" onmousedown="handleZoom(evt,'out')"/>
  <use id="reset" xlink:href="#resetDef" x="30" y="36" onmousedown="handleReset()"/>
   <use id="arrowup" xlink:href="#arrowUp" x="0" y="0" onmousedown="handlePan(0,-1)"/>
  <use id="arrowright" xlink:href="#arrowRight" x="0" y="0" onmousedown="handlePan(1,0)"/>
  <use id="arrowdown" xlink:href="#arrowDown" x="0" y="0" onmousedown="handlePan(0,1)"/>
  <use id="arrowleft" xlink:href="#arrowLeft" x="0" y="0" onmousedown="handlePan(-1,0)"/>
</g>
<svg viewBox="0 0 15 15" width="100%" height="30px" preserveAspectRatio="xMaxYMin meet">
 <g id="arrow_out" transform="scale(0.3 0.3)">
  <a xlink:href="_storage_task_8c_ae851beece865afaface1694a5b6e75e6_cgraph_org.svg" target="_base">
   <rect id="button" ry="5" rx="5" y="6" x="6" height="38" width="38"
        fill="#f2f5e9" fill-opacity="0.5" stroke="#606060" stroke-width="1.0"/>
   <path id="arrow"
     d="M 11.500037,31.436501 C 11.940474,20.09759 22.043105,11.32322 32.158766,21.979434 L 37.068811,17.246167 C 37.068811,17.246167 37.088388,32 37.088388,32 L 22.160133,31.978069 C 22.160133,31.978069 26.997745,27.140456 26.997745,27.140456 C 18.528582,18.264221 13.291696,25.230495 11.500037,31.436501 z"
     style="fill:#404040;"/>
  </a>
 </g>
</svg>

<style type='text/css'>
<![CDATA[
[data-mouse-over-selected='false'] { opacity: 0.7; }
[data-mouse-over-selected='true']  { opacity: 1.0; }
]]>
</style>
<script type="application/ecmascript"><![CDATA[
document.addEventListener('DOMContentLoaded', (event) => {
  highlightEdges();
  highlightAdjacentNodes();
});
]]></script>
</svg>
