<?xml version="1.0" encoding="UTF-8" standalone="no"?>
<!DOCTYPE svg PUBLIC "-//W3C//DTD SVG 1.1//EN"
 "http://www.w3.org/Graphics/SVG/1.1/DTD/svg11.dtd">
<!-- Generated by graphviz version 13.1.2 (20250808.2320)
 -->
<!-- Title: crash_fresh_init Pages: 1 -->
<svg width="328pt" height="28pt"
 viewBox="0.00 0.00 328.00 28.00" xmlns="http://www.w3.org/2000/svg" xmlns:xlink="http://www.w3.org/1999/xlink">
<g id="graph0" class="graph" transform="scale(1 1) rotate(0) translate(4 24)">
<title>crash_fresh_init</title>
<!-- Node1 -->
<g id="Node000001" class="node">
<title>Node1</title>
<g id="a_Node000001"><a xlink:title="Initialize retained crash log structure to clean state.">
<polygon fill="#999999" stroke="#666666" points="85,-20 0,-20 0,0 85,0 85,-20"/>
<text xml:space="preserve" text-anchor="middle" x="42.5" y="-6.5" font-family="Helvetica,sans-Serif" font-size="10.00">crash_fresh_init</text>
</a>
</g>
</g>
<!-- Node2 -->
<g id="Node000002" class="node">
<title>Node2</title>
<g id="a_Node000002"><a xlink:href="crashlog_8c.html#a50f52af1f76175e818dad1ef9f2bc3eb" target="_top" xlink:title="Recompute and store updated CRC32 for the crash log structure.">
<polygon fill="white" stroke="#666666" points="214.25,-20 121,-20 121,0 214.25,0 214.25,-20"/>
<text xml:space="preserve" text-anchor="middle" x="167.62" y="-6.5" font-family="Helvetica,sans-Serif" font-size="10.00">crash_update_crc</text>
</a>
</g>
</g>
<!-- Node1&#45;&gt;Node2 -->
<g id="edge1_Node000001_Node000002" class="edge">
<title>Node1&#45;&gt;Node2</title>
<g id="a_edge1_Node000001_Node000002"><a xlink:title=" ">
<path fill="none" stroke="#63b8ff" d="M85.18,-10C92.96,-10 101.21,-10 109.36,-10"/>
<polygon fill="#63b8ff" stroke="#63b8ff" points="109.24,-13.5 119.24,-10 109.24,-6.5 109.24,-13.5"/>
</a>
</g>
</g>
<!-- Node3 -->
<g id="Node000003" class="node">
<title>Node3</title>
<g id="a_Node000003"><a xlink:href="crashlog_8c.html#ae55aac5d65874421d290cce57ce04ed5" target="_top" xlink:title="Compute CRC32 checksum using standard polynomial 0xEDB88320.">
<polygon fill="white" stroke="#666666" points="319.5,-20 250.25,-20 250.25,0 319.5,0 319.5,-20"/>
<text xml:space="preserve" text-anchor="middle" x="284.88" y="-6.5" font-family="Helvetica,sans-Serif" font-size="10.00">crash_crc32</text>
</a>
</g>
</g>
<!-- Node2&#45;&gt;Node3 -->
<g id="edge2_Node000002_Node000003" class="edge">
<title>Node2&#45;&gt;Node3</title>
<g id="a_edge2_Node000002_Node000003"><a xlink:title=" ">
<path fill="none" stroke="#63b8ff" d="M214.51,-10C222.43,-10 230.67,-10 238.59,-10"/>
<polygon fill="#63b8ff" stroke="#63b8ff" points="238.36,-13.5 248.36,-10 238.36,-6.5 238.36,-13.5"/>
</a>
</g>
</g>
</g>
</svg>
