<?xml version="1.0" encoding="UTF-8" standalone="no"?>
<!DOCTYPE svg PUBLIC "-//W3C//DTD SVG 1.1//EN"
 "http://www.w3.org/Graphics/SVG/1.1/DTD/svg11.dtd">
<!-- Generated by graphviz version 13.1.2 (20250808.2320)
 -->
<!-- Title: Switch_SetRelayPortBMasked Pages: 1 -->
<!--zoomable 142 -->

<svg id="main" version="1.1" xmlns="http://www.w3.org/2000/svg" xmlns:xlink="http://www.w3.org/1999/xlink" xml:space="preserve" onload="init(evt)">

<style type="text/css"><![CDATA[
.node, .edge {opacity: 0.7;}
.node.selected, .edge.selected {opacity: 1;}
.edge:hover path { stroke: red; }
.edge:hover polygon { stroke: red; fill: red; }
]]></style>

<defs>
  <circle id="rim" cx="0" cy="0" r="7"/>
  <circle id="rim2" cx="0" cy="0" r="3.5"/>
  <g id="zoomPlus">
    <use xlink:href="#rim" fill="#404040"><set attributeName="fill" to="#808080" begin="zoomplus.mouseover" end="zoomplus.mouseout"/></use>
    <path d="M-4,0h8M0,-4v8" fill="none" stroke="white" stroke-width="1.5" pointer-events="none"/>
  </g>
  <g id="zoomMin">
    <use xlink:href="#rim" fill="#404040"><set attributeName="fill" to="#808080" begin="zoomminus.mouseover" end="zoomminus.mouseout"/></use>
    <path d="M-4,0h8" fill="none" stroke="white" stroke-width="1.5" pointer-events="none"/>
  </g>
  <g id="arrowUp" transform="translate(30 24)">
    <use xlink:href="#rim"/>
    <path pointer-events="none" fill="none" stroke="white" stroke-width="1.5" d="M0,-3.0v7 M-2.5,-0.5L0,-3.0L2.5,-0.5"/>
  </g>
  <g id="arrowRight" transform="rotate(90) translate(36 -43)">
    <use xlink:href="#rim"/>
    <path pointer-events="none" fill="none" stroke="white" stroke-width="1.5" d="M0,-3.0v7 M-2.5,-0.5L0,-3.0L2.5,-0.5"/>
  </g>
  <g id="arrowDown" transform="rotate(180) translate(-30 -48)">
    <use xlink:href="#rim"/>
    <path pointer-events="none" fill="none" stroke="white" stroke-width="1.5" d="M0,-3.0v7 M-2.5,-0.5L0,-3.0L2.5,-0.5"/>
  </g>
  <g id="arrowLeft" transform="rotate(270) translate(-36 17)">
    <use xlink:href="#rim"/>
    <path pointer-events="none" fill="none" stroke="white" stroke-width="1.5" d="M0,-3.0v7 M-2.5,-0.5L0,-3.0L2.5,-0.5"/>
  </g>
  <g id="resetDef">
    <use xlink:href="#rim2" fill="#404040"><set attributeName="fill" to="#808080" begin="reset.mouseover" end="reset.mouseout"/></use>
  </g>
</defs>
<script type="application/ecmascript">
var viewWidth = 758;
var viewHeight = 142;
var sectionId = 'dynsection-35';
</script>
<script type="application/ecmascript" xlink:href="svg.min.js"/>
<svg id="graph" class="graph">
<g id="viewport">
<title>Switch_SetRelayPortBMasked</title>
<!-- Node1 -->
<g id="Node000001" class="node">
<title>Node1</title>
<g id="a_Node000001"><a xlink:title="Set relay MCP Port B masked bits (MUX control).">
<polygon fill="#999999" stroke="#666666" points="151,-77 0,-77 0,-57 151,-57 151,-77"/>
<text xml:space="preserve" text-anchor="middle" x="75.5" y="-63.5" font-family="Helvetica,sans-Serif" font-size="10.00">Switch_SetRelayPortBMasked</text>
</a>
</g>
</g>
<!-- Node2 -->
<g id="Node000002" class="node">
<title>Node2</title>
<g id="a_Node000002"><a xlink:href="_switch_task_8c.html#a2a7f01bd659f5eea0a4a131d8c57c207" target="_top" xlink:title=" ">
<polygon fill="white" stroke="#666666" points="249.12,-134 215.12,-134 215.12,-114 249.12,-114 249.12,-134"/>
<text xml:space="preserve" text-anchor="middle" x="232.12" y="-120.5" font-family="Helvetica,sans-Serif" font-size="10.00">lock</text>
</a>
</g>
</g>
<!-- Node1&#45;&gt;Node2 -->
<g id="edge1_Node000001_Node000002" class="edge">
<title>Node1&#45;&gt;Node2</title>
<g id="a_edge1_Node000001_Node000002"><a xlink:title=" ">
<path fill="none" stroke="#63b8ff" d="M104.86,-77.45C133.21,-87.91 176.49,-103.86 204.29,-114.11"/>
<polygon fill="#63b8ff" stroke="#63b8ff" points="202.81,-117.29 213.4,-117.47 205.23,-110.72 202.81,-117.29"/>
</a>
</g>
</g>
<!-- Node3 -->
<g id="Node000003" class="node">
<title>Node3</title>
<g id="a_Node000003"><a xlink:href="group__drivers06.html#ga6568742c79ce5190216e5185238229ba" target="_top" xlink:title="Get relay MCP23017 device context.">
<polygon fill="white" stroke="#666666" points="262.62,-96 201.62,-96 201.62,-76 262.62,-76 262.62,-96"/>
<text xml:space="preserve" text-anchor="middle" x="232.12" y="-82.5" font-family="Helvetica,sans-Serif" font-size="10.00">mcp_relay</text>
</a>
</g>
</g>
<!-- Node1&#45;&gt;Node3 -->
<g id="edge2_Node000001_Node000003" class="edge">
<title>Node1&#45;&gt;Node3</title>
<g id="a_edge2_Node000001_Node000003"><a xlink:title=" ">
<path fill="none" stroke="#63b8ff" d="M151.09,-76.17C164.42,-77.8 177.85,-79.45 189.8,-80.92"/>
<polygon fill="#63b8ff" stroke="#63b8ff" points="189.35,-84.39 199.7,-82.14 190.2,-77.44 189.35,-84.39"/>
</a>
</g>
</g>
<!-- Node4 -->
<g id="Node000004" class="node">
<title>Node4</title>
<g id="a_Node000004"><a xlink:href="group__drivers06.html#ga0dfecc1e56ba649b3a89936c6206c9e2" target="_top" xlink:title="Atomic masked write to a port.">
<polygon fill="white" stroke="#666666" points="277.25,-58 187,-58 187,-38 277.25,-38 277.25,-58"/>
<text xml:space="preserve" text-anchor="middle" x="232.12" y="-44.5" font-family="Helvetica,sans-Serif" font-size="10.00">mcp_write_mask</text>
</a>
</g>
</g>
<!-- Node1&#45;&gt;Node4 -->
<g id="edge3_Node000001_Node000004" class="edge">
<title>Node1&#45;&gt;Node4</title>
<g id="a_edge3_Node000001_Node000004"><a xlink:title=" ">
<path fill="none" stroke="#63b8ff" d="M151.09,-57.83C159.29,-56.83 167.53,-55.81 175.44,-54.84"/>
<polygon fill="#63b8ff" stroke="#63b8ff" points="175.75,-58.33 185.25,-53.64 174.9,-51.38 175.75,-58.33"/>
</a>
</g>
</g>
<!-- Node10 -->
<g id="Node000010" class="node">
<title>Node10</title>
<g id="a_Node000010"><a xlink:href="_switch_task_8c.html#abb7cc7eb4e959fda6a43c8dd85f20090" target="_top" xlink:title=" ">
<polygon fill="white" stroke="#666666" points="254.38,-20 209.88,-20 209.88,0 254.38,0 254.38,-20"/>
<text xml:space="preserve" text-anchor="middle" x="232.12" y="-6.5" font-family="Helvetica,sans-Serif" font-size="10.00">unlock</text>
</a>
</g>
</g>
<!-- Node1&#45;&gt;Node10 -->
<g id="edge9_Node000001_Node000010" class="edge">
<title>Node1&#45;&gt;Node10</title>
<g id="a_edge9_Node000001_Node000010"><a xlink:title=" ">
<path fill="none" stroke="#63b8ff" d="M104.86,-56.55C131.37,-46.77 170.93,-32.19 198.69,-21.96"/>
<polygon fill="#63b8ff" stroke="#63b8ff" points="199.83,-25.27 208.01,-18.52 197.41,-18.7 199.83,-25.27"/>
</a>
</g>
</g>
<!-- Node5 -->
<g id="Node000005" class="node">
<title>Node5</title>
<g id="a_Node000005"><a xlink:href="group__drivers05.html#gab7b4aa096ded6cebd93256e5b5994e42" target="_top" xlink:title="Write 8&#45;bit register with 8&#45;bit value: [reg, value].">
<polygon fill="white" stroke="#666666" points="421.88,-77 321.88,-77 321.88,-57 421.88,-57 421.88,-77"/>
<text xml:space="preserve" text-anchor="middle" x="371.88" y="-63.5" font-family="Helvetica,sans-Serif" font-size="10.00">i2c_bus_write_reg8</text>
</a>
</g>
</g>
<!-- Node4&#45;&gt;Node5 -->
<g id="edge4_Node000004_Node000005" class="edge">
<title>Node4&#45;&gt;Node5</title>
<g id="a_edge4_Node000004_Node000005"><a xlink:title=" ">
<path fill="none" stroke="#63b8ff" d="M277.47,-54.12C287.98,-55.57 299.36,-57.14 310.45,-58.66"/>
<polygon fill="#63b8ff" stroke="#63b8ff" points="309.96,-62.13 320.34,-60.03 310.92,-55.2 309.96,-62.13"/>
</a>
</g>
</g>
<!-- Node9 -->
<g id="Node000009" class="node">
<title>Node9</title>
<g id="a_Node000009"><a xlink:href="_m_c_p23017__driver_8c.html#a0ff45ad384852ba5f69f0fd781c2f46a" target="_top" xlink:title=" ">
<polygon fill="white" stroke="#666666" points="430.5,-39 313.25,-39 313.25,-19 430.5,-19 430.5,-39"/>
<text xml:space="preserve" text-anchor="middle" x="371.88" y="-25.5" font-family="Helvetica,sans-Serif" font-size="10.00">mcp_diag_display_ping</text>
</a>
</g>
</g>
<!-- Node4&#45;&gt;Node9 -->
<g id="edge8_Node000004_Node000009" class="edge">
<title>Node4&#45;&gt;Node9</title>
<g id="a_edge8_Node000004_Node000009"><a xlink:title=" ">
<path fill="none" stroke="#63b8ff" d="M277.47,-41.88C285.25,-40.81 293.52,-39.67 301.79,-38.53"/>
<polygon fill="#63b8ff" stroke="#63b8ff" points="302.1,-42.02 311.53,-37.19 301.15,-35.08 302.1,-42.02"/>
</a>
</g>
</g>
<!-- Node6 -->
<g id="Node000006" class="node">
<title>Node6</title>
<g id="a_Node000006"><a xlink:href="i2c__bus_8c.html#a1ebc752812bef8ea35845f0b4eb80217" target="_top" xlink:title=" ">
<polygon fill="white" stroke="#666666" points="576.62,-96 485.62,-96 485.62,-76 576.62,-76 576.62,-96"/>
<text xml:space="preserve" text-anchor="middle" x="531.12" y="-82.5" font-family="Helvetica,sans-Serif" font-size="10.00">i2c_bus_diag_log</text>
</a>
</g>
</g>
<!-- Node5&#45;&gt;Node6 -->
<g id="edge5_Node000005_Node000006" class="edge">
<title>Node5&#45;&gt;Node6</title>
<g id="a_edge5_Node000005_Node000006"><a xlink:title=" ">
<path fill="none" stroke="#63b8ff" d="M422.2,-72.96C438.59,-74.94 456.97,-77.16 473.85,-79.2"/>
<polygon fill="#63b8ff" stroke="#63b8ff" points="473.4,-82.67 483.74,-80.4 474.24,-75.72 473.4,-82.67"/>
</a>
</g>
</g>
<!-- Node7 -->
<g id="Node000007" class="node">
<title>Node7</title>
<g id="a_Node000007"><a xlink:href="group__drivers05.html#ga170d6c4ff97ddc2d314f0a7a0054f283" target="_top" xlink:title="Queue a write on the specified I2C controller and wait synchronously. Mirrors Pico SDK i2c_write_time...">
<polygon fill="white" stroke="#666666" points="595.75,-58 466.5,-58 466.5,-38 595.75,-38 595.75,-58"/>
<text xml:space="preserve" text-anchor="middle" x="531.12" y="-44.5" font-family="Helvetica,sans-Serif" font-size="10.00">i2c_bus_write_timeout_us</text>
</a>
</g>
</g>
<!-- Node5&#45;&gt;Node7 -->
<g id="edge6_Node000005_Node000007" class="edge">
<title>Node5&#45;&gt;Node7</title>
<g id="a_edge6_Node000005_Node000007"><a xlink:title=" ">
<path fill="none" stroke="#63b8ff" d="M422.2,-61.04C432.67,-59.78 443.95,-58.41 455.13,-57.06"/>
<polygon fill="#63b8ff" stroke="#63b8ff" points="455.24,-60.57 464.74,-55.9 454.4,-53.62 455.24,-60.57"/>
</a>
</g>
</g>
<!-- Node8 -->
<g id="Node000008" class="node">
<title>Node8</title>
<g id="a_Node000008"><a xlink:href="i2c__bus_8c.html#afbaa64f79bdd1fa39c8fa5b7a9c2717b" target="_top" xlink:title=" ">
<polygon fill="white" stroke="#666666" points="749.75,-58 631.75,-58 631.75,-38 749.75,-38 749.75,-58"/>
<text xml:space="preserve" text-anchor="middle" x="690.75" y="-44.5" font-family="Helvetica,sans-Serif" font-size="10.00">i2c_bus_submit_simple</text>
</a>
</g>
</g>
<!-- Node7&#45;&gt;Node8 -->
<g id="edge7_Node000007_Node000008" class="edge">
<title>Node7&#45;&gt;Node8</title>
<g id="a_edge7_Node000007_Node000008"><a xlink:title=" ">
<path fill="none" stroke="#63b8ff" d="M596.24,-48C604.03,-48 612.01,-48 619.88,-48"/>
<polygon fill="#63b8ff" stroke="#63b8ff" points="619.77,-51.5 629.77,-48 619.77,-44.5 619.77,-51.5"/>
</a>
</g>
</g>
</g>
</svg>

<g id="navigator" transform="translate(0 0)" fill="#404254">
  <rect fill="#f2f5e9" fill-opacity="0.5" stroke="#606060" stroke-width=".5" x="0" y="0" width="60" height="60"/>
  <use id="zoomplus" xlink:href="#zoomPlus" x="17" y="9" onmousedown="handleZoom(evt,'in')"/>
  <use id="zoomminus" xlink:href="#zoomMin" x="42" y="9" onmousedown="handleZoom(evt,'out')"/>
  <use id="reset" xlink:href="#resetDef" x="30" y="36" onmousedown="handleReset()"/>
   <use id="arrowup" xlink:href="#arrowUp" x="0" y="0" onmousedown="handlePan(0,-1)"/>
  <use id="arrowright" xlink:href="#arrowRight" x="0" y="0" onmousedown="handlePan(1,0)"/>
  <use id="arrowdown" xlink:href="#arrowDown" x="0" y="0" onmousedown="handlePan(0,1)"/>
  <use id="arrowleft" xlink:href="#arrowLeft" x="0" y="0" onmousedown="handlePan(-1,0)"/>
</g>
<svg viewBox="0 0 15 15" width="100%" height="30px" preserveAspectRatio="xMaxYMin meet">
 <g id="arrow_out" transform="scale(0.3 0.3)">
  <a xlink:href="group__tasks11_gaabc2d09a184f003994dc97e1f33ffea2_cgraph_org.svg" target="_base">
   <rect id="button" ry="5" rx="5" y="6" x="6" height="38" width="38"
        fill="#f2f5e9" fill-opacity="0.5" stroke="#606060" stroke-width="1.0"/>
   <path id="arrow"
     d="M 11.500037,31.436501 C 11.940474,20.09759 22.043105,11.32322 32.158766,21.979434 L 37.068811,17.246167 C 37.068811,17.246167 37.088388,32 37.088388,32 L 22.160133,31.978069 C 22.160133,31.978069 26.997745,27.140456 26.997745,27.140456 C 18.528582,18.264221 13.291696,25.230495 11.500037,31.436501 z"
     style="fill:#404040;"/>
  </a>
 </g>
</svg>

<style type='text/css'>
<![CDATA[
[data-mouse-over-selected='false'] { opacity: 0.7; }
[data-mouse-over-selected='true']  { opacity: 1.0; }
]]>
</style>
<script type="application/ecmascript"><![CDATA[
document.addEventListener('DOMContentLoaded', (event) => {
  highlightEdges();
  highlightAdjacentNodes();
});
]]></script>
</svg>
