<?xml version="1.0" encoding="UTF-8" standalone="no"?>
<!DOCTYPE svg PUBLIC "-//W3C//DTD SVG 1.1//EN"
 "http://www.w3.org/Graphics/SVG/1.1/DTD/svg11.dtd">
<!-- Generated by graphviz version 13.1.2 (20250808.2320)
 -->
<!-- Title: EEPROM_ReadEnergyMonitoring Pages: 1 -->
<svg width="675pt" height="85pt"
 viewBox="0.00 0.00 675.00 85.00" xmlns="http://www.w3.org/2000/svg" xmlns:xlink="http://www.w3.org/1999/xlink">
<g id="graph0" class="graph" transform="scale(1 1) rotate(0) translate(4 81)">
<title>EEPROM_ReadEnergyMonitoring</title>
<!-- Node1 -->
<g id="Node000001" class="node">
<title>Node1</title>
<g id="a_Node000001"><a xlink:title="Read entire energy monitoring region from EEPROM (bulk operation).">
<polygon fill="#999999" stroke="#666666" points="163.75,-39 0,-39 0,-19 163.75,-19 163.75,-39"/>
<text xml:space="preserve" text-anchor="middle" x="81.88" y="-25.5" font-family="Helvetica,sans-Serif" font-size="10.00">EEPROM_ReadEnergyMonitoring</text>
</a>
</g>
</g>
<!-- Node2 -->
<g id="Node000002" class="node">
<title>Node2</title>
<g id="a_Node000002"><a xlink:href="group__driver02.html#ga622a6736c8384f9e1921a1bda2a84df9" target="_top" xlink:title="Read buffer from EEPROM.">
<polygon fill="white" stroke="#666666" points="323,-58 199.75,-58 199.75,-38 323,-38 323,-58"/>
<text xml:space="preserve" text-anchor="middle" x="261.38" y="-44.5" font-family="Helvetica,sans-Serif" font-size="10.00">CAT24C256_ReadBuffer</text>
</a>
</g>
</g>
<!-- Node1&#45;&gt;Node2 -->
<g id="edge1_Node000001_Node000002" class="edge">
<title>Node1&#45;&gt;Node2</title>
<g id="a_edge1_Node000001_Node000002"><a xlink:title=" ">
<path fill="none" stroke="#63b8ff" d="M164.09,-37.69C172.07,-38.55 180.12,-39.41 188,-40.25"/>
<polygon fill="#63b8ff" stroke="#63b8ff" points="187.56,-43.73 197.87,-41.31 188.3,-36.77 187.56,-43.73"/>
</a>
</g>
</g>
<!-- Node6 -->
<g id="Node000006" class="node">
<title>Node6</title>
<g id="a_Node000006"><a xlink:href="group__tasks10.html#ga78c530f9c7ec4d2330e6d1a092df6dc0" target="_top" xlink:title="Enqueue an error code for deferred EEPROM logging (non&#45;blocking).">
<polygon fill="white" stroke="#666666" points="496.5,-20 359,-20 359,0 496.5,0 496.5,-20"/>
<text xml:space="preserve" text-anchor="middle" x="427.75" y="-6.5" font-family="Helvetica,sans-Serif" font-size="10.00">Storage_EnqueueErrorCode</text>
</a>
</g>
</g>
<!-- Node1&#45;&gt;Node6 -->
<g id="edge6_Node000001_Node000006" class="edge">
<title>Node1&#45;&gt;Node6</title>
<g id="a_edge6_Node000001_Node000006"><a xlink:title=" ">
<path fill="none" stroke="#63b8ff" d="M163.93,-24.52C219.27,-21.46 292.23,-17.43 347.23,-14.39"/>
<polygon fill="#63b8ff" stroke="#63b8ff" points="347.38,-17.89 357.17,-13.84 346.99,-10.9 347.38,-17.89"/>
</a>
</g>
</g>
<!-- Node3 -->
<g id="Node000003" class="node">
<title>Node3</title>
<g id="a_Node000003"><a xlink:href="group__drivers05.html#ga66ae4c7028f764a3770cabe101dba8bf" target="_top" xlink:title="Read from 16&#45;bit memory address: write [mem_hi, mem_lo] (no stop), then read len bytes.">
<polygon fill="white" stroke="#666666" points="483.38,-58 372.12,-58 372.12,-38 483.38,-38 483.38,-58"/>
<text xml:space="preserve" text-anchor="middle" x="427.75" y="-44.5" font-family="Helvetica,sans-Serif" font-size="10.00">i2c_bus_read_mem16</text>
</a>
</g>
</g>
<!-- Node2&#45;&gt;Node3 -->
<g id="edge2_Node000002_Node000003" class="edge">
<title>Node2&#45;&gt;Node3</title>
<g id="a_edge2_Node000002_Node000003"><a xlink:title=" ">
<path fill="none" stroke="#63b8ff" d="M323.12,-48C335.3,-48 348.16,-48 360.52,-48"/>
<polygon fill="#63b8ff" stroke="#63b8ff" points="360.18,-51.5 370.18,-48 360.18,-44.5 360.18,-51.5"/>
</a>
</g>
</g>
<!-- Node2&#45;&gt;Node6 -->
<g id="edge5_Node000002_Node000006" class="edge">
<title>Node2&#45;&gt;Node6</title>
<g id="a_edge5_Node000002_Node000006"><a xlink:title=" ">
<path fill="none" stroke="#63b8ff" d="M307.73,-37.52C327.13,-33.03 349.99,-27.75 370.46,-23.01"/>
<polygon fill="#63b8ff" stroke="#63b8ff" points="371.12,-26.45 380.07,-20.79 369.54,-19.63 371.12,-26.45"/>
</a>
</g>
</g>
<!-- Node4 -->
<g id="Node000004" class="node">
<title>Node4</title>
<g id="a_Node000004"><a xlink:href="i2c__bus_8c.html#a1ebc752812bef8ea35845f0b4eb80217" target="_top" xlink:title=" ">
<polygon fill="white" stroke="#666666" points="645.25,-77 554.25,-77 554.25,-57 645.25,-57 645.25,-77"/>
<text xml:space="preserve" text-anchor="middle" x="599.75" y="-63.5" font-family="Helvetica,sans-Serif" font-size="10.00">i2c_bus_diag_log</text>
</a>
</g>
</g>
<!-- Node3&#45;&gt;Node4 -->
<g id="edge3_Node000003_Node000004" class="edge">
<title>Node3&#45;&gt;Node4</title>
<g id="a_edge3_Node000003_Node000004"><a xlink:title=" ">
<path fill="none" stroke="#63b8ff" d="M483.47,-54.12C502.37,-56.23 523.57,-58.6 542.58,-60.72"/>
<polygon fill="#63b8ff" stroke="#63b8ff" points="541.96,-64.17 552.28,-61.81 542.74,-57.22 541.96,-64.17"/>
</a>
</g>
</g>
<!-- Node5 -->
<g id="Node000005" class="node">
<title>Node5</title>
<g id="a_Node000005"><a xlink:href="i2c__bus_8c.html#a569aca00fd6bd9b5430616a494b4f141" target="_top" xlink:title=" ">
<polygon fill="white" stroke="#666666" points="667,-39 532.5,-39 532.5,-19 667,-19 667,-39"/>
<text xml:space="preserve" text-anchor="middle" x="599.75" y="-25.5" font-family="Helvetica,sans-Serif" font-size="10.00">i2c_bus_submit_write_read</text>
</a>
</g>
</g>
<!-- Node3&#45;&gt;Node5 -->
<g id="edge4_Node000003_Node000005" class="edge">
<title>Node3&#45;&gt;Node5</title>
<g id="a_edge4_Node000003_Node000005"><a xlink:title=" ">
<path fill="none" stroke="#63b8ff" d="M483.47,-41.88C495.49,-40.54 508.43,-39.1 521.14,-37.67"/>
<polygon fill="#63b8ff" stroke="#63b8ff" points="521.18,-41.19 530.73,-36.6 520.4,-34.23 521.18,-41.19"/>
</a>
</g>
</g>
</g>
</svg>
