<?xml version="1.0" encoding="UTF-8" standalone="no"?>
<!DOCTYPE svg PUBLIC "-//W3C//DTD SVG 1.1//EN"
 "http://www.w3.org/Graphics/SVG/1.1/DTD/svg11.dtd">
<!-- Generated by graphviz version 13.1.2 (20250808.2320)
 -->
<!-- Title: EEPROM_ReadSensorCalibrationForChannel Pages: 1 -->
<!--zoomable 79 -->

<svg id="main" version="1.1" xmlns="http://www.w3.org/2000/svg" xmlns:xlink="http://www.w3.org/1999/xlink" xml:space="preserve" onload="init(evt)">

<style type="text/css"><![CDATA[
.node, .edge {opacity: 0.7;}
.node.selected, .edge.selected {opacity: 1;}
.edge:hover path { stroke: red; }
.edge:hover polygon { stroke: red; fill: red; }
]]></style>

<defs>
  <circle id="rim" cx="0" cy="0" r="7"/>
  <circle id="rim2" cx="0" cy="0" r="3.5"/>
  <g id="zoomPlus">
    <use xlink:href="#rim" fill="#404040"><set attributeName="fill" to="#808080" begin="zoomplus.mouseover" end="zoomplus.mouseout"/></use>
    <path d="M-4,0h8M0,-4v8" fill="none" stroke="white" stroke-width="1.5" pointer-events="none"/>
  </g>
  <g id="zoomMin">
    <use xlink:href="#rim" fill="#404040"><set attributeName="fill" to="#808080" begin="zoomminus.mouseover" end="zoomminus.mouseout"/></use>
    <path d="M-4,0h8" fill="none" stroke="white" stroke-width="1.5" pointer-events="none"/>
  </g>
  <g id="arrowUp" transform="translate(30 24)">
    <use xlink:href="#rim"/>
    <path pointer-events="none" fill="none" stroke="white" stroke-width="1.5" d="M0,-3.0v7 M-2.5,-0.5L0,-3.0L2.5,-0.5"/>
  </g>
  <g id="arrowRight" transform="rotate(90) translate(36 -43)">
    <use xlink:href="#rim"/>
    <path pointer-events="none" fill="none" stroke="white" stroke-width="1.5" d="M0,-3.0v7 M-2.5,-0.5L0,-3.0L2.5,-0.5"/>
  </g>
  <g id="arrowDown" transform="rotate(180) translate(-30 -48)">
    <use xlink:href="#rim"/>
    <path pointer-events="none" fill="none" stroke="white" stroke-width="1.5" d="M0,-3.0v7 M-2.5,-0.5L0,-3.0L2.5,-0.5"/>
  </g>
  <g id="arrowLeft" transform="rotate(270) translate(-36 17)">
    <use xlink:href="#rim"/>
    <path pointer-events="none" fill="none" stroke="white" stroke-width="1.5" d="M0,-3.0v7 M-2.5,-0.5L0,-3.0L2.5,-0.5"/>
  </g>
  <g id="resetDef">
    <use xlink:href="#rim2" fill="#404040"><set attributeName="fill" to="#808080" begin="reset.mouseover" end="reset.mouseout"/></use>
  </g>
</defs>
<script type="application/ecmascript">
var viewWidth = 1033;
var viewHeight = 79;
var sectionId = 'dynsection-4';
</script>
<script type="application/ecmascript" xlink:href="svg.min.js"/>
<svg id="graph" class="graph">
<g id="viewport">
<title>EEPROM_ReadSensorCalibrationForChannel</title>
<!-- Node1 -->
<g id="Node000001" class="node">
<title>Node1</title>
<g id="a_Node000001"><a xlink:title="Read calibration record for single HLW8032 channel.">
<polygon fill="#999999" stroke="#666666" points="1025,-58.45 859.75,-58.45 859.75,-26.45 1025,-26.45 1025,-58.45"/>
<text xml:space="preserve" text-anchor="start" x="867.75" y="-44.95" font-family="Helvetica,sans-Serif" font-size="10.00">EEPROM_ReadSensorCalibration</text>
<text xml:space="preserve" text-anchor="middle" x="942.38" y="-32.95" font-family="Helvetica,sans-Serif" font-size="10.00">ForChannel</text>
</a>
</g>
</g>
<!-- Node2 -->
<g id="Node000002" class="node">
<title>Node2</title>
<g id="a_Node000002"><a xlink:href="group__drivers04.html#ga76954a7035d4f2fad1ec9fba75e62b6c" target="_top" xlink:title="Load calibration data from EEPROM for all channels.">
<polygon fill="white" stroke="#666666" points="822.25,-71.45 697.5,-71.45 697.5,-51.45 822.25,-51.45 822.25,-71.45"/>
<text xml:space="preserve" text-anchor="middle" x="759.88" y="-57.95" font-family="Helvetica,sans-Serif" font-size="10.00">hlw8032_load_calibration</text>
</a>
</g>
</g>
<!-- Node1&#45;&gt;Node2 -->
<g id="edge1_Node000001_Node000002" class="edge">
<title>Node1&#45;&gt;Node2</title>
<g id="a_edge1_Node000001_Node000002"><a xlink:title=" ">
<path fill="none" stroke="#63b8ff" d="M848.04,-52.28C839.47,-53.18 830.93,-54.08 822.74,-54.94"/>
<polygon fill="#63b8ff" stroke="#63b8ff" points="848.23,-55.78 857.81,-51.25 847.49,-48.81 848.23,-55.78"/>
</a>
</g>
</g>
<!-- Node8 -->
<g id="Node000008" class="node">
<title>Node8</title>
<g id="a_Node000008"><a xlink:href="_storage_task_8c.html#a4fc600cc02b207340a3e903acc1a64c8" target="_top" xlink:title="Load all config from EEPROM to RAM cache. Called once during task startup to populate RAM cache with ...">
<polygon fill="white" stroke="#666666" points="823.75,-33.45 696,-33.45 696,-13.45 823.75,-13.45 823.75,-33.45"/>
<text xml:space="preserve" text-anchor="middle" x="759.88" y="-19.95" font-family="Helvetica,sans-Serif" font-size="10.00">load_config_from_eeprom</text>
</a>
</g>
</g>
<!-- Node1&#45;&gt;Node8 -->
<g id="edge7_Node000001_Node000008" class="edge">
<title>Node1&#45;&gt;Node8</title>
<g id="a_edge7_Node000001_Node000008"><a xlink:title=" ">
<path fill="none" stroke="#63b8ff" d="M847.92,-32.61C839.85,-31.76 831.82,-30.92 824.08,-30.11"/>
<polygon fill="#63b8ff" stroke="#63b8ff" points="847.49,-36.09 857.81,-33.65 848.23,-29.13 847.49,-36.09"/>
</a>
</g>
</g>
<!-- Node3 -->
<g id="Node000003" class="node">
<title>Node3</title>
<g id="a_Node000003"><a xlink:href="group__drivers04.html#gac1bd84c5a254283faacc776489f36625" target="_top" xlink:title="Initialize HLW8032 driver subsystem.">
<polygon fill="white" stroke="#666666" points="639,-71.45 569,-71.45 569,-51.45 639,-51.45 639,-71.45"/>
<text xml:space="preserve" text-anchor="middle" x="604" y="-57.95" font-family="Helvetica,sans-Serif" font-size="10.00">hlw8032_init</text>
</a>
</g>
</g>
<!-- Node2&#45;&gt;Node3 -->
<g id="edge2_Node000002_Node000003" class="edge">
<title>Node2&#45;&gt;Node3</title>
<g id="a_edge2_Node000002_Node000003"><a xlink:title=" ">
<path fill="none" stroke="#63b8ff" d="M685.96,-61.45C669.66,-61.45 653.12,-61.45 639.28,-61.45"/>
<polygon fill="#63b8ff" stroke="#63b8ff" points="685.66,-64.95 695.66,-61.45 685.66,-57.95 685.66,-64.95"/>
</a>
</g>
</g>
<!-- Node4 -->
<g id="Node000004" class="node">
<title>Node4</title>
<g id="a_Node000004"><a xlink:href="group__tasks06.html#ga33bd9742d865d9e98a4b81d443f69837" target="_top" xlink:title="Create and start the Meter Task with a deterministic enable gate.">
<polygon fill="white" stroke="#666666" points="400.75,-71.45 320.25,-71.45 320.25,-51.45 400.75,-51.45 400.75,-71.45"/>
<text xml:space="preserve" text-anchor="middle" x="360.5" y="-57.95" font-family="Helvetica,sans-Serif" font-size="10.00">MeterTask_Init</text>
</a>
</g>
</g>
<!-- Node3&#45;&gt;Node4 -->
<g id="edge3_Node000003_Node000004" class="edge">
<title>Node3&#45;&gt;Node4</title>
<g id="a_edge3_Node000003_Node000004"><a xlink:title=" ">
<path fill="none" stroke="#63b8ff" d="M557.42,-61.45C512.27,-61.45 443.82,-61.45 400.94,-61.45"/>
<polygon fill="#63b8ff" stroke="#63b8ff" points="557.14,-64.95 567.14,-61.45 557.14,-57.95 557.14,-64.95"/>
</a>
</g>
</g>
<!-- Node5 -->
<g id="Node000005" class="node">
<title>Node5</title>
<g id="a_Node000005"><a xlink:href="_init_task_8c.html#ad718429ab806319601819907a5ef51ac" target="_top" xlink:title="InitTask main routine that performs the full bring&#45;alive sequence.">
<polygon fill="white" stroke="#666666" points="279.75,-52.45 229.25,-52.45 229.25,-32.45 279.75,-32.45 279.75,-52.45"/>
<text xml:space="preserve" text-anchor="middle" x="254.5" y="-38.95" font-family="Helvetica,sans-Serif" font-size="10.00">InitTask</text>
</a>
</g>
</g>
<!-- Node4&#45;&gt;Node5 -->
<g id="edge4_Node000004_Node000005" class="edge">
<title>Node4&#45;&gt;Node5</title>
<g id="a_edge4_Node000004_Node000005"><a xlink:title=" ">
<path fill="none" stroke="#63b8ff" d="M308.68,-52.17C298.67,-50.34 288.6,-48.5 279.95,-46.92"/>
<polygon fill="#63b8ff" stroke="#63b8ff" points="307.93,-55.59 318.4,-53.94 309.19,-48.7 307.93,-55.59"/>
</a>
</g>
</g>
<!-- Node6 -->
<g id="Node000006" class="node">
<title>Node6</title>
<g id="a_Node000006"><a xlink:href="group__tasks04.html#ga8a8abeda7232f47559b8683414202508" target="_top" xlink:title="Create and start the InitTask at highest priority.">
<polygon fill="white" stroke="#666666" points="193.25,-52.45 108.25,-52.45 108.25,-32.45 193.25,-32.45 193.25,-52.45"/>
<text xml:space="preserve" text-anchor="middle" x="150.75" y="-38.95" font-family="Helvetica,sans-Serif" font-size="10.00">InitTask_Create</text>
</a>
</g>
</g>
<!-- Node5&#45;&gt;Node6 -->
<g id="edge5_Node000005_Node000006" class="edge">
<title>Node5&#45;&gt;Node6</title>
<g id="a_edge5_Node000005_Node000006"><a xlink:title=" ">
<path fill="none" stroke="#63b8ff" d="M217.6,-42.45C209.84,-42.45 201.58,-42.45 193.62,-42.45"/>
<polygon fill="#63b8ff" stroke="#63b8ff" points="217.36,-45.95 227.36,-42.45 217.36,-38.95 217.36,-45.95"/>
</a>
</g>
</g>
<!-- Node7 -->
<g id="Node000007" class="node">
<title>Node7</title>
<g id="a_Node000007"><a xlink:href="group__main01.html#gae3fa85d0ce445e937670de85f9af490a" target="_top" xlink:title="Global variable to trigger BOOTSEL mode.">
<polygon fill="white" stroke="#666666" points="72.25,-52.45 0,-52.45 0,-32.45 72.25,-32.45 72.25,-52.45"/>
<text xml:space="preserve" text-anchor="middle" x="36.12" y="-38.95" font-family="Helvetica,sans-Serif" font-size="10.00">__attribute__</text>
</a>
</g>
</g>
<!-- Node6&#45;&gt;Node7 -->
<g id="edge6_Node000006_Node000007" class="edge">
<title>Node6&#45;&gt;Node7</title>
<g id="a_edge6_Node000006_Node000007"><a xlink:title=" ">
<path fill="none" stroke="#63b8ff" d="M96.44,-42.45C88.3,-42.45 80.08,-42.45 72.46,-42.45"/>
<polygon fill="#63b8ff" stroke="#63b8ff" points="96.3,-45.95 106.3,-42.45 96.3,-38.95 96.3,-45.95"/>
</a>
</g>
</g>
<!-- Node9 -->
<g id="Node000009" class="node">
<title>Node9</title>
<g id="a_Node000009"><a xlink:href="_storage_task_8c.html#a213cb9056713a15a181cf8d4351879c0" target="_top" xlink:title="Process storage request message. Handles all storage commands by updating RAM cache,...">
<polygon fill="white" stroke="#666666" points="660,-33.45 548,-33.45 548,-13.45 660,-13.45 660,-33.45"/>
<text xml:space="preserve" text-anchor="middle" x="604" y="-19.95" font-family="Helvetica,sans-Serif" font-size="10.00">process_storage_msg</text>
</a>
</g>
</g>
<!-- Node8&#45;&gt;Node9 -->
<g id="edge8_Node000008_Node000009" class="edge">
<title>Node8&#45;&gt;Node9</title>
<g id="a_edge8_Node000008_Node000009"><a xlink:title=" ">
<path fill="none" stroke="#63b8ff" d="M684.42,-23.45C676.29,-23.45 668.13,-23.45 660.29,-23.45"/>
<polygon fill="#63b8ff" stroke="#63b8ff" points="684.33,-26.95 694.33,-23.45 684.33,-19.95 684.33,-26.95"/>
</a>
</g>
</g>
<!-- Node10 -->
<g id="Node000010" class="node">
<title>Node10</title>
<g id="a_Node000010"><a xlink:href="_storage_task_8c.html#a502037c1577c7bd180a629669af058f7" target="_top" xlink:title="Storage task main function.">
<polygon fill="white" stroke="#666666" points="512,-33.45 441.25,-33.45 441.25,-13.45 512,-13.45 512,-33.45"/>
<text xml:space="preserve" text-anchor="middle" x="476.62" y="-19.95" font-family="Helvetica,sans-Serif" font-size="10.00">StorageTask</text>
</a>
</g>
</g>
<!-- Node8&#45;&gt;Node10 -->
<g id="edge12_Node000008_Node000010" class="edge">
<title>Node8&#45;&gt;Node10</title>
<g id="a_edge12_Node000008_Node000010"><a xlink:title=" ">
<path fill="none" stroke="#63b8ff" d="M703.33,-10.86C689.27,-8.2 674.14,-5.8 660,-4.45 610.45,0.27 597.35,2.09 548,-4.45 535.08,-6.17 521.16,-9.58 509.14,-13.04"/>
<polygon fill="#63b8ff" stroke="#63b8ff" points="702.37,-14.24 712.86,-12.74 703.72,-7.37 702.37,-14.24"/>
</a>
</g>
</g>
<!-- Node9&#45;&gt;Node10 -->
<g id="edge9_Node000009_Node000010" class="edge">
<title>Node9&#45;&gt;Node10</title>
<g id="a_edge9_Node000009_Node000010"><a xlink:title=" ">
<path fill="none" stroke="#63b8ff" d="M536.28,-23.45C527.94,-23.45 519.7,-23.45 512.15,-23.45"/>
<polygon fill="#63b8ff" stroke="#63b8ff" points="536.13,-26.95 546.13,-23.45 536.13,-19.95 536.13,-26.95"/>
</a>
</g>
</g>
<!-- Node11 -->
<g id="Node000011" class="node">
<title>Node11</title>
<g id="a_Node000011"><a xlink:href="group__tasks10.html#ga26dbdabce55a139cf536e8469373b7c4" target="_top" xlink:title="Initialize and start the Storage task with a deterministic enable gate. Creates mutex,...">
<polygon fill="white" stroke="#666666" points="405.25,-33.45 315.75,-33.45 315.75,-13.45 405.25,-13.45 405.25,-33.45"/>
<text xml:space="preserve" text-anchor="middle" x="360.5" y="-19.95" font-family="Helvetica,sans-Serif" font-size="10.00">StorageTask_Init</text>
</a>
</g>
</g>
<!-- Node10&#45;&gt;Node11 -->
<g id="edge10_Node000010_Node000011" class="edge">
<title>Node10&#45;&gt;Node11</title>
<g id="a_edge10_Node000010_Node000011"><a xlink:title=" ">
<path fill="none" stroke="#63b8ff" d="M429.44,-23.45C421.51,-23.45 413.3,-23.45 405.43,-23.45"/>
<polygon fill="#63b8ff" stroke="#63b8ff" points="429.25,-26.95 439.25,-23.45 429.25,-19.95 429.25,-26.95"/>
</a>
</g>
</g>
<!-- Node11&#45;&gt;Node5 -->
<g id="edge11_Node000011_Node000005" class="edge">
<title>Node11&#45;&gt;Node5</title>
<g id="a_edge11_Node000011_Node000005"><a xlink:title=" ">
<path fill="none" stroke="#63b8ff" d="M304.28,-33.54C295.81,-35.09 287.46,-36.61 280.13,-37.95"/>
<polygon fill="#63b8ff" stroke="#63b8ff" points="304.7,-37.02 313.91,-31.78 303.44,-30.14 304.7,-37.02"/>
</a>
</g>
</g>
</g>
</svg>

<g id="navigator" transform="translate(0 0)" fill="#404254">
  <rect fill="#f2f5e9" fill-opacity="0.5" stroke="#606060" stroke-width=".5" x="0" y="0" width="60" height="60"/>
  <use id="zoomplus" xlink:href="#zoomPlus" x="17" y="9" onmousedown="handleZoom(evt,'in')"/>
  <use id="zoomminus" xlink:href="#zoomMin" x="42" y="9" onmousedown="handleZoom(evt,'out')"/>
  <use id="reset" xlink:href="#resetDef" x="30" y="36" onmousedown="handleReset()"/>
   <use id="arrowup" xlink:href="#arrowUp" x="0" y="0" onmousedown="handlePan(0,-1)"/>
  <use id="arrowright" xlink:href="#arrowRight" x="0" y="0" onmousedown="handlePan(1,0)"/>
  <use id="arrowdown" xlink:href="#arrowDown" x="0" y="0" onmousedown="handlePan(0,1)"/>
  <use id="arrowleft" xlink:href="#arrowLeft" x="0" y="0" onmousedown="handlePan(-1,0)"/>
</g>
<svg viewBox="0 0 15 15" width="100%" height="30px" preserveAspectRatio="xMaxYMin meet">
 <g id="arrow_out" transform="scale(0.3 0.3)">
  <a xlink:href="group__storage01_gaa3b6f1341ad447d7f7f95d1be802b1e7_icgraph_org.svg" target="_base">
   <rect id="button" ry="5" rx="5" y="6" x="6" height="38" width="38"
        fill="#f2f5e9" fill-opacity="0.5" stroke="#606060" stroke-width="1.0"/>
   <path id="arrow"
     d="M 11.500037,31.436501 C 11.940474,20.09759 22.043105,11.32322 32.158766,21.979434 L 37.068811,17.246167 C 37.068811,17.246167 37.088388,32 37.088388,32 L 22.160133,31.978069 C 22.160133,31.978069 26.997745,27.140456 26.997745,27.140456 C 18.528582,18.264221 13.291696,25.230495 11.500037,31.436501 z"
     style="fill:#404040;"/>
  </a>
 </g>
</svg>

<style type='text/css'>
<![CDATA[
[data-mouse-over-selected='false'] { opacity: 0.7; }
[data-mouse-over-selected='true']  { opacity: 1.0; }
]]>
</style>
<script type="application/ecmascript"><![CDATA[
document.addEventListener('DOMContentLoaded', (event) => {
  highlightEdges();
  highlightAdjacentNodes();
});
]]></script>
</svg>
