<?xml version="1.0" encoding="UTF-8" standalone="no"?>
<!DOCTYPE svg PUBLIC "-//W3C//DTD SVG 1.1//EN"
 "http://www.w3.org/Graphics/SVG/1.1/DTD/svg11.dtd">
<!-- Generated by graphviz version 13.1.2 (20250808.2320)
 -->
<!-- Title: EEPROM_WriteFactoryDefaults Pages: 1 -->
<svg width="1235pt" height="326pt"
 viewBox="0.00 0.00 1235.00 326.00" xmlns="http://www.w3.org/2000/svg" xmlns:xlink="http://www.w3.org/1999/xlink">
<g id="graph0" class="graph" transform="scale(1 1) rotate(0) translate(4 322.44)">
<title>EEPROM_WriteFactoryDefaults</title>
<!-- Node1 -->
<g id="Node000001" class="node">
<title>Node1</title>
<g id="a_Node000001"><a xlink:title="Write factory defaults to all EEPROM sections.">
<polygon fill="#999999" stroke="#666666" points="157,-166.12 0,-166.12 0,-146.12 157,-146.12 157,-166.12"/>
<text xml:space="preserve" text-anchor="middle" x="78.5" y="-152.62" font-family="Helvetica,sans-Serif" font-size="10.00">EEPROM_WriteFactoryDefaults</text>
</a>
</g>
</g>
<!-- Node2 -->
<g id="Node000002" class="node">
<title>Node2</title>
<g id="a_Node000002"><a xlink:href="group__storage03.html#ga461c49efb137c6fcc9871867b974c326" target="_top" xlink:title="Derive MAC address from the cached serial number.">
<polygon fill="white" stroke="#666666" points="341.75,-318.12 226,-318.12 226,-298.12 341.75,-298.12 341.75,-318.12"/>
<text xml:space="preserve" text-anchor="middle" x="283.88" y="-304.62" font-family="Helvetica,sans-Serif" font-size="10.00">DeviceIdentity_FillMac</text>
</a>
</g>
</g>
<!-- Node1&#45;&gt;Node2 -->
<g id="edge1_Node000001_Node000002" class="edge">
<title>Node1&#45;&gt;Node2</title>
<g id="a_edge1_Node000001_Node000002"><a xlink:title=" ">
<path fill="none" stroke="#63b8ff" d="M85.06,-166.44C99.3,-191.81 139.77,-257.48 193,-289.12 199.71,-293.11 207.14,-296.27 214.76,-298.76"/>
<polygon fill="#63b8ff" stroke="#63b8ff" points="213.59,-302.07 224.17,-301.46 215.52,-295.34 213.59,-302.07"/>
</a>
</g>
</g>
<!-- Node3 -->
<g id="Node000003" class="node">
<title>Node3</title>
<g id="a_Node000003"><a xlink:href="group__storage11.html#ga89e7b743f0d87d2f8658c42cbaf1990d" target="_top" xlink:title="Write default device name and location with CRC.">
<polygon fill="white" stroke="#666666" points="374.75,-280.12 193,-280.12 193,-260.12 374.75,-260.12 374.75,-280.12"/>
<text xml:space="preserve" text-anchor="middle" x="283.88" y="-266.62" font-family="Helvetica,sans-Serif" font-size="10.00">EEPROM_WriteDefaultNameLocation</text>
</a>
</g>
</g>
<!-- Node1&#45;&gt;Node3 -->
<g id="edge2_Node000001_Node000003" class="edge">
<title>Node1&#45;&gt;Node3</title>
<g id="a_edge2_Node000001_Node000003"><a xlink:title=" ">
<path fill="none" stroke="#63b8ff" d="M89.44,-166.41C108.03,-185.07 150.08,-224.55 193,-246.12 200.91,-250.1 209.56,-253.47 218.27,-256.32"/>
<polygon fill="#63b8ff" stroke="#63b8ff" points="217.24,-259.66 227.82,-259.21 219.27,-252.96 217.24,-259.66"/>
</a>
</g>
</g>
<!-- Node11 -->
<g id="Node000011" class="node">
<title>Node11</title>
<g id="a_Node000011"><a xlink:href="group__tasks10.html#ga78c530f9c7ec4d2330e6d1a092df6dc0" target="_top" xlink:title="Enqueue an error code for deferred EEPROM logging (non&#45;blocking).">
<polygon fill="white" stroke="#666666" points="908,-128.12 770.5,-128.12 770.5,-108.12 908,-108.12 908,-128.12"/>
<text xml:space="preserve" text-anchor="middle" x="839.25" y="-114.62" font-family="Helvetica,sans-Serif" font-size="10.00">Storage_EnqueueErrorCode</text>
</a>
</g>
</g>
<!-- Node1&#45;&gt;Node11 -->
<g id="edge31_Node000001_Node000011" class="edge">
<title>Node1&#45;&gt;Node11</title>
<g id="a_edge31_Node000001_Node000011"><a xlink:title=" ">
<path fill="none" stroke="#63b8ff" d="M86.52,-145.63C102.39,-122.89 143.54,-69.25 193,-46.12 347.47,26.13 406.59,-3.61 576,-23.12 647.86,-31.4 667.05,-33.99 734.5,-60.12 762.81,-71.09 792.85,-88.61 813.28,-101.53"/>
<polygon fill="#63b8ff" stroke="#63b8ff" points="811.18,-104.34 821.49,-106.81 814.97,-98.45 811.18,-104.34"/>
</a>
</g>
</g>
<!-- Node13 -->
<g id="Node000013" class="node">
<title>Node13</title>
<g id="a_Node000013"><a xlink:href="group__storage04.html#ga2d726f82a082d5cdd3ae6b1bfaab1ce8" target="_top" xlink:title="Write energy monitoring region. See energy_monitor.h.">
<polygon fill="white" stroke="#666666" points="574.88,-204.12 411.88,-204.12 411.88,-184.12 574.88,-184.12 574.88,-204.12"/>
<text xml:space="preserve" text-anchor="middle" x="493.38" y="-190.62" font-family="Helvetica,sans-Serif" font-size="10.00">EEPROM_WriteEnergyMonitoring</text>
</a>
</g>
</g>
<!-- Node1&#45;&gt;Node13 -->
<g id="edge13_Node000001_Node000013" class="edge">
<title>Node1&#45;&gt;Node13</title>
<g id="a_edge13_Node000001_Node000013"><a xlink:title=" ">
<path fill="none" stroke="#63b8ff" d="M135.05,-166.59C153.44,-169.74 174.05,-172.94 193,-175.12 262.26,-183.09 340.95,-187.92 400.27,-190.72"/>
<polygon fill="#63b8ff" stroke="#63b8ff" points="399.83,-194.2 409.98,-191.16 400.15,-187.21 399.83,-194.2"/>
</a>
</g>
</g>
<!-- Node14 -->
<g id="Node000014" class="node">
<title>Node14</title>
<g id="a_Node000014"><a xlink:href="group__storage05.html#gabbe7eb05db9255f0b77b8d43ed6ee7c3" target="_top" xlink:title="Write event log region. See event_log.h.">
<polygon fill="white" stroke="#666666" points="350.75,-166.12 217,-166.12 217,-146.12 350.75,-146.12 350.75,-166.12"/>
<text xml:space="preserve" text-anchor="middle" x="283.88" y="-152.62" font-family="Helvetica,sans-Serif" font-size="10.00">EEPROM_WriteEventLogs</text>
</a>
</g>
</g>
<!-- Node1&#45;&gt;Node14 -->
<g id="edge16_Node000001_Node000014" class="edge">
<title>Node1&#45;&gt;Node14</title>
<g id="a_edge16_Node000001_Node000014"><a xlink:title=" ">
<path fill="none" stroke="#63b8ff" d="M157.26,-156.12C173.05,-156.12 189.66,-156.12 205.44,-156.12"/>
<polygon fill="#63b8ff" stroke="#63b8ff" points="205.24,-159.62 215.24,-156.12 205.24,-152.62 205.24,-159.62"/>
</a>
</g>
</g>
<!-- Node15 -->
<g id="Node000015" class="node">
<title>Node15</title>
<g id="a_Node000015"><a xlink:href="group__storage01.html#ga32076a8416bb992b9406dec24567cf71" target="_top" xlink:title="Write entire HLW8032 sensor calibration block to EEPROM.">
<polygon fill="white" stroke="#666666" points="575.62,-128.12 411.12,-128.12 411.12,-108.12 575.62,-108.12 575.62,-128.12"/>
<text xml:space="preserve" text-anchor="middle" x="493.38" y="-114.62" font-family="Helvetica,sans-Serif" font-size="10.00">EEPROM_WriteSensorCalibration</text>
</a>
</g>
</g>
<!-- Node1&#45;&gt;Node15 -->
<g id="edge18_Node000001_Node000015" class="edge">
<title>Node1&#45;&gt;Node15</title>
<g id="a_edge18_Node000001_Node000015"><a xlink:title=" ">
<path fill="none" stroke="#63b8ff" d="M135.05,-145.65C153.44,-142.5 174.05,-139.3 193,-137.12 262.02,-129.17 340.4,-124.35 399.65,-121.55"/>
<polygon fill="#63b8ff" stroke="#63b8ff" points="399.51,-125.06 409.34,-121.11 399.19,-118.07 399.51,-125.06"/>
</a>
</g>
</g>
<!-- Node16 -->
<g id="Node000016" class="node">
<title>Node16</title>
<g id="a_Node000016"><a xlink:href="group__storage07.html#ga6e3a05e108d6081a55378ffe3e817f43" target="_top" xlink:title="Write system information block without CRC validation.">
<polygon fill="white" stroke="#666666" points="562.12,-90.12 424.62,-90.12 424.62,-70.12 562.12,-70.12 562.12,-90.12"/>
<text xml:space="preserve" text-anchor="middle" x="493.38" y="-76.62" font-family="Helvetica,sans-Serif" font-size="10.00">EEPROM_WriteSystemInfo</text>
</a>
</g>
</g>
<!-- Node1&#45;&gt;Node16 -->
<g id="edge21_Node000001_Node000016" class="edge">
<title>Node1&#45;&gt;Node16</title>
<g id="a_edge21_Node000001_Node000016"><a xlink:title=" ">
<path fill="none" stroke="#63b8ff" d="M106.62,-145.7C129.37,-137.35 162.88,-125.93 193,-119.12 266.6,-102.48 352.11,-92.22 412.84,-86.43"/>
<polygon fill="#63b8ff" stroke="#63b8ff" points="413.13,-89.92 422.76,-85.51 412.48,-82.95 413.13,-89.92"/>
</a>
</g>
</g>
<!-- Node17 -->
<g id="Node000017" class="node">
<title>Node17</title>
<g id="a_Node000017"><a xlink:href="group__storage07.html#ga3c1fef9aa93f898978387328a8a6e33d" target="_top" xlink:title="Write network configuration with CRC&#45;8 validation appended.">
<polygon fill="white" stroke="#666666" points="576,-254.12 410.75,-254.12 410.75,-222.12 576,-222.12 576,-254.12"/>
<text xml:space="preserve" text-anchor="start" x="418.75" y="-240.62" font-family="Helvetica,sans-Serif" font-size="10.00">EEPROM_WriteUserNetworkWith</text>
<text xml:space="preserve" text-anchor="middle" x="493.38" y="-228.62" font-family="Helvetica,sans-Serif" font-size="10.00">Checksum</text>
</a>
</g>
</g>
<!-- Node1&#45;&gt;Node17 -->
<g id="edge24_Node000001_Node000017" class="edge">
<title>Node1&#45;&gt;Node17</title>
<g id="a_edge24_Node000001_Node000017"><a xlink:title=" ">
<path fill="none" stroke="#63b8ff" d="M104.31,-166.48C127.02,-175.57 161.74,-188.5 193,-196.12 261.14,-212.73 339.72,-223.44 399.27,-229.89"/>
<polygon fill="#63b8ff" stroke="#63b8ff" points="398.72,-233.35 409.04,-230.93 399.46,-226.39 398.72,-233.35"/>
</a>
</g>
</g>
<!-- Node18 -->
<g id="Node000018" class="node">
<title>Node18</title>
<g id="a_Node000018"><a xlink:href="group__storage09.html#ga737c93ab5e7648d81175b6d5fd05ce6d" target="_top" xlink:title="Legacy: Write raw relay states to EEPROM relay section.">
<polygon fill="white" stroke="#666666" points="562.12,-52.12 424.62,-52.12 424.62,-32.12 562.12,-32.12 562.12,-52.12"/>
<text xml:space="preserve" text-anchor="middle" x="493.38" y="-38.62" font-family="Helvetica,sans-Serif" font-size="10.00">EEPROM_WriteUserOutput</text>
</a>
</g>
</g>
<!-- Node1&#45;&gt;Node18 -->
<g id="edge28_Node000001_Node000018" class="edge">
<title>Node1&#45;&gt;Node18</title>
<g id="a_edge28_Node000001_Node000018"><a xlink:title=" ">
<path fill="none" stroke="#63b8ff" d="M92.58,-145.74C112.82,-130.26 153.54,-101.42 193,-87.12 264.75,-61.11 351.43,-50.13 413.01,-45.5"/>
<polygon fill="#63b8ff" stroke="#63b8ff" points="412.97,-49.01 422.7,-44.81 412.48,-42.03 412.97,-49.01"/>
</a>
</g>
</g>
<!-- Node4 -->
<g id="Node000004" class="node">
<title>Node4</title>
<g id="a_Node000004"><a xlink:href="group__storage11.html#gaffd968de2dd26c2a571f3057dc72f2dc" target="_top" xlink:title="Write user preferences with CRC&#45;8 validation.">
<polygon fill="white" stroke="#666666" points="569.25,-304.12 417.5,-304.12 417.5,-272.12 569.25,-272.12 569.25,-304.12"/>
<text xml:space="preserve" text-anchor="start" x="425.5" y="-290.62" font-family="Helvetica,sans-Serif" font-size="10.00">EEPROM_WriteUserPrefsWith</text>
<text xml:space="preserve" text-anchor="middle" x="493.38" y="-278.62" font-family="Helvetica,sans-Serif" font-size="10.00">Checksum</text>
</a>
</g>
</g>
<!-- Node3&#45;&gt;Node4 -->
<g id="edge3_Node000003_Node000004" class="edge">
<title>Node3&#45;&gt;Node4</title>
<g id="a_edge3_Node000003_Node000004"><a xlink:title=" ">
<path fill="none" stroke="#63b8ff" d="M374.98,-277.94C385.23,-278.83 395.67,-279.73 405.87,-280.62"/>
<polygon fill="#63b8ff" stroke="#63b8ff" points="405.5,-284.1 415.76,-281.47 406.1,-277.12 405.5,-284.1"/>
</a>
</g>
</g>
<!-- Node5 -->
<g id="Node000005" class="node">
<title>Node5</title>
<g id="a_Node000005"><a xlink:href="group__storage08.html#gaae57a92db26b8a63b7584fd2f3407077" target="_top" xlink:title="Calculate CRC&#45;8 checksum for data integrity verification.">
<polygon fill="white" stroke="#666666" points="712.75,-280.12 633.75,-280.12 633.75,-260.12 712.75,-260.12 712.75,-280.12"/>
<text xml:space="preserve" text-anchor="middle" x="673.25" y="-266.62" font-family="Helvetica,sans-Serif" font-size="10.00">calculate_crc8</text>
</a>
</g>
</g>
<!-- Node4&#45;&gt;Node5 -->
<g id="edge4_Node000004_Node000005" class="edge">
<title>Node4&#45;&gt;Node5</title>
<g id="a_edge4_Node000004_Node000005"><a xlink:title=" ">
<path fill="none" stroke="#63b8ff" d="M569.55,-280.51C587.25,-278.72 605.7,-276.85 621.99,-275.21"/>
<polygon fill="#63b8ff" stroke="#63b8ff" points="622.34,-278.69 631.93,-274.2 621.63,-271.72 622.34,-278.69"/>
</a>
</g>
</g>
<!-- Node6 -->
<g id="Node000006" class="node">
<title>Node6</title>
<g id="a_Node000006"><a xlink:href="group__driver02.html#ga8088b9a17773cb65bb6b5d89d3598125" target="_top" xlink:title="Write buffer to EEPROM with automatic page boundary handling.">
<polygon fill="white" stroke="#666666" points="734.5,-166.12 612,-166.12 612,-146.12 734.5,-146.12 734.5,-166.12"/>
<text xml:space="preserve" text-anchor="middle" x="673.25" y="-152.62" font-family="Helvetica,sans-Serif" font-size="10.00">CAT24C256_WriteBuffer</text>
</a>
</g>
</g>
<!-- Node4&#45;&gt;Node6 -->
<g id="edge5_Node000004_Node000006" class="edge">
<title>Node4&#45;&gt;Node6</title>
<g id="a_edge5_Node000004_Node000006"><a xlink:title=" ">
<path fill="none" stroke="#63b8ff" d="M559.55,-271.75C565.3,-269.25 570.88,-266.39 576,-263.12 612.15,-240.06 643.09,-199.84 659.55,-175.82"/>
<polygon fill="#63b8ff" stroke="#63b8ff" points="662.4,-177.85 665.04,-167.59 656.58,-173.97 662.4,-177.85"/>
</a>
</g>
</g>
<!-- Node4&#45;&gt;Node11 -->
<g id="edge12_Node000004_Node000011" class="edge">
<title>Node4&#45;&gt;Node11</title>
<g id="a_edge12_Node000004_Node000011"><a xlink:title=" ">
<path fill="none" stroke="#63b8ff" d="M543.38,-304.58C596.39,-319.04 680.55,-331.79 734.5,-289.12 788.95,-246.06 722.42,-187.2 770.5,-137.12 771.22,-136.37 771.97,-135.65 772.74,-134.95"/>
<polygon fill="#63b8ff" stroke="#63b8ff" points="774.46,-138.02 780.61,-129.4 770.43,-132.3 774.46,-138.02"/>
</a>
</g>
</g>
<!-- Node7 -->
<g id="Node000007" class="node">
<title>Node7</title>
<g id="a_Node000007"><a xlink:href="group__drivers05.html#ga77ca38d627119d534873e177c5f4a667" target="_top" xlink:title="Write to 16&#45;bit memory address: [mem_hi, mem_lo, data...].">
<polygon fill="white" stroke="#666666" points="896,-204.12 782.5,-204.12 782.5,-184.12 896,-184.12 896,-204.12"/>
<text xml:space="preserve" text-anchor="middle" x="839.25" y="-190.62" font-family="Helvetica,sans-Serif" font-size="10.00">i2c_bus_write_mem16</text>
</a>
</g>
</g>
<!-- Node6&#45;&gt;Node7 -->
<g id="edge6_Node000006_Node000007" class="edge">
<title>Node6&#45;&gt;Node7</title>
<g id="a_edge6_Node000006_Node000007"><a xlink:title=" ">
<path fill="none" stroke="#63b8ff" d="M719.5,-166.6C738.86,-171.09 761.66,-176.37 782.09,-181.11"/>
<polygon fill="#63b8ff" stroke="#63b8ff" points="781.14,-184.48 791.68,-183.33 782.72,-177.66 781.14,-184.48"/>
</a>
</g>
</g>
<!-- Node6&#45;&gt;Node11 -->
<g id="edge10_Node000006_Node000011" class="edge">
<title>Node6&#45;&gt;Node11</title>
<g id="a_edge10_Node000006_Node000011"><a xlink:title=" ">
<path fill="none" stroke="#63b8ff" d="M719.5,-145.64C738.86,-141.15 761.66,-135.87 782.09,-131.13"/>
<polygon fill="#63b8ff" stroke="#63b8ff" points="782.72,-134.58 791.68,-128.91 781.14,-127.76 782.72,-134.58"/>
</a>
</g>
</g>
<!-- Node12 -->
<g id="Node000012" class="node">
<title>Node12</title>
<g id="a_Node000012"><a xlink:href="_c_a_t24_c256__driver_8c.html#aeba5f43a83c24289211b7d919c260978" target="_top" xlink:title="RTOS&#45;compatible write cycle delay.">
<polygon fill="white" stroke="#666666" points="886.25,-166.12 792.25,-166.12 792.25,-146.12 886.25,-146.12 886.25,-166.12"/>
<text xml:space="preserve" text-anchor="middle" x="839.25" y="-152.62" font-family="Helvetica,sans-Serif" font-size="10.00">write_cycle_delay</text>
</a>
</g>
</g>
<!-- Node6&#45;&gt;Node12 -->
<g id="edge11_Node000006_Node000012" class="edge">
<title>Node6&#45;&gt;Node12</title>
<g id="a_edge11_Node000006_Node000012"><a xlink:title=" ">
<path fill="none" stroke="#63b8ff" d="M734.85,-156.12C749.9,-156.12 765.99,-156.12 780.88,-156.12"/>
<polygon fill="#63b8ff" stroke="#63b8ff" points="780.48,-159.62 790.48,-156.12 780.48,-152.62 780.48,-159.62"/>
</a>
</g>
</g>
<!-- Node8 -->
<g id="Node000008" class="node">
<title>Node8</title>
<g id="a_Node000008"><a xlink:href="i2c__bus_8c.html#a1ebc752812bef8ea35845f0b4eb80217" target="_top" xlink:title=" ">
<polygon fill="white" stroke="#666666" points="1054.12,-223.12 963.12,-223.12 963.12,-203.12 1054.12,-203.12 1054.12,-223.12"/>
<text xml:space="preserve" text-anchor="middle" x="1008.62" y="-209.62" font-family="Helvetica,sans-Serif" font-size="10.00">i2c_bus_diag_log</text>
</a>
</g>
</g>
<!-- Node7&#45;&gt;Node8 -->
<g id="edge7_Node000007_Node000008" class="edge">
<title>Node7&#45;&gt;Node8</title>
<g id="a_edge7_Node000007_Node000008"><a xlink:title=" ">
<path fill="none" stroke="#63b8ff" d="M896.45,-200.5C914.13,-202.51 933.66,-204.72 951.35,-206.73"/>
<polygon fill="#63b8ff" stroke="#63b8ff" points="950.84,-210.2 961.17,-207.85 951.63,-203.24 950.84,-210.2"/>
</a>
</g>
</g>
<!-- Node9 -->
<g id="Node000009" class="node">
<title>Node9</title>
<g id="a_Node000009"><a xlink:href="group__drivers05.html#ga170d6c4ff97ddc2d314f0a7a0054f283" target="_top" xlink:title="Queue a write on the specified I2C controller and wait synchronously. Mirrors Pico SDK i2c_write_time...">
<polygon fill="white" stroke="#666666" points="1073.25,-185.12 944,-185.12 944,-165.12 1073.25,-165.12 1073.25,-185.12"/>
<text xml:space="preserve" text-anchor="middle" x="1008.62" y="-171.62" font-family="Helvetica,sans-Serif" font-size="10.00">i2c_bus_write_timeout_us</text>
</a>
</g>
</g>
<!-- Node7&#45;&gt;Node9 -->
<g id="edge8_Node000007_Node000009" class="edge">
<title>Node7&#45;&gt;Node9</title>
<g id="a_edge8_Node000007_Node000009"><a xlink:title=" ">
<path fill="none" stroke="#63b8ff" d="M896.45,-187.74C908.08,-186.42 920.51,-185.01 932.69,-183.63"/>
<polygon fill="#63b8ff" stroke="#63b8ff" points="932.74,-187.14 942.28,-182.54 931.95,-180.19 932.74,-187.14"/>
</a>
</g>
</g>
<!-- Node10 -->
<g id="Node000010" class="node">
<title>Node10</title>
<g id="a_Node000010"><a xlink:href="i2c__bus_8c.html#afbaa64f79bdd1fa39c8fa5b7a9c2717b" target="_top" xlink:title=" ">
<polygon fill="white" stroke="#666666" points="1227.25,-185.12 1109.25,-185.12 1109.25,-165.12 1227.25,-165.12 1227.25,-185.12"/>
<text xml:space="preserve" text-anchor="middle" x="1168.25" y="-171.62" font-family="Helvetica,sans-Serif" font-size="10.00">i2c_bus_submit_simple</text>
</a>
</g>
</g>
<!-- Node9&#45;&gt;Node10 -->
<g id="edge9_Node000009_Node000010" class="edge">
<title>Node9&#45;&gt;Node10</title>
<g id="a_edge9_Node000009_Node000010"><a xlink:title=" ">
<path fill="none" stroke="#63b8ff" d="M1073.74,-175.12C1081.53,-175.12 1089.51,-175.12 1097.38,-175.12"/>
<polygon fill="#63b8ff" stroke="#63b8ff" points="1097.27,-178.62 1107.27,-175.12 1097.27,-171.62 1097.27,-178.62"/>
</a>
</g>
</g>
<!-- Node13&#45;&gt;Node6 -->
<g id="edge14_Node000013_Node000006" class="edge">
<title>Node13&#45;&gt;Node6</title>
<g id="a_edge14_Node000013_Node000006"><a xlink:title=" ">
<path fill="none" stroke="#63b8ff" d="M543.45,-183.64C564.74,-179.09 589.87,-173.72 612.26,-168.94"/>
<polygon fill="#63b8ff" stroke="#63b8ff" points="612.81,-172.4 621.85,-166.89 611.34,-165.55 612.81,-172.4"/>
</a>
</g>
</g>
<!-- Node13&#45;&gt;Node11 -->
<g id="edge15_Node000013_Node000011" class="edge">
<title>Node13&#45;&gt;Node11</title>
<g id="a_edge15_Node000013_Node000011"><a xlink:title=" ">
<path fill="none" stroke="#63b8ff" d="M575.14,-201.85C623.58,-203.14 685.16,-198.69 734.5,-175.12 755.49,-165.09 750.58,-149.14 770.5,-137.12 772.97,-135.63 775.56,-134.25 778.23,-132.98"/>
<polygon fill="#63b8ff" stroke="#63b8ff" points="779.53,-136.23 787.42,-129.16 776.85,-129.76 779.53,-136.23"/>
</a>
</g>
</g>
<!-- Node14&#45;&gt;Node6 -->
<g id="edge17_Node000014_Node000006" class="edge">
<title>Node14&#45;&gt;Node6</title>
<g id="a_edge17_Node000014_Node000006"><a xlink:title=" ">
<path fill="none" stroke="#63b8ff" d="M351.03,-156.12C420.46,-156.12 529.25,-156.12 600.66,-156.12"/>
<polygon fill="#63b8ff" stroke="#63b8ff" points="600.28,-159.62 610.28,-156.12 600.28,-152.62 600.28,-159.62"/>
</a>
</g>
</g>
<!-- Node15&#45;&gt;Node6 -->
<g id="edge19_Node000015_Node000006" class="edge">
<title>Node15&#45;&gt;Node6</title>
<g id="a_edge19_Node000015_Node000006"><a xlink:title=" ">
<path fill="none" stroke="#63b8ff" d="M543.45,-128.6C564.74,-133.15 589.87,-138.52 612.26,-143.3"/>
<polygon fill="#63b8ff" stroke="#63b8ff" points="611.34,-146.69 621.85,-145.35 612.81,-139.84 611.34,-146.69"/>
</a>
</g>
</g>
<!-- Node15&#45;&gt;Node11 -->
<g id="edge20_Node000015_Node000011" class="edge">
<title>Node15&#45;&gt;Node11</title>
<g id="a_edge20_Node000015_Node000011"><a xlink:title=" ">
<path fill="none" stroke="#63b8ff" d="M575.87,-118.12C631.12,-118.12 703.8,-118.12 758.65,-118.12"/>
<polygon fill="#63b8ff" stroke="#63b8ff" points="758.56,-121.62 768.56,-118.12 758.56,-114.62 758.56,-121.62"/>
</a>
</g>
</g>
<!-- Node16&#45;&gt;Node6 -->
<g id="edge22_Node000016_Node000006" class="edge">
<title>Node16&#45;&gt;Node6</title>
<g id="a_edge22_Node000016_Node000006"><a xlink:title=" ">
<path fill="none" stroke="#63b8ff" d="M549.53,-90.53C558.52,-92.91 567.63,-95.76 576,-99.12 602.28,-109.67 629.84,-126.69 648.71,-139.39"/>
<polygon fill="#63b8ff" stroke="#63b8ff" points="646.5,-142.12 656.73,-144.9 650.47,-136.35 646.5,-142.12"/>
</a>
</g>
</g>
<!-- Node16&#45;&gt;Node11 -->
<g id="edge23_Node000016_Node000011" class="edge">
<title>Node16&#45;&gt;Node11</title>
<g id="a_edge23_Node000016_Node000011"><a xlink:title=" ">
<path fill="none" stroke="#63b8ff" d="M562.31,-87.63C618.86,-93.88 699.44,-102.78 758.93,-109.35"/>
<polygon fill="#63b8ff" stroke="#63b8ff" points="758.33,-112.81 768.65,-110.43 759.1,-105.85 758.33,-112.81"/>
</a>
</g>
</g>
<!-- Node17&#45;&gt;Node5 -->
<g id="edge25_Node000017_Node000005" class="edge">
<title>Node17&#45;&gt;Node5</title>
<g id="a_edge25_Node000017_Node000005"><a xlink:title=" ">
<path fill="none" stroke="#63b8ff" d="M576.28,-252.86C591.97,-255.68 607.95,-258.55 622.25,-261.12"/>
<polygon fill="#63b8ff" stroke="#63b8ff" points="621.37,-264.52 631.83,-262.85 622.61,-257.63 621.37,-264.52"/>
</a>
</g>
</g>
<!-- Node17&#45;&gt;Node6 -->
<g id="edge26_Node000017_Node000006" class="edge">
<title>Node17&#45;&gt;Node6</title>
<g id="a_edge26_Node000017_Node000006"><a xlink:title=" ">
<path fill="none" stroke="#63b8ff" d="M553.83,-221.73C561.4,-219.11 568.95,-216.23 576,-213.12 601.6,-201.81 628.88,-185.17 647.83,-172.79"/>
<polygon fill="#63b8ff" stroke="#63b8ff" points="649.53,-175.86 655.92,-167.42 645.66,-170.03 649.53,-175.86"/>
</a>
</g>
</g>
<!-- Node17&#45;&gt;Node11 -->
<g id="edge27_Node000017_Node000011" class="edge">
<title>Node17&#45;&gt;Node11</title>
<g id="a_edge27_Node000017_Node000011"><a xlink:title=" ">
<path fill="none" stroke="#63b8ff" d="M576.36,-243.31C626.14,-242.47 688.71,-233.92 734.5,-202.12 761.63,-183.29 744.6,-157.61 770.5,-137.12 771.98,-135.95 773.53,-134.85 775.14,-133.82"/>
<polygon fill="#63b8ff" stroke="#63b8ff" points="776.34,-137.14 783.5,-129.33 773.03,-130.97 776.34,-137.14"/>
</a>
</g>
</g>
<!-- Node18&#45;&gt;Node6 -->
<g id="edge29_Node000018_Node000006" class="edge">
<title>Node18&#45;&gt;Node6</title>
<g id="a_edge29_Node000018_Node000006"><a xlink:title=" ">
<path fill="none" stroke="#63b8ff" d="M555.93,-52.55C562.91,-54.86 569.76,-57.68 576,-61.12 610.41,-80.09 640.97,-114.86 658,-136.66"/>
<polygon fill="#63b8ff" stroke="#63b8ff" points="655.09,-138.62 663.93,-144.46 660.66,-134.38 655.09,-138.62"/>
</a>
</g>
</g>
<!-- Node18&#45;&gt;Node11 -->
<g id="edge30_Node000018_Node000011" class="edge">
<title>Node18&#45;&gt;Node11</title>
<g id="a_edge30_Node000018_Node000011"><a xlink:title=" ">
<path fill="none" stroke="#63b8ff" d="M554.86,-52.59C603.58,-61.35 673.74,-74.71 734.5,-89.12 753.55,-93.64 774.37,-99.31 792.32,-104.44"/>
<polygon fill="#63b8ff" stroke="#63b8ff" points="791.34,-107.8 801.92,-107.21 793.28,-101.07 791.34,-107.8"/>
</a>
</g>
</g>
</g>
</svg>
