<?xml version="1.0" encoding="UTF-8" standalone="no"?>
<!DOCTYPE svg PUBLIC "-//W3C//DTD SVG 1.1//EN"
 "http://www.w3.org/Graphics/SVG/1.1/DTD/svg11.dtd">
<!-- Generated by graphviz version 13.1.2 (20250808.2320)
 -->
<!-- Title: Switch_SyncFromHardware Pages: 1 -->
<!--zoomable 142 -->

<svg id="main" version="1.1" xmlns="http://www.w3.org/2000/svg" xmlns:xlink="http://www.w3.org/1999/xlink" xml:space="preserve" onload="init(evt)">

<style type="text/css"><![CDATA[
.node, .edge {opacity: 0.7;}
.node.selected, .edge.selected {opacity: 1;}
.edge:hover path { stroke: red; }
.edge:hover polygon { stroke: red; fill: red; }
]]></style>

<defs>
  <circle id="rim" cx="0" cy="0" r="7"/>
  <circle id="rim2" cx="0" cy="0" r="3.5"/>
  <g id="zoomPlus">
    <use xlink:href="#rim" fill="#404040"><set attributeName="fill" to="#808080" begin="zoomplus.mouseover" end="zoomplus.mouseout"/></use>
    <path d="M-4,0h8M0,-4v8" fill="none" stroke="white" stroke-width="1.5" pointer-events="none"/>
  </g>
  <g id="zoomMin">
    <use xlink:href="#rim" fill="#404040"><set attributeName="fill" to="#808080" begin="zoomminus.mouseover" end="zoomminus.mouseout"/></use>
    <path d="M-4,0h8" fill="none" stroke="white" stroke-width="1.5" pointer-events="none"/>
  </g>
  <g id="arrowUp" transform="translate(30 24)">
    <use xlink:href="#rim"/>
    <path pointer-events="none" fill="none" stroke="white" stroke-width="1.5" d="M0,-3.0v7 M-2.5,-0.5L0,-3.0L2.5,-0.5"/>
  </g>
  <g id="arrowRight" transform="rotate(90) translate(36 -43)">
    <use xlink:href="#rim"/>
    <path pointer-events="none" fill="none" stroke="white" stroke-width="1.5" d="M0,-3.0v7 M-2.5,-0.5L0,-3.0L2.5,-0.5"/>
  </g>
  <g id="arrowDown" transform="rotate(180) translate(-30 -48)">
    <use xlink:href="#rim"/>
    <path pointer-events="none" fill="none" stroke="white" stroke-width="1.5" d="M0,-3.0v7 M-2.5,-0.5L0,-3.0L2.5,-0.5"/>
  </g>
  <g id="arrowLeft" transform="rotate(270) translate(-36 17)">
    <use xlink:href="#rim"/>
    <path pointer-events="none" fill="none" stroke="white" stroke-width="1.5" d="M0,-3.0v7 M-2.5,-0.5L0,-3.0L2.5,-0.5"/>
  </g>
  <g id="resetDef">
    <use xlink:href="#rim2" fill="#404040"><set attributeName="fill" to="#808080" begin="reset.mouseover" end="reset.mouseout"/></use>
  </g>
</defs>
<script type="application/ecmascript">
var viewWidth = 899;
var viewHeight = 142;
var sectionId = 'dynsection-37';
</script>
<script type="application/ecmascript" xlink:href="svg.min.js"/>
<svg id="graph" class="graph">
<g id="viewport">
<title>Switch_SyncFromHardware</title>
<!-- Node1 -->
<g id="Node000001" class="node">
<title>Node1</title>
<g id="a_Node000001"><a xlink:title="Force synchronization of cache from hardware.">
<polygon fill="#999999" stroke="#666666" points="138.25,-77 0,-77 0,-57 138.25,-57 138.25,-77"/>
<text xml:space="preserve" text-anchor="middle" x="69.12" y="-63.5" font-family="Helvetica,sans-Serif" font-size="10.00">Switch_SyncFromHardware</text>
</a>
</g>
</g>
<!-- Node2 -->
<g id="Node000002" class="node">
<title>Node2</title>
<g id="a_Node000002"><a xlink:href="_switch_task_8c.html#a2a7f01bd659f5eea0a4a131d8c57c207" target="_top" xlink:title=" ">
<polygon fill="white" stroke="#666666" points="242,-121 208,-121 208,-101 242,-101 242,-121"/>
<text xml:space="preserve" text-anchor="middle" x="225" y="-107.5" font-family="Helvetica,sans-Serif" font-size="10.00">lock</text>
</a>
</g>
</g>
<!-- Node1&#45;&gt;Node2 -->
<g id="edge1_Node000001_Node000002" class="edge">
<title>Node1&#45;&gt;Node2</title>
<g id="a_edge1_Node000001_Node000002"><a xlink:title=" ">
<path fill="none" stroke="#63b8ff" d="M106.59,-77.43C134.21,-85.33 171.56,-96 196.65,-103.18"/>
<polygon fill="#63b8ff" stroke="#63b8ff" points="195.53,-106.5 206.1,-105.88 197.45,-99.77 195.53,-106.5"/>
</a>
</g>
</g>
<!-- Node3 -->
<g id="Node000003" class="node">
<title>Node3</title>
<g id="a_Node000003"><a xlink:href="_switch_task_8c.html#a4f736068a28c331df25cda27cb3a80c0" target="_top" xlink:title=" ">
<polygon fill="white" stroke="#666666" points="275.75,-83 174.25,-83 174.25,-51 275.75,-51 275.75,-83"/>
<text xml:space="preserve" text-anchor="start" x="182.25" y="-69.5" font-family="Helvetica,sans-Serif" font-size="10.00">mirror_display_from</text>
<text xml:space="preserve" text-anchor="middle" x="225" y="-57.5" font-family="Helvetica,sans-Serif" font-size="10.00">_relay</text>
</a>
</g>
</g>
<!-- Node1&#45;&gt;Node3 -->
<g id="edge2_Node000001_Node000003" class="edge">
<title>Node1&#45;&gt;Node3</title>
<g id="a_edge2_Node000001_Node000003"><a xlink:title=" ">
<path fill="none" stroke="#63b8ff" d="M138.51,-67C146.49,-67 154.6,-67 162.48,-67"/>
<polygon fill="#63b8ff" stroke="#63b8ff" points="162.31,-70.5 172.31,-67 162.31,-63.5 162.31,-70.5"/>
</a>
</g>
</g>
<!-- Node16 -->
<g id="Node000016" class="node">
<title>Node16</title>
<g id="a_Node000016"><a xlink:href="_switch_task_8c.html#abb7cc7eb4e959fda6a43c8dd85f20090" target="_top" xlink:title=" ">
<polygon fill="white" stroke="#666666" points="247.25,-33 202.75,-33 202.75,-13 247.25,-13 247.25,-33"/>
<text xml:space="preserve" text-anchor="middle" x="225" y="-19.5" font-family="Helvetica,sans-Serif" font-size="10.00">unlock</text>
</a>
</g>
</g>
<!-- Node1&#45;&gt;Node16 -->
<g id="edge16_Node000001_Node000016" class="edge">
<title>Node1&#45;&gt;Node16</title>
<g id="a_edge16_Node000001_Node000016"><a xlink:title=" ">
<path fill="none" stroke="#63b8ff" d="M106.59,-56.57C132.37,-49.2 166.62,-39.41 191.47,-32.3"/>
<polygon fill="#63b8ff" stroke="#63b8ff" points="192.4,-35.68 201.05,-29.56 190.47,-28.95 192.4,-35.68"/>
</a>
</g>
</g>
<!-- Node4 -->
<g id="Node000004" class="node">
<title>Node4</title>
<g id="a_Node000004"><a xlink:href="group__drivers06.html#ga7634eca518e2158ba0e636a3f03f3928" target="_top" xlink:title="Get display MCP23017 device context.">
<polygon fill="white" stroke="#666666" points="392.25,-134 321.5,-134 321.5,-114 392.25,-114 392.25,-134"/>
<text xml:space="preserve" text-anchor="middle" x="356.88" y="-120.5" font-family="Helvetica,sans-Serif" font-size="10.00">mcp_display</text>
</a>
</g>
</g>
<!-- Node3&#45;&gt;Node4 -->
<g id="edge3_Node000003_Node000004" class="edge">
<title>Node3&#45;&gt;Node4</title>
<g id="a_edge3_Node000003_Node000004"><a xlink:title=" ">
<path fill="none" stroke="#63b8ff" d="M262.68,-83.36C277.85,-90.1 295.63,-97.96 311.75,-105 314.76,-106.31 317.89,-107.67 321.03,-109.03"/>
<polygon fill="#63b8ff" stroke="#63b8ff" points="319.62,-112.24 330.19,-112.99 322.4,-105.81 319.62,-112.24"/>
</a>
</g>
</g>
<!-- Node5 -->
<g id="Node000005" class="node">
<title>Node5</title>
<g id="a_Node000005"><a xlink:href="group__drivers06.html#ga6568742c79ce5190216e5185238229ba" target="_top" xlink:title="Get relay MCP23017 device context.">
<polygon fill="white" stroke="#666666" points="387.38,-96 326.38,-96 326.38,-76 387.38,-76 387.38,-96"/>
<text xml:space="preserve" text-anchor="middle" x="356.88" y="-82.5" font-family="Helvetica,sans-Serif" font-size="10.00">mcp_relay</text>
</a>
</g>
</g>
<!-- Node3&#45;&gt;Node5 -->
<g id="edge4_Node000003_Node000005" class="edge">
<title>Node3&#45;&gt;Node5</title>
<g id="a_edge4_Node000003_Node000005"><a xlink:title=" ">
<path fill="none" stroke="#63b8ff" d="M276.21,-74.35C288.98,-76.21 302.55,-78.2 314.8,-79.99"/>
<polygon fill="#63b8ff" stroke="#63b8ff" points="314.17,-83.44 324.57,-81.42 315.19,-76.51 314.17,-83.44"/>
</a>
</g>
</g>
<!-- Node6 -->
<g id="Node000006" class="node">
<title>Node6</title>
<g id="a_Node000006"><a xlink:href="group__drivers06.html#ga0dfecc1e56ba649b3a89936c6206c9e2" target="_top" xlink:title="Atomic masked write to a port.">
<polygon fill="white" stroke="#666666" points="402,-58 311.75,-58 311.75,-38 402,-38 402,-58"/>
<text xml:space="preserve" text-anchor="middle" x="356.88" y="-44.5" font-family="Helvetica,sans-Serif" font-size="10.00">mcp_write_mask</text>
</a>
</g>
</g>
<!-- Node3&#45;&gt;Node6 -->
<g id="edge5_Node000003_Node000006" class="edge">
<title>Node3&#45;&gt;Node6</title>
<g id="a_edge5_Node000003_Node000006"><a xlink:title=" ">
<path fill="none" stroke="#63b8ff" d="M276.21,-59.65C283.98,-58.52 292.05,-57.34 299.93,-56.18"/>
<polygon fill="#63b8ff" stroke="#63b8ff" points="300.42,-59.65 309.81,-54.74 299.4,-52.72 300.42,-59.65"/>
</a>
</g>
</g>
<!-- Node12 -->
<g id="Node000012" class="node">
<title>Node12</title>
<g id="a_Node000012"><a xlink:href="_switch_task_8c.html#acc0c2f9409d734ff983b3d0f0cdf8444" target="_top" xlink:title=" ">
<polygon fill="white" stroke="#666666" points="402,-20 311.75,-20 311.75,0 402,0 402,-20"/>
<text xml:space="preserve" text-anchor="middle" x="356.88" y="-6.5" font-family="Helvetica,sans-Serif" font-size="10.00">read_relay_mask</text>
</a>
</g>
</g>
<!-- Node3&#45;&gt;Node12 -->
<g id="edge11_Node000003_Node000012" class="edge">
<title>Node3&#45;&gt;Node12</title>
<g id="a_edge11_Node000003_Node000012"><a xlink:title=" ">
<path fill="none" stroke="#63b8ff" d="M262.68,-50.64C277.85,-43.9 295.63,-36.04 311.75,-29 314.76,-27.69 317.89,-26.33 321.03,-24.97"/>
<polygon fill="#63b8ff" stroke="#63b8ff" points="322.4,-28.19 330.19,-21.01 319.62,-21.76 322.4,-28.19"/>
</a>
</g>
</g>
<!-- Node7 -->
<g id="Node000007" class="node">
<title>Node7</title>
<g id="a_Node000007"><a xlink:href="group__drivers05.html#gab7b4aa096ded6cebd93256e5b5994e42" target="_top" xlink:title="Write 8&#45;bit register with 8&#45;bit value: [reg, value].">
<polygon fill="white" stroke="#666666" points="546.62,-58 446.62,-58 446.62,-38 546.62,-38 546.62,-58"/>
<text xml:space="preserve" text-anchor="middle" x="496.62" y="-44.5" font-family="Helvetica,sans-Serif" font-size="10.00">i2c_bus_write_reg8</text>
</a>
</g>
</g>
<!-- Node6&#45;&gt;Node7 -->
<g id="edge6_Node000006_Node000007" class="edge">
<title>Node6&#45;&gt;Node7</title>
<g id="a_edge6_Node000006_Node000007"><a xlink:title=" ">
<path fill="none" stroke="#63b8ff" d="M402.22,-48C412.73,-48 424.11,-48 435.2,-48"/>
<polygon fill="#63b8ff" stroke="#63b8ff" points="435.08,-51.5 445.08,-48 435.08,-44.5 435.08,-51.5"/>
</a>
</g>
</g>
<!-- Node11 -->
<g id="Node000011" class="node">
<title>Node11</title>
<g id="a_Node000011"><a xlink:href="_m_c_p23017__driver_8c.html#a0ff45ad384852ba5f69f0fd781c2f46a" target="_top" xlink:title=" ">
<polygon fill="white" stroke="#666666" points="555.25,-96 438,-96 438,-76 555.25,-76 555.25,-96"/>
<text xml:space="preserve" text-anchor="middle" x="496.62" y="-82.5" font-family="Helvetica,sans-Serif" font-size="10.00">mcp_diag_display_ping</text>
</a>
</g>
</g>
<!-- Node6&#45;&gt;Node11 -->
<g id="edge10_Node000006_Node000011" class="edge">
<title>Node6&#45;&gt;Node11</title>
<g id="a_edge10_Node000006_Node000011"><a xlink:title=" ">
<path fill="none" stroke="#63b8ff" d="M395.88,-58.48C411.69,-62.85 430.23,-67.96 447.02,-72.59"/>
<polygon fill="#63b8ff" stroke="#63b8ff" points="445.71,-75.86 456.28,-75.15 447.58,-69.11 445.71,-75.86"/>
</a>
</g>
</g>
<!-- Node8 -->
<g id="Node000008" class="node">
<title>Node8</title>
<g id="a_Node000008"><a xlink:href="i2c__bus_8c.html#a1ebc752812bef8ea35845f0b4eb80217" target="_top" xlink:title=" ">
<polygon fill="white" stroke="#666666" points="869.25,-58 778.25,-58 778.25,-38 869.25,-38 869.25,-58"/>
<text xml:space="preserve" text-anchor="middle" x="823.75" y="-44.5" font-family="Helvetica,sans-Serif" font-size="10.00">i2c_bus_diag_log</text>
</a>
</g>
</g>
<!-- Node7&#45;&gt;Node8 -->
<g id="edge7_Node000007_Node000008" class="edge">
<title>Node7&#45;&gt;Node8</title>
<g id="a_edge7_Node000007_Node000008"><a xlink:title=" ">
<path fill="none" stroke="#63b8ff" d="M547,-48C606,-48 704.47,-48 766.39,-48"/>
<polygon fill="#63b8ff" stroke="#63b8ff" points="766.37,-51.5 776.37,-48 766.37,-44.5 766.37,-51.5"/>
</a>
</g>
</g>
<!-- Node9 -->
<g id="Node000009" class="node">
<title>Node9</title>
<g id="a_Node000009"><a xlink:href="group__drivers05.html#ga170d6c4ff97ddc2d314f0a7a0054f283" target="_top" xlink:title="Queue a write on the specified I2C controller and wait synchronously. Mirrors Pico SDK i2c_write_time...">
<polygon fill="white" stroke="#666666" points="720.5,-96 591.25,-96 591.25,-76 720.5,-76 720.5,-96"/>
<text xml:space="preserve" text-anchor="middle" x="655.88" y="-82.5" font-family="Helvetica,sans-Serif" font-size="10.00">i2c_bus_write_timeout_us</text>
</a>
</g>
</g>
<!-- Node7&#45;&gt;Node9 -->
<g id="edge8_Node000007_Node000009" class="edge">
<title>Node7&#45;&gt;Node9</title>
<g id="a_edge8_Node000007_Node000009"><a xlink:title=" ">
<path fill="none" stroke="#63b8ff" d="M541.01,-58.48C559.4,-62.93 581.03,-68.16 600.48,-72.85"/>
<polygon fill="#63b8ff" stroke="#63b8ff" points="599.62,-76.25 610.16,-75.19 601.26,-69.44 599.62,-76.25"/>
</a>
</g>
</g>
<!-- Node10 -->
<g id="Node000010" class="node">
<title>Node10</title>
<g id="a_Node000010"><a xlink:href="i2c__bus_8c.html#afbaa64f79bdd1fa39c8fa5b7a9c2717b" target="_top" xlink:title=" ">
<polygon fill="white" stroke="#666666" points="882.75,-96 764.75,-96 764.75,-76 882.75,-76 882.75,-96"/>
<text xml:space="preserve" text-anchor="middle" x="823.75" y="-82.5" font-family="Helvetica,sans-Serif" font-size="10.00">i2c_bus_submit_simple</text>
</a>
</g>
</g>
<!-- Node9&#45;&gt;Node10 -->
<g id="edge9_Node000009_Node000010" class="edge">
<title>Node9&#45;&gt;Node10</title>
<g id="a_edge9_Node000009_Node000010"><a xlink:title=" ">
<path fill="none" stroke="#63b8ff" d="M720.53,-86C731.13,-86 742.18,-86 752.92,-86"/>
<polygon fill="#63b8ff" stroke="#63b8ff" points="752.92,-89.5 762.92,-86 752.92,-82.5 752.92,-89.5"/>
</a>
</g>
</g>
<!-- Node13 -->
<g id="Node000013" class="node">
<title>Node13</title>
<g id="a_Node000013"><a xlink:href="group__drivers06.html#ga2e6de484edec28d8c39620a364ce5b92" target="_top" xlink:title="Read a logic level from a pin.">
<polygon fill="white" stroke="#666666" points="535,-20 458.25,-20 458.25,0 535,0 535,-20"/>
<text xml:space="preserve" text-anchor="middle" x="496.62" y="-6.5" font-family="Helvetica,sans-Serif" font-size="10.00">mcp_read_pin</text>
</a>
</g>
</g>
<!-- Node12&#45;&gt;Node13 -->
<g id="edge12_Node000012_Node000013" class="edge">
<title>Node12&#45;&gt;Node13</title>
<g id="a_edge12_Node000012_Node000013"><a xlink:title=" ">
<path fill="none" stroke="#63b8ff" d="M402.22,-10C416.37,-10 432.11,-10 446.57,-10"/>
<polygon fill="#63b8ff" stroke="#63b8ff" points="446.33,-13.5 456.33,-10 446.33,-6.5 446.33,-13.5"/>
</a>
</g>
</g>
<!-- Node14 -->
<g id="Node000014" class="node">
<title>Node14</title>
<g id="a_Node000014"><a xlink:href="group__drivers05.html#ga0e406d50e8948e593649a11c729acd9b" target="_top" xlink:title="Read 8&#45;bit register: write [reg] (no stop), then read 1 byte.">
<polygon fill="white" stroke="#666666" points="704.75,-20 607,-20 607,0 704.75,0 704.75,-20"/>
<text xml:space="preserve" text-anchor="middle" x="655.88" y="-6.5" font-family="Helvetica,sans-Serif" font-size="10.00">i2c_bus_read_reg8</text>
</a>
</g>
</g>
<!-- Node13&#45;&gt;Node14 -->
<g id="edge13_Node000013_Node000014" class="edge">
<title>Node13&#45;&gt;Node14</title>
<g id="a_edge13_Node000013_Node000014"><a xlink:title=" ">
<path fill="none" stroke="#63b8ff" d="M535.29,-10C553.3,-10 575.29,-10 595.47,-10"/>
<polygon fill="#63b8ff" stroke="#63b8ff" points="595.27,-13.5 605.27,-10 595.27,-6.5 595.27,-13.5"/>
</a>
</g>
</g>
<!-- Node14&#45;&gt;Node8 -->
<g id="edge14_Node000014_Node000008" class="edge">
<title>Node14&#45;&gt;Node8</title>
<g id="a_edge14_Node000014_Node000008"><a xlink:title=" ">
<path fill="none" stroke="#63b8ff" d="M702.64,-20.48C722.56,-25.05 746.08,-30.43 767,-35.23"/>
<polygon fill="#63b8ff" stroke="#63b8ff" points="765.99,-38.59 776.52,-37.41 767.55,-31.76 765.99,-38.59"/>
</a>
</g>
</g>
<!-- Node15 -->
<g id="Node000015" class="node">
<title>Node15</title>
<g id="a_Node000015"><a xlink:href="i2c__bus_8c.html#a569aca00fd6bd9b5430616a494b4f141" target="_top" xlink:title=" ">
<polygon fill="white" stroke="#666666" points="891,-20 756.5,-20 756.5,0 891,0 891,-20"/>
<text xml:space="preserve" text-anchor="middle" x="823.75" y="-6.5" font-family="Helvetica,sans-Serif" font-size="10.00">i2c_bus_submit_write_read</text>
</a>
</g>
</g>
<!-- Node14&#45;&gt;Node15 -->
<g id="edge15_Node000014_Node000015" class="edge">
<title>Node14&#45;&gt;Node15</title>
<g id="a_edge15_Node000014_Node000015"><a xlink:title=" ">
<path fill="none" stroke="#63b8ff" d="M704.85,-10C717.34,-10 731.11,-10 744.71,-10"/>
<polygon fill="#63b8ff" stroke="#63b8ff" points="744.55,-13.5 754.55,-10 744.55,-6.5 744.55,-13.5"/>
</a>
</g>
</g>
</g>
</svg>

<g id="navigator" transform="translate(0 0)" fill="#404254">
  <rect fill="#f2f5e9" fill-opacity="0.5" stroke="#606060" stroke-width=".5" x="0" y="0" width="60" height="60"/>
  <use id="zoomplus" xlink:href="#zoomPlus" x="17" y="9" onmousedown="handleZoom(evt,'in')"/>
  <use id="zoomminus" xlink:href="#zoomMin" x="42" y="9" onmousedown="handleZoom(evt,'out')"/>
  <use id="reset" xlink:href="#resetDef" x="30" y="36" onmousedown="handleReset()"/>
   <use id="arrowup" xlink:href="#arrowUp" x="0" y="0" onmousedown="handlePan(0,-1)"/>
  <use id="arrowright" xlink:href="#arrowRight" x="0" y="0" onmousedown="handlePan(1,0)"/>
  <use id="arrowdown" xlink:href="#arrowDown" x="0" y="0" onmousedown="handlePan(0,1)"/>
  <use id="arrowleft" xlink:href="#arrowLeft" x="0" y="0" onmousedown="handlePan(-1,0)"/>
</g>
<svg viewBox="0 0 15 15" width="100%" height="30px" preserveAspectRatio="xMaxYMin meet">
 <g id="arrow_out" transform="scale(0.3 0.3)">
  <a xlink:href="group__tasks11_gabc5e948e23445e07eb03320a0c518c4f_cgraph_org.svg" target="_base">
   <rect id="button" ry="5" rx="5" y="6" x="6" height="38" width="38"
        fill="#f2f5e9" fill-opacity="0.5" stroke="#606060" stroke-width="1.0"/>
   <path id="arrow"
     d="M 11.500037,31.436501 C 11.940474,20.09759 22.043105,11.32322 32.158766,21.979434 L 37.068811,17.246167 C 37.068811,17.246167 37.088388,32 37.088388,32 L 22.160133,31.978069 C 22.160133,31.978069 26.997745,27.140456 26.997745,27.140456 C 18.528582,18.264221 13.291696,25.230495 11.500037,31.436501 z"
     style="fill:#404040;"/>
  </a>
 </g>
</svg>

<style type='text/css'>
<![CDATA[
[data-mouse-over-selected='false'] { opacity: 0.7; }
[data-mouse-over-selected='true']  { opacity: 1.0; }
]]>
</style>
<script type="application/ecmascript"><![CDATA[
document.addEventListener('DOMContentLoaded', (event) => {
  highlightEdges();
  highlightAdjacentNodes();
});
]]></script>
</svg>
