<?xml version="1.0" encoding="UTF-8" standalone="no"?>
<!DOCTYPE svg PUBLIC "-//W3C//DTD SVG 1.1//EN"
 "http://www.w3.org/Graphics/SVG/1.1/DTD/svg11.dtd">
<!-- Generated by graphviz version 13.1.2 (20250808.2320)
 -->
<!-- Title: storage_erase_all_async Pages: 1 -->
<!--zoomable 28 -->

<svg id="main" version="1.1" xmlns="http://www.w3.org/2000/svg" xmlns:xlink="http://www.w3.org/1999/xlink" xml:space="preserve" onload="init(evt)">

<style type="text/css"><![CDATA[
.node, .edge {opacity: 0.7;}
.node.selected, .edge.selected {opacity: 1;}
.edge:hover path { stroke: red; }
.edge:hover polygon { stroke: red; fill: red; }
]]></style>

<defs>
  <circle id="rim" cx="0" cy="0" r="7"/>
  <circle id="rim2" cx="0" cy="0" r="3.5"/>
  <g id="zoomPlus">
    <use xlink:href="#rim" fill="#404040"><set attributeName="fill" to="#808080" begin="zoomplus.mouseover" end="zoomplus.mouseout"/></use>
    <path d="M-4,0h8M0,-4v8" fill="none" stroke="white" stroke-width="1.5" pointer-events="none"/>
  </g>
  <g id="zoomMin">
    <use xlink:href="#rim" fill="#404040"><set attributeName="fill" to="#808080" begin="zoomminus.mouseover" end="zoomminus.mouseout"/></use>
    <path d="M-4,0h8" fill="none" stroke="white" stroke-width="1.5" pointer-events="none"/>
  </g>
  <g id="arrowUp" transform="translate(30 24)">
    <use xlink:href="#rim"/>
    <path pointer-events="none" fill="none" stroke="white" stroke-width="1.5" d="M0,-3.0v7 M-2.5,-0.5L0,-3.0L2.5,-0.5"/>
  </g>
  <g id="arrowRight" transform="rotate(90) translate(36 -43)">
    <use xlink:href="#rim"/>
    <path pointer-events="none" fill="none" stroke="white" stroke-width="1.5" d="M0,-3.0v7 M-2.5,-0.5L0,-3.0L2.5,-0.5"/>
  </g>
  <g id="arrowDown" transform="rotate(180) translate(-30 -48)">
    <use xlink:href="#rim"/>
    <path pointer-events="none" fill="none" stroke="white" stroke-width="1.5" d="M0,-3.0v7 M-2.5,-0.5L0,-3.0L2.5,-0.5"/>
  </g>
  <g id="arrowLeft" transform="rotate(270) translate(-36 17)">
    <use xlink:href="#rim"/>
    <path pointer-events="none" fill="none" stroke="white" stroke-width="1.5" d="M0,-3.0v7 M-2.5,-0.5L0,-3.0L2.5,-0.5"/>
  </g>
  <g id="resetDef">
    <use xlink:href="#rim2" fill="#404040"><set attributeName="fill" to="#808080" begin="reset.mouseover" end="reset.mouseout"/></use>
  </g>
</defs>
<script type="application/ecmascript">
var viewWidth = 821;
var viewHeight = 28;
var sectionId = 'dynsection-18';
</script>
<script type="application/ecmascript" xlink:href="svg.min.js"/>
<svg id="graph" class="graph">
<g id="viewport">
<title>storage_erase_all_async</title>
<!-- Node1 -->
<g id="Node000001" class="node">
<title>Node1</title>
<g id="a_Node000001"><a xlink:title="Start full EEPROM erase (async, watchdog&#45;safe).">
<polygon fill="#999999" stroke="#666666" points="813.25,-20 689.25,-20 689.25,0 813.25,0 813.25,-20"/>
<text xml:space="preserve" text-anchor="middle" x="751.25" y="-6.5" font-family="Helvetica,sans-Serif" font-size="10.00">storage_erase_all_async</text>
</a>
</g>
</g>
<!-- Node2 -->
<g id="Node000002" class="node">
<title>Node2</title>
<g id="a_Node000002"><a xlink:href="_console_task_8c.html#a2d3b7ff8346f8d10aa45609664940712" target="_top" xlink:title="Parse and dispatch command line to handler function.">
<polygon fill="white" stroke="#666666" points="653.25,-20 552.5,-20 552.5,0 653.25,0 653.25,-20"/>
<text xml:space="preserve" text-anchor="middle" x="602.88" y="-6.5" font-family="Helvetica,sans-Serif" font-size="10.00">dispatch_command</text>
</a>
</g>
</g>
<!-- Node1&#45;&gt;Node2 -->
<g id="edge1_Node000001_Node000002" class="edge">
<title>Node1&#45;&gt;Node2</title>
<g id="a_edge1_Node000001_Node000002"><a xlink:title=" ">
<path fill="none" stroke="#63b8ff" d="M677.77,-10C669.49,-10 661.19,-10 653.3,-10"/>
<polygon fill="#63b8ff" stroke="#63b8ff" points="677.51,-13.5 687.51,-10 677.51,-6.5 677.51,-13.5"/>
</a>
</g>
</g>
<!-- Node3 -->
<g id="Node000003" class="node">
<title>Node3</title>
<g id="a_Node000003"><a xlink:href="_console_task_8c.html#a216857df22446940ad58d505886b0d7c" target="_top" xlink:title="Main console task function.">
<polygon fill="white" stroke="#666666" points="516.5,-20 443.5,-20 443.5,0 516.5,0 516.5,-20"/>
<text xml:space="preserve" text-anchor="middle" x="480" y="-6.5" font-family="Helvetica,sans-Serif" font-size="10.00">ConsoleTask</text>
</a>
</g>
</g>
<!-- Node2&#45;&gt;Node3 -->
<g id="edge2_Node000002_Node000003" class="edge">
<title>Node2&#45;&gt;Node3</title>
<g id="a_edge2_Node000002_Node000003"><a xlink:title=" ">
<path fill="none" stroke="#63b8ff" d="M540.53,-10C532.37,-10 524.24,-10 516.72,-10"/>
<polygon fill="#63b8ff" stroke="#63b8ff" points="540.5,-13.5 550.5,-10 540.5,-6.5 540.5,-13.5"/>
</a>
</g>
</g>
<!-- Node4 -->
<g id="Node000004" class="node">
<title>Node4</title>
<g id="a_Node000004"><a xlink:href="group__tasks02.html#gad45ca7c142e8c2764d52b3d554ffcdeb" target="_top" xlink:title="Initialize and start the console task.">
<polygon fill="white" stroke="#666666" points="407.5,-20 315.75,-20 315.75,0 407.5,0 407.5,-20"/>
<text xml:space="preserve" text-anchor="middle" x="361.62" y="-6.5" font-family="Helvetica,sans-Serif" font-size="10.00">ConsoleTask_Init</text>
</a>
</g>
</g>
<!-- Node3&#45;&gt;Node4 -->
<g id="edge3_Node000003_Node000004" class="edge">
<title>Node3&#45;&gt;Node4</title>
<g id="a_edge3_Node000003_Node000004"><a xlink:title=" ">
<path fill="none" stroke="#63b8ff" d="M431.74,-10C423.78,-10 415.53,-10 407.62,-10"/>
<polygon fill="#63b8ff" stroke="#63b8ff" points="431.62,-13.5 441.62,-10 431.62,-6.5 431.62,-13.5"/>
</a>
</g>
</g>
<!-- Node5 -->
<g id="Node000005" class="node">
<title>Node5</title>
<g id="a_Node000005"><a xlink:href="_init_task_8c.html#ad718429ab806319601819907a5ef51ac" target="_top" xlink:title="InitTask main routine that performs the full bring&#45;alive sequence.">
<polygon fill="white" stroke="#666666" points="279.75,-20 229.25,-20 229.25,0 279.75,0 279.75,-20"/>
<text xml:space="preserve" text-anchor="middle" x="254.5" y="-6.5" font-family="Helvetica,sans-Serif" font-size="10.00">InitTask</text>
</a>
</g>
</g>
<!-- Node4&#45;&gt;Node5 -->
<g id="edge4_Node000004_Node000005" class="edge">
<title>Node4&#45;&gt;Node5</title>
<g id="a_edge4_Node000004_Node000005"><a xlink:title=" ">
<path fill="none" stroke="#63b8ff" d="M303.98,-10C295.59,-10 287.34,-10 280.09,-10"/>
<polygon fill="#63b8ff" stroke="#63b8ff" points="303.92,-13.5 313.92,-10 303.92,-6.5 303.92,-13.5"/>
</a>
</g>
</g>
<!-- Node6 -->
<g id="Node000006" class="node">
<title>Node6</title>
<g id="a_Node000006"><a xlink:href="group__tasks04.html#ga8a8abeda7232f47559b8683414202508" target="_top" xlink:title="Create and start the InitTask at highest priority.">
<polygon fill="white" stroke="#666666" points="193.25,-20 108.25,-20 108.25,0 193.25,0 193.25,-20"/>
<text xml:space="preserve" text-anchor="middle" x="150.75" y="-6.5" font-family="Helvetica,sans-Serif" font-size="10.00">InitTask_Create</text>
</a>
</g>
</g>
<!-- Node5&#45;&gt;Node6 -->
<g id="edge5_Node000005_Node000006" class="edge">
<title>Node5&#45;&gt;Node6</title>
<g id="a_edge5_Node000005_Node000006"><a xlink:title=" ">
<path fill="none" stroke="#63b8ff" d="M217.6,-10C209.84,-10 201.58,-10 193.62,-10"/>
<polygon fill="#63b8ff" stroke="#63b8ff" points="217.36,-13.5 227.36,-10 217.36,-6.5 217.36,-13.5"/>
</a>
</g>
</g>
<!-- Node7 -->
<g id="Node000007" class="node">
<title>Node7</title>
<g id="a_Node000007"><a xlink:href="group__main01.html#gae3fa85d0ce445e937670de85f9af490a" target="_top" xlink:title="Global variable to trigger BOOTSEL mode.">
<polygon fill="white" stroke="#666666" points="72.25,-20 0,-20 0,0 72.25,0 72.25,-20"/>
<text xml:space="preserve" text-anchor="middle" x="36.12" y="-6.5" font-family="Helvetica,sans-Serif" font-size="10.00">__attribute__</text>
</a>
</g>
</g>
<!-- Node6&#45;&gt;Node7 -->
<g id="edge6_Node000006_Node000007" class="edge">
<title>Node6&#45;&gt;Node7</title>
<g id="a_edge6_Node000006_Node000007"><a xlink:title=" ">
<path fill="none" stroke="#63b8ff" d="M96.44,-10C88.3,-10 80.08,-10 72.46,-10"/>
<polygon fill="#63b8ff" stroke="#63b8ff" points="96.3,-13.5 106.3,-10 96.3,-6.5 96.3,-13.5"/>
</a>
</g>
</g>
</g>
</svg>

<g id="navigator" transform="translate(0 0)" fill="#404254">
  <rect fill="#f2f5e9" fill-opacity="0.5" stroke="#606060" stroke-width=".5" x="0" y="0" width="60" height="60"/>
  <use id="zoomplus" xlink:href="#zoomPlus" x="17" y="9" onmousedown="handleZoom(evt,'in')"/>
  <use id="zoomminus" xlink:href="#zoomMin" x="42" y="9" onmousedown="handleZoom(evt,'out')"/>
  <use id="reset" xlink:href="#resetDef" x="30" y="36" onmousedown="handleReset()"/>
   <use id="arrowup" xlink:href="#arrowUp" x="0" y="0" onmousedown="handlePan(0,-1)"/>
  <use id="arrowright" xlink:href="#arrowRight" x="0" y="0" onmousedown="handlePan(1,0)"/>
  <use id="arrowdown" xlink:href="#arrowDown" x="0" y="0" onmousedown="handlePan(0,1)"/>
  <use id="arrowleft" xlink:href="#arrowLeft" x="0" y="0" onmousedown="handlePan(-1,0)"/>
</g>
<svg viewBox="0 0 15 15" width="100%" height="30px" preserveAspectRatio="xMaxYMin meet">
 <g id="arrow_out" transform="scale(0.3 0.3)">
  <a xlink:href="group__tasks10_ga8b5d786522ab539d03629fe26e59feac_icgraph_org.svg" target="_base">
   <rect id="button" ry="5" rx="5" y="6" x="6" height="38" width="38"
        fill="#f2f5e9" fill-opacity="0.5" stroke="#606060" stroke-width="1.0"/>
   <path id="arrow"
     d="M 11.500037,31.436501 C 11.940474,20.09759 22.043105,11.32322 32.158766,21.979434 L 37.068811,17.246167 C 37.068811,17.246167 37.088388,32 37.088388,32 L 22.160133,31.978069 C 22.160133,31.978069 26.997745,27.140456 26.997745,27.140456 C 18.528582,18.264221 13.291696,25.230495 11.500037,31.436501 z"
     style="fill:#404040;"/>
  </a>
 </g>
</svg>

<style type='text/css'>
<![CDATA[
[data-mouse-over-selected='false'] { opacity: 0.7; }
[data-mouse-over-selected='true']  { opacity: 1.0; }
]]>
</style>
<script type="application/ecmascript"><![CDATA[
document.addEventListener('DOMContentLoaded', (event) => {
  highlightEdges();
  highlightAdjacentNodes();
});
]]></script>
</svg>
