<?xml version="1.0" encoding="UTF-8" standalone="no"?>
<!DOCTYPE svg PUBLIC "-//W3C//DTD SVG 1.1//EN"
 "http://www.w3.org/Graphics/SVG/1.1/DTD/svg11.dtd">
<!-- Generated by graphviz version 13.1.2 (20250808.2320)
 -->
<!-- Title: EEPROM_WriteUserPrefsWithChecksum Pages: 1 -->
<!--zoomable 123 -->

<svg id="main" version="1.1" xmlns="http://www.w3.org/2000/svg" xmlns:xlink="http://www.w3.org/1999/xlink" xml:space="preserve" onload="init(evt)">

<style type="text/css"><![CDATA[
.node, .edge {opacity: 0.7;}
.node.selected, .edge.selected {opacity: 1;}
.edge:hover path { stroke: red; }
.edge:hover polygon { stroke: red; fill: red; }
]]></style>

<defs>
  <circle id="rim" cx="0" cy="0" r="7"/>
  <circle id="rim2" cx="0" cy="0" r="3.5"/>
  <g id="zoomPlus">
    <use xlink:href="#rim" fill="#404040"><set attributeName="fill" to="#808080" begin="zoomplus.mouseover" end="zoomplus.mouseout"/></use>
    <path d="M-4,0h8M0,-4v8" fill="none" stroke="white" stroke-width="1.5" pointer-events="none"/>
  </g>
  <g id="zoomMin">
    <use xlink:href="#rim" fill="#404040"><set attributeName="fill" to="#808080" begin="zoomminus.mouseover" end="zoomminus.mouseout"/></use>
    <path d="M-4,0h8" fill="none" stroke="white" stroke-width="1.5" pointer-events="none"/>
  </g>
  <g id="arrowUp" transform="translate(30 24)">
    <use xlink:href="#rim"/>
    <path pointer-events="none" fill="none" stroke="white" stroke-width="1.5" d="M0,-3.0v7 M-2.5,-0.5L0,-3.0L2.5,-0.5"/>
  </g>
  <g id="arrowRight" transform="rotate(90) translate(36 -43)">
    <use xlink:href="#rim"/>
    <path pointer-events="none" fill="none" stroke="white" stroke-width="1.5" d="M0,-3.0v7 M-2.5,-0.5L0,-3.0L2.5,-0.5"/>
  </g>
  <g id="arrowDown" transform="rotate(180) translate(-30 -48)">
    <use xlink:href="#rim"/>
    <path pointer-events="none" fill="none" stroke="white" stroke-width="1.5" d="M0,-3.0v7 M-2.5,-0.5L0,-3.0L2.5,-0.5"/>
  </g>
  <g id="arrowLeft" transform="rotate(270) translate(-36 17)">
    <use xlink:href="#rim"/>
    <path pointer-events="none" fill="none" stroke="white" stroke-width="1.5" d="M0,-3.0v7 M-2.5,-0.5L0,-3.0L2.5,-0.5"/>
  </g>
  <g id="resetDef">
    <use xlink:href="#rim2" fill="#404040"><set attributeName="fill" to="#808080" begin="reset.mouseover" end="reset.mouseout"/></use>
  </g>
</defs>
<script type="application/ecmascript">
var viewWidth = 811;
var viewHeight = 123;
var sectionId = 'dynsection-7';
</script>
<script type="application/ecmascript" xlink:href="svg.min.js"/>
<svg id="graph" class="graph">
<g id="viewport">
<title>EEPROM_WriteUserPrefsWithChecksum</title>
<!-- Node1 -->
<g id="Node000001" class="node">
<title>Node1</title>
<g id="a_Node000001"><a xlink:title="Write user preferences with CRC&#45;8 validation appended.">
<polygon fill="#999999" stroke="#666666" points="151.75,-64 0,-64 0,-32 151.75,-32 151.75,-64"/>
<text xml:space="preserve" text-anchor="start" x="8" y="-50.5" font-family="Helvetica,sans-Serif" font-size="10.00">EEPROM_WriteUserPrefsWith</text>
<text xml:space="preserve" text-anchor="middle" x="75.88" y="-38.5" font-family="Helvetica,sans-Serif" font-size="10.00">Checksum</text>
</a>
</g>
</g>
<!-- Node2 -->
<g id="Node000002" class="node">
<title>Node2</title>
<g id="a_Node000002"><a xlink:href="group__storage08.html#gaae57a92db26b8a63b7584fd2f3407077" target="_top" xlink:title="Calculate CRC&#45;8 checksum for data integrity verification.">
<polygon fill="white" stroke="#666666" points="288.5,-96 209.5,-96 209.5,-76 288.5,-76 288.5,-96"/>
<text xml:space="preserve" text-anchor="middle" x="249" y="-82.5" font-family="Helvetica,sans-Serif" font-size="10.00">calculate_crc8</text>
</a>
</g>
</g>
<!-- Node1&#45;&gt;Node2 -->
<g id="edge1_Node000001_Node000002" class="edge">
<title>Node1&#45;&gt;Node2</title>
<g id="a_edge1_Node000001_Node000002"><a xlink:title=" ">
<path fill="none" stroke="#63b8ff" d="M150.94,-64.45C166.92,-67.99 183.44,-71.66 198.23,-74.95"/>
<polygon fill="#63b8ff" stroke="#63b8ff" points="197.16,-78.3 207.68,-77.05 198.68,-71.46 197.16,-78.3"/>
</a>
</g>
</g>
<!-- Node3 -->
<g id="Node000003" class="node">
<title>Node3</title>
<g id="a_Node000003"><a xlink:href="group__driver02.html#ga8088b9a17773cb65bb6b5d89d3598125" target="_top" xlink:title="Write buffer to EEPROM with automatic page boundary handling.">
<polygon fill="white" stroke="#666666" points="310.25,-58 187.75,-58 187.75,-38 310.25,-38 310.25,-58"/>
<text xml:space="preserve" text-anchor="middle" x="249" y="-44.5" font-family="Helvetica,sans-Serif" font-size="10.00">CAT24C256_WriteBuffer</text>
</a>
</g>
</g>
<!-- Node1&#45;&gt;Node3 -->
<g id="edge2_Node000001_Node000003" class="edge">
<title>Node1&#45;&gt;Node3</title>
<g id="a_edge2_Node000001_Node000003"><a xlink:title=" ">
<path fill="none" stroke="#63b8ff" d="M151.93,-48C159.9,-48 167.99,-48 175.91,-48"/>
<polygon fill="#63b8ff" stroke="#63b8ff" points="175.87,-51.5 185.87,-48 175.87,-44.5 175.87,-51.5"/>
</a>
</g>
</g>
<!-- Node8 -->
<g id="Node000008" class="node">
<title>Node8</title>
<g id="a_Node000008"><a xlink:href="group__tasks10.html#ga78c530f9c7ec4d2330e6d1a092df6dc0" target="_top" xlink:title="Enqueue an error code for deferred EEPROM logging (non&#45;blocking).">
<polygon fill="white" stroke="#666666" points="483.75,-20 346.25,-20 346.25,0 483.75,0 483.75,-20"/>
<text xml:space="preserve" text-anchor="middle" x="415" y="-6.5" font-family="Helvetica,sans-Serif" font-size="10.00">Storage_EnqueueErrorCode</text>
</a>
</g>
</g>
<!-- Node1&#45;&gt;Node8 -->
<g id="edge9_Node000001_Node000008" class="edge">
<title>Node1&#45;&gt;Node8</title>
<g id="a_edge9_Node000001_Node000008"><a xlink:title=" ">
<path fill="none" stroke="#63b8ff" d="M152.19,-34.2C164.06,-32.28 176.22,-30.47 187.75,-29 236.39,-22.8 291.17,-18.14 334.65,-14.99"/>
<polygon fill="#63b8ff" stroke="#63b8ff" points="334.79,-18.49 344.51,-14.29 334.29,-11.5 334.79,-18.49"/>
</a>
</g>
</g>
<!-- Node4 -->
<g id="Node000004" class="node">
<title>Node4</title>
<g id="a_Node000004"><a xlink:href="group__drivers05.html#ga77ca38d627119d534873e177c5f4a667" target="_top" xlink:title="Write to 16&#45;bit memory address: [mem_hi, mem_lo, data...].">
<polygon fill="white" stroke="#666666" points="471.75,-96 358.25,-96 358.25,-76 471.75,-76 471.75,-96"/>
<text xml:space="preserve" text-anchor="middle" x="415" y="-82.5" font-family="Helvetica,sans-Serif" font-size="10.00">i2c_bus_write_mem16</text>
</a>
</g>
</g>
<!-- Node3&#45;&gt;Node4 -->
<g id="edge3_Node000003_Node000004" class="edge">
<title>Node3&#45;&gt;Node4</title>
<g id="a_edge3_Node000003_Node000004"><a xlink:title=" ">
<path fill="none" stroke="#63b8ff" d="M295.25,-58.48C314.61,-62.97 337.41,-68.25 357.84,-72.99"/>
<polygon fill="#63b8ff" stroke="#63b8ff" points="356.89,-76.36 367.43,-75.21 358.47,-69.54 356.89,-76.36"/>
</a>
</g>
</g>
<!-- Node3&#45;&gt;Node8 -->
<g id="edge7_Node000003_Node000008" class="edge">
<title>Node3&#45;&gt;Node8</title>
<g id="a_edge7_Node000003_Node000008"><a xlink:title=" ">
<path fill="none" stroke="#63b8ff" d="M295.25,-37.52C314.61,-33.03 337.41,-27.75 357.84,-23.01"/>
<polygon fill="#63b8ff" stroke="#63b8ff" points="358.47,-26.46 367.43,-20.79 356.89,-19.64 358.47,-26.46"/>
</a>
</g>
</g>
<!-- Node9 -->
<g id="Node000009" class="node">
<title>Node9</title>
<g id="a_Node000009"><a xlink:href="_c_a_t24_c256__driver_8c.html#aeba5f43a83c24289211b7d919c260978" target="_top" xlink:title="RTOS&#45;compatible write cycle delay.">
<polygon fill="white" stroke="#666666" points="462,-58 368,-58 368,-38 462,-38 462,-58"/>
<text xml:space="preserve" text-anchor="middle" x="415" y="-44.5" font-family="Helvetica,sans-Serif" font-size="10.00">write_cycle_delay</text>
</a>
</g>
</g>
<!-- Node3&#45;&gt;Node9 -->
<g id="edge8_Node000003_Node000009" class="edge">
<title>Node3&#45;&gt;Node9</title>
<g id="a_edge8_Node000003_Node000009"><a xlink:title=" ">
<path fill="none" stroke="#63b8ff" d="M310.6,-48C325.65,-48 341.74,-48 356.63,-48"/>
<polygon fill="#63b8ff" stroke="#63b8ff" points="356.23,-51.5 366.23,-48 356.23,-44.5 356.23,-51.5"/>
</a>
</g>
</g>
<!-- Node5 -->
<g id="Node000005" class="node">
<title>Node5</title>
<g id="a_Node000005"><a xlink:href="i2c__bus_8c.html#a1ebc752812bef8ea35845f0b4eb80217" target="_top" xlink:title=" ">
<polygon fill="white" stroke="#666666" points="629.88,-115 538.88,-115 538.88,-95 629.88,-95 629.88,-115"/>
<text xml:space="preserve" text-anchor="middle" x="584.38" y="-101.5" font-family="Helvetica,sans-Serif" font-size="10.00">i2c_bus_diag_log</text>
</a>
</g>
</g>
<!-- Node4&#45;&gt;Node5 -->
<g id="edge4_Node000004_Node000005" class="edge">
<title>Node4&#45;&gt;Node5</title>
<g id="a_edge4_Node000004_Node000005"><a xlink:title=" ">
<path fill="none" stroke="#63b8ff" d="M472.2,-92.38C489.88,-94.39 509.41,-96.6 527.1,-98.61"/>
<polygon fill="#63b8ff" stroke="#63b8ff" points="526.59,-102.08 536.92,-99.73 527.38,-95.12 526.59,-102.08"/>
</a>
</g>
</g>
<!-- Node6 -->
<g id="Node000006" class="node">
<title>Node6</title>
<g id="a_Node000006"><a xlink:href="group__drivers05.html#ga170d6c4ff97ddc2d314f0a7a0054f283" target="_top" xlink:title="Queue a write on the specified I2C controller and wait synchronously. Mirrors Pico SDK i2c_write_time...">
<polygon fill="white" stroke="#666666" points="649,-77 519.75,-77 519.75,-57 649,-57 649,-77"/>
<text xml:space="preserve" text-anchor="middle" x="584.38" y="-63.5" font-family="Helvetica,sans-Serif" font-size="10.00">i2c_bus_write_timeout_us</text>
</a>
</g>
</g>
<!-- Node4&#45;&gt;Node6 -->
<g id="edge5_Node000004_Node000006" class="edge">
<title>Node4&#45;&gt;Node6</title>
<g id="a_edge5_Node000004_Node000006"><a xlink:title=" ">
<path fill="none" stroke="#63b8ff" d="M472.2,-79.62C483.83,-78.3 496.26,-76.89 508.44,-75.51"/>
<polygon fill="#63b8ff" stroke="#63b8ff" points="508.49,-79.02 518.03,-74.42 507.7,-72.07 508.49,-79.02"/>
</a>
</g>
</g>
<!-- Node7 -->
<g id="Node000007" class="node">
<title>Node7</title>
<g id="a_Node000007"><a xlink:href="i2c__bus_8c.html#afbaa64f79bdd1fa39c8fa5b7a9c2717b" target="_top" xlink:title=" ">
<polygon fill="white" stroke="#666666" points="803,-77 685,-77 685,-57 803,-57 803,-77"/>
<text xml:space="preserve" text-anchor="middle" x="744" y="-63.5" font-family="Helvetica,sans-Serif" font-size="10.00">i2c_bus_submit_simple</text>
</a>
</g>
</g>
<!-- Node6&#45;&gt;Node7 -->
<g id="edge6_Node000006_Node000007" class="edge">
<title>Node6&#45;&gt;Node7</title>
<g id="a_edge6_Node000006_Node000007"><a xlink:title=" ">
<path fill="none" stroke="#63b8ff" d="M649.49,-67C657.28,-67 665.26,-67 673.13,-67"/>
<polygon fill="#63b8ff" stroke="#63b8ff" points="673.02,-70.5 683.02,-67 673.02,-63.5 673.02,-70.5"/>
</a>
</g>
</g>
</g>
</svg>

<g id="navigator" transform="translate(0 0)" fill="#404254">
  <rect fill="#f2f5e9" fill-opacity="0.5" stroke="#606060" stroke-width=".5" x="0" y="0" width="60" height="60"/>
  <use id="zoomplus" xlink:href="#zoomPlus" x="17" y="9" onmousedown="handleZoom(evt,'in')"/>
  <use id="zoomminus" xlink:href="#zoomMin" x="42" y="9" onmousedown="handleZoom(evt,'out')"/>
  <use id="reset" xlink:href="#resetDef" x="30" y="36" onmousedown="handleReset()"/>
   <use id="arrowup" xlink:href="#arrowUp" x="0" y="0" onmousedown="handlePan(0,-1)"/>
  <use id="arrowright" xlink:href="#arrowRight" x="0" y="0" onmousedown="handlePan(1,0)"/>
  <use id="arrowdown" xlink:href="#arrowDown" x="0" y="0" onmousedown="handlePan(0,1)"/>
  <use id="arrowleft" xlink:href="#arrowLeft" x="0" y="0" onmousedown="handlePan(-1,0)"/>
</g>
<svg viewBox="0 0 15 15" width="100%" height="30px" preserveAspectRatio="xMaxYMin meet">
 <g id="arrow_out" transform="scale(0.3 0.3)">
  <a xlink:href="group__storage11_gaffd968de2dd26c2a571f3057dc72f2dc_cgraph_org.svg" target="_base">
   <rect id="button" ry="5" rx="5" y="6" x="6" height="38" width="38"
        fill="#f2f5e9" fill-opacity="0.5" stroke="#606060" stroke-width="1.0"/>
   <path id="arrow"
     d="M 11.500037,31.436501 C 11.940474,20.09759 22.043105,11.32322 32.158766,21.979434 L 37.068811,17.246167 C 37.068811,17.246167 37.088388,32 37.088388,32 L 22.160133,31.978069 C 22.160133,31.978069 26.997745,27.140456 26.997745,27.140456 C 18.528582,18.264221 13.291696,25.230495 11.500037,31.436501 z"
     style="fill:#404040;"/>
  </a>
 </g>
</svg>

<style type='text/css'>
<![CDATA[
[data-mouse-over-selected='false'] { opacity: 0.7; }
[data-mouse-over-selected='true']  { opacity: 1.0; }
]]>
</style>
<script type="application/ecmascript"><![CDATA[
document.addEventListener('DOMContentLoaded', (event) => {
  highlightEdges();
  highlightAdjacentNodes();
});
]]></script>
</svg>
