0
SECTION
2
HEADER
9
$INSUNITS
70
4
9
$ACADVER
1
AC1014
9
$HANDSEED
5
FFFF
0
ENDSEC
0
SECTION
2
TABLES
0
TABLE
2
VPORT
5
8
100
AcDbSymbolTable
0
ENDTAB
0
TABLE
2
LTYPE
5
5
100
AcDbSymbolTable
0
LTYPE
5
14
100
AcDbSymbolTableRecord
100
AcDbLinetypeTableRecord
2
BYBLOCK
70
0
0
LTYPE
5
15
100
AcDbSymbolTableRecord
100
AcDbLinetypeTableRecord
2
BYLAYER
70
0
0
LTYPE
5
16
100
AcDbSymbolTableRecord
100
AcDbLinetypeTableRecord
2
DASHED
70
0
3
Dashed __ __ __ __ __ __ __ __ __ __ __ __ __ _
72
65
73
2
40
0.75
49
0.5
74
0
49
-0.25
74
0
0
ENDTAB
0
TABLE
2
LAYER
5
2
100
AcDbSymbolTable
70
2
0
LAYER
5
50
100
AcDbSymbolTableRecord
100
AcDbLayerTableRecord
2
0
70
0
62
7
6
CONTINUOUS
0
ENDTAB
0
TABLE
2
STYLE
5
3
100
AcDbSymbolTable
70
1
0
STYLE
5
11
100
AcDbSymbolTableRecord
100
AcDbTextStyleTableRecord
2
STANDARD
70
0
0
ENDTAB
0
TABLE
2
VIEW
5
6
100
AcDbSymbolTable
70
0
0
ENDTAB
0
TABLE
2
UCS
5
7
100
AcDbSymbolTable
70
0
0
ENDTAB
0
TABLE
2
APPID
5
9
100
AcDbSymbolTable
70
2
0
APPID
5
12
100
AcDbSymbolTableRecord
100
AcDbRegAppTableRecord
2
ACAD
70
0
0
ENDTAB
0
TABLE
2
DIMSTYLE
5
A
100
AcDbSymbolTable
70
1
0
ENDTAB
0
TABLE
2
BLOCK_RECORD
5
1
100
AcDbSymbolTable
70
1
0
BLOCK_RECORD
5
1F
100
AcDbSymbolTableRecord
100
AcDbBlockTableRecord
2
*MODEL_SPACE
0
BLOCK_RECORD
5
1B
100
AcDbSymbolTableRecord
100
AcDbBlockTableRecord
2
*PAPER_SPACE
0
ENDTAB
0
ENDSEC
0
SECTION
2
BLOCKS
0
BLOCK
5
20
100
AcDbEntity
100
AcDbBlockBegin
2
*MODEL_SPACE
0
ENDBLK
5
21
100
AcDbEntity
100
AcDbBlockEnd
0
BLOCK
5
1C
100
AcDbEntity
100
AcDbBlockBegin
2
*PAPER_SPACE
0
ENDBLK
5
1D
100
AcDbEntity
100
AcDbBlockEnd
0
ENDSEC
0
SECTION
2
ENTITIES
0
LWPOLYLINE
5
100
100
AcDbEntity
8
OUTER_PROFILES
100
AcDbPolyline
90
60
70
1
43
0.0
10
51.292920065876942
20
17.000000000003602
42
-0.41421356237309476
10
44.292920065876949
20
10.000000000003602
10
38.792920065877006
20
10.000000000003608
10
38.792920065877006
20
9.0000000000036113
10
43.292920065876999
20
9.0000000000036131
10
43.292920065876999
20
3.0000000000036171
42
-0.41421356237309337
10
40.292920065876956
20
3.5915714846623814e-12
10
0
20
0
10
0
20
2.4464600329384822
10
-1.4999999999999858
20
2.4464600329384822
10
-1.4999999999999858
20
-42.89999999999992
10
-11.500000000000012
20
-42.89999999999992
42
-0.41421356237309503
10
-18.500000000000014
20
-49.89999999999992
10
-193.7141598682461
20
-49.89999999999992
42
-0.41421356237309392
10
-200.71415986824604
20
-42.899999999999913
10
-210.71415986824604
20
-42.89999999999992
10
-210.71415986824604
20
2.4464600329384645
10
-212.21415986824604
20
2.4464600329384649
10
-212.21415986824604
20
-1.7208456881689926e-14
10
-252.507079934123
20
3.6032288264209456e-12
42
-0.41421356237309509
10
-255.50707993412303
20
3.0000000000036464
10
-255.50707993412303
20
8.9999999999999307
10
-251.00707993412303
20
8.9999999999999307
10
-251.00707993412303
20
9.9999999999999449
10
-256.507079934123
20
9.999999999999952
42
-0.4142135623730932
10
-263.50707993412294
20
16.999999999999943
10
-263.507079934123
20
152.99999999999997
42
-0.41421356237309281
10
-256.50707993412306
20
159.99999999999994
10
-251.00707993412303
20
159.99999999999994
10
-251.00707993412303
20
160.99999999999994
10
-255.50707993412303
20
160.99999999999994
10
-255.50707993412306
20
166.99999999999932
42
-0.41421356237309853
10
-252.50707993412303
20
169.99999999999932
10
-252.507079934123
20
173.00000000000358
10
-255.50707733257369
20
172.99999999999909
10
-255.50707665110639
20
173.39292006588062
10
-255.50705434597722
20
186.2536002485121
42
-0.38894280384964552
10
-252.51841211874967
20
188.99279833588088
10
-214.50705434597722
20
188.99279833588093
42
-0.41421356237309159
10
-211.50705434597725
20
185.99279833588099
10
-211.50705434597742
20
173.00000000000358
10
-216.50705434597742
20
173.00000000000358
10
-216.50705434597745
20
170.00000000000364
10
4.2928944777314726
20
170.00000000000358
10
4.2928944777314371
20
173.00000000000358
10
-0.70710552226856294
20
173.00000000000358
10
-0.7071055222687761
20
185.99279833588099
42
-0.41421356237309159
10
2.2928944777311959
20
188.99279833588099
10
40.304252250503687
20
188.99279833588096
42
-0.38894280384964552
10
43.292894477731281
20
186.25360024851216
10
43.292916782860402
20
173.39292006588062
10
43.292917464327694
20
172.99999999999912
10
40.292920065876991
20
173.00000000000364
10
40.292920065876984
20
170.00000000000426
42
-0.41421356237309592
10
43.292920065876991
20
167.00000000000426
10
43.292920065876999
20
161.00000000000361
10
38.792920065877006
20
161.00000000000361
10
38.792920065877006
20
160.00000000000358
10
44.292920065876935
20
160.00000000000358
42
-0.41421356237309542
10
51.292920065876942
20
153.00000000000358
0
LWPOLYLINE
5
101
100
AcDbEntity
8
INTERIOR_PROFILES
100
AcDbPolyline
90
4
70
1
43
0.0
10
-246.38205434593274
20
178.49279833658159
10
-246.38205434593274
20
183.49279833658159
42
0.99999999999999989
10
-252.38205434593277
20
183.49279833658159
10
-252.38205434593277
20
178.49279833658159
42
0.99999999999999989
0
LWPOLYLINE
5
102
100
AcDbEntity
8
INTERIOR_PROFILES
100
AcDbPolyline
90
4
70
1
43
0.0
10
2.4178961782918762
20
183.49540644516543
10
2.4178961782918935
20
178.49279833588102
42
1.0158997272719203
10
8.4164033883216778
20
178.5874266160053
10
8.4164011220360031
20
183.58731871108449
42
0.98393896827443972
0
LWPOLYLINE
5
103
100
AcDbEntity
8
INTERIOR_PROFILES
100
AcDbPolyline
90
4
70
1
43
0.0
10
34.167894477686772
20
183.49279833658176
42
-0.99999999999999989
10
40.167894477686744
20
183.49279833658176
10
40.167894477686744
20
178.49279833658176
42
-0.99999999999999989
10
34.167894477686772
20
178.49279833658176
0
LWPOLYLINE
5
104
100
AcDbEntity
8
INTERIOR_PROFILES
100
AcDbPolyline
90
4
70
1
43
0.0
10
-214.63354486994277
20
178.58730084290727
10
-214.63354486994277
20
183.58740869685658
42
0.98435205910809509
10
-220.63205264541978
20
183.49279833588085
10
-220.63205604653788
20
178.49279833588082
42
1.0158784187842735
0
LWPOLYLINE
5
105
100
AcDbEntity
8
INTERIOR_PROFILES
100
AcDbPolyline
90
4
70
1
43
0.0
10
-230.50705434590844
20
178.49279833658156
10
-230.50705434590841
20
183.49279833658156
42
0.99999999999999989
10
-236.50705434590844
20
183.49279833658161
10
-236.50705434604632
20
178.49279833658161
42
0.99999999999999989
0
LWPOLYLINE
5
106
100
AcDbEntity
8
INTERIOR_PROFILES
100
AcDbPolyline
90
4
70
1
43
0.0
10
18.292894477662482
20
183.49279833658176
42
-0.99999999999999989
10
24.292894477662461
20
183.49279833658176
10
24.292894477731384
20
178.49279833658176
42
-0.99999999999999989
10
18.292894477731387
20
178.49279833658176
0
CIRCLE
5
107
100
AcDbEntity
8
INTERIOR_PROFILES
100
AcDbCircle
10
-27.594844800444491
20
164.49938642596646
30
0
40
1.6000000000000014
210
0
220
0
230
-1
0
CIRCLE
5
108
100
AcDbEntity
8
INTERIOR_PROFILES
100
AcDbCircle
10
-13.592919770833447
20
164.51803063162245
30
0
40
1.6000000000000014
210
0
220
0
230
-1
0
LINE
5
109
100
AcDbEntity
8
INTERIOR_PROFILES
100
AcDbLine
10
-135.61353297827895
20
-7.2337350381597449
30
0
11
-138.53876180450098
21
-4.3085062117511681
31
0
0
ARC
5
110
100
AcDbEntity
8
INTERIOR_PROFILES
100
AcDbCircle
10
139.38728994192479
20
-5.157034349175083
30
0
40
1.200000000000006
210
0
220
0
230
-1
100
AcDbArc
50
90
51
134.99999999999653
0
LINE
5
111
100
AcDbEntity
8
INTERIOR_PROFILES
100
AcDbLine
10
-139.38728994192479
20
-3.9570343491750766
30
0
11
-150.24307637992484
21
-3.9570343491750299
31
0
0
ARC
5
112
100
AcDbEntity
8
INTERIOR_PROFILES
100
AcDbCircle
10
150.2430763799249
20
-10.407034349175033
30
0
40
6.4500000000000046
210
0
220
0
230
-1
100
AcDbArc
50
29.471093377426037
51
90.000000000000512
0
LINE
5
113
100
AcDbEntity
8
INTERIOR_PROFILES
100
AcDbLine
10
-155.85847231277859
20
-7.2337350381597467
30
0
11
-159.61353297827895
21
-7.2337350381597449
31
0
0
LINE
5
114
100
AcDbEntity
8
INTERIOR_PROFILES
100
AcDbLine
10
-159.61353297827895
20
-7.2337350381597449
30
0
11
-162.53876180450095
21
-4.308506211751129
31
0
0
ARC
5
115
100
AcDbEntity
8
INTERIOR_PROFILES
100
AcDbCircle
10
163.38728994192479
20
-5.157034349175003
30
0
40
1.2000000000000033
210
0
220
0
230
-1
100
AcDbArc
50
90
51
134.99999999999892
0
LINE
5
116
100
AcDbEntity
8
INTERIOR_PROFILES
100
AcDbLine
10
-163.38728994192479
20
-3.9570343491749993
30
0
11
-174.24307637992484
21
-3.9570343491750455
31
0
0
ARC
5
117
100
AcDbEntity
8
INTERIOR_PROFILES
100
AcDbCircle
10
174.2430763799249
20
-10.407034349175039
30
0
40
6.4500000000000037
210
0
220
0
230
-1
100
AcDbArc
50
29.471093377425898
51
90.000000000000512
0
LINE
5
118
100
AcDbEntity
8
INTERIOR_PROFILES
100
AcDbLine
10
-179.85847231277862
20
-7.2337350381597556
30
0
11
-183.61353297847256
21
-7.2337350381597476
31
0
0
LINE
5
119
100
AcDbEntity
8
INTERIOR_PROFILES
100
AcDbLine
10
-183.61353297847256
20
-7.2337350381597476
30
0
11
-186.53907836305831
21
-4.3081896535810591
31
0
0
SPLINE
5
120
100
AcDbEntity
8
INTERIOR_PROFILES
100
AcDbSpline
70
0
71
3
72
10
73
6
74
0
42
0.000000001
43
0.0000000001
44
0.0000000001
40
0
40
0
40
0
40
0
40
0.02354731047339154
40
0.02354731047339154
40
0.05666378157029206
40
0.05666378157029206
40
0.05666378157029206
40
0.05666378157029206
10
-186.92765644949441
20
-4.0485506958377391
30
0
10
-186.85520760212171
20
-4.0787501507304871
30
0
10
-186.78621495746432
20
-4.1155960484870686
30
0
10
-186.62919829839831
20
-4.2205586175295542
30
0
10
-186.58568711797031
20
-4.2619963520229192
30
0
10
-186.53907836305831
20
-4.3081896535810591
30
0
0
SPLINE
5
121
100
AcDbEntity
8
INTERIOR_PROFILES
100
AcDbSpline
70
0
71
3
72
10
73
6
74
0
42
0.000000001
43
0.0000000001
44
0.0000000001
40
0
40
0
40
0
40
0
40
0.019761436122706554
40
0.019761436122706554
40
0.033787341072825765
40
0.033787341072825765
40
0.033787341072825765
40
0.033787341072825765
10
-187.38684229822076
20
-3.9570343491648079
30
0
10
-187.32097150457594
20
-3.9573292436109959
30
0
10
-187.26006967443922
20
-3.9587814864064557
30
0
10
-187.07478102221032
20
-3.9956015575095365
30
0
10
-187.00004186934908
20
-4.0183776729902805
30
0
10
-186.92765644949441
20
-4.0485506958377373
30
0
0
LINE
5
122
100
AcDbEntity
8
INTERIOR_PROFILES
100
AcDbLine
10
-187.38684229822076
20
-3.9570343491648079
30
0
11
-198.24307638095689
21
-3.9570343491750588
31
0
0
ARC
5
123
100
AcDbEntity
8
INTERIOR_PROFILES
100
AcDbCircle
10
198.2430763799249
20
-10.407034349175072
30
0
40
6.4500000000000313
210
0
220
0
230
-1
100
AcDbArc
50
0
51
89.999999990832748
0
LINE
5
124
100
AcDbEntity
8
INTERIOR_PROFILES
100
AcDbLine
10
-204.69307637992495
20
-10.407034348736357
30
0
11
-204.69307637992486
21
-29.907034349175071
31
0
0
ARC
5
125
100
AcDbEntity
8
INTERIOR_PROFILES
100
AcDbCircle
10
198.2430763799249
20
-29.907034349175085
30
0
40
6.4499999999999691
210
-0
220
0
230
-1
100
AcDbArc
50
-89.999999986110296
51
0
0
LINE
5
126
100
AcDbEntity
8
INTERIOR_PROFILES
100
AcDbLine
10
-198.24307638148852
20
-36.357034349175052
30
0
11
-187.38684230619012
21
-36.357034349164799
31
0
0
SPLINE
5
127
100
AcDbEntity
8
INTERIOR_PROFILES
100
AcDbSpline
70
0
71
3
72
10
73
6
74
0
42
0.000000001
43
0.0000000001
44
0.0000000001
40
0
40
0
40
0
40
0
40
0.023547311565077545
40
0.023547311565077545
40
0.058549355781455162
40
0.058549355781455162
40
0.058549355781455162
40
0.058549355781455162
10
-186.92848361260164
20
-36.265860624679448
30
0
10
-187.00106692718191
20
-36.295735456515594
30
0
10
-187.07590608225183
20
-36.318466638376982
30
0
10
-187.26731775959047
20
-36.356499269167443
30
0
10
-187.35675579438347
20
-36.356899659754831
30
0
10
-187.38684230619012
20
-36.357034349164799
30
0
0
SPLINE
5
128
100
AcDbEntity
8
INTERIOR_PROFILES
100
AcDbSpline
70
0
71
3
72
10
73
6
74
0
42
0.000000001
43
0.0000000001
44
0.0000000001
40
0
40
0
40
0
40
0
40
0.0093035458728060617
40
0.0093035458728060617
40
0.015556446123757346
40
0.015556446123757346
40
0.015556446123757346
40
0.015556446123757346
10
-186.53907836052554
20
-36.005879042264375
30
0
10
-186.56110497750319
20
-36.027709321647265
30
0
10
-186.62480805531243
20
-36.090844572467084
30
0
10
-186.78701012788704
20
-36.199268544102893
30
0
10
-186.85596383925503
20
-36.236011955945038
30
0
10
-186.92848361260164
20
-36.265860624679448
30
0
0
LINE
5
129
100
AcDbEntity
8
INTERIOR_PROFILES
100
AcDbLine
10
-186.53907836052554
20
-36.005879042264375
30
0
11
-183.61369125629139
21
-33.080491938023229
31
0
0
LINE
5
130
100
AcDbEntity
8
INTERIOR_PROFILES
100
AcDbLine
10
-183.61369125629139
20
-33.080491938023229
30
0
11
-179.85838286593093
21
-33.080491938023229
31
0
0
ARC
5
131
100
AcDbEntity
8
INTERIOR_PROFILES
100
AcDbCircle
10
174.24307637992484
20
-29.907034349175067
30
0
40
6.4500000000000002
210
0
220
-0
230
-1
100
AcDbArc
50
269.99999999999875
51
330.52729164757511
0
LINE
5
132
100
AcDbEntity
8
INTERIOR_PROFILES
100
AcDbLine
10
-174.2430763799247
20
-36.357034349175066
30
0
11
-163.38728994192485
21
-36.35703434917508
31
0
0
ARC
5
133
100
AcDbEntity
8
INTERIOR_PROFILES
100
AcDbCircle
10
163.38728994192482
20
-35.157034349175113
30
0
40
1.1999999999999706
210
0
220
-0
230
-1
100
AcDbArc
50
224.99999999971286
51
270.00000000000131
0
LINE
5
134
100
AcDbEntity
8
INTERIOR_PROFILES
100
AcDbLine
10
-162.53876180449674
20
-36.005562486594684
30
0
11
-159.61369125610165
21
-33.080491938023229
31
0
0
LINE
5
135
100
AcDbEntity
8
INTERIOR_PROFILES
100
AcDbLine
10
-159.61369125610165
20
-33.080491938023229
30
0
11
-155.85838286593096
21
-33.080491938023229
31
0
0
ARC
5
136
100
AcDbEntity
8
INTERIOR_PROFILES
100
AcDbCircle
10
150.24307637992484
20
-29.907034349175071
30
0
40
6.4500000000000224
210
0
220
-0
230
-1
100
AcDbArc
50
269.9999999999992
51
330.52729164757523
0
LINE
5
137
100
AcDbEntity
8
INTERIOR_PROFILES
100
AcDbLine
10
-150.24307637992476
20
-36.357034349175095
30
0
11
-139.38728994192479
21
-36.357034349175095
31
0
0
ARC
5
138
100
AcDbEntity
8
INTERIOR_PROFILES
100
AcDbCircle
10
139.38728994192482
20
-35.157034349175106
30
0
40
1.1999999999999926
210
0
220
-0
230
-1
100
AcDbArc
50
224.99999999971237
51
269.99999999999864
0
LINE
5
139
100
AcDbEntity
8
INTERIOR_PROFILES
100
AcDbLine
10
-138.53876180449672
20
-36.005562486594691
30
0
11
-135.61369125610167
21
-33.080491938023229
31
0
0
LINE
5
140
100
AcDbEntity
8
INTERIOR_PROFILES
100
AcDbLine
10
-135.61369125610167
20
-33.080491938023229
30
0
11
-131.85838286593085
21
-33.080491938023215
31
0
0
ARC
5
141
100
AcDbEntity
8
INTERIOR_PROFILES
100
AcDbCircle
10
126.2430763799248
20
-29.907034349174989
30
0
40
6.4500000000000091
210
-0
220
0
230
-1
100
AcDbArc
50
270.00000001389049
51
330.52729164757443
0
LINE
5
142
100
AcDbEntity
8
INTERIOR_PROFILES
100
AcDbLine
10
-126.24307638148851
20
-36.357034349174995
30
0
11
-115.38684230619289
21
-36.357034349164785
31
0
0
SPLINE
5
143
100
AcDbEntity
8
INTERIOR_PROFILES
100
AcDbSpline
70
0
71
3
72
10
73
6
74
0
42
0.000000001
43
0.0000000001
44
0.0000000001
40
0
40
0
40
0
40
0
40
0.023547311565049814
40
0.023547311565049814
40
0.05854935588975467
40
0.05854935588975467
40
0.05854935588975467
40
0.05854935588975467
10
-114.92848361260164
20
-36.265860624679419
30
0
10
-115.00106692718184
20
-36.29573545651553
30
0
10
-115.07590608225172
20
-36.318466638376933
30
0
10
-115.26731775994456
20
-36.356499269237773
30
0
10
-115.35608197368094
20
-36.356896643237
30
0
10
-115.38684230619289
20
-36.357034349164785
30
0
0
SPLINE
5
144
100
AcDbEntity
8
INTERIOR_PROFILES
100
AcDbSpline
70
0
71
3
72
10
73
6
74
0
42
0.000000001
43
0.0000000001
44
0.0000000001
40
0
40
0
40
0
40
0
40
0.0091159928120239549
40
0.0091159928120239549
40
0.01524283892543821
40
0.01524283892543821
40
0.01524283892543821
40
0.01524283892543821
10
-114.53907836052792
20
-36.005879042266685
30
0
10
-114.56066093611703
20
-36.02726923829028
30
0
10
-114.62480805553261
20
-36.090844572614188
30
0
10
-114.78701012788677
20
-36.19926854410275
30
0
10
-114.85596383925504
20
-36.236011955945003
30
0
10
-114.92848361260164
20
-36.265860624679419
30
0
0
LINE
5
145
100
AcDbEntity
8
INTERIOR_PROFILES
100
AcDbLine
10
-114.53907836052792
20
-36.005879042266685
30
0
11
-108.29307637992483
21
-29.759877061649661
31
0
0
LINE
5
146
100
AcDbEntity
8
INTERIOR_PROFILES
100
AcDbLine
10
-108.29307637992483
20
-29.759877061649661
30
0
11
-108.29307637992483
21
-10.554191636700414
31
0
0
LINE
5
147
100
AcDbEntity
8
INTERIOR_PROFILES
100
AcDbLine
10
-108.29307637992483
20
-10.554191636700414
30
0
11
-114.53907836305227
21
-4.3081896535870046
31
0
0
SPLINE
5
148
100
AcDbEntity
8
INTERIOR_PROFILES
100
AcDbSpline
70
0
71
3
72
10
73
6
74
0
42
0.000000001
43
0.0000000001
44
0.0000000001
40
0
40
0
40
0
40
0
40
0.023547310473532146
40
0.023547310473532146
40
0.056663780712093985
40
0.056663780712093985
40
0.056663780712093985
40
0.056663780712093985
10
-114.92765644949441
20
-4.0485506958377151
30
0
10
-114.85520760212128
20
-4.0787501507306416
30
0
10
-114.78621495746341
20
-4.1155960484875136
30
0
10
-114.62919830077544
20
-4.2205586159406145
30
0
10
-114.585687117275
20
-4.2619963527095521
30
0
10
-114.53907836305227
20
-4.3081896535870055
30
0
0
SPLINE
5
149
100
AcDbEntity
8
INTERIOR_PROFILES
100
AcDbSpline
70
0
71
3
72
10
73
6
74
0
42
0.000000001
43
0.0000000001
44
0.0000000001
40
0
40
0
40
0
40
0
40
0.0093035492170553402
40
0.0093035492170553402
40
0.015556451980666592
40
0.015556451980666592
40
0.015556451980666592
40
0.015556451980666592
10
-115.38684229822141
20
-3.957034349164779
30
0
10
-115.3558307782673
20
-3.9571731834569439
30
0
10
-115.26614252612032
20
-3.9575747053758432
30
0
10
-115.07478102221043
20
-3.9956015575094757
30
0
10
-115.0000418693491
20
-4.018377672990245
30
0
10
-114.92765644949441
20
-4.0485506958377124
30
0
0
LINE
5
150
100
AcDbEntity
8
INTERIOR_PROFILES
100
AcDbLine
10
-115.38684229822141
20
-3.957034349164779
30
0
11
-126.24307638095685
21
-3.9570343491750331
31
0
0
ARC
5
151
100
AcDbEntity
8
INTERIOR_PROFILES
100
AcDbCircle
10
126.24307637992445
20
-10.407034349175028
30
0
40
6.4500000000000046
210
0
220
0
230
-1
100
AcDbArc
50
29.471093377425913
51
89.999999990829096
0
LINE
5
152
100
AcDbEntity
8
INTERIOR_PROFILES
100
AcDbLine
10
-131.85847231277816
20
-7.2337350381597414
30
0
11
-135.61353297827895
21
-7.2337350381597449
31
0
0
CIRCLE
5
153
100
AcDbEntity
8
INTERIOR_PROFILES
100
AcDbCircle
10
225.80707963907943
20
164.51803063162245
30
0
40
1.6000000000000014
210
0
220
0
230
-1
0
CIRCLE
5
154
100
AcDbEntity
8
INTERIOR_PROFILES
100
AcDbCircle
10
5.8780799341229795
20
63.381969091536448
30
0
40
1.6000000000000014
210
0
220
0
230
-1
0
CIRCLE
5
155
100
AcDbEntity
8
INTERIOR_PROFILES
100
AcDbCircle
10
239.80900466869048
20
164.49938642596641
30
0
40
1.6000000000000014
210
0
220
0
230
-1
0
LINE
5
156
100
AcDbEntity
8
INTERIOR_PROFILES
100
AcDbLine
10
-15.386842298221381
20
-3.9570343491647293
30
0
11
-26.243076380956794
21
-3.9570343491749909
31
0
0
ARC
5
157
100
AcDbEntity
8
INTERIOR_PROFILES
100
AcDbCircle
10
26.243076379924375
20
-10.407034349174968
30
0
40
6.4499999999999815
210
0
220
0
230
-1
100
AcDbArc
50
29.471093377425486
51
89.999999990828968
0
LINE
5
158
100
AcDbEntity
8
INTERIOR_PROFILES
100
AcDbLine
10
-31.858472312778087
20
-7.2337350381597378
30
0
11
-35.613532978278855
21
-7.2337350381597387
31
0
0
LINE
5
159
100
AcDbEntity
8
INTERIOR_PROFILES
100
AcDbLine
10
-35.613532978278855
20
-7.2337350381597387
30
0
11
-38.538761804500936
21
-4.3085062117511148
31
0
0
ARC
5
160
100
AcDbEntity
8
INTERIOR_PROFILES
100
AcDbCircle
10
39.387289941924735
20
-5.1570343491750332
30
0
40
1.2000000000000033
210
0
220
0
230
-1
100
AcDbArc
50
90
51
134.99999999999596
0
LINE
5
161
100
AcDbEntity
8
INTERIOR_PROFILES
100
AcDbLine
10
-39.387289941924735
20
-3.9570343491750304
30
0
11
-50.243076379924787
21
-3.9570343491749842
31
0
0
ARC
5
162
100
AcDbEntity
8
INTERIOR_PROFILES
100
AcDbCircle
10
50.243076379924823
20
-10.407034349174985
30
0
40
6.4500000000000037
210
0
220
0
230
-1
100
AcDbArc
50
29.4710933774256
51
90.000000000000313
0
LINE
5
163
100
AcDbEntity
8
INTERIOR_PROFILES
100
AcDbLine
10
-55.858472312778545
20
-7.2337350381597343
30
0
11
-59.61353297827884
21
-7.2337350381597414
31
0
0
LINE
5
164
100
AcDbEntity
8
INTERIOR_PROFILES
100
AcDbLine
10
-59.61353297827884
20
-7.2337350381597414
30
0
11
-62.538761804500886
21
-4.3085062117510899
31
0
0
ARC
5
165
100
AcDbEntity
8
INTERIOR_PROFILES
100
AcDbCircle
10
63.387289941924756
20
-5.1570343491750004
30
0
40
1.2000000000000473
210
0
220
0
230
-1
100
AcDbArc
50
89.999999999999673
51
134.99999999999861
0
LINE
5
166
100
AcDbEntity
8
INTERIOR_PROFILES
100
AcDbLine
10
-63.387289941924763
20
-3.9570343491749531
30
0
11
-74.243076379924787
21
-3.9570343491750042
31
0
0
ARC
5
167
100
AcDbEntity
8
INTERIOR_PROFILES
100
AcDbCircle
10
74.243076379924844
20
-10.407034349175003
30
0
40
6.4500000000000028
210
0
220
0
230
-1
100
AcDbArc
50
29.471093377425753
51
90.000000000000512
0
LINE
5
168
100
AcDbEntity
8
INTERIOR_PROFILES
100
AcDbLine
10
-79.858472312778559
20
-7.2337350381597361
30
0
11
-83.613532978472449
21
-7.2337350381597414
31
0
0
LINE
5
169
100
AcDbEntity
8
INTERIOR_PROFILES
100
AcDbLine
10
-83.613532978472449
20
-7.2337350381597414
30
0
11
-86.539078363051516
21
-4.3081896535876476
31
0
0
ELLIPSE
5
170
100
AcDbEntity
8
INTERIOR_PROFILES
100
AcDbEllipse
10
-90.651981004570871
20
-10.379672882972626
30
0
11
-3.9001814942272475
21
-6.2403937656583803
31
0.0
40
0.40329727580375957
41
3.0505220643279287
42
3.208091518685952
0
ELLIPSE
5
171
100
AcDbEntity
8
INTERIOR_PROFILES
100
AcDbEllipse
10
-89.133126227968631
20
-11.116359710013189
30
0
11
-2.0830809781275756
21
-7.1111142847859385
31
0.0
40
0.39823170143049619
41
3.0976500883800373
42
3.2559667665230121
0
LINE
5
172
100
AcDbEntity
8
INTERIOR_PROFILES
100
AcDbLine
10
-87.386842298221353
20
-3.9570343491647542
30
0
11
-98.243076380956808
21
-3.9570343491750144
31
0
0
ARC
5
173
100
AcDbEntity
8
INTERIOR_PROFILES
100
AcDbCircle
10
98.24307637992483
20
-10.407034349175014
30
0
40
6.4499999999999957
210
0
220
0
230
-1
100
AcDbArc
50
0
51
89.999999990832876
0
LINE
5
174
100
AcDbEntity
8
INTERIOR_PROFILES
100
AcDbLine
10
-104.69307637992483
20
-10.407034348736312
30
0
11
-104.69307637992483
21
-29.907034349175024
31
0
0
ARC
5
175
100
AcDbEntity
8
INTERIOR_PROFILES
100
AcDbCircle
10
98.24307637992483
20
-29.90703434917501
30
0
40
6.4499999999999957
210
-0
220
0
230
-1
100
AcDbArc
50
270.00000001389037
51
360
0
LINE
5
176
100
AcDbEntity
8
INTERIOR_PROFILES
100
AcDbLine
10
-98.243076381488521
20
-36.357034349175009
30
0
11
-87.386842306193259
21
-36.357034349164763
31
0
0
ELLIPSE
5
177
100
AcDbEntity
8
INTERIOR_PROFILES
100
AcDbEllipse
10
-88.77176827748238
20
-29.155585716567888
30
0
11
1.6547804303949709
21
-7.1704698372907192
31
0.0
40
0.4032972692531499
41
-0.09107062188891657
42
0.066498834171786966
0
ELLIPSE
5
178
100
AcDbEntity
8
INTERIOR_PROFILES
100
AcDbEllipse
10
-90.366676922759069
20
-29.708675487851295
30
0
11
3.5553578698927524
21
-6.5012640118885567
31
0.0
40
0.39823198247231378
41
-0.043943045920298296
42
0.11437377363690733
0
LINE
5
179
100
AcDbEntity
8
INTERIOR_PROFILES
100
AcDbLine
10
-86.539078360527824
20
-36.005879042266656
30
0
11
-83.613691256291389
21
-33.080491938023222
31
0
0
LINE
5
180
100
AcDbEntity
8
INTERIOR_PROFILES
100
AcDbLine
10
-83.613691256291389
20
-33.080491938023222
30
0
11
-79.858382865930835
21
-33.080491938023222
31
0
0
ARC
5
181
100
AcDbEntity
8
INTERIOR_PROFILES
100
AcDbCircle
10
74.243076379924773
20
-29.90703434917501
30
0
40
6.4500000000000091
210
0
220
-0
230
-1
100
AcDbArc
50
269.99999999999937
51
330.5272916475746
0
LINE
5
182
100
AcDbEntity
8
INTERIOR_PROFILES
100
AcDbLine
10
-74.243076379924702
20
-36.357034349175017
30
0
11
-63.387289941924777
21
-36.357034349175031
31
0
0
ARC
5
183
100
AcDbEntity
8
INTERIOR_PROFILES
100
AcDbCircle
10
63.387289941924777
20
-35.157034349175014
30
0
40
1.2000000000000208
210
0
220
-0
230
-1
100
AcDbArc
50
224.99999999971286
51
270
0
LINE
5
184
100
AcDbEntity
8
INTERIOR_PROFILES
100
AcDbLine
10
-62.538761804496652
20
-36.005562486594634
30
0
11
-59.613691256101632
21
-33.080491938023215
31
0
0
LINE
5
185
100
AcDbEntity
8
INTERIOR_PROFILES
100
AcDbLine
10
-59.613691256101632
20
-33.080491938023215
30
0
11
-55.858382865930878
21
-33.080491938023222
31
0
0
ARC
5
186
100
AcDbEntity
8
INTERIOR_PROFILES
100
AcDbCircle
10
50.243076379924787
20
-29.907034349175031
30
0
40
6.4500000000000179
210
0
220
-0
230
-1
100
AcDbArc
50
269.99999999999903
51
330.52729164757488
0
LINE
5
187
100
AcDbEntity
8
INTERIOR_PROFILES
100
AcDbLine
10
-50.24307637992468
20
-36.357034349175052
30
0
11
-39.387289941924735
21
-36.357034349175066
31
0
0
ARC
5
188
100
AcDbEntity
8
INTERIOR_PROFILES
100
AcDbCircle
10
39.38728994192477
20
-35.157034349175028
30
0
40
1.2000000000000335
210
0
220
-0
230
-1
100
AcDbArc
50
224.99999999971237
51
269.99999999999829
0
LINE
5
189
100
AcDbEntity
8
INTERIOR_PROFILES
100
AcDbLine
10
-38.53876180449663
20
-36.005562486594648
30
0
11
-35.613691256101632
21
-33.080491938023215
31
0
0
LINE
5
190
100
AcDbEntity
8
INTERIOR_PROFILES
100
AcDbLine
10
-35.613691256101632
20
-33.080491938023215
30
0
11
-31.858472312778083
21
-33.080491938023215
31
0
0
ARC
5
191
100
AcDbEntity
8
INTERIOR_PROFILES
100
AcDbCircle
10
26.243076379924766
20
-29.907034349174971
30
0
40
6.4499999999999824
210
-0
220
0
230
-1
100
AcDbArc
50
270.00000001389009
51
330.52890662256738
0
LINE
5
192
100
AcDbEntity
8
INTERIOR_PROFILES
100
AcDbLine
10
-26.243076381488422
20
-36.357034349174953
30
0
11
-15.386842306193742
21
-36.357034349164735
31
0
0
ELLIPSE
5
193
100
AcDbEntity
8
INTERIOR_PROFILES
100
AcDbEllipse
10
-16.771768273541028
20
-29.155585734026733
30
0
11
1.6547804264699795
21
-7.1704698198280683
31
0.0
40
0.40329726974432212
41
-0.091070622005509527
42
0.066498834247052468
0
ELLIPSE
5
194
100
AcDbEntity
8
INTERIOR_PROFILES
100
AcDbEllipse
10
-18.366676919609404
20
-29.708675493254084
30
0
11
3.5553578667145782
21
-6.5012640065013549
31
0.0
40
0.39823198263969362
41
-0.043943045927954394
42
0.11437377369538843
0
LINE
5
195
100
AcDbEntity
8
INTERIOR_PROFILES
100
AcDbLine
10
-14.539078360529533
20
-36.00587904226834
30
0
11
-8.2930763799247487
21
-29.759877061649615
31
0
0
LINE
5
196
100
AcDbEntity
8
INTERIOR_PROFILES
100
AcDbLine
10
-8.2930763799247487
20
-29.759877061649615
30
0
11
-8.2930763799247487
21
-10.554191636700372
31
0
0
LINE
5
197
100
AcDbEntity
8
INTERIOR_PROFILES
100
AcDbLine
10
-8.2930763799247487
20
-10.554191636700372
30
0
11
-14.539078363051509
21
-4.3081896535876112
31
0
0
ELLIPSE
5
198
100
AcDbEntity
8
INTERIOR_PROFILES
100
AcDbEllipse
10
-18.651980996118915
20
-10.379672869629388
30
0
11
-3.9001814857594037
21
-6.2403937523250956
31
0.0
40
0.40329727623723638
41
3.0505220642239017
42
3.2080915187510421
0
ELLIPSE
5
199
100
AcDbEntity
8
INTERIOR_PROFILES
100
AcDbEllipse
10
-17.1331262279827
20
-11.116359710037496
30
0
11
-2.0830809781428496
21
-7.1111142848099202
31
0.0
40
0.39823170142968578
41
3.0976500883805045
42
3.2559667665232381
0
CIRCLE
5
200
100
AcDbEntity
8
INTERIOR_PROFILES
100
AcDbCircle
10
5.7070799341229872
20
160.14296909153654
30
0
40
1.6000000000000014
210
0
220
0
230
-1
0
CIRCLE
5
201
100
AcDbEntity
8
INTERIOR_PROFILES
100
AcDbCircle
10
77.406156291539759
20
160.98864505949606
30
0
40
1.5999999999999925
210
0
220
0
230
-1
0
CIRCLE
5
202
100
AcDbEntity
8
INTERIOR_PROFILES
100
AcDbCircle
10
207.09615629153976
20
134.61864505949603
30
0
40
1.6000000000000014
210
0
220
0
230
-1
0
CIRCLE
5
203
100
AcDbEntity
8
INTERIOR_PROFILES
100
AcDbCircle
10
-46.728844423369083
20
135.00747610328207
30
0
40
1.5000000000000036
210
0
220
0
230
-1
0
CIRCLE
5
204
100
AcDbEntity
8
INTERIOR_PROFILES
100
AcDbCircle
10
206.57807993412297
20
63.381969091536433
30
0
40
1.6000000000000014
210
0
220
0
230
-1
0
CIRCLE
5
205
100
AcDbEntity
8
INTERIOR_PROFILES
100
AcDbCircle
10
258.97115557663057
20
84.99652996291988
30
0
40
1.4999999999999858
210
0
220
0
230
-1
0
CIRCLE
5
206
100
AcDbEntity
8
INTERIOR_PROFILES
100
AcDbCircle
10
258.97115557663057
20
135.00747610328207
30
0
40
1.4999999999999858
210
0
220
0
230
-1
0
CIRCLE
5
207
100
AcDbEntity
8
INTERIOR_PROFILES
100
AcDbCircle
10
64.264247960483019
20
-46.399999999999942
30
0
40
1.6000000000000014
210
0
220
0
230
-1
0
CIRCLE
5
208
100
AcDbEntity
8
INTERIOR_PROFILES
100
AcDbCircle
10
147.94991190776304
20
-46.399999999999928
30
0
40
1.6000000000000014
210
0
220
0
230
-1
0
CIRCLE
5
209
100
AcDbEntity
8
INTERIOR_PROFILES
100
AcDbCircle
10
-46.728844423369083
20
84.99652996291988
30
0
40
1.5000000000000036
210
0
220
0
230
-1
0
CIRCLE
5
210
100
AcDbEntity
8
INTERIOR_PROFILES
100
AcDbCircle
10
258.97115557663057
20
34.974549288318705
30
0
40
1.4999999999999858
210
0
220
0
230
-1
0
CIRCLE
5
211
100
AcDbEntity
8
INTERIOR_PROFILES
100
AcDbCircle
10
-46.728844423369083
20
34.974549288318698
30
0
40
1.5000000000000036
210
0
220
0
230
-1
0
LINE
5
212
100
AcDbEntity
8
BEND
100
AcDbLine
10
-212.41061990118453
20
3.5704772471945034e-12
30
-1.0788255883250543e-13
11
-212.41061990118453
21
170.00000000000355
31
-1.0804225793870697e-13
0
LINE
5
213
100
AcDbEntity
8
BEND
100
AcDbLine
10
-1.4999999999999858
20
-40.203539967061189
30
-4.5728349931450125e-14
11
-210.71415986824604
21
-40.203539967061189
31
-1.6809504442789458e-13
0
LINE
5
214
100
AcDbEntity
8
BEND
100
AcDbLine
10
-216.50705434597742
20
171.69646003294213
30
-1.1417058922504056e-13
11
-252.507079934123
21
171.69646003294213
31
-1.8328943101122366e-13
0
LINE
5
215
100
AcDbEntity
8
BEND
100
AcDbLine
10
40.489380098815282
20
160.00000000000358
30
-2.1898399891212485e-14
11
40.489380098815282
21
10.000000000003606
31
-1.261710386478852e-14
0
LINE
5
216
100
AcDbEntity
8
BEND
100
AcDbLine
10
40.292920065876991
20
171.69646003294216
30
-2.1788190453702301e-14
11
4.2928944777314371
21
171.69646003294216
31
-3.3527623673702841e-15
0
LINE
5
217
100
AcDbEntity
8
BEND
100
AcDbLine
10
0.19646003293853909
20
170.00000000000358
30
-1.272871812503156e-15
11
0.19646003293853909
21
3.5882408155885059e-12
31
6.2211336037166664e-15
0
LINE
5
218
100
AcDbEntity
8
BEND
100
AcDbLine
10
-252.70353996706149
20
9.9999999999999361
30
-1.4868128948240459e-13
11
-252.70353996706149
21
159.99999999999994
31
-1.5819187137593855e-13
0
LINE
5
219
100
AcDbEntity
8
BEND
100
AcDbLine
10
-1.4999999999999858
20
-3.6082248300317588e-14
30
-2.2651096548497002e-15
11
-210.71415986824604
21
-5.3290705182007514e-14
31
-1.2463180415129415e-13
0
LINE
5
220
100
AcDbEntity
8
BEND_EXTENT
100
AcDbLine
10
-254.39999999999998
20
9.9999999999999627
30
-1.7766111488223234e-13
11
-254.39999999999998
21
159.99999999999994
31
-1.6433843858673046e-13
0
LINE
5
221
100
AcDbEntity
8
BEND_EXTENT
100
AcDbLine
10
-1.4999999999999858
20
-41.899999999999693
30
-6.0829374203826705e-14
11
-210.71415986824604
21
-41.899999999999679
31
-1.6543250030626868e-13
0
LINE
5
222
100
AcDbEntity
8
BEND_EXTENT
100
AcDbLine
10
-1.4999999999999858
20
-38.507079934122778
30
-3.4184021612822948e-14
11
-210.71415986824604
21
-38.507079934122778
31
-1.5655071610926743e-13
0
LINE
5
223
100
AcDbEntity
8
BEND_EXTENT
100
AcDbLine
10
-1.4999999999999858
20
-1.6964600329384927
30
-1.6420453218820446e-14
11
-210.71415986824604
21
-1.6964600329385098
31
-1.387871477152649e-13
0
LINE
5
224
100
AcDbEntity
8
BEND_EXTENT
100
AcDbLine
10
-251.00707993412303
20
9.9999999999999449
30
-1.6235396290203737e-13
11
-251.00707993412303
21
159.99999999999994
31
-1.6235396290203739e-13
0
LINE
5
225
100
AcDbEntity
8
BEND_EXTENT
100
AcDbLine
10
-214.10707993412302
20
3.5885183713446622e-12
30
-1.2300805500595548e-13
11
-214.10707993412299
21
170.00000000000364
31
-1.2300805500595546e-13
0
LINE
5
226
100
AcDbEntity
8
BEND_EXTENT
100
AcDbLine
10
-252.507079934123
20
170.00000000000358
30
-1.6323129377610563e-13
11
-216.50705434597745
21
170.00000000000364
31
-1.2441176943828466e-13
0
LINE
5
227
100
AcDbEntity
8
BEND_EXTENT
100
AcDbLine
10
-255.50707665110639
20
173.39292006588062
30
-2.0051309039205262e-13
11
-211.50705434597739
21
173.39292006588062
31
-1.392509015853929e-13
0
LINE
5
228
100
AcDbEntity
8
BEND_EXTENT
100
AcDbLine
10
-0.70710552226856294
20
173.39292006588056
30
-1.5956699348692449e-14
11
43.292916782860402
21
173.39292006588062
31
8.9656847296104835e-16
0
LINE
5
229
100
AcDbEntity
8
BEND_EXTENT
100
AcDbLine
10
4.2928944777314726
20
170.00000000000358
30
-1.3032263101798204e-14
11
40.292920065876991
21
170.00000000000364
31
-9.7398755519822055e-15
0
LINE
5
230
100
AcDbEntity
8
BEND_EXTENT
100
AcDbLine
10
1.8929200658769929
20
170.00000000000358
30
3.3275908598751154e-15
11
1.8929200658769929
21
3.5882408155885059e-12
31
3.3275908598751312e-15
0
LINE
5
231
100
AcDbEntity
8
BEND_EXTENT
100
AcDbLine
10
38.792920065877006
20
160.00000000000358
30
-1.0617206426050476e-14
11
38.792920065877006
21
10.000000000003606
31
-1.0617206426050476e-14
0
LINE
5
232
100
AcDbEntity
8
BEND_EXTENT
100
AcDbLine
10
42.185840131753736
20
160.00000000000358
30
-3.9718975430861925e-14
11
42.185840131753736
21
10.000000000003606
31
-1.7514514938358798e-14
0
LINE
5
233
100
AcDbEntity
8
BEND_EXTENT
100
AcDbLine
10
-1.4999999999999858
20
1.6964600329384893
30
1.3431151751820585e-15
11
-210.71415986824604
21
1.696460032938472
31
-1.210235793212624e-13
0
LINE
5
234
100
AcDbEntity
8
BEND_EXTENT
100
AcDbLine
10
-1.4999999999999858
20
170.00000000000358
30
1.3431151751820428e-15
11
-1.4999999999999858
21
2.4464600329384822
31
1.3431151751820585e-15
0
LINE
5
235
100
AcDbEntity
8
BEND_EXTENT
100
AcDbLine
10
-210.71415986824604
20
2.4464600329384649
30
-1.210235793212624e-13
11
-210.71415986824601
21
170.00000000000358
31
-1.210235793212624e-13
0
ENDSEC
0
SECTION
2
OBJECTS
0
DICTIONARY
5
C
100
AcDbDictionary
3
ACAD_GROUP
350
D
3
ACAD_MLINESTYLE
350
17
0
DICTIONARY
5
D
100
AcDbDictionary
0
DICTIONARY
5
1A
330
C
100
AcDbDictionary
0
DICTIONARY
5
17
100
AcDbDictionary
0
ENDSEC
0
EOF
