0
SECTION
2
HEADER
9
$INSUNITS
70
4
9
$ACADVER
1
AC1014
9
$HANDSEED
5
FFFF
0
ENDSEC
0
SECTION
2
TABLES
0
TABLE
2
VPORT
5
8
100
AcDbSymbolTable
0
ENDTAB
0
TABLE
2
LTYPE
5
5
100
AcDbSymbolTable
0
LTYPE
5
14
100
AcDbSymbolTableRecord
100
AcDbLinetypeTableRecord
2
BYBLOCK
70
0
0
LTYPE
5
15
100
AcDbSymbolTableRecord
100
AcDbLinetypeTableRecord
2
BYLAYER
70
0
0
LTYPE
5
16
100
AcDbSymbolTableRecord
100
AcDbLinetypeTableRecord
2
DASHED
70
0
3
Dashed __ __ __ __ __ __ __ __ __ __ __ __ __ _
72
65
73
2
40
0.75
49
0.5
74
0
49
-0.25
74
0
0
ENDTAB
0
TABLE
2
LAYER
5
2
100
AcDbSymbolTable
70
2
0
LAYER
5
50
100
AcDbSymbolTableRecord
100
AcDbLayerTableRecord
2
0
70
0
62
7
6
CONTINUOUS
0
ENDTAB
0
TABLE
2
STYLE
5
3
100
AcDbSymbolTable
70
1
0
STYLE
5
11
100
AcDbSymbolTableRecord
100
AcDbTextStyleTableRecord
2
STANDARD
70
0
0
ENDTAB
0
TABLE
2
VIEW
5
6
100
AcDbSymbolTable
70
0
0
ENDTAB
0
TABLE
2
UCS
5
7
100
AcDbSymbolTable
70
0
0
ENDTAB
0
TABLE
2
APPID
5
9
100
AcDbSymbolTable
70
2
0
APPID
5
12
100
AcDbSymbolTableRecord
100
AcDbRegAppTableRecord
2
ACAD
70
0
0
ENDTAB
0
TABLE
2
DIMSTYLE
5
A
100
AcDbSymbolTable
70
1
0
ENDTAB
0
TABLE
2
BLOCK_RECORD
5
1
100
AcDbSymbolTable
70
1
0
BLOCK_RECORD
5
1F
100
AcDbSymbolTableRecord
100
AcDbBlockTableRecord
2
*MODEL_SPACE
0
BLOCK_RECORD
5
1B
100
AcDbSymbolTableRecord
100
AcDbBlockTableRecord
2
*PAPER_SPACE
0
ENDTAB
0
ENDSEC
0
SECTION
2
BLOCKS
0
BLOCK
5
20
100
AcDbEntity
100
AcDbBlockBegin
2
*MODEL_SPACE
0
ENDBLK
5
21
100
AcDbEntity
100
AcDbBlockEnd
0
BLOCK
5
1C
100
AcDbEntity
100
AcDbBlockBegin
2
*PAPER_SPACE
0
ENDBLK
5
1D
100
AcDbEntity
100
AcDbBlockEnd
0
ENDSEC
0
SECTION
2
ENTITIES
0
SPLINE
5
100
100
AcDbEntity
8
0
100
AcDbSpline
70
6
71
3
72
26
73
22
74
0
42
0.000000001
43
0.0000000001
44
0.0000000001
40
-1.6261945519736523
40
-1.6261945519736523
40
-1.6261945519736523
40
-1.6261945519736523
40
-1.5738782893951164
40
-1.5738782893951164
40
-1.3599011283487688
40
-1.3599011283487688
40
-1.1486930820324037
40
-1.1486930820324037
40
-0.94154830527781042
40
-0.94154830527781042
40
-0.74213554848259378
40
-0.74213554848259378
40
-0.55785993206741424
40
-0.55785993206741424
40
-0.38766912719849778
40
-0.38766912719849778
40
-0.22253188605955593
40
-0.22253188605955593
40
-0.08558918694598304
40
-0.08558918694598304
40
0
40
0
40
0
40
0
41
1
41
1
41
1
41
1
41
1
41
1
41
1
41
1
41
1
41
1
41
1
41
1
41
1
41
1
41
1
41
1
41
1
41
1
41
1
41
1
41
1
41
1
10
100.78907635741675
20
-160.33942912447526
30
0
10
100.78907635741594
20
-160.51461300513139
30
0
10
100.80684177460927
20
-160.68979229280438
30
0
10
100.9858621201537
20
-161.56334117728829
30
0
10
101.43420842755449
20
-162.19735538423078
30
0
10
102.65398373113615
20
-162.93169366818506
30
0
10
103.41211875050888
20
-163.03380562647277
30
0
10
104.76069045381439
20
-162.654555432493
30
0
10
105.34509246722756
20
-162.18743768637194
30
0
10
105.99335176618332
20
-160.99030263666987
30
0
10
106.07275795700993
20
-160.27827216894917
30
0
10
105.72488972800734
20
-159.04145418929008
30
0
10
105.33856323391478
20
-158.51179019087158
30
0
10
104.34873897109689
20
-157.8567230966357
30
0
10
103.76796687382424
20
-157.70480891979705
30
0
10
102.64808284900329
20
-157.78664460378297
30
0
10
102.11134981843131
20
-158.00850752026619
30
0
10
101.34489318338422
20
-158.66862242774661
30
0
10
101.0788470026263
20
-159.06149280650158
30
0
10
100.83689185747997
20
-159.76628406724731
30
0
10
100.78907635741675
20
-160.0528290278248
30
0
10
100.78907635741675
20
-160.33942912447526
30
0
0
SPLINE
5
101
100
AcDbEntity
8
0
100
AcDbSpline
70
6
71
3
72
26
73
22
74
0
42
0.000000001
43
0.0000000001
44
0.0000000001
40
-1.6261945519736507
40
-1.6261945519736507
40
-1.6261945519736507
40
-1.6261945519736507
40
-1.5738782893878143
40
-1.5738782893878143
40
-1.3599011283441005
40
-1.3599011283441005
40
-1.1486930820275294
40
-1.1486930820275294
40
-0.94154830527321132
40
-0.94154830527321132
40
-0.74213554847969021
40
-0.74213554847969021
40
-0.5578599320653862
40
-0.5578599320653862
40
-0.38766912719680396
40
-0.38766912719680396
40
-0.22253188605955171
40
-0.22253188605955171
40
-0.08558918694598143
40
-0.08558918694598143
40
0
40
0
40
0
40
0
41
1
41
1
41
1
41
1
41
1
41
1
41
1
41
1
41
1
41
1
41
1
41
1
41
1
41
1
41
1
41
1
41
1
41
1
41
1
41
1
41
1
41
1
10
-100.60000000000001
20
-134.81510509243475
30
0
10
-100.60000000000079
20
-134.99028897311536
30
0
10
-100.58223458280251
20
-135.16546826081276
30
0
10
-100.4032142372303
20
-136.03901714530681
30
0
10
-99.954867929821376
20
-136.67303135222997
30
0
10
-98.735092626233353
20
-137.40736963615819
30
0
10
-97.976957606857894
20
-137.50948159443203
30
0
10
-96.62838590355959
20
-137.13023140042691
30
0
10
-96.043983890155985
20
-136.66311365429593
30
0
10
-95.395724591224592
20
-135.46597860458809
30
0
10
-95.316318400409074
20
-134.75394813687308
30
0
10
-95.664186629423185
20
-133.51713015722623
30
0
10
-96.050513123518925
20
-132.98746615881407
30
0
10
-97.040337386338322
20
-132.33239906458837
30
0
10
-97.621109483611065
20
-132.18048488775418
30
0
10
-98.740993508424509
20
-132.2623205717469
30
0
10
-99.277726538989981
20
-132.48418348822955
30
0
10
-100.04418317403253
20
-133.14429839570613
30
0
10
-100.31022935479055
20
-133.53716877446115
30
0
10
-100.55218449993686
20
-134.24196003520689
30
0
10
-100.60000000000001
20
-134.52850499578429
30
0
10
-100.60000000000001
20
-134.81510509243475
30
0
0
LWPOLYLINE
5
102
100
AcDbEntity
8
0
100
AcDbPolyline
90
6
70
1
43
0.0
10
107.59615629153977
20
-1.8929200658771896
10
-101.61800357670629
20
-1.8929200658771896
10
-101.6180035767063
20
-2.6429200658771821
10
-101.61800357670627
20
-170.19646003294235
10
107.59615629153978
20
-170.1964600329423
10
107.59615629153977
20
-2.6429200658771634
0
SPLINE
5
103
100
AcDbEntity
8
0
100
AcDbSpline
70
6
71
3
72
26
73
22
74
0
42
0.000000001
43
0.0000000001
44
0.0000000001
40
-1.6261945519736534
40
-1.6261945519736534
40
-1.6261945519736534
40
-1.6261945519736534
40
-1.5738782893918735
40
-1.5738782893918735
40
-1.3599011283469351
40
-1.3599011283469351
40
-1.1486930820287797
40
-1.1486930820287797
40
-0.94154830527574129
40
-0.94154830527574129
40
-0.74213554848011853
40
-0.74213554848011853
40
-0.55785993206762363
40
-0.55785993206762363
40
-0.38766912719807334
40
-0.38766912719807334
40
-0.22253188605955515
40
-0.22253188605955515
40
-0.085589186945982748
40
-0.085589186945982748
40
0
40
0
40
0
40
0
41
1
41
1
41
1
41
1
41
1
41
1
41
1
41
1
41
1
41
1
41
1
41
1
41
1
41
1
41
1
41
1
41
1
41
1
41
1
41
1
41
1
41
1
10
-100.08192364258322
20
-63.578429124475171
30
0
10
-100.08192364258399
20
-63.753613005142185
30
0
10
-100.06415822538848
20
-63.92879229282596
30
0
10
-99.885137879831916
20
-64.802341177313536
30
0
10
-99.436791572428461
20
-65.436355384246852
30
0
10
-98.217016268840382
20
-66.170693668193323
30
0
10
-97.458881249459552
20
-66.272805626474096
30
0
10
-96.110309546157779
20
-65.893555432475011
30
0
10
-95.525907532755213
20
-65.426437686351676
30
0
10
-94.877648233810788
20
-64.229302636647617
30
0
10
-94.798242042990296
20
-63.517272168924571
30
0
10
-95.146110272002687
20
-62.28045418927622
30
0
10
-95.532436766091351
20
-61.750790190868024
30
0
10
-96.522261028902875
20
-61.09572309663524
30
0
10
-97.103033126178047
20
-60.943808919796211
30
0
10
-98.222917150999621
20
-61.025644603784038
30
0
10
-98.759650181569896
20
-61.247507520267163
30
0
10
-99.526106816615766
20
-61.90762242774661
30
0
10
-99.792152997373677
20
-62.300492806501452
30
0
10
-100.03410814252004
20
-63.005284067247203
30
0
10
-100.08192364258322
20
-63.291829027824711
30
0
10
-100.08192364258322
20
-63.578429124475171
30
0
0
SPLINE
5
104
100
AcDbEntity
8
0
100
AcDbSpline
70
6
71
3
72
26
73
22
74
0
42
0.000000001
43
0.0000000001
44
0.0000000001
40
-1.6261945519736465
40
-1.6261945519736465
40
-1.6261945519736465
40
-1.6261945519736465
40
-1.5738782893929988
40
-1.5738782893929988
40
-1.3599011283475506
40
-1.3599011283475506
40
-1.1486930820300245
40
-1.1486930820300245
40
-0.94154830527521793
40
-0.94154830527521793
40
-0.74213554848059005
40
-0.74213554848059005
40
-0.55785993206670526
40
-0.55785993206670526
40
-0.38766912719710711
40
-0.38766912719710711
40
-0.22253188605955551
40
-0.22253188605955551
40
-0.085589186945982887
40
-0.085589186945982887
40
0
40
0
40
0
40
0
41
1
41
1
41
1
41
1
41
1
41
1
41
1
41
1
41
1
41
1
41
1
41
1
41
1
41
1
41
1
41
1
41
1
41
1
41
1
41
1
41
1
41
1
10
29.090000000000007
20
-161.18510509243475
30
0
10
29.089999999999225
20
-161.36028897309799
30
0
10
29.107765417193967
20
-161.535468260778
30
0
10
29.286785762746366
20
-162.4090171452645
30
0
10
29.735132070148875
20
-163.04303135220096
30
0
10
30.954907373734962
20
-163.77736963615013
30
0
10
31.713042393113035
20
-163.87948159443317
30
0
10
33.061614096419873
20
-163.50023140043962
30
0
10
33.646016109828949
20
-163.03311365431256
30
0
10
34.294275408772165
20
-161.83597860460503
30
0
10
34.373681599592139
20
-161.12394813688604
30
0
10
34.025813370581702
20
-159.88713015723576
30
0
10
33.639486876489315
20
-159.35746615882334
30
0
10
32.649662613671488
20
-158.70239906459142
30
0
10
32.068890516395577
20
-158.55048488775441
30
0
10
30.949006491577464
20
-158.63232057174616
30
0
10
30.412273461010912
20
-158.8541834882289
30
0
10
29.645816825967522
20
-159.51429839570613
30
0
10
29.379770645209522
20
-159.90716877446116
30
0
10
29.137815500063191
20
-160.61196003520692
30
0
10
29.090000000000007
20
-160.89850499578432
30
0
10
29.090000000000007
20
-161.18510509243475
30
0
0
SPLINE
5
105
100
AcDbEntity
8
0
100
AcDbSpline
70
6
71
3
72
26
73
22
74
0
42
0.000000001
43
0.0000000001
44
0.0000000001
40
-1.6261945519736523
40
-1.6261945519736523
40
-1.6261945519736523
40
-1.6261945519736523
40
-1.5738782893917764
40
-1.5738782893917764
40
-1.3599011283467239
40
-1.3599011283467239
40
-1.1486930820291985
40
-1.1486930820291985
40
-0.94154830527419853
40
-0.94154830527419853
40
-0.74213554848043783
40
-0.74213554848043783
40
-0.55785993206677531
40
-0.55785993206677531
40
-0.38766912719894508
40
-0.38766912719894508
40
-0.22253188605954449
40
-0.22253188605954449
40
-0.085589186945978654
40
-0.085589186945978654
40
0
40
0
40
0
40
0
41
1
41
1
41
1
41
1
41
1
41
1
41
1
41
1
41
1
41
1
41
1
41
1
41
1
41
1
41
1
41
1
41
1
41
1
41
1
41
1
41
1
41
1
10
100.61807635741673
20
-63.578429124475157
30
0
10
100.61807635741594
20
-63.753613005142505
30
0
10
100.63584177461152
20
-63.928792292826621
30
0
10
100.81486212016858
20
-64.802341177314887
30
0
10
101.26320842757278
20
-65.43635538424833
30
0
10
102.48298373116
20
-66.170693668192882
30
0
10
103.24111875053833
20
-66.272805626473541
30
0
10
104.58969045384481
20
-65.893555432475367
30
0
10
105.17409246725276
20
-65.426437686345736
30
0
10
105.82235176619015
20
-64.229302636637598
30
0
10
105.90175795700809
20
-63.517272168922048
30
0
10
105.55388972799787
20
-62.280454189275424
30
0
10
105.16756323390578
20
-61.750790190863725
30
0
10
104.17773897109406
20
-61.095723096635453
30
0
10
103.59696687382495
20
-60.943808919797931
30
0
10
102.47708284900628
20
-61.025644603781728
30
0
10
101.94034981843245
20
-61.247507520265117
30
0
10
101.17389318338411
20
-61.907622427746702
30
0
10
100.90784700262631
20
-62.300492806501502
30
0
10
100.66589185747998
20
-63.005284067247167
30
0
10
100.61807635741673
20
-63.291829027824711
30
0
10
100.61807635741673
20
-63.578429124475157
30
0
0
LWPOLYLINE
5
106
100
AcDbEntity
8
0
100
AcDbPolyline
90
4
70
1
43
0.0
10
149.26405076922649
20
-183.68925836952042
10
149.26405076922649
20
-178.68925836952042
42
0.99999999999999989
10
143.26405076922646
20
-178.68925836952042
10
143.26405076922649
20
-183.68925836952042
42
0.99999999999999989
0
LWPOLYLINE
5
107
100
AcDbEntity
8
0
100
AcDbPolyline
90
4
70
1
43
0.0
10
-105.537388578403
20
-183.7838687297953
10
-105.53738857840301
20
-178.78376087584599
42
1.0158784189029333
10
-111.53589975499813
20
-178.68925836952027
10
-111.53589635388002
20
-183.68925836881954
42
0.98435205910808987
0
LWPOLYLINE
5
108
100
AcDbEntity
8
0
100
AcDbPolyline
90
4
70
1
43
0.0
10
133.38905076920219
20
-183.68925836952042
10
133.38905076920219
20
-178.68925836952042
42
0.99999999999999989
10
127.38905076927114
20
-178.68925836952042
10
127.3890507692022
20
-183.68925836952042
42
0.99999999999999989
0
LWPOLYLINE
5
109
100
AcDbEntity
8
0
100
AcDbPolyline
90
4
70
1
43
0.0
10
-143.28589805439299
20
-178.68925836952027
10
-143.28589805439299
20
-183.68925836952027
42
0.99999999999999989
10
-137.28589805439299
20
-183.68925836952027
10
-137.28589805439299
20
-178.68925836952027
42
0.99999999999999989
0
LWPOLYLINE
5
110
100
AcDbEntity
8
0
100
AcDbPolyline
90
4
70
1
43
0.0
10
-127.41089805443764
20
-178.68925836952027
10
-127.41089805443762
20
-183.68925836952033
42
0.99999999999999989
10
-121.4108980543687
20
-183.68925836952033
10
-121.41089805443764
20
-178.68925836952027
42
0.99999999999999989
0
LWPOLYLINE
5
111
100
AcDbEntity
8
0
100
AcDbPolyline
90
4
70
1
43
0.0
10
117.5125596798614
20
-183.78377881546203
10
117.5125596798614
20
-178.78388664894396
42
1.0158997272719219
10
111.5140524698316
20
-178.68925836881968
10
111.5140502024211
20
-183.69186648007536
42
0.98393896827443472
0
CIRCLE
5
112
100
AcDbEntity
8
0
100
AcDbCircle
10
136.69100109198422
20
-164.69584645890512
30
0
40
1.6000000000000014
210
0
220
0
230
1
0
CIRCLE
5
113
100
AcDbEntity
8
0
100
AcDbCircle
10
122.68907606237318
20
-164.71449066456114
30
0
40
1.6000000000000014
210
0
220
0
230
1
0
CIRCLE
5
114
100
AcDbEntity
8
0
100
AcDbCircle
10
-116.71092334753968
20
-164.71449066456114
30
0
40
1.6000000000000014
210
0
220
0
230
1
0
CIRCLE
5
115
100
AcDbEntity
8
0
100
AcDbCircle
10
-130.71284837715072
20
-164.69584645890512
30
0
40
1.6000000000000014
210
0
220
0
230
1
0
LWPOLYLINE
5
116
100
AcDbEntity
8
0
100
AcDbPolyline
90
80
70
1
43
0.0
10
-154.41092364258327
20
-153.19646003293866
42
0.41421356237309503
10
-147.41092364258324
20
-160.19646003293866
10
-145.30384370846022
20
-160.19646003293866
10
-141.91092364258327
20
-160.19646003293866
10
-141.91092364258327
20
-161.19646003293866
10
-146.41092364258327
20
-161.19646003293866
10
-146.4109236425833
20
-167.19646003293801
42
0.41421356237310025
10
-143.41092364258324
20
-170.19646003293801
10
-143.41092364258321
20
-173.19646003294227
10
-146.41092104103393
20
-173.19646003293775
10
-146.41092035956663
20
-173.58938009881928
10
-146.41089805443752
20
-186.45006028145079
42
0.38894280384963742
10
-143.42225582720994
20
-189.18925836881959
10
-105.41089805443747
20
-189.18925836881968
42
0.41421356237308637
10
-102.41089805443747
20
-186.18925836881968
10
-102.41089805443765
20
-173.58938009881928
10
-102.41089805443765
20
-173.19646003294227
10
-107.41089805443767
20
-173.19646003294227
10
-107.41089805443771
20
-170.1964600329423
10
-105.01092364258324
20
-170.1964600329423
10
-101.61800357670626
20
-170.1964600329423
10
107.59615629153977
20
-170.1964600329423
10
110.98907635741674
20
-170.1964600329423
10
113.38905076927117
20
-170.1964600329423
10
113.38905076927117
20
-173.1964600329423
10
108.38905076927117
20
-173.1964600329423
10
108.38905076927117
20
-173.58938009881925
10
108.38905076927098
20
-186.18925836881971
42
0.41421356237308637
10
111.38905076927095
20
-189.18925836881965
10
149.40040854204344
20
-189.18925836881959
42
0.38894280384964552
10
152.38905076927102
20
-186.45006028145079
10
152.38907307440016
20
-173.58938009881925
10
152.38907375586746
20
-173.19646003294227
10
149.38907635741674
20
-173.19646003294227
10
149.38907635741674
20
-170.19646003294292
42
0.41421356237309503
10
152.38907635741674
20
-167.19646003294292
10
152.38907635741671
20
-161.1964600329423
10
147.88907635741677
20
-161.1964600329423
10
147.88907635741677
20
-160.1964600329423
10
151.28199642329346
20
-160.19646003294227
10
153.38907635741666
20
-160.19646003294227
42
0.41421356237309503
10
160.38907635741666
20
-153.19646003294227
10
160.38907635741666
20
-17.19646003294228
42
0.41421356237309503
10
153.38907635741666
20
-10.196460032942278
10
151.28199642329346
20
-10.196460032942305
10
147.88907635741677
20
-10.196460032942305
10
147.88907635741677
20
-9.1964600329423067
10
152.38907635741671
20
-9.1964600329422961
10
152.38907635741674
20
-3.1964600329423147
42
0.41421356237309626
10
149.38907635741671
20
-0.1964600329422872
10
110.98907635741675
20
-0.19646003294229036
10
109.09615629153976
20
-0.19646003294229025
10
109.09615629153976
20
-2.6429200658771839
10
107.59615629153977
20
-2.6429200658771865
10
107.59615629153977
20
-1.8929200658771916
10
107.59615629153977
20
1.4999999999997859
10
107.59615629153977
20
38.310619901184062
10
107.59615629153977
20
41.703539967060983
10
107.59615629153973
20
42.703539967061211
10
97.596156291539728
20
42.703539967061204
42
0.41421356237309542
10
90.596156291539742
20
49.703539967061218
10
-84.618003576706329
20
49.703539967061197
42
0.4142135623730947
10
-91.618003576706315
20
42.703539967061204
10
-101.61800357670631
20
42.703539967061197
10
-101.61800357670631
20
41.703539967060948
10
-101.6180035767063
20
38.310619901184047
10
-101.6180035767063
20
1.4999999999997948
10
-101.6180035767063
20
-1.8929200658771941
10
-101.6180035767063
20
-2.6429200658771865
10
-103.11800357670631
20
-2.6429200658771865
10
-103.11800357670627
20
-0.19646003294229014
10
-105.01092364258326
20
-0.19646003294230813
10
-143.41092364258321
20
-0.19646003294230774
42
0.41421356237309548
10
-146.41092364258327
20
-3.1964600329423529
10
-146.41092364258327
20
-9.1964600329386297
10
-141.91092364258327
20
-9.1964600329386492
10
-141.91092364258327
20
-10.196460032938646
10
-145.30384370846019
20
-10.196460032938646
10
-147.41092364258327
20
-10.196460032938639
42
0.41421356237309431
10
-154.41092364258324
20
-17.196460032938639
0
CIRCLE
5
117
100
AcDbEntity
8
0
100
AcDbCircle
10
-149.87499928509081
20
-85.192989995858568
30
0
40
1.5000000000000036
210
0
220
0
230
1
0
CIRCLE
5
118
100
AcDbEntity
8
0
100
AcDbCircle
10
-149.87499928509081
20
-35.171009321257387
30
0
40
1.5000000000000036
210
0
220
0
230
1
0
CIRCLE
5
119
100
AcDbEntity
8
0
100
AcDbCircle
10
-149.87499928509081
20
-135.20393613622076
30
0
40
1.5000000000000036
210
0
220
0
230
1
0
CIRCLE
5
120
100
AcDbEntity
8
0
100
AcDbCircle
10
44.831908331056724
20
46.203539967061211
30
0
40
1.6000000000000014
210
0
220
0
230
1
0
CIRCLE
5
121
100
AcDbEntity
8
0
100
AcDbCircle
10
-38.853755616223282
20
46.203539967061211
30
0
40
1.6000000000000014
210
0
220
0
230
1
0
CIRCLE
5
122
100
AcDbEntity
8
0
100
AcDbCircle
10
103.21807635741675
20
-63.578429124475157
30
0
40
1.6000000000000014
210
0
220
0
230
1
0
LINE
5
123
100
AcDbEntity
8
0
100
AcDbLine
10
-74.51737668693282
20
7.0372750052210229
30
0
11
-70.762316021238874
21
7.0372750052210229
31
0
0
ARC
5
124
100
AcDbEntity
8
0
100
AcDbCircle
10
-65.146920088385173
20
10.210574316236322
30
0
40
6.4500000000000037
210
0
220
0
230
1
100
AcDbArc
50
209.47109337742609
51
270.00000000000051
0
LINE
5
125
100
AcDbEntity
8
0
100
AcDbLine
10
-65.146920088385116
20
3.7605743162363279
30
0
11
-54.291133650583788
21
3.7605743162362861
31
-8.6639767276798421e-29
0
ARC
5
126
100
AcDbEntity
8
0
100
AcDbCircle
10
-54.291133650385063
20
4.9605743162362854
30
0
40
1.1999999999999993
210
-1.195688482063693e-38
220
-7.2199806063998726e-29
230
1
100
AcDbArc
50
269.99999999051153
51
314.99999999999881
0
LINE
5
127
100
AcDbEntity
8
0
100
AcDbLine
10
-53.442605512961222
20
4.1120461788124096
30
0
11
-50.517376686739219
21
7.0372750052210344
31
-1.2746436767352548e-14
0
LINE
5
128
100
AcDbEntity
8
0
100
AcDbLine
10
-50.517376686739219
20
7.0372750052210344
30
-1.2746436767352548e-14
11
-46.762316021238853
21
7.0372750052210229
31
0
0
ARC
5
129
100
AcDbEntity
8
0
100
AcDbCircle
10
-41.146920088385144
20
10.210574316236315
30
0
40
6.4500000000000064
210
0
220
0
230
1
100
AcDbArc
50
209.471093377426
51
270.00000000000034
0
LINE
5
130
100
AcDbEntity
8
0
100
AcDbLine
10
-41.146920088385109
20
3.7605743162363114
30
0
11
-30.291133650385046
21
3.7605743162363585
31
7.426265766582722e-29
0
ARC
5
131
100
AcDbEntity
8
0
100
AcDbCircle
10
-30.291133650385053
20
4.9605743162363698
30
0
40
1.2000000000000111
210
-4.5804506894697642e-43
220
6.1885548054855447e-29
230
1
100
AcDbArc
50
270.00000000000034
51
314.99999999999608
0
LINE
5
132
100
AcDbEntity
8
0
100
AcDbLine
10
-29.442605512961251
20
4.1120461788124514
30
0
11
-26.517376686739212
21
7.0372750052210389
31
-1.2746436767352604e-14
0
LINE
5
133
100
AcDbEntity
8
0
100
AcDbLine
10
-26.517376686739212
20
7.0372750052210389
30
-1.2746436767352604e-14
11
-22.762316021238405
21
7.0372750052210282
31
1.9041707093801851e-30
0
ARC
5
134
100
AcDbEntity
8
0
100
AcDbCircle
10
-17.146920088384707
20
10.210574316236315
30
0
40
6.4499999999999966
210
2.5701994968842366e-31
220
1.4524376179632555e-31
230
1
100
AcDbArc
50
209.471093377426
51
269.99999999082911
0
LINE
5
135
100
AcDbEntity
8
0
100
AcDbLine
10
-17.146920089417108
20
3.7605743162363172
30
0
11
-6.2906860066816783
21
3.7605743162260556
31
-1.7592633183963531e-26
0
SPLINE
5
136
100
AcDbEntity
8
0
100
AcDbSpline
70
0
71
3
72
10
73
6
74
0
42
0.000000001
43
0.0000000001
44
0.0000000001
40
0
40
0
40
0
40
0
40
0.0093035492170553402
40
0.0093035492170553402
40
0.015556451980666592
40
0.015556451980666592
40
0.015556451980666592
40
0.015556451980666592
10
-6.2906860066816739
20
3.7605743162260659
30
0
10
-6.2596744867275778
20
3.7607131505182307
30
0
10
-6.1699862345805823
20
3.7611146724371309
30
0
10
-5.9786247306706919
20
3.7991415245707634
30
0
10
-5.9038855778093691
20
3.8219176400515327
30
0
10
-5.8315001579546566
20
3.852090662899001
30
0
0
SPLINE
5
137
100
AcDbEntity
8
0
100
AcDbSpline
70
0
71
3
72
10
73
6
74
0
42
0.000000001
43
0.0000000001
44
0.0000000001
40
0
40
0
40
0
40
0
40
0.023547310473532146
40
0.023547310473532146
40
0.056663780712093985
40
0.056663780712093985
40
0.056663780712093985
40
0.056663780712093985
10
-5.8315001579546566
20
3.852090662899001
30
0
10
-5.7590513105815511
20
3.8822901177919285
30
0
10
-5.6900586659236874
20
3.9191360155488004
30
0
10
-5.5330420092356958
20
4.0240985830019023
30
0
10
-5.4895308257352493
20
4.065536319770839
30
0
10
-5.4429220715125259
20
4.1117296206482896
30
0
0
LINE
5
138
100
AcDbEntity
8
0
100
AcDbLine
10
-5.4429220715125268
20
4.1117296206482896
30
0
11
0.80307991161492787
21
10.357731603761714
31
-7.0508973691958541e-15
0
LINE
5
139
100
AcDbEntity
8
0
100
AcDbLine
10
0.80307991161492787
20
10.357731603761714
30
-7.0508973691958541e-15
11
0.80307991161492065
21
29.563417028710948
31
-2.5869951870814731e-15
0
LINE
5
140
100
AcDbEntity
8
0
100
AcDbLine
10
0.80307991161492065
20
29.563417028710948
30
-2.5869951870814731e-15
11
-5.4429220689881719
21
35.809419009327961
31
-7.0508973734774866e-15
0
SPLINE
5
141
100
AcDbEntity
8
0
100
AcDbSpline
70
0
71
3
72
10
73
6
74
0
42
0.000000001
43
0.0000000001
44
0.0000000001
40
0
40
0
40
0
40
0
40
0.0091159928120239549
40
0.0091159928120239549
40
0.01524283892543821
40
0.01524283892543821
40
0.01524283892543821
40
0.01524283892543821
10
-5.4429220689881763
20
35.809419009327968
30
0
10
-5.4645046445772838
20
35.830809205351571
30
0
10
-5.5286517639928734
20
35.894384539675471
30
0
10
-5.6908538363470385
20
36.002808511164041
30
0
10
-5.7598075477153099
20
36.039551923006286
30
0
10
-5.8323273210619009
20
36.069400591740703
30
0
0
SPLINE
5
142
100
AcDbEntity
8
0
100
AcDbSpline
70
0
71
3
72
10
73
6
74
0
42
0.000000001
43
0.0000000001
44
0.0000000001
40
0
40
0
40
0
40
0
40
0.023547311565049814
40
0.023547311565049814
40
0.05854935588975467
40
0.05854935588975467
40
0.05854935588975467
40
0.05854935588975467
10
-5.8323273210618964
20
36.06940059174071
30
0
10
-5.9049106356420955
20
36.09927542357682
30
0
10
-5.9797497907119768
20
36.122006605438216
30
0
10
-6.1711614684048222
20
36.160039236299056
30
0
10
-6.2599256821412075
20
36.160436610298284
30
0
10
-6.2906860146531418
20
36.160574316226075
30
0
0
LINE
5
143
100
AcDbEntity
8
0
100
AcDbLine
10
-6.2906860146531427
20
36.160574316226068
30
0
11
-17.146920089948754
21
36.160574316236293
31
1.7556453940485308e-26
0
ARC
5
144
100
AcDbEntity
8
0
100
AcDbCircle
10
-17.146920088385073
20
29.710574316236276
30
0
40
6.4500000000000135
210
6.598814994524458e-37
220
-2.7219308434860886e-27
230
1
100
AcDbArc
50
90.000000013890286
51
150.52729164757437
0
LINE
5
145
100
AcDbEntity
8
0
100
AcDbLine
10
-22.762226574391129
20
32.884031905084512
30
-6.2585415682330129e-31
11
-26.517534964561918
21
32.884031905084505
31
0
0
LINE
5
146
100
AcDbEntity
8
0
100
AcDbLine
10
-26.517534964561918
20
32.884031905084505
30
0
11
-29.442605512956959
21
35.809102453655989
31
5.016860160453752e-15
0
ARC
5
147
100
AcDbEntity
8
0
100
AcDbCircle
10
-30.291133650385088
20
34.960574316236389
30
0
40
1.2000000000000113
210
-2.9562131997827242e-15
220
-2.9562131997530185e-15
230
1
100
AcDbArc
50
44.99999999971201
51
89.999999999999503
0
LINE
5
148
100
AcDbEntity
8
0
100
AcDbLine
10
-30.291133650385078
20
36.160574316236378
30
1.6734266864758079e-31
11
-41.146920088385016
21
36.160574316236378
31
0
0
ARC
5
149
100
AcDbEntity
8
0
100
AcDbCircle
10
-41.146920088385116
20
29.710574316236354
30
0
40
6.4500000000000224
210
-6.2230152778611417e-61
220
1.0283065814438e-74
230
1
100
AcDbArc
50
89.999999999999119
51
150.52729164757523
0
LINE
5
150
100
AcDbEntity
8
0
100
AcDbLine
10
-46.762226574391235
20
32.884031905084512
30
6.2585415655479228e-31
11
-50.517534964561925
21
32.884031905084505
31
0
0
LINE
5
151
100
AcDbEntity
8
0
100
AcDbLine
10
-50.517534964561925
20
32.884031905084505
30
0
11
-53.44260551295698
21
35.80910245365596
31
-1.2746708233548776e-14
0
ARC
5
152
100
AcDbEntity
8
0
100
AcDbCircle
10
-54.291133650385092
20
34.960574316236396
30
0
40
1.1999999999999706
210
7.5110698581619297e-15
220
7.5110698580863363e-15
230
1
100
AcDbArc
50
44.999999999711413
51
90.000000000000696
0
LINE
5
153
100
AcDbEntity
8
0
100
AcDbLine
10
-54.291133650385106
20
36.160574316236364
30
0
11
-65.146920088385031
21
36.16057431623635
31
-2.2850048512562221e-29
0
ARC
5
154
100
AcDbEntity
8
0
100
AcDbCircle
10
-65.146920088385116
20
29.71057431623635
30
0
40
6.4500000000000002
210
4.8782933664944936e-44
220
3.542643180242205e-30
230
1
100
AcDbArc
50
89.999999999999247
51
150.52729164757503
0
LINE
5
155
100
AcDbEntity
8
0
100
AcDbLine
10
-70.762226574391192
20
32.884031905084512
30
-6.2585415655479709e-31
11
-74.517534964751647
21
32.884031905084505
31
0
0
LINE
5
156
100
AcDbEntity
8
0
100
AcDbLine
10
-74.517534964751647
20
32.884031905084505
30
0
11
-77.44292206898578
21
35.809419009325644
31
5.0174030928382451e-15
0
SPLINE
5
157
100
AcDbEntity
8
0
100
AcDbSpline
70
0
71
3
72
10
73
6
74
0
42
0.000000001
43
0.0000000001
44
0.0000000001
40
0
40
0
40
0
40
0
40
0.0093035458728060617
40
0.0093035458728060617
40
0.015556446123757346
40
0.015556446123757346
40
0.015556446123757346
40
0.015556446123757346
10
-77.442922068985794
20
35.809419009325659
30
0
10
-77.464948685963464
20
35.831249288708541
30
0
10
-77.528651763772672
20
35.89438453952836
30
0
10
-77.690853836347287
20
36.002808511164176
30
0
10
-77.759807547715312
20
36.039551923006314
30
0
10
-77.832327321061896
20
36.069400591740724
30
0
0
SPLINE
5
158
100
AcDbEntity
8
0
100
AcDbSpline
70
0
71
3
72
10
73
6
74
0
42
0.000000001
43
0.0000000001
44
0.0000000001
40
0
40
0
40
0
40
0
40
0.023547311565077545
40
0.023547311565077545
40
0.058549355781455162
40
0.058549355781455162
40
0.058549355781455162
40
0.058549355781455162
10
-77.832327321061896
20
36.069400591740724
30
0
10
-77.904910635642182
20
36.09927542357687
30
0
10
-77.979749790712077
20
36.122006605438258
30
0
10
-78.171161468050727
20
36.160039236228727
30
0
10
-78.260599502843732
20
36.160439626816114
30
0
10
-78.290686014650362
20
36.160574316226082
30
0
0
LINE
5
159
100
AcDbEntity
8
0
100
AcDbLine
10
-78.290686014650362
20
36.160574316226075
30
0
11
-89.14692008994885
21
36.160574316236335
31
1.7594537354672909e-26
0
ARC
5
160
100
AcDbEntity
8
0
100
AcDbCircle
10
-89.146920088385173
20
29.710574316236364
30
0
40
6.4499999999999691
210
6.6130915646551867e-37
220
-2.7278352487865108e-27
230
1
100
AcDbArc
50
90.000000013890244
51
180
0
LINE
5
161
100
AcDbEntity
8
0
100
AcDbLine
10
-95.596920088385133
20
29.71057431623635
30
0
11
-95.596920088385247
21
10.210574315797643
31
2.0822090481163372e-15
0
ARC
5
162
100
AcDbEntity
8
0
100
AcDbCircle
10
-89.146920088385144
20
10.21057431623635
30
0
40
6.4500000000001023
210
3.228231082350859e-16
220
2.1957319143826647e-26
230
1
100
AcDbArc
50
180
51
269.99999999083269
0
LINE
5
163
100
AcDbEntity
8
0
100
AcDbLine
10
-89.146920089417137
20
3.7605743162363359
30
0
11
-78.290686006681014
21
3.7605743162260903
31
-1.7576447732933796e-26
0
SPLINE
5
164
100
AcDbEntity
8
0
100
AcDbSpline
70
0
71
3
72
10
73
6
74
0
42
0.000000001
43
0.0000000001
44
0.0000000001
40
0
40
0
40
0
40
0
40
0.019761436122706554
40
0.019761436122706554
40
0.033787341072825765
40
0.033787341072825765
40
0.033787341072825765
40
0.033787341072825765
10
-78.290686006681014
20
3.7605743162260881
30
0
10
-78.224815213036209
20
3.7608692106722748
30
0
10
-78.163913382899494
20
3.7623214534677381
30
0
10
-77.978624730670589
20
3.7991415245708167
30
0
10
-77.903885577809348
20
3.8219176400515638
30
0
10
-77.831500157954665
20
3.8520906628990188
30
0
0
SPLINE
5
165
100
AcDbEntity
8
0
100
AcDbSpline
70
0
71
3
72
10
73
6
74
0
42
0.000000001
43
0.0000000001
44
0.0000000001
40
0
40
0
40
0
40
0
40
0.02354731047339154
40
0.02354731047339154
40
0.05666378157029206
40
0.05666378157029206
40
0.05666378157029206
40
0.05666378157029206
10
-77.831500157954665
20
3.8520906628990188
30
0
10
-77.759051310581981
20
3.8822901177917686
30
0
10
-77.690058665924596
20
3.9191360155483475
30
0
10
-77.533042006858565
20
4.0240985845908357
30
0
10
-77.489530826430567
20
4.0655363190842015
30
0
10
-77.442922071518566
20
4.1117296206423388
30
0
0
LINE
5
166
100
AcDbEntity
8
0
100
AcDbLine
10
-77.442922071518566
20
4.1117296206423388
30
0
11
-74.51737668693282
21
7.0372750052210229
31
0
0
LINE
5
167
100
AcDbEntity
8
0
100
AcDbLine
10
25.4826233130673
20
7.0372750052210282
30
0
11
29.237683978761186
21
7.0372750052210282
31
0
0
ARC
5
168
100
AcDbEntity
8
0
100
AcDbCircle
10
34.853079911614905
20
10.210574316236297
30
0
40
6.4500000000000028
210
0
220
0
230
1
100
AcDbArc
50
209.47109337742575
51
270.00000000000034
0
LINE
5
169
100
AcDbEntity
8
0
100
AcDbLine
10
34.853079911614948
20
3.7605743162362959
30
0
11
45.708866349416283
21
3.7605743162362462
31
-8.2831425858038057e-29
0
ARC
5
170
100
AcDbEntity
8
0
100
AcDbCircle
10
45.708866349614979
20
4.9605743162362943
30
0
40
1.2000000000000481
210
-1.1429774776613558e-38
220
-6.9026188215028941e-29
230
1
100
AcDbArc
50
269.99999999051295
51
314.99999999999858
0
LINE
5
171
100
AcDbEntity
8
0
100
AcDbLine
10
46.557394487038849
20
4.1120461788123821
30
1.6734266862072193e-31
11
49.482623313260909
21
7.0372750052210211
31
-1.2746436767352503e-14
0
LINE
5
172
100
AcDbEntity
8
0
100
AcDbLine
10
49.482623313260909
20
7.0372750052210211
30
-1.2746436767352503e-14
11
53.23768397876119
21
7.0372750052210282
31
0
0
ARC
5
173
100
AcDbEntity
8
0
100
AcDbCircle
10
58.853079911614927
20
10.210574316236279
30
0
40
6.4500000000000099
210
0
220
0
230
1
100
AcDbArc
50
209.47109337742552
51
270.00000000000034
0
LINE
5
174
100
AcDbEntity
8
0
100
AcDbLine
10
58.853079911614962
20
3.7605743162362746
30
0
11
69.708866349615022
21
3.760574316236323
31
7.5214743020517317e-29
0
ARC
5
175
100
AcDbEntity
8
0
100
AcDbCircle
10
69.708866349615008
20
4.9605743162363298
30
0
40
1.2000000000000066
210
-4.6391744162578728e-43
220
6.2678952517097422e-29
230
1
100
AcDbArc
50
270.00000000000068
51
314.99999999999591
0
LINE
5
176
100
AcDbEntity
8
0
100
AcDbLine
10
70.557394487038806
20
4.1120461788124087
30
0
11
73.482623313260916
21
7.03727500522103
31
5.0171316266499862e-15
0
LINE
5
177
100
AcDbEntity
8
0
100
AcDbLine
10
73.482623313260916
20
7.03727500522103
30
5.0171316266499862e-15
11
77.237683978761638
21
7.0372750052210282
31
0
0
ARC
5
178
100
AcDbEntity
8
0
100
AcDbCircle
10
82.853079911615382
20
10.210574316236261
30
0
40
6.4500000000000091
210
0
220
0
230
1
100
AcDbArc
50
209.47109337742538
51
269.99999999082894
0
LINE
5
179
100
AcDbEntity
8
0
100
AcDbLine
10
82.853079910582963
20
3.7605743162362804
30
0
11
93.709313993318361
21
3.7605743162260197
31
-1.760120195215574e-26
0
ELLIPSE
5
180
100
AcDbEntity
8
0
100
AcDbEllipse
10
91.963030063557056
20
10.919899677098787
30
0
11
-2.0830809781428501
21
7.1111142848099202
31
0.0
40
0.39823170142968578
41
3.0272185406563419
42
3.1855352187990507
0
ELLIPSE
5
181
100
AcDbEntity
8
0
100
AcDbEllipse
10
90.444175295420848
20
10.183212836690686
30
0
11
-3.9001814857594037
21
6.2403937523250956
31
0.0
40
0.40329727623723638
41
3.0750937884285148
42
3.2326632429556961
0
LINE
5
182
100
AcDbEntity
8
0
100
AcDbLine
10
94.557077928488269
20
4.11172962064893
30
0
11
100.80307991161501
21
10.357731603761678
31
-7.0508973691970113e-15
0
LINE
5
183
100
AcDbEntity
8
0
100
AcDbLine
10
100.80307991161501
20
10.357731603761678
30
-7.0508973691970113e-15
11
100.80307991161497
21
29.563417028710912
31
-2.5869951870814731e-15
0
LINE
5
184
100
AcDbEntity
8
0
100
AcDbLine
10
100.80307991161497
20
29.563417028710912
30
-2.5869951870814731e-15
11
94.557077931010213
21
35.809419009329645
31
1.0712671020527942e-14
0
ELLIPSE
5
185
100
AcDbEntity
8
0
100
AcDbEllipse
10
90.729479371930324
20
29.512215460315382
30
0
11
3.5553578667145764
21
6.5012640065013549
31
0.0
40
0.3982319826396935
41
6.1688115334841891
42
6.32712835310753
0
ELLIPSE
5
186
100
AcDbEntity
8
0
100
AcDbEllipse
10
92.324388017998729
20
28.959125701088027
30
0
11
1.654780426469979
21
7.1704698198280683
31
0.0
40
0.40329726974432195
41
6.216686472932528
42
6.3742559291850922
0
LINE
5
187
100
AcDbEntity
8
0
100
AcDbLine
10
93.709313985346014
20
36.160574316226032
30
-1.4319723644104698e-30
11
82.853079910051292
21
36.160574316236243
31
1.75183705262977e-26
0
ARC
5
188
100
AcDbEntity
8
0
100
AcDbCircle
10
82.853079911614998
20
29.710574316236261
30
0
40
6.4499999999999824
210
6.5845382685733424e-37
220
-2.7160264381856977e-27
230
1
100
AcDbArc
50
90.000000013890499
51
150.52890662256738
0
LINE
5
189
100
AcDbEntity
8
0
100
AcDbLine
10
77.237683978761666
20
32.884031905084505
30
0
11
73.482465035438111
21
32.884031905084505
31
0
0
LINE
5
190
100
AcDbEntity
8
0
100
AcDbLine
10
73.482465035438111
20
32.884031905084505
30
0
11
70.557394487043112
21
35.809102453655932
31
-1.2746708233548822e-14
0
ARC
5
191
100
AcDbEntity
8
0
100
AcDbCircle
10
69.708866349614965
20
34.960574316236318
30
0
40
1.2000000000000366
210
7.5110698581615242e-15
220
7.5110698580859718e-15
230
1
100
AcDbArc
50
44.999999999711882
51
89.999999999997954
0
LINE
5
192
100
AcDbEntity
8
0
100
AcDbLine
10
69.708866349615008
20
36.160574316236357
30
-1.6734266864759248e-31
11
58.853079911615076
21
36.16057431623635
31
7.6166828375207402e-30
0
ARC
5
193
100
AcDbEntity
8
0
100
AcDbCircle
10
58.853079911614962
20
29.710574316236325
30
0
40
6.4500000000000224
210
-2.1139271254809318e-44
220
-1.1808810600807308e-30
230
1
100
AcDbArc
50
89.999999999998991
51
150.52729164757497
0
LINE
5
194
100
AcDbEntity
8
0
100
AcDbLine
10
53.237773425608871
20
32.884031905084505
30
0
11
49.482465035438103
21
32.884031905084505
31
0
0
LINE
5
195
100
AcDbEntity
8
0
100
AcDbLine
10
49.482465035438103
20
32.884031905084505
30
0
11
46.557394487043098
21
35.809102453655925
31
5.0168601604536605e-15
0
ARC
5
196
100
AcDbEntity
8
0
100
AcDbCircle
10
45.708866349614965
20
34.960574316236304
30
0
40
1.2000000000000273
210
-2.9562131997826079e-15
220
-2.9562131997529483e-15
230
1
100
AcDbArc
50
44.999999999712607
51
90
0
LINE
5
197
100
AcDbEntity
8
0
100
AcDbLine
10
45.708866349614965
20
36.160574316236321
30
0
11
34.853079911615048
21
36.160574316236314
31
-1.523336567504148e-29
0
ARC
5
198
100
AcDbEntity
8
0
100
AcDbCircle
10
34.853079911614955
20
29.710574316236304
30
0
40
6.4500000000000091
210
3.2521955776629856e-44
220
2.3617621201614665e-30
230
1
100
AcDbArc
50
89.99999999999919
51
150.52729164757463
0
LINE
5
199
100
AcDbEntity
8
0
100
AcDbLine
10
29.237773425608889
20
32.884031905084512
30
-6.2585415655480629e-31
11
25.482465035248349
21
32.884031905084505
31
0
0
LINE
5
200
100
AcDbEntity
8
0
100
AcDbLine
10
25.482465035248349
20
32.884031905084505
30
0
11
22.557077931011932
21
35.809419009327932
31
-1.2746165301160352e-14
0
ELLIPSE
5
201
100
AcDbEntity
8
0
100
AcDbEllipse
10
18.729479368780659
20
29.512215454912582
30
0
11
3.5553578698927524
21
6.5012640118885585
31
0.0
40
0.39823198247231373
41
6.1688115335426632
42
6.3271283530998765
0
ELLIPSE
5
202
100
AcDbEntity
8
0
100
AcDbEllipse
10
20.324388014057348
20
28.959125683629175
30
0
11
1.65478043039497
21
7.1704698372907192
31
0.0
40
0.40329726925315007
41
6.2166864730077958
42
6.3742559290685117
0
LINE
5
203
100
AcDbEntity
8
0
100
AcDbLine
10
21.709313985346455
20
36.160574316226054
30
1.3307563664723307e-32
11
10.853079910051227
21
36.160574316236286
31
1.7571687306160349e-26
0
ARC
5
204
100
AcDbEntity
8
0
100
AcDbCircle
10
10.853079911614918
20
29.710574316236297
30
0
40
6.4499999999999869
210
6.6045781628826041e-37
220
-2.7242926056062613e-27
230
1
100
AcDbArc
50
90.000000013890372
51
180
0
LINE
5
205
100
AcDbEntity
8
0
100
AcDbLine
10
4.4030799116149222
20
29.710574316236311
30
3.0838632918625682e-40
11
4.4030799116149169
21
10.210574315797608
31
2.0822090481163529e-15
0
ARC
5
206
100
AcDbEntity
8
0
100
AcDbCircle
10
10.853079911614909
20
10.210574316236301
30
0
40
6.4499999999999922
210
3.2282310823509389e-16
220
2.1956652342622644e-26
230
1
100
AcDbArc
50
180
51
269.99999999083286
0
LINE
5
207
100
AcDbEntity
8
0
100
AcDbLine
10
10.853079910582931
20
3.7605743162363012
30
0
11
21.709313993318375
21
3.760574316226037
31
-1.7597393610736978e-26
0
ELLIPSE
5
208
100
AcDbEntity
8
0
100
AcDbEllipse
10
19.963030063571104
20
10.919899677074479
30
0
11
-2.0830809781275765
21
7.1111142847859385
31
0.0
40
0.39823170143049608
41
3.0272185406565724
42
3.1855352187995449
0
ELLIPSE
5
209
100
AcDbEntity
8
0
100
AcDbEllipse
10
18.444175286968864
20
10.183212850033915
30
0
11
-3.9001814942272479
21
6.2403937656583803
31
0.0
40
0.40329727580375963
41
3.0750937884936307
42
3.2326632428516544
0
LINE
5
210
100
AcDbEntity
8
0
100
AcDbLine
10
22.557077928488212
20
4.1117296206489344
30
1.445279856889555e-30
11
25.4826233130673
21
7.0372750052210282
31
0
0
CIRCLE
5
211
100
AcDbEntity
8
0
100
AcDbCircle
10
103.38907635741677
20
-160.3394291244752
30
0
40
1.6000000000000014
210
0
220
0
230
1
0
CIRCLE
5
212
100
AcDbEntity
8
0
100
AcDbCircle
10
31.690000000000005
20
-161.18510509243478
30
0
40
1.5999999999999925
210
0
220
0
230
1
0
CIRCLE
5
213
100
AcDbEntity
8
0
100
AcDbCircle
10
-98
20
-134.81510509243475
30
0
40
1.6000000000000014
210
0
220
0
230
1
0
CIRCLE
5
214
100
AcDbEntity
8
0
100
AcDbCircle
10
-97.481923642583226
20
-63.578429124475157
30
0
40
1.6000000000000014
210
0
220
0
230
1
0
CIRCLE
5
215
100
AcDbEntity
8
0
100
AcDbCircle
10
155.82500071490875
20
-35.171009321257372
30
0
40
1.5000000000000036
210
0
220
0
230
1
0
CIRCLE
5
216
100
AcDbEntity
8
0
100
AcDbCircle
10
155.82500071490875
20
-85.192989995858568
30
0
40
1.5000000000000036
210
0
220
0
230
1
0
CIRCLE
5
217
100
AcDbEntity
8
0
100
AcDbCircle
10
155.82500071490875
20
-135.20393613622076
30
0
40
1.5000000000000036
210
0
220
0
230
1
0
SPLINE
5
218
100
AcDbEntity
8
0
100
AcDbSpline
70
0
71
3
72
9
73
5
74
0
42
0.000000001
43
0.0000000001
44
0.0000000001
40
0
40
0
40
0
40
0
40
0.042694193292618483
40
0.079384307195688106
40
0.079384307195688106
40
0.079384307195688106
40
0.079384307195688106
10
-99.939019320905217
20
19.325375139713067
30
0
10
-99.932319111690077
20
19.179828089494958
30
0
10
-99.919860942895014
20
18.90920225364064
30
0
10
-99.766418387654454
20
18.687192716770948
30
0
10
-99.695499776303777
20
18.584583580493707
30
0
0
SPLINE
5
219
100
AcDbEntity
8
0
100
AcDbSpline
70
0
71
3
72
9
73
5
74
0
42
0.000000001
43
0.0000000001
44
0.0000000001
40
0
40
0
40
0
40
0
40
0.033870846217388076
40
0.067933661516469096
40
0.067933661516469096
40
0.067933661516469096
40
0.067933661516469096
10
-99.695499776303777
20
18.584583580493707
30
0
10
-99.609125046534487
20
18.506991424424733
30
0
10
-99.435886042759279
20
18.351367344858133
30
0
10
-99.203995864749544
20
18.329512198437484
30
0
10
-99.087723134458074
20
18.318553745746392
30
0
0
SPLINE
5
220
100
AcDbEntity
8
0
100
AcDbSpline
70
0
71
3
72
9
73
5
74
0
42
0.000000001
43
0.0000000001
44
0.0000000001
40
0
40
0
40
0
40
0
40
0.03316000606777017
40
0.065793287653916566
40
0.065793287653916566
40
0.065793287653916566
40
0.065793287653916566
10
-99.087723134458074
20
18.318553745746392
30
0
10
-98.974465727849037
20
18.328866708864936
30
0
10
-98.749749932660819
20
18.349328820591804
30
0
10
-98.581711103946134
20
18.49974557117881
30
0
10
-98.498364327847966
20
18.574351847171563
30
0
0
SPLINE
5
221
100
AcDbEntity
8
0
100
AcDbSpline
70
0
71
3
72
9
73
5
74
0
42
0.000000001
43
0.0000000001
44
0.0000000001
40
0
40
0
40
0
40
0
40
0.035822193284843006
40
0.078835314831237097
40
0.078835314831237097
40
0.078835314831237097
40
0.078835314831237097
10
-98.498364327847966
20
18.574351847171563
30
0
10
-98.430470277115376
20
18.675341543809175
30
0
10
-98.281053159572892
20
18.897593555734595
30
0
10
-98.270716353302504
20
19.166421888152072
30
0
10
-98.265076516568669
20
19.313096582889337
30
0
0
SPLINE
5
222
100
AcDbEntity
8
0
100
AcDbSpline
70
0
71
3
72
9
73
5
74
0
42
0.000000001
43
0.0000000001
44
0.0000000001
40
0
40
0
40
0
40
0
40
0.03847202522659688
40
0.073119787603004055
40
0.073119787603004055
40
0.073119787603004055
40
0.073119787603004055
10
-98.265076516568669
20
19.313096582889337
30
0
10
-98.272726975667538
20
19.444192491527811
30
0
10
-98.287267409686308
20
19.693352886355207
30
0
10
-98.43327261299514
20
19.894931727657713
30
0
10
-98.502457080781468
20
19.990449726581353
30
0
0
SPLINE
5
223
100
AcDbEntity
8
0
100
AcDbSpline
70
0
71
3
72
9
73
5
74
0
42
0.000000001
43
0.0000000001
44
0.0000000001
40
0
40
0
40
0
40
0
40
0.033048517223450639
40
0.066911569571810603
40
0.066911569571810603
40
0.066911569571810603
40
0.066911569571810603
10
-98.502457080781468
20
19.990449726581353
30
0
10
-98.587593349543141
20
20.065054237457367
30
0
10
-98.759964210596124
20
20.216102010224279
30
0
10
-98.988456996662961
20
20.236118001804321
30
0
10
-99.104094146192082
20
20.246247828006524
30
0
0
SPLINE
5
224
100
AcDbEntity
8
0
100
AcDbSpline
70
0
71
3
72
9
73
5
74
0
42
0.000000001
43
0.0000000001
44
0.0000000001
40
0
40
0
40
0
40
0
40
0.037494296841835306
40
0.071451244448509116
40
0.071451244448509116
40
0.071451244448509116
40
0.071451244448509116
10
-99.104094146192082
20
20.246247828006524
30
0
10
-99.23373047794297
20
20.236725056658727
30
0
10
-99.480772775293246
20
20.218577927076087
30
0
10
-99.651294645570289
20
20.040358854518423
30
0
10
-99.732334552705296
20
19.955660879611749
30
0
0
SPLINE
5
225
100
AcDbEntity
8
0
100
AcDbSpline
70
0
71
3
72
9
73
5
74
0
42
0.000000001
43
0.0000000001
44
0.0000000001
40
0
40
0
40
0
40
0
40
0.034022930187892965
40
0.067170284606849651
40
0.067170284606849651
40
0.067170284606849651
40
0.067170284606849651
10
-99.732334552705296
20
19.955660879611749
30
0
10
-99.792614607284293
20
19.857509331873054
30
0
10
-99.911623416926133
20
19.663732153957994
30
0
10
-99.929967057039747
20
19.437176413947917
30
0
10
-99.939019320905217
20
19.325375139713067
30
0
0
SPLINE
5
226
100
AcDbEntity
8
0
100
AcDbSpline
70
0
71
3
72
9
73
5
74
0
42
0.000000001
43
0.0000000001
44
0.0000000001
40
0
40
0
40
0
40
0
40
0.030977098972030801
40
0.058227689861456926
40
0.058227689861456926
40
0.058227689861456926
40
0.058227689861456926
10
-99.832607148587712
20
21.895634114742059
30
0
10
-99.826793187626521
20
21.789733843355744
30
0
10
-99.815864678277734
20
21.590672977001081
30
0
10
-99.694840173845037
20
21.43318558185948
30
0
10
-99.638200639188298
20
21.359481394290704
30
0
0
SPLINE
5
227
100
AcDbEntity
8
0
100
AcDbSpline
70
0
71
3
72
9
73
5
74
0
42
0.000000001
43
0.0000000001
44
0.0000000001
40
0
40
0
40
0
40
0
40
0.026866039778351777
40
0.056370393929104541
40
0.056370393929104541
40
0.056370393929104541
40
0.056370393929104541
10
-99.638200639188298
20
21.359481394290704
30
0
10
-99.565707591230279
20
21.303409639604993
30
0
10
-99.413602491102822
20
21.185759739358932
30
0
10
-99.221179799726229
20
21.173524865074175
30
0
10
-99.120465455949315
20
21.167121112346429
30
0
0
SPLINE
5
228
100
AcDbEntity
8
0
100
AcDbSpline
70
0
71
3
72
9
73
5
74
0
42
0.000000001
43
0.0000000001
44
0.0000000001
40
0
40
0
40
0
40
0
40
0.029866075161623918
40
0.057030261471691615
40
0.057030261471691615
40
0.057030261471691615
40
0.057030261471691615
10
-99.120465455949315
20
21.167121112346429
30
0
10
-99.018513016743555
20
21.173571823886572
30
0
10
-98.823831451318043
20
21.185889671605832
30
0
10
-98.669907017792852
20
21.304860440875572
30
0
10
-98.596590994298467
20
21.361527621745843
30
0
0
SPLINE
5
229
100
AcDbEntity
8
0
100
AcDbSpline
70
0
71
3
72
9
73
5
74
0
42
0.000000001
43
0.0000000001
44
0.0000000001
40
0
40
0
40
0
40
0
40
0.02746241737975464
40
0.058498135452481323
40
0.058498135452481323
40
0.058498135452481323
40
0.058498135452481323
10
-98.596590994298467
20
21.361527621745843
30
0
10
-98.539349775869439
20
21.435694999444014
30
0
10
-98.417419338980977
20
21.593680119499084
30
0
10
-98.406128514240194
20
21.793640032521047
30
0
10
-98.400138257443913
20
21.899727165698785
30
0
0
SPLINE
5
230
100
AcDbEntity
8
0
100
AcDbSpline
70
0
71
3
72
9
73
5
74
0
42
0.000000001
43
0.0000000001
44
0.0000000001
40
0
40
0
40
0
40
0
40
0.029512772013270665
40
0.056461494275796414
40
0.056461494275796414
40
0.056461494275796414
40
0.056461494275796414
10
-98.400138257443913
20
21.899727165698785
30
0
10
-98.406662148826825
20
22.000497102359052
30
0
10
-98.419143140304243
20
22.19328215146788
30
0
10
-98.537874652065938
20
22.345032935584523
30
0
10
-98.594544468820104
20
22.417462646960992
30
0
0
SPLINE
5
231
100
AcDbEntity
8
0
100
AcDbSpline
70
0
71
3
72
9
73
5
74
0
42
0.000000001
43
0.0000000001
44
0.0000000001
40
0
40
0
40
0
40
0
40
0.026862719874614163
40
0.056072762671800794
40
0.056072762671800794
40
0.056072762671800794
40
0.056072762671800794
10
-98.594544468820104
20
22.417462646960992
30
0
10
-98.666613738346527
20
22.474137049602113
30
0
10
-98.817049847011191
20
22.592438187524671
30
0
10
-99.008470326783055
20
22.605213502267741
30
0
10
-99.108187197148808
20
22.611868560313958
30
0
0
SPLINE
5
232
100
AcDbEntity
8
0
100
AcDbSpline
70
0
71
3
72
9
73
5
74
0
42
0.000000001
43
0.0000000001
44
0.0000000001
40
0
40
0
40
0
40
0
40
0.030177240189083663
40
0.057510259494651939
40
0.057510259494651939
40
0.057510259494651939
40
0.057510259494651939
10
-99.108187197148808
20
22.611868560313958
30
0
10
-99.211247698473187
20
22.605428772605695
30
0
10
-99.407655194244086
20
22.593156150594137
30
0
10
-99.562541349964974
20
22.472676455788232
30
0
10
-99.636154411733159
20
22.415415823459405
30
0
0
SPLINE
5
233
100
AcDbEntity
8
0
100
AcDbSpline
70
0
71
3
72
9
73
5
74
0
42
0.000000001
43
0.0000000001
44
0.0000000001
40
0
40
0
40
0
40
0
40
0.027160895418582579
40
0.056732561713314866
40
0.056732561713314866
40
0.056732561713314866
40
0.056732561713314866
10
-99.636154411733159
20
22.415415823459405
30
0
10
-99.693424842767485
20
22.342523459605378
30
0
10
-99.813048964613643
20
22.190268886733357
30
0
10
-99.82590564504423
20
21.996589089454758
30
0
10
-99.832607148587712
20
21.895634114742059
30
0
0
SPLINE
5
234
100
AcDbEntity
8
0
100
AcDbSpline
70
0
71
3
72
9
73
5
74
0
42
0.000000001
43
0.0000000001
44
0.0000000001
40
0
40
0
40
0
40
0
40
0.044540553741769781
40
0.084031344109264175
40
0.084031344109264175
40
0.084031344109264175
40
0.084031344109264175
10
-100.06998801082374
20
20.737380564212579
30
0
10
-100.20617882118469
20
20.802343103722588
30
0
10
-100.46311987576411
20
20.92490308677592
30
0
10
-100.63698393226022
20
21.149544920236011
30
0
10
-100.71869188398124
20
21.255116045474786
30
0
0
SPLINE
5
235
100
AcDbEntity
8
0
100
AcDbSpline
70
0
71
3
72
9
73
5
74
0
42
0.000000001
43
0.0000000001
44
0.0000000001
40
0
40
0
40
0
40
0
40
0.037727743662849506
40
0.07577098528849352
40
0.07577098528849352
40
0.07577098528849352
40
0.07577098528849352
10
-100.71869188398124
20
21.255116045474786
30
0
10
-100.77778085597737
20
21.367852657492993
30
0
10
-100.89645293103814
20
21.594268640570114
30
0
10
-100.91298396567163
20
21.849395291310813
30
0
10
-100.92128389924765
20
21.97748976945855
30
0
0
SPLINE
5
236
100
AcDbEntity
8
0
100
AcDbSpline
70
0
71
3
72
9
73
5
74
0
42
0.000000001
43
0.0000000001
44
0.0000000001
40
0
40
0
40
0
40
0
40
0.062398872879944035
40
0.12320930048641665
40
0.12320930048641665
40
0.12320930048641665
40
0.12320930048641665
10
-100.92128389924765
20
21.97748976945855
30
0
10
-100.90278459801871
20
22.190538570715624
30
0
10
-100.86625691957343
20
22.61121273614258
30
0
10
-100.58933676592116
20
22.929525293040228
30
0
10
-100.4526617512107
20
23.086629688739556
30
0
0
SPLINE
5
237
100
AcDbEntity
8
0
100
AcDbSpline
70
0
71
3
72
9
73
5
74
0
42
0.000000001
43
0.0000000001
44
0.0000000001
40
0
40
0
40
0
40
0
40
0.065557096921179003
40
0.14282034441795044
40
0.14282034441795044
40
0.14282034441795044
40
0.14282034441795044
10
-100.4526617512107
20
23.086629688739556
30
0
10
-100.2697841238968
20
23.214131626657487
30
0
10
-99.871373472023151
20
23.491902784054673
30
0
10
-99.384081618283219
20
23.513092877749294
30
0
10
-99.120465455949315
20
23.524556338786859
30
0
0
SPLINE
5
238
100
AcDbEntity
8
0
100
AcDbSpline
70
0
71
3
72
9
73
5
74
0
42
0.000000001
43
0.0000000001
44
0.0000000001
40
0
40
0
40
0
40
0
40
0.076756848630705907
40
0.14240256594790496
40
0.14240256594790496
40
0.14240256594790496
40
0.14240256594790496
10
-99.120465455949315
20
23.524556338786859
30
0
10
-98.858678952295151
20
23.512727532471821
30
0
10
-98.373001510921284
20
23.490782228548952
30
0
10
-97.975571598556343
20
23.214152410700923
30
0
10
-97.79236161559821
20
23.086629688739556
30
0
0
SPLINE
5
239
100
AcDbEntity
8
0
100
AcDbSpline
70
0
71
3
72
9
73
5
74
0
42
0.000000001
43
0.0000000001
44
0.0000000001
40
0
40
0
40
0
40
0
40
0.060988358247555836
40
0.12340652126596313
40
0.12340652126596313
40
0.12340652126596313
40
0.12340652126596313
10
-97.79236161559821
20
23.086629688739556
30
0
10
-97.654491663629216
20
22.92966499318776
30
0
10
-97.375519550778833
20
22.612055737975602
30
0
10
-97.338414295525894
20
22.190639288433207
30
0
10
-97.319646714627751
20
21.97748976945855
30
0
0
SPLINE
5
240
100
AcDbEntity
8
0
100
AcDbSpline
70
0
71
3
72
9
73
5
74
0
42
0.000000001
43
0.0000000001
44
0.0000000001
40
0
40
0
40
0
40
0
40
0.039815070442187517
40
0.078266074524622239
40
0.078266074524622239
40
0.078266074524622239
40
0.078266074524622239
10
-97.319646714627751
20
21.97748976945855
30
0
10
-97.328038208909632
20
21.843153813689455
30
0
10
-97.344533704448025
20
21.579084258900473
30
0
10
-97.473301658360626
20
21.348120954190215
30
0
10
-97.536563514173039
20
21.234651982784051
30
0
0
SPLINE
5
241
100
AcDbEntity
8
0
100
AcDbSpline
70
0
71
3
72
9
73
5
74
0
42
0.000000001
43
0.0000000001
44
0.0000000001
40
0
40
0
40
0
40
0
40
0.03878764545667119
40
0.079524464651315685
40
0.079524464651315685
40
0.079524464651315685
40
0.079524464651315685
10
-97.536563514173039
20
21.234651982784051
30
0
10
-97.617738820015802
20
21.131927506261285
30
0
10
-97.78416868870336
20
20.921316397856021
30
0
10
-98.023689837508655
20
20.79968624197457
30
0
10
-98.146385787427434
20
20.737380564212579
30
0
0
SPLINE
5
242
100
AcDbEntity
8
0
100
AcDbSpline
70
0
71
3
72
9
73
5
74
0
42
0.000000001
43
0.0000000001
44
0.0000000001
40
0
40
0
40
0
40
0
40
0.050391674411495772
40
0.096968554759978176
40
0.096968554759978176
40
0.096968554759978176
40
0.096968554759978176
10
-98.146385787427434
20
20.737380564212579
30
0
10
-97.991798449785122
20
20.665562566554723
30
0
10
-97.694326478662276
20
20.527363399331783
30
0
10
-97.486839669445985
20
20.273873127814582
30
0
10
-97.387177585065373
20
20.15211421251275
30
0
0
SPLINE
5
243
100
AcDbEntity
8
0
100
AcDbSpline
70
0
71
3
72
9
73
5
74
0
42
0.000000001
43
0.0000000001
44
0.0000000001
40
0
40
0
40
0
40
0
40
0.045794622206465553
40
0.093611864706402675
40
0.093611864706402675
40
0.093611864706402675
40
0.093611864706402675
10
-97.387177585065373
20
20.15211421251275
30
0
10
-97.311385822270324
20
20.017187970026022
30
0
10
-97.156454786642584
20
19.74137617055171
30
0
10
-97.137148265810595
20
19.425390200575837
30
0
10
-97.127286432683476
20
19.26398354768731
30
0
0
SPLINE
5
244
100
AcDbEntity
8
0
100
AcDbSpline
70
0
71
3
72
9
73
5
74
0
42
0.000000001
43
0.0000000001
44
0.0000000001
40
0
40
0
40
0
40
0
40
0.07646383326205039
40
0.1482323945891551
40
0.1482323945891551
40
0.1482323945891551
40
0.1482323945891551
10
-97.127286432683476
20
19.26398354768731
30
0
10
-97.146435075805954
20
19.002950034287696
30
0
10
-97.183556537052226
20
18.496911805382322
30
0
10
-97.50275564721575
20
18.10373241664275
30
0
10
-97.657299874722966
20
17.913369715213555
30
0
0
SPLINE
5
245
100
AcDbEntity
8
0
100
AcDbSpline
70
0
71
3
72
9
73
5
74
0
42
0.000000001
43
0.0000000001
44
0.0000000001
40
0
40
0
40
0
40
0
40
0.073025708620274188
40
0.15333029337164777
40
0.15333029337164777
40
0.15333029337164777
40
0.15333029337164777
10
-97.657299874722966
20
17.913369715213555
30
0
10
-97.854945529043448
20
17.76185958875757
30
0
10
-98.26993727281652
20
17.44373748385517
30
0
10
-98.793205168530079
20
17.410824908773755
30
0
10
-99.067259369790563
20
17.393587410449761
30
0
0
SPLINE
5
246
100
AcDbEntity
8
0
100
AcDbSpline
70
0
71
3
72
9
73
5
74
0
42
0.000000001
43
0.0000000001
44
0.0000000001
40
0
40
0
40
0
40
0
40
0.075765595415873868
40
0.14501281591293863
40
0.14501281591293863
40
0.14501281591293863
40
0.14501281591293863
10
-99.067259369790563
20
17.393587410449761
30
0
10
-99.32417487277138
20
17.408046342806912
30
0
10
-99.815902553844055
20
17.435720255810519
30
0
10
-100.23163086790575
20
17.69805648903829
30
0
10
-100.43015146106482
20
17.823328554630059
30
0
0
SPLINE
5
247
100
AcDbEntity
8
0
100
AcDbSpline
70
0
71
3
72
9
73
5
74
0
42
0.000000001
43
0.0000000001
44
0.0000000001
40
0
40
0
40
0
40
0
40
0.077085542354082645
40
0.15769291614064801
40
0.15769291614064801
40
0.15769291614064801
40
0.15769291614064801
10
-100.43015146106482
20
17.823328554630059
30
0
10
-100.61754015828902
20
18.011347552989736
30
0
10
-101.00087883911904
20
18.395975632857045
30
0
10
-101.04841671951853
20
18.937871413263625
30
0
10
-101.0727165028453
20
19.214870512485284
30
0
0
SPLINE
5
248
100
AcDbEntity
8
0
100
AcDbSpline
70
0
71
3
72
9
73
5
74
0
42
0.000000001
43
0.0000000001
44
0.0000000001
40
0
40
0
40
0
40
0
40
0.047097200464443829
40
0.093495940922795895
40
0.093495940922795895
40
0.093495940922795895
40
0.093495940922795895
10
-101.0727165028453
20
19.214870512485284
30
0
10
-101.06295917552291
20
19.373376490528226
30
0
10
-101.04358922380814
20
19.688037774274839
30
0
10
-100.90167170149626
20
19.969473716216058
30
0
10
-100.83124303668738
20
20.109140455722589
30
0
0
SPLINE
5
249
100
AcDbEntity
8
0
100
AcDbSpline
70
0
71
3
72
9
73
5
74
0
42
0.000000001
43
0.0000000001
44
0.0000000001
40
0
40
0
40
0
40
0
40
0.04762758800911164
40
0.099998892635555697
40
0.099998892635555697
40
0.099998892635555697
40
0.099998892635555697
10
-100.83124303668738
20
20.109140455722589
30
0
10
-100.73536861658054
20
20.238680299241643
30
0
10
-100.53407066630589
20
20.51066217876933
30
0
10
-100.22949829931088
20
20.659454973501113
30
0
10
-100.06998801082374
20
20.737380564212579
30
0
0
LINE
5
250
100
AcDbEntity
8
0
100
AcDbLine
10
105.91787030398849
20
17.499999582767266
30
0
11
104.76780196130279
21
17.499999582767266
31
0
0
LINE
5
251
100
AcDbEntity
8
0
100
AcDbLine
10
104.76780196130279
20
17.499999582767266
30
0
11
104.76780196130279
21
21.834242522716298
31
7.4337662528439398e-15
0
SPLINE
5
252
100
AcDbEntity
8
0
100
AcDbSpline
70
0
71
3
72
9
73
5
74
0
42
0.000000001
43
0.0000000001
44
0.0000000001
40
0
40
0
40
0
40
0
40
0.085682339679994612
40
0.17329306528995478
40
0.17329306528995478
40
0.17329306528995478
40
0.17329306528995478
10
104.76780196130279
20
21.834242522716302
30
0
10
104.54677338008733
20
21.6500703090679
30
0
10
104.09974169889639
20
21.277580860675535
30
0
10
103.55667940253353
20
21.068291452352838
30
0
10
103.28212668597702
20
20.962482273578424
30
0
0
LINE
5
253
100
AcDbEntity
8
0
100
AcDbLine
10
103.28212668597703
20
20.962482273578424
30
0
11
103.28212668597702
21
22.006138741969842
31
1.7900007779401585e-15
0
SPLINE
5
254
100
AcDbEntity
8
0
100
AcDbSpline
70
0
71
3
72
9
73
5
74
0
42
0.000000001
43
0.0000000001
44
0.0000000001
40
0
40
0
40
0
40
0
40
0.05158282807166964
40
0.11305234743905967
40
0.11305234743905967
40
0.11305234743905967
40
0.11305234743905967
10
103.28212668597702
20
22.006138741969842
30
0
10
103.44193819170378
20
22.07143701284156
30
0
10
103.79219168779123
20
22.214549034452755
30
0
10
104.09542346171166
20
22.441436889277554
30
0
10
104.26029851138595
20
22.564801752567071
30
0
0
SPLINE
5
255
100
AcDbEntity
8
0
100
AcDbSpline
70
0
71
3
72
9
73
5
74
0
42
0.000000001
43
0.0000000001
44
0.0000000001
40
0
40
0
40
0
40
0
40
0.062981226223173509
40
0.12149456133225527
40
0.12149456133225527
40
0.12149456133225527
40
0.12149456133225527
10
104.26029851138595
20
22.564801752567071
30
0
10
104.4211397023367
20
22.704020282631504
30
0
10
104.7314120026802
20
22.972581173770141
30
0
10
104.90237911180552
20
23.345131388876176
30
0
10
104.98471905887131
20
23.524556338786859
30
0
0
LINE
5
256
100
AcDbEntity
8
0
100
AcDbLine
10
104.98471905887131
20
23.524556338786855
30
0
11
105.91787030398849
21
23.524556338786859
31
0
0
LINE
5
257
100
AcDbEntity
8
0
100
AcDbLine
10
105.91787030398849
20
23.524556338786859
30
0
11
105.91787030398849
21
17.499999582767266
31
0
0
ENDSEC
0
SECTION
2
OBJECTS
0
DICTIONARY
5
C
100
AcDbDictionary
3
ACAD_GROUP
350
D
3
ACAD_MLINESTYLE
350
17
0
DICTIONARY
5
D
100
AcDbDictionary
0
DICTIONARY
5
1A
330
C
100
AcDbDictionary
0
DICTIONARY
5
17
100
AcDbDictionary
0
ENDSEC
0
EOF
