0
SECTION
2
HEADER
9
$INSUNITS
70
4
9
$ACADVER
1
AC1014
9
$HANDSEED
5
FFFF
0
ENDSEC
0
SECTION
2
TABLES
0
TABLE
2
VPORT
5
8
100
AcDbSymbolTable
0
ENDTAB
0
TABLE
2
LTYPE
5
5
100
AcDbSymbolTable
0
LTYPE
5
14
100
AcDbSymbolTableRecord
100
AcDbLinetypeTableRecord
2
BYBLOCK
70
0
0
LTYPE
5
15
100
AcDbSymbolTableRecord
100
AcDbLinetypeTableRecord
2
BYLAYER
70
0
0
LTYPE
5
16
100
AcDbSymbolTableRecord
100
AcDbLinetypeTableRecord
2
DASHED
70
0
3
Dashed __ __ __ __ __ __ __ __ __ __ __ __ __ _
72
65
73
2
40
0.75
49
0.5
74
0
49
-0.25
74
0
0
ENDTAB
0
TABLE
2
LAYER
5
2
100
AcDbSymbolTable
70
2
0
LAYER
5
50
100
AcDbSymbolTableRecord
100
AcDbLayerTableRecord
2
0
70
0
62
7
6
CONTINUOUS
0
ENDTAB
0
TABLE
2
STYLE
5
3
100
AcDbSymbolTable
70
1
0
STYLE
5
11
100
AcDbSymbolTableRecord
100
AcDbTextStyleTableRecord
2
STANDARD
70
0
0
ENDTAB
0
TABLE
2
VIEW
5
6
100
AcDbSymbolTable
70
0
0
ENDTAB
0
TABLE
2
UCS
5
7
100
AcDbSymbolTable
70
0
0
ENDTAB
0
TABLE
2
APPID
5
9
100
AcDbSymbolTable
70
2
0
APPID
5
12
100
AcDbSymbolTableRecord
100
AcDbRegAppTableRecord
2
ACAD
70
0
0
ENDTAB
0
TABLE
2
DIMSTYLE
5
A
100
AcDbSymbolTable
70
1
0
ENDTAB
0
TABLE
2
BLOCK_RECORD
5
1
100
AcDbSymbolTable
70
1
0
BLOCK_RECORD
5
1F
100
AcDbSymbolTableRecord
100
AcDbBlockTableRecord
2
*MODEL_SPACE
0
BLOCK_RECORD
5
1B
100
AcDbSymbolTableRecord
100
AcDbBlockTableRecord
2
*PAPER_SPACE
0
ENDTAB
0
ENDSEC
0
SECTION
2
BLOCKS
0
BLOCK
5
20
100
AcDbEntity
100
AcDbBlockBegin
2
*MODEL_SPACE
0
ENDBLK
5
21
100
AcDbEntity
100
AcDbBlockEnd
0
BLOCK
5
1C
100
AcDbEntity
100
AcDbBlockBegin
2
*PAPER_SPACE
0
ENDBLK
5
1D
100
AcDbEntity
100
AcDbBlockEnd
0
ENDSEC
0
SECTION
2
ENTITIES
0
LWPOLYLINE
5
100
100
AcDbEntity
8
0
100
AcDbPolyline
90
8
70
1
43
0.0
10
99.803079911614972
20
3.7605743162258043
10
5.403079911614892
20
3.760574316225803
42
-0.41421356237308837
10
4.4030799116149142
20
4.760574316225803
10
4.4030799116149124
20
35.160574316225812
42
-0.41421356237309243
10
5.4030799116149133
20
36.160574316225812
10
99.803079911614972
20
36.160574316225812
42
-0.41421356237309631
10
100.80307991161497
20
35.160574316225812
10
100.80307991161497
20
4.7605743162258074
42
-0.41421356237309698
0
LWPOLYLINE
5
101
100
AcDbEntity
8
0
100
AcDbPolyline
90
8
70
1
43
0.0
10
-0.19692008838509131
20
3.7605743162258483
10
-94.596920088385147
20
3.7605743162258491
42
-0.4142135623730957
10
-95.596920088385133
20
4.7605743162258483
10
-95.596920088385133
20
35.160574316225855
42
-0.41421356237309631
10
-94.596920088385147
20
36.160574316225855
10
-0.19692008838509545
20
36.160574316225855
42
-0.41421356237309115
10
0.80307991161490111
20
35.160574316225855
10
0.80307991161490833
20
4.7605743162258518
42
-0.41421356237309648
0
LWPOLYLINE
5
102
100
AcDbEntity
8
0
100
AcDbPolyline
90
4
70
1
43
0.0
10
107.59615629153973
20
38.310619901184076
10
-101.61800357670629
20
38.310619901184069
10
-101.61800357670629
20
1.4999999999998082
10
107.59615629153973
20
1.4999999999997891
0
LWPOLYLINE
5
103
100
AcDbEntity
8
0
100
AcDbPolyline
90
4
70
1
43
0.0
10
107.59615629153973
20
1.4999999999997891
10
-101.61800357670629
20
1.4999999999998064
10
-101.61800357670629
20
-1.5000000000001994
10
107.59615629153973
20
-1.5000000000002169
0
LWPOLYLINE
5
104
100
AcDbEntity
8
0
100
AcDbPolyline
90
4
70
1
43
0.0
10
107.59615629153977
20
41.310619901184054
10
-101.61800357670629
20
41.310619901184026
10
-101.61800357670629
20
38.310619901184069
10
107.59615629153973
20
38.310619901184076
0
SPLINE
5
105
100
AcDbEntity
8
0
100
AcDbSpline
70
0
71
3
72
9
73
5
74
0
42
0.000000001
43
0.0000000001
44
0.0000000001
40
-0.099998892635555697
40
-0.099998892635555697
40
-0.099998892635555697
40
-0.099998892635555697
40
-0.04762758800911164
40
0
40
0
40
0
40
0
10
-100.06998801082374
20
20.737380564212579
30
0
10
-100.22949829931088
20
20.659454973501113
30
0
10
-100.53407066630589
20
20.51066217876933
30
0
10
-100.73536861658054
20
20.238680299241643
30
0
10
-100.83124303668738
20
20.109140455722589
30
0
0
SPLINE
5
106
100
AcDbEntity
8
0
100
AcDbSpline
70
0
71
3
72
9
73
5
74
0
42
0.000000001
43
0.0000000001
44
0.0000000001
40
-0.093495940922795895
40
-0.093495940922795895
40
-0.093495940922795895
40
-0.093495940922795895
40
-0.047097200464443829
40
0
40
0
40
0
40
0
10
-100.83124303668738
20
20.109140455722589
30
0
10
-100.90167170149626
20
19.969473716216058
30
0
10
-101.04358922380814
20
19.688037774274839
30
0
10
-101.06295917552291
20
19.373376490528226
30
0
10
-101.0727165028453
20
19.214870512485284
30
0
0
SPLINE
5
107
100
AcDbEntity
8
0
100
AcDbSpline
70
0
71
3
72
9
73
5
74
0
42
0.000000001
43
0.0000000001
44
0.0000000001
40
-0.15769291614064801
40
-0.15769291614064801
40
-0.15769291614064801
40
-0.15769291614064801
40
-0.077085542354082645
40
0
40
0
40
0
40
0
10
-101.0727165028453
20
19.214870512485284
30
0
10
-101.04841671951853
20
18.937871413263625
30
0
10
-101.00087883911904
20
18.395975632857045
30
0
10
-100.61754015828902
20
18.011347552989736
30
0
10
-100.43015146106482
20
17.823328554630059
30
0
0
SPLINE
5
108
100
AcDbEntity
8
0
100
AcDbSpline
70
0
71
3
72
9
73
5
74
0
42
0.000000001
43
0.0000000001
44
0.0000000001
40
-0.14501281591293863
40
-0.14501281591293863
40
-0.14501281591293863
40
-0.14501281591293863
40
-0.075765595415873868
40
0
40
0
40
0
40
0
10
-100.43015146106482
20
17.823328554630059
30
0
10
-100.23163086790575
20
17.69805648903829
30
0
10
-99.815902553844055
20
17.435720255810519
30
0
10
-99.32417487277138
20
17.408046342806912
30
0
10
-99.067259369790563
20
17.393587410449761
30
0
0
SPLINE
5
109
100
AcDbEntity
8
0
100
AcDbSpline
70
0
71
3
72
9
73
5
74
0
42
0.000000001
43
0.0000000001
44
0.0000000001
40
-0.15333029337164777
40
-0.15333029337164777
40
-0.15333029337164777
40
-0.15333029337164777
40
-0.073025708620274188
40
0
40
0
40
0
40
0
10
-99.067259369790563
20
17.393587410449761
30
0
10
-98.793205168530079
20
17.410824908773755
30
0
10
-98.26993727281652
20
17.44373748385517
30
0
10
-97.854945529043448
20
17.76185958875757
30
0
10
-97.657299874722966
20
17.913369715213555
30
0
0
SPLINE
5
110
100
AcDbEntity
8
0
100
AcDbSpline
70
0
71
3
72
9
73
5
74
0
42
0.000000001
43
0.0000000001
44
0.0000000001
40
-0.1482323945891551
40
-0.1482323945891551
40
-0.1482323945891551
40
-0.1482323945891551
40
-0.07646383326205039
40
0
40
0
40
0
40
0
10
-97.657299874722966
20
17.913369715213555
30
0
10
-97.50275564721575
20
18.10373241664275
30
0
10
-97.183556537052226
20
18.496911805382322
30
0
10
-97.146435075805954
20
19.002950034287696
30
0
10
-97.127286432683476
20
19.26398354768731
30
0
0
SPLINE
5
111
100
AcDbEntity
8
0
100
AcDbSpline
70
0
71
3
72
9
73
5
74
0
42
0.000000001
43
0.0000000001
44
0.0000000001
40
-0.093611864706402675
40
-0.093611864706402675
40
-0.093611864706402675
40
-0.093611864706402675
40
-0.045794622206465553
40
0
40
0
40
0
40
0
10
-97.127286432683476
20
19.26398354768731
30
0
10
-97.137148265810595
20
19.425390200575837
30
0
10
-97.156454786642584
20
19.74137617055171
30
0
10
-97.311385822270324
20
20.017187970026022
30
0
10
-97.387177585065373
20
20.15211421251275
30
0
0
SPLINE
5
112
100
AcDbEntity
8
0
100
AcDbSpline
70
0
71
3
72
9
73
5
74
0
42
0.000000001
43
0.0000000001
44
0.0000000001
40
-0.096968554759978176
40
-0.096968554759978176
40
-0.096968554759978176
40
-0.096968554759978176
40
-0.050391674411495772
40
0
40
0
40
0
40
0
10
-97.387177585065373
20
20.15211421251275
30
0
10
-97.486839669445985
20
20.273873127814582
30
0
10
-97.694326478662276
20
20.527363399331783
30
0
10
-97.991798449785122
20
20.665562566554723
30
0
10
-98.146385787427434
20
20.737380564212579
30
0
0
SPLINE
5
113
100
AcDbEntity
8
0
100
AcDbSpline
70
0
71
3
72
9
73
5
74
0
42
0.000000001
43
0.0000000001
44
0.0000000001
40
-0.079524464651315685
40
-0.079524464651315685
40
-0.079524464651315685
40
-0.079524464651315685
40
-0.03878764545667119
40
0
40
0
40
0
40
0
10
-98.146385787427434
20
20.737380564212579
30
0
10
-98.023689837508655
20
20.79968624197457
30
0
10
-97.78416868870336
20
20.921316397856021
30
0
10
-97.617738820015802
20
21.131927506261285
30
0
10
-97.536563514173039
20
21.234651982784051
30
0
0
SPLINE
5
114
100
AcDbEntity
8
0
100
AcDbSpline
70
0
71
3
72
9
73
5
74
0
42
0.000000001
43
0.0000000001
44
0.0000000001
40
-0.078266074524622239
40
-0.078266074524622239
40
-0.078266074524622239
40
-0.078266074524622239
40
-0.039815070442187517
40
0
40
0
40
0
40
0
10
-97.536563514173039
20
21.234651982784051
30
0
10
-97.473301658360626
20
21.348120954190215
30
0
10
-97.344533704448025
20
21.579084258900473
30
0
10
-97.328038208909632
20
21.843153813689455
30
0
10
-97.319646714627751
20
21.97748976945855
30
0
0
SPLINE
5
115
100
AcDbEntity
8
0
100
AcDbSpline
70
0
71
3
72
9
73
5
74
0
42
0.000000001
43
0.0000000001
44
0.0000000001
40
-0.12340652126596313
40
-0.12340652126596313
40
-0.12340652126596313
40
-0.12340652126596313
40
-0.060988358247555836
40
0
40
0
40
0
40
0
10
-97.319646714627751
20
21.97748976945855
30
0
10
-97.338414295525894
20
22.190639288433207
30
0
10
-97.375519550778833
20
22.612055737975602
30
0
10
-97.654491663629216
20
22.92966499318776
30
0
10
-97.79236161559821
20
23.086629688739556
30
0
0
SPLINE
5
116
100
AcDbEntity
8
0
100
AcDbSpline
70
0
71
3
72
9
73
5
74
0
42
0.000000001
43
0.0000000001
44
0.0000000001
40
-0.14240256594790496
40
-0.14240256594790496
40
-0.14240256594790496
40
-0.14240256594790496
40
-0.076756848630705907
40
0
40
0
40
0
40
0
10
-97.79236161559821
20
23.086629688739556
30
0
10
-97.975571598556343
20
23.214152410700923
30
0
10
-98.373001510921284
20
23.490782228548952
30
0
10
-98.858678952295151
20
23.512727532471821
30
0
10
-99.120465455949315
20
23.524556338786859
30
0
0
SPLINE
5
117
100
AcDbEntity
8
0
100
AcDbSpline
70
0
71
3
72
9
73
5
74
0
42
0.000000001
43
0.0000000001
44
0.0000000001
40
-0.14282034441795044
40
-0.14282034441795044
40
-0.14282034441795044
40
-0.14282034441795044
40
-0.065557096921179003
40
0
40
0
40
0
40
0
10
-99.120465455949315
20
23.524556338786859
30
0
10
-99.384081618283219
20
23.513092877749294
30
0
10
-99.871373472023151
20
23.491902784054673
30
0
10
-100.2697841238968
20
23.214131626657487
30
0
10
-100.4526617512107
20
23.086629688739556
30
0
0
SPLINE
5
118
100
AcDbEntity
8
0
100
AcDbSpline
70
0
71
3
72
9
73
5
74
0
42
0.000000001
43
0.0000000001
44
0.0000000001
40
-0.12320930048641665
40
-0.12320930048641665
40
-0.12320930048641665
40
-0.12320930048641665
40
-0.062398872879944035
40
0
40
0
40
0
40
0
10
-100.4526617512107
20
23.086629688739556
30
0
10
-100.58933676592116
20
22.929525293040228
30
0
10
-100.86625691957343
20
22.61121273614258
30
0
10
-100.90278459801871
20
22.190538570715624
30
0
10
-100.92128389924765
20
21.97748976945855
30
0
0
SPLINE
5
119
100
AcDbEntity
8
0
100
AcDbSpline
70
0
71
3
72
9
73
5
74
0
42
0.000000001
43
0.0000000001
44
0.0000000001
40
-0.07577098528849352
40
-0.07577098528849352
40
-0.07577098528849352
40
-0.07577098528849352
40
-0.037727743662849506
40
0
40
0
40
0
40
0
10
-100.92128389924765
20
21.97748976945855
30
0
10
-100.91298396567163
20
21.849395291310813
30
0
10
-100.89645293103814
20
21.594268640570114
30
0
10
-100.77778085597737
20
21.367852657492993
30
0
10
-100.71869188398124
20
21.255116045474786
30
0
0
SPLINE
5
120
100
AcDbEntity
8
0
100
AcDbSpline
70
0
71
3
72
9
73
5
74
0
42
0.000000001
43
0.0000000001
44
0.0000000001
40
-0.084031344109264175
40
-0.084031344109264175
40
-0.084031344109264175
40
-0.084031344109264175
40
-0.044540553741769781
40
0
40
0
40
0
40
0
10
-100.71869188398124
20
21.255116045474786
30
0
10
-100.63698393226022
20
21.149544920236011
30
0
10
-100.46311987576411
20
20.92490308677592
30
0
10
-100.20617882118469
20
20.802343103722588
30
0
10
-100.06998801082374
20
20.737380564212579
30
0
0
SPLINE
5
121
100
AcDbEntity
8
0
100
AcDbSpline
70
0
71
3
72
9
73
5
74
0
42
0.000000001
43
0.0000000001
44
0.0000000001
40
-0.056732561713314866
40
-0.056732561713314866
40
-0.056732561713314866
40
-0.056732561713314866
40
-0.027160895418582579
40
0
40
0
40
0
40
0
10
-99.832607148587712
20
21.895634114742059
30
0
10
-99.82590564504423
20
21.996589089454758
30
0
10
-99.813048964613643
20
22.190268886733357
30
0
10
-99.693424842767485
20
22.342523459605378
30
0
10
-99.636154411733159
20
22.415415823459405
30
0
0
SPLINE
5
122
100
AcDbEntity
8
0
100
AcDbSpline
70
0
71
3
72
9
73
5
74
0
42
0.000000001
43
0.0000000001
44
0.0000000001
40
-0.057510259494651939
40
-0.057510259494651939
40
-0.057510259494651939
40
-0.057510259494651939
40
-0.030177240189083663
40
0
40
0
40
0
40
0
10
-99.636154411733159
20
22.415415823459405
30
0
10
-99.562541349964974
20
22.472676455788232
30
0
10
-99.407655194244086
20
22.593156150594137
30
0
10
-99.211247698473187
20
22.605428772605695
30
0
10
-99.108187197148808
20
22.611868560313958
30
0
0
SPLINE
5
123
100
AcDbEntity
8
0
100
AcDbSpline
70
0
71
3
72
9
73
5
74
0
42
0.000000001
43
0.0000000001
44
0.0000000001
40
-0.056072762671800794
40
-0.056072762671800794
40
-0.056072762671800794
40
-0.056072762671800794
40
-0.026862719874614163
40
0
40
0
40
0
40
0
10
-99.108187197148808
20
22.611868560313958
30
0
10
-99.008470326783055
20
22.605213502267741
30
0
10
-98.817049847011191
20
22.592438187524671
30
0
10
-98.666613738346527
20
22.474137049602113
30
0
10
-98.594544468820104
20
22.417462646960992
30
0
0
SPLINE
5
124
100
AcDbEntity
8
0
100
AcDbSpline
70
0
71
3
72
9
73
5
74
0
42
0.000000001
43
0.0000000001
44
0.0000000001
40
-0.056461494275796414
40
-0.056461494275796414
40
-0.056461494275796414
40
-0.056461494275796414
40
-0.029512772013270665
40
0
40
0
40
0
40
0
10
-98.594544468820104
20
22.417462646960992
30
0
10
-98.537874652065938
20
22.345032935584523
30
0
10
-98.419143140304243
20
22.19328215146788
30
0
10
-98.406662148826825
20
22.000497102359052
30
0
10
-98.400138257443913
20
21.899727165698785
30
0
0
SPLINE
5
125
100
AcDbEntity
8
0
100
AcDbSpline
70
0
71
3
72
9
73
5
74
0
42
0.000000001
43
0.0000000001
44
0.0000000001
40
-0.058498135452481323
40
-0.058498135452481323
40
-0.058498135452481323
40
-0.058498135452481323
40
-0.02746241737975464
40
0
40
0
40
0
40
0
10
-98.400138257443913
20
21.899727165698785
30
0
10
-98.406128514240194
20
21.793640032521047
30
0
10
-98.417419338980977
20
21.593680119499084
30
0
10
-98.539349775869439
20
21.435694999444014
30
0
10
-98.596590994298467
20
21.361527621745843
30
0
0
SPLINE
5
126
100
AcDbEntity
8
0
100
AcDbSpline
70
0
71
3
72
9
73
5
74
0
42
0.000000001
43
0.0000000001
44
0.0000000001
40
-0.057030261471691615
40
-0.057030261471691615
40
-0.057030261471691615
40
-0.057030261471691615
40
-0.029866075161623918
40
0
40
0
40
0
40
0
10
-98.596590994298467
20
21.361527621745843
30
0
10
-98.669907017792852
20
21.304860440875572
30
0
10
-98.823831451318043
20
21.185889671605832
30
0
10
-99.018513016743555
20
21.173571823886572
30
0
10
-99.120465455949315
20
21.167121112346429
30
0
0
SPLINE
5
127
100
AcDbEntity
8
0
100
AcDbSpline
70
0
71
3
72
9
73
5
74
0
42
0.000000001
43
0.0000000001
44
0.0000000001
40
-0.056370393929104541
40
-0.056370393929104541
40
-0.056370393929104541
40
-0.056370393929104541
40
-0.026866039778351777
40
0
40
0
40
0
40
0
10
-99.120465455949315
20
21.167121112346429
30
0
10
-99.221179799726229
20
21.173524865074175
30
0
10
-99.413602491102822
20
21.185759739358932
30
0
10
-99.565707591230279
20
21.303409639604993
30
0
10
-99.638200639188298
20
21.359481394290704
30
0
0
SPLINE
5
128
100
AcDbEntity
8
0
100
AcDbSpline
70
0
71
3
72
9
73
5
74
0
42
0.000000001
43
0.0000000001
44
0.0000000001
40
-0.058227689861456926
40
-0.058227689861456926
40
-0.058227689861456926
40
-0.058227689861456926
40
-0.030977098972030801
40
0
40
0
40
0
40
0
10
-99.638200639188298
20
21.359481394290704
30
0
10
-99.694840173845037
20
21.43318558185948
30
0
10
-99.815864678277734
20
21.590672977001081
30
0
10
-99.826793187626521
20
21.789733843355744
30
0
10
-99.832607148587712
20
21.895634114742059
30
0
0
SPLINE
5
129
100
AcDbEntity
8
0
100
AcDbSpline
70
0
71
3
72
9
73
5
74
0
42
0.000000001
43
0.0000000001
44
0.0000000001
40
-0.067170284606849651
40
-0.067170284606849651
40
-0.067170284606849651
40
-0.067170284606849651
40
-0.034022930187892965
40
0
40
0
40
0
40
0
10
-99.939019320905217
20
19.325375139713067
30
0
10
-99.929967057039747
20
19.437176413947917
30
0
10
-99.911623416926133
20
19.663732153957994
30
0
10
-99.792614607284293
20
19.857509331873054
30
0
10
-99.732334552705296
20
19.955660879611749
30
0
0
SPLINE
5
130
100
AcDbEntity
8
0
100
AcDbSpline
70
0
71
3
72
9
73
5
74
0
42
0.000000001
43
0.0000000001
44
0.0000000001
40
-0.071451244448509116
40
-0.071451244448509116
40
-0.071451244448509116
40
-0.071451244448509116
40
-0.037494296841835306
40
0
40
0
40
0
40
0
10
-99.732334552705296
20
19.955660879611749
30
0
10
-99.651294645570289
20
20.040358854518423
30
0
10
-99.480772775293246
20
20.218577927076087
30
0
10
-99.23373047794297
20
20.236725056658727
30
0
10
-99.104094146192082
20
20.246247828006524
30
0
0
SPLINE
5
131
100
AcDbEntity
8
0
100
AcDbSpline
70
0
71
3
72
9
73
5
74
0
42
0.000000001
43
0.0000000001
44
0.0000000001
40
-0.066911569571810603
40
-0.066911569571810603
40
-0.066911569571810603
40
-0.066911569571810603
40
-0.033048517223450639
40
0
40
0
40
0
40
0
10
-99.104094146192082
20
20.246247828006524
30
0
10
-98.988456996662961
20
20.236118001804321
30
0
10
-98.759964210596124
20
20.216102010224279
30
0
10
-98.587593349543141
20
20.065054237457367
30
0
10
-98.502457080781468
20
19.990449726581353
30
0
0
SPLINE
5
132
100
AcDbEntity
8
0
100
AcDbSpline
70
0
71
3
72
9
73
5
74
0
42
0.000000001
43
0.0000000001
44
0.0000000001
40
-0.073119787603004055
40
-0.073119787603004055
40
-0.073119787603004055
40
-0.073119787603004055
40
-0.03847202522659688
40
0
40
0
40
0
40
0
10
-98.502457080781468
20
19.990449726581353
30
0
10
-98.43327261299514
20
19.894931727657713
30
0
10
-98.287267409686308
20
19.693352886355207
30
0
10
-98.272726975667538
20
19.444192491527811
30
0
10
-98.265076516568669
20
19.313096582889337
30
0
0
SPLINE
5
133
100
AcDbEntity
8
0
100
AcDbSpline
70
0
71
3
72
9
73
5
74
0
42
0.000000001
43
0.0000000001
44
0.0000000001
40
-0.078835314831237097
40
-0.078835314831237097
40
-0.078835314831237097
40
-0.078835314831237097
40
-0.035822193284843006
40
0
40
0
40
0
40
0
10
-98.265076516568669
20
19.313096582889337
30
0
10
-98.270716353302504
20
19.166421888152072
30
0
10
-98.281053159572892
20
18.897593555734595
30
0
10
-98.430470277115376
20
18.675341543809175
30
0
10
-98.498364327847966
20
18.574351847171563
30
0
0
SPLINE
5
134
100
AcDbEntity
8
0
100
AcDbSpline
70
0
71
3
72
9
73
5
74
0
42
0.000000001
43
0.0000000001
44
0.0000000001
40
-0.065793287653916566
40
-0.065793287653916566
40
-0.065793287653916566
40
-0.065793287653916566
40
-0.03316000606777017
40
0
40
0
40
0
40
0
10
-98.498364327847966
20
18.574351847171563
30
0
10
-98.581711103946134
20
18.49974557117881
30
0
10
-98.749749932660819
20
18.349328820591804
30
0
10
-98.974465727849037
20
18.328866708864936
30
0
10
-99.087723134458074
20
18.318553745746392
30
0
0
SPLINE
5
135
100
AcDbEntity
8
0
100
AcDbSpline
70
0
71
3
72
9
73
5
74
0
42
0.000000001
43
0.0000000001
44
0.0000000001
40
-0.067933661516469096
40
-0.067933661516469096
40
-0.067933661516469096
40
-0.067933661516469096
40
-0.033870846217388076
40
0
40
0
40
0
40
0
10
-99.087723134458074
20
18.318553745746392
30
0
10
-99.203995864749544
20
18.329512198437484
30
0
10
-99.435886042759279
20
18.351367344858133
30
0
10
-99.609125046534487
20
18.506991424424733
30
0
10
-99.695499776303777
20
18.584583580493707
30
0
0
SPLINE
5
136
100
AcDbEntity
8
0
100
AcDbSpline
70
0
71
3
72
9
73
5
74
0
42
0.000000001
43
0.0000000001
44
0.0000000001
40
-0.079384307195688106
40
-0.079384307195688106
40
-0.079384307195688106
40
-0.079384307195688106
40
-0.042694193292618483
40
0
40
0
40
0
40
0
10
-99.695499776303777
20
18.584583580493707
30
0
10
-99.766418387654454
20
18.687192716770948
30
0
10
-99.919860942895014
20
18.90920225364064
30
0
10
-99.932319111690077
20
19.179828089494958
30
0
10
-99.939019320905217
20
19.325375139713067
30
0
0
LINE
5
137
100
AcDbEntity
8
0
100
AcDbLine
10
105.91787030398849
20
17.499999582767266
30
0
11
105.91787030398849
21
23.524556338786855
31
0
0
LINE
5
138
100
AcDbEntity
8
0
100
AcDbLine
10
105.91787030398849
20
23.524556338786855
30
0
11
104.98471905887131
21
23.524556338786859
31
0
0
SPLINE
5
139
100
AcDbEntity
8
0
100
AcDbSpline
70
0
71
3
72
9
73
5
74
0
42
0.000000001
43
0.0000000001
44
0.0000000001
40
-0.12149456133225527
40
-0.12149456133225527
40
-0.12149456133225527
40
-0.12149456133225527
40
-0.062981226223173509
40
0
40
0
40
0
40
0
10
104.98471905887131
20
23.524556338786859
30
0
10
104.90237911180552
20
23.345131388876176
30
0
10
104.7314120026802
20
22.972581173770141
30
0
10
104.4211397023367
20
22.704020282631504
30
0
10
104.26029851138595
20
22.564801752567071
30
0
0
SPLINE
5
140
100
AcDbEntity
8
0
100
AcDbSpline
70
0
71
3
72
9
73
5
74
0
42
0.000000001
43
0.0000000001
44
0.0000000001
40
-0.11305234743905967
40
-0.11305234743905967
40
-0.11305234743905967
40
-0.11305234743905967
40
-0.05158282807166964
40
0
40
0
40
0
40
0
10
104.26029851138595
20
22.564801752567071
30
0
10
104.09542346171166
20
22.441436889277554
30
0
10
103.79219168779123
20
22.214549034452755
30
0
10
103.44193819170378
20
22.07143701284156
30
0
10
103.28212668597702
20
22.006138741969842
30
0
0
LINE
5
141
100
AcDbEntity
8
0
100
AcDbLine
10
103.282126685977
20
22.006138741969838
30
0
11
103.28212668597702
21
20.962482273578424
31
0
0
SPLINE
5
142
100
AcDbEntity
8
0
100
AcDbSpline
70
0
71
3
72
9
73
5
74
0
42
0.000000001
43
0.0000000001
44
0.0000000001
40
-0.17329306528995478
40
-0.17329306528995478
40
-0.17329306528995478
40
-0.17329306528995478
40
-0.085682339679994612
40
0
40
0
40
0
40
0
10
103.28212668597702
20
20.962482273578424
30
0
10
103.55667940253353
20
21.068291452352838
30
0
10
104.09974169889639
20
21.277580860675535
30
0
10
104.54677338008733
20
21.6500703090679
30
0
10
104.76780196130279
20
21.834242522716302
30
0
0
LINE
5
143
100
AcDbEntity
8
0
100
AcDbLine
10
104.76780196130279
20
21.834242522716302
30
0
11
104.76780196130279
21
17.499999582767266
31
0
0
LINE
5
144
100
AcDbEntity
8
0
100
AcDbLine
10
104.76780196130279
20
17.499999582767266
30
0
11
105.91787030398849
21
17.499999582767266
31
0
0
ENDSEC
0
SECTION
2
OBJECTS
0
DICTIONARY
5
C
100
AcDbDictionary
3
ACAD_GROUP
350
D
3
ACAD_MLINESTYLE
350
17
0
DICTIONARY
5
D
100
AcDbDictionary
0
DICTIONARY
5
1A
330
C
100
AcDbDictionary
0
DICTIONARY
5
17
100
AcDbDictionary
0
ENDSEC
0
EOF
