0
SECTION
2
HEADER
9
$INSUNITS
70
4
9
$ACADVER
1
AC1014
9
$HANDSEED
5
FFFF
0
ENDSEC
0
SECTION
2
TABLES
0
TABLE
2
VPORT
5
8
100
AcDbSymbolTable
0
ENDTAB
0
TABLE
2
LTYPE
5
5
100
AcDbSymbolTable
0
LTYPE
5
14
100
AcDbSymbolTableRecord
100
AcDbLinetypeTableRecord
2
BYBLOCK
70
0
0
LTYPE
5
15
100
AcDbSymbolTableRecord
100
AcDbLinetypeTableRecord
2
BYLAYER
70
0
0
LTYPE
5
16
100
AcDbSymbolTableRecord
100
AcDbLinetypeTableRecord
2
DASHED
70
0
3
Dashed __ __ __ __ __ __ __ __ __ __ __ __ __ _
72
65
73
2
40
0.75
49
0.5
74
0
49
-0.25
74
0
0
ENDTAB
0
TABLE
2
LAYER
5
2
100
AcDbSymbolTable
70
2
0
LAYER
5
50
100
AcDbSymbolTableRecord
100
AcDbLayerTableRecord
2
0
70
0
62
7
6
CONTINUOUS
0
ENDTAB
0
TABLE
2
STYLE
5
3
100
AcDbSymbolTable
70
1
0
STYLE
5
11
100
AcDbSymbolTableRecord
100
AcDbTextStyleTableRecord
2
STANDARD
70
0
0
ENDTAB
0
TABLE
2
VIEW
5
6
100
AcDbSymbolTable
70
0
0
ENDTAB
0
TABLE
2
UCS
5
7
100
AcDbSymbolTable
70
0
0
ENDTAB
0
TABLE
2
APPID
5
9
100
AcDbSymbolTable
70
2
0
APPID
5
12
100
AcDbSymbolTableRecord
100
AcDbRegAppTableRecord
2
ACAD
70
0
0
ENDTAB
0
TABLE
2
DIMSTYLE
5
A
100
AcDbSymbolTable
70
1
0
ENDTAB
0
TABLE
2
BLOCK_RECORD
5
1
100
AcDbSymbolTable
70
1
0
BLOCK_RECORD
5
1F
100
AcDbSymbolTableRecord
100
AcDbBlockTableRecord
2
*MODEL_SPACE
0
BLOCK_RECORD
5
1B
100
AcDbSymbolTableRecord
100
AcDbBlockTableRecord
2
*PAPER_SPACE
0
ENDTAB
0
ENDSEC
0
SECTION
2
BLOCKS
0
BLOCK
5
20
100
AcDbEntity
100
AcDbBlockBegin
2
*MODEL_SPACE
0
ENDBLK
5
21
100
AcDbEntity
100
AcDbBlockEnd
0
BLOCK
5
1C
100
AcDbEntity
100
AcDbBlockBegin
2
*PAPER_SPACE
0
ENDBLK
5
1D
100
AcDbEntity
100
AcDbBlockEnd
0
ENDSEC
0
SECTION
2
ENTITIES
0
LINE
5
100
100
AcDbEntity
8
0
100
AcDbLine
10
-26.517534964561928
20
32.884031905084512
30
0
11
-22.762226574391136
21
32.884031905084512
31
0
0
ARC
5
101
100
AcDbEntity
8
0
100
AcDbCircle
10
-17.146920088385084
20
29.710574316236283
30
-6.56858655152258e-46
40
6.4500000000000002
210
-7.4661981838172491e-32
220
2.6872528619625825e-31
230
1
100
AcDbArc
50
90.0000000138903
51
150.52729164757443
0
LINE
5
102
100
AcDbEntity
8
0
100
AcDbLine
10
-17.146920089948768
20
36.160574316236286
30
-1.7332780960826137e-30
11
-6.2906860146531507
21
36.160574316226075
31
0
0
SPLINE
5
103
100
AcDbEntity
8
0
100
AcDbSpline
70
0
71
3
72
11
73
7
74
0
42
0.000000001
43
0.0000000001
44
0.0000000001
40
-0.00055981319958824322
40
-0.00055981319958824322
40
-0.00055981319958824322
40
-0.00055981319958824322
40
0
40
0
40
0
40
0.5
40
0.5
40
0.5
40
0.5
10
-6.2906860146531507
20
36.160574316226075
30
0
10
-6.2905367930678624
20
36.160573648200241
30
0
10
-6.2903875714800428
20
36.160572980174386
30
0
10
-6.2902383498945458
20
36.160572312148545
30
0
10
-6.1321483499205121
20
36.159864584747517
30
0
10
-5.9776480036604163
20
36.1292136628308
30
0
10
-5.8323273210619053
20
36.06940059174071
30
0
0
SPLINE
5
104
100
AcDbEntity
8
0
100
AcDbSpline
70
0
71
3
72
11
73
7
74
0
42
0.000000001
43
0.0000000001
44
0.0000000001
40
0.5
40
0.5
40
0.5
40
0.5
40
1
40
1
40
1
40
1.0005533892392495
40
1.0005533892392495
40
1.0005533892392495
40
1.0005533892392495
10
-5.8323273210619053
20
36.06940059174071
30
0
10
-5.6875344833380392
20
36.009804802079479
30
0
10
-5.5564251548383492
20
35.921910368183646
30
0
10
-5.4432400389724878
20
35.809734145038533
30
0
10
-5.4431340489777913
20
35.809629099801754
30
0
10
-5.4430280589828328
20
35.809524054564712
30
0
10
-5.4429220689881808
20
35.809419009327975
30
0
0
LINE
5
105
100
AcDbEntity
8
0
100
AcDbLine
10
-5.4429220689881799
20
35.809419009327968
30
0
11
0.80307991161491454
21
29.563417028710948
31
0
0
LINE
5
106
100
AcDbEntity
8
0
100
AcDbLine
10
0.80307991161491454
20
29.563417028710948
30
0
11
0.8030799116149101
21
10.357731603761696
31
0
0
LINE
5
107
100
AcDbEntity
8
0
100
AcDbLine
10
0.8030799116149101
20
10.357731603761696
30
0
11
-5.4429220715125348
21
4.1117296206482905
31
-3.944304526105059e-30
0
SPLINE
5
108
100
AcDbEntity
8
0
100
AcDbSpline
70
0
71
3
72
11
73
7
74
0
42
0.000000001
43
0.0000000001
44
0.0000000001
40
-0.00055981718757426211
40
-0.00055981718757426211
40
-0.00055981718757426211
40
-0.00055981718757426211
40
0
40
0
40
0
40
0.5
40
0.5
40
0.5
40
0.5
10
-5.4429220715125393
20
4.1117296206482958
30
0
10
-5.4430280602227343
20
4.1116245766825967
30
0
10
-5.4431340489330893
20
4.1115195327167466
30
0
10
-5.443240037643271
20
4.1114144887510653
30
0
10
-5.5555269834869669
20
4.0001284275705364
30
0
10
-5.6864486958011984
20
3.9125536688305864
30
0
10
-5.8315001579546655
20
3.8520906628990028
30
0
0
SPLINE
5
109
100
AcDbEntity
8
0
100
AcDbSpline
70
0
71
3
72
11
73
7
74
0
42
0.000000001
43
0.0000000001
44
0.0000000001
40
0.5
40
0.5
40
0.5
40
0.5
40
1
40
1
40
1
40
1.0005533994513571
40
1.0005533994513571
40
1.0005533994513571
40
1.0005533994513571
10
-5.8315001579546655
20
3.8520906628990028
30
0
10
-5.9760247359235485
20
3.7918472657501914
30
0
10
-6.130883778821512
20
3.7612897287313887
30
0
10
-6.2902383249778016
20
3.7605763204352307
30
0
10
-6.2903875522123265
20
3.7605756523655112
30
0
10
-6.2905367794471445
20
3.7605749842957916
30
0
10
-6.2906860066816828
20
3.7605743162260676
30
0
0
LINE
5
110
100
AcDbEntity
8
0
100
AcDbLine
10
-6.2906860066816837
20
3.7605743162260667
30
0
11
-17.146920089417115
21
3.7605743162363172
31
0
0
ARC
5
111
100
AcDbEntity
8
0
100
AcDbCircle
10
-17.146920088384721
20
10.210574316236309
30
0
40
6.4499999999999957
210
0
220
0
230
1
100
AcDbArc
50
209.47109337742597
51
269.99999999082917
0
LINE
5
112
100
AcDbEntity
8
0
100
AcDbLine
10
-22.762316021238419
20
7.0372750052210264
30
0
11
-26.517376686739222
21
7.03727500522103
31
0
0
LINE
5
113
100
AcDbEntity
8
0
100
AcDbLine
10
-26.517376686739222
20
7.03727500522103
30
0
11
-29.442605512961254
21
4.1120461788124532
31
0
0
ARC
5
114
100
AcDbEntity
8
0
100
AcDbCircle
10
-30.291133650385056
20
4.9605743162363538
30
0
40
1.1999999999999933
210
0
220
0
230
1
100
AcDbArc
50
270.00000000000017
51
314.9999999999967
0
LINE
5
115
100
AcDbEntity
8
0
100
AcDbLine
10
-30.291133650385053
20
3.7605743162363603
30
0
11
-41.146920088385116
21
3.7605743162363128
31
0
0
ARC
5
116
100
AcDbEntity
8
0
100
AcDbCircle
10
-41.146920088385158
20
10.210574316236315
30
0
40
6.4500000000000064
210
0
220
0
230
1
100
AcDbArc
50
209.471093377426
51
270.00000000000034
0
LINE
5
117
100
AcDbEntity
8
0
100
AcDbLine
10
-46.76231602123886
20
7.037275005221022
30
0
11
-50.517376686739226
21
7.03727500522103
31
0
0
LINE
5
118
100
AcDbEntity
8
0
100
AcDbLine
10
-50.517376686739226
20
7.03727500522103
30
0
11
-53.442605512961229
21
4.1120461788124132
31
0
0
ARC
5
119
100
AcDbEntity
8
0
100
AcDbCircle
10
-54.291133650385071
20
4.9605743162362685
30
0
40
1.1999999999999844
210
0
220
0
230
1
100
AcDbArc
50
269.99999999051124
51
314.99999999999955
0
LINE
5
120
100
AcDbEntity
8
0
100
AcDbLine
10
-54.291133650583802
20
3.7605743162362835
30
0
11
-65.146920088385116
21
3.7605743162363261
31
0
0
ARC
5
121
100
AcDbEntity
8
0
100
AcDbCircle
10
-65.146920088385173
20
10.210574316236345
30
0
40
6.4500000000000295
210
0
220
0
230
1
100
AcDbArc
50
209.47109337742614
51
270.00000000000051
0
LINE
5
122
100
AcDbEntity
8
0
100
AcDbLine
10
-70.762316021238888
20
7.0372750052210247
30
0
11
-74.517376686932835
21
7.03727500522103
31
0
0
LINE
5
123
100
AcDbEntity
8
0
100
AcDbLine
10
-74.517376686932835
20
7.03727500522103
30
0
11
-77.442922071518566
21
4.1117296206423406
31
0
0
SPLINE
5
124
100
AcDbEntity
8
0
100
AcDbSpline
70
0
71
3
72
11
73
7
74
0
42
0.000000001
43
0.0000000001
44
0.0000000001
40
-0.00055981718436752146
40
-0.00055981718436752146
40
-0.00055981718436752146
40
-0.00055981718436752146
40
0
40
0
40
0
40
0.5
40
0.5
40
0.5
40
0.5
10
-77.442922071518566
20
4.1117296206423406
30
0
10
-77.443028060228272
20
4.1116245766771389
30
0
10
-77.443134048934056
20
4.1115195327157963
30
0
10
-77.443240037643662
20
4.1114144887506923
30
0
10
-77.55552698348697
20
4.0001284275705498
30
0
10
-77.686448695801218
20
3.9125536688306086
30
0
10
-77.831500157954679
20
3.852090662899025
30
0
0
SPLINE
5
125
100
AcDbEntity
8
0
100
AcDbSpline
70
0
71
3
72
11
73
7
74
0
42
0.000000001
43
0.0000000001
44
0.0000000001
40
0.5
40
0.5
40
0.5
40
0.5
40
1
40
1
40
1
40
1.0005533994509568
40
1.0005533994509568
40
1.0005533994509568
40
1.0005533994509568
10
-77.831500157954679
20
3.852090662899025
30
0
10
-77.976024735923559
20
3.7918472657502091
30
0
10
-78.130883778821513
20
3.7612897287314109
30
0
10
-78.290238324977821
20
3.7605763204352529
30
0
10
-78.290387552212223
20
3.7605756523655334
30
0
10
-78.290536779446583
20
3.7605749842958138
30
0
10
-78.290686006681028
20
3.7605743162260943
30
0
0
LINE
5
126
100
AcDbEntity
8
0
100
AcDbLine
10
-78.290686006681028
20
3.7605743162260934
30
0
11
-89.146920089417137
21
3.7605743162363394
31
0
0
ARC
5
127
100
AcDbEntity
8
0
100
AcDbCircle
10
-89.146920088385144
20
10.210574316236347
30
0
40
6.4500000000000135
210
0
220
0
230
1
100
AcDbArc
50
180
51
269.99999999083269
0
LINE
5
128
100
AcDbEntity
8
0
100
AcDbLine
10
-95.596920088385161
20
10.210574315797627
30
0
11
-95.596920088385133
21
29.710574316236347
31
0
0
ARC
5
129
100
AcDbEntity
8
0
100
AcDbCircle
10
-89.146920088385201
20
29.710574316236389
30
3.28429327576129e-45
40
6.4499999999999424
210
6.0270639799688006e-32
220
4.7371285302401178e-46
230
1
100
AcDbArc
50
90.000000013890002
51
180
0
LINE
5
130
100
AcDbEntity
8
0
100
AcDbLine
10
-89.14692008994885
20
36.160574316236335
30
9.4242768644231943e-41
11
-78.290686014650376
21
36.160574316226082
31
0
0
SPLINE
5
131
100
AcDbEntity
8
0
100
AcDbSpline
70
0
71
3
72
11
73
7
74
0
42
0.000000001
43
0.0000000001
44
0.0000000001
40
-0.00055981319990837906
40
-0.00055981319990837906
40
-0.00055981319990837906
40
-0.00055981319990837906
40
0
40
0
40
0
40
0.5
40
0.5
40
0.5
40
0.5
10
-78.290686014650376
20
36.160574316226082
30
0
10
-78.290536793065002
20
36.160573648200241
30
0
10
-78.290387571479926
20
36.1605729801744
30
0
10
-78.290238349894338
20
36.16057231214856
30
0
10
-78.132148349920541
20
36.159864584747531
30
0
10
-77.977648003660434
20
36.129213662830828
30
0
10
-77.832327321061911
20
36.069400591740731
30
0
0
SPLINE
5
132
100
AcDbEntity
8
0
100
AcDbSpline
70
0
71
3
72
11
73
7
74
0
42
0.000000001
43
0.0000000001
44
0.0000000001
40
0.5
40
0.5
40
0.5
40
0.5
40
1
40
1
40
1
40
1.0005533892381711
40
1.0005533892381711
40
1.0005533892381711
40
1.0005533892381711
10
-77.832327321061911
20
36.069400591740731
30
0
10
-77.687534483338041
20
36.009804802079501
30
0
10
-77.556425154838365
20
35.92191036818366
30
0
10
-77.44324003897249
20
35.809734145038568
30
0
10
-77.443134048978152
20
35.809629099802144
30
0
10
-77.443028058980218
20
35.809524054562154
30
0
10
-77.442922068985808
20
35.809419009325659
30
0
0
LINE
5
133
100
AcDbEntity
8
0
100
AcDbLine
10
-77.442922068985794
20
35.809419009325651
30
0
11
-74.517534964751661
21
32.884031905084512
31
0
0
LINE
5
134
100
AcDbEntity
8
0
100
AcDbLine
10
-74.517534964751661
20
32.884031905084512
30
0
11
-70.762226574391207
21
32.884031905084512
31
0
0
ARC
5
135
100
AcDbEntity
8
0
100
AcDbCircle
10
-65.146920088385102
20
29.710574316236325
30
1.0947644252537633e-44
40
6.4500000000000268
210
-7.4661981838175874e-32
220
2.6872528619625741e-31
230
1
100
AcDbArc
50
89.999999999999375
51
150.52729164757497
0
LINE
5
136
100
AcDbEntity
8
0
100
AcDbLine
10
-65.146920088385031
20
36.16057431623635
30
-1.7332780959658512e-30
11
-54.291133650385113
21
36.160574316236364
31
0
0
ARC
5
137
100
AcDbEntity
8
0
100
AcDbCircle
10
-54.291133650385106
20
34.960574316236375
30
0
40
1.1999999999999926
210
0
220
-0
230
1
100
AcDbArc
50
44.999999999711896
51
90.000000000000341
0
LINE
5
138
100
AcDbEntity
8
0
100
AcDbLine
10
-53.442605512956987
20
35.80910245365596
30
0
11
-50.517534964561932
21
32.884031905084512
31
0
0
LINE
5
139
100
AcDbEntity
8
0
100
AcDbLine
10
-50.517534964561932
20
32.884031905084512
30
0
11
-46.762226574391249
21
32.884031905084512
31
0
0
ARC
5
140
100
AcDbEntity
8
0
100
AcDbCircle
10
-41.146920088385144
20
29.710574316236375
30
1.7516230804060213e-45
40
6.4500000000000046
210
1.7169363401721693e-31
220
-9.7031652179040437e-32
230
1
100
AcDbArc
50
89.999999999998991
51
150.52729164757534
0
LINE
5
141
100
AcDbEntity
8
0
100
AcDbLine
10
-41.146920088385031
20
36.160574316236378
30
6.2585415655479315e-31
11
-30.291133650385085
21
36.160574316236378
31
0
0
ARC
5
142
100
AcDbEntity
8
0
100
AcDbCircle
10
-30.291133650385088
20
34.960574316236404
30
-7.2528143173061821e-45
40
1.199999999999974
210
-2.1895288505075267e-45
220
1.9721522630525002e-31
230
1
100
AcDbArc
50
44.999999999711882
51
89.999999999999844
0
LINE
5
143
100
AcDbEntity
8
0
100
AcDbLine
10
-29.442605512956984
20
35.809102453655974
30
-1.6734266864757836e-31
11
-26.517534964561928
21
32.884031905084512
31
0
0
LINE
5
144
100
AcDbEntity
8
0
100
AcDbLine
10
77.237683978761652
20
32.884031905084512
30
0
11
77.237683978761652
21
32.883873627252193
31
0
0
ARC
5
145
100
AcDbEntity
8
0
100
AcDbCircle
10
82.853079911614941
20
29.710574316236293
30
-1.5326701953552687e-45
40
6.4499999999999513
210
9.702681267539712e-32
220
1.716963689443829e-31
230
1
100
AcDbArc
50
90.00000001389013
51
150.52890662256749
0
LINE
5
146
100
AcDbEntity
8
0
100
AcDbLine
10
82.853079910051278
20
36.160574316236243
30
-1.1074415795395463e-30
11
93.709313985346014
21
36.160574316226032
31
-1.7141258651338116e-30
0
ELLIPSE
5
147
100
AcDbEntity
8
0
100
AcDbEllipse
10
92.3243880179987
20
28.959125701088027
30
0
11
1.654780426469979
21
7.1704698198280683
31
0.0
40
0.40329726974432195
41
6.2166864729325253
42
6.3742559291850851
0
ELLIPSE
5
148
100
AcDbEntity
8
0
100
AcDbEllipse
10
90.729479371930324
20
29.512215460315382
30
0
11
3.5553578667145764
21
6.5012640065013549
31
0.0
40
0.3982319826396935
41
6.1688115334841953
42
6.3271283531075335
0
LINE
5
149
100
AcDbEntity
8
0
100
AcDbLine
10
94.557077931010198
20
35.809419009329623
30
0
11
100.80307991161497
21
29.563417028710912
31
0
0
LINE
5
150
100
AcDbEntity
8
0
100
AcDbLine
10
100.80307991161497
20
29.563417028710912
30
0
11
100.80307991161497
21
10.35773160376166
31
0
0
LINE
5
151
100
AcDbEntity
8
0
100
AcDbLine
10
100.80307991161497
20
10.35773160376166
30
0
11
94.557077928488269
21
4.1117296206489424
31
1.9721522630525295e-30
0
ELLIPSE
5
152
100
AcDbEntity
8
0
100
AcDbEllipse
10
90.444175295420806
20
10.183212836690673
30
0
11
-3.9001814857594042
21
6.2403937523250956
31
0.0
40
0.40329727623723632
41
3.0750937884285183
42
3.2326632429557098
0
ELLIPSE
5
153
100
AcDbEntity
8
0
100
AcDbEllipse
10
91.963030063557056
20
10.919899677098785
30
0
11
-2.0830809781428501
21
7.1111142848099202
31
0.0
40
0.39823170142968578
41
3.027218540656349
42
3.1855352187990436
0
LINE
5
154
100
AcDbEntity
8
0
100
AcDbLine
10
93.709313993318375
20
3.7605743162260219
30
3.3207889577829478e-32
11
82.853079910582963
21
3.7605743162362861
31
0
0
ARC
5
155
100
AcDbEntity
8
0
100
AcDbCircle
10
82.853079911615339
20
10.210574316236265
30
-1.7516230804060213e-45
40
6.449999999999978
210
3.1566765867094573e-41
220
1.97215226305253e-31
230
1
100
AcDbArc
50
209.47109337742552
51
269.99999999082934
0
LINE
5
156
100
AcDbEntity
8
0
100
AcDbLine
10
77.237683978761638
20
7.0372750052210336
30
6.2582294193343061e-31
11
73.482623313260888
21
7.03727500522103
31
0
0
LINE
5
157
100
AcDbEntity
8
0
100
AcDbLine
10
73.482623313260888
20
7.03727500522103
30
0
11
70.557394487038806
21
4.1120461788124087
31
0
0
ARC
5
158
100
AcDbEntity
8
0
100
AcDbCircle
10
69.708866349615008
20
4.9605743162363343
30
-4.1601048159643007e-45
40
1.2000000000000111
210
-1.3945222387367509e-31
220
1.3945222387369648e-31
230
1
100
AcDbArc
50
270
51
314.99999999999574
0
LINE
5
159
100
AcDbEntity
8
0
100
AcDbLine
10
69.708866349615008
20
3.760574316236323
30
1.6734266864843315e-31
11
58.853079911614955
21
3.7605743162362772
31
0
0
ARC
5
160
100
AcDbEntity
8
0
100
AcDbCircle
10
58.853079911614913
20
10.210574316236276
30
0
40
6.4500000000000002
210
0
220
0
230
1
100
AcDbArc
50
209.47109337742557
51
270.00000000000034
0
LINE
5
161
100
AcDbEntity
8
0
100
AcDbLine
10
53.23768397876119
20
7.0372750052210309
30
0
11
49.482623313260902
21
7.03727500522103
31
0
0
LINE
5
162
100
AcDbEntity
8
0
100
AcDbLine
10
49.482623313260902
20
7.03727500522103
30
0
11
46.557394487038842
21
4.1120461788123821
31
0
0
ARC
5
163
100
AcDbEntity
8
0
100
AcDbCircle
10
45.708866349614965
20
4.9605743162363067
30
-8.7854845126614508e-45
40
1.2000000000000621
210
-1.3945222387368271e-31
220
1.394522238736918e-31
230
1
100
AcDbArc
50
269.99999999051295
51
314.99999999999841
0
LINE
5
164
100
AcDbEntity
8
0
100
AcDbLine
10
45.708866349416269
20
3.7605743162362448
30
1.6734266862072164e-31
11
34.853079911614941
21
3.760574316236295
31
0
0
ARC
5
165
100
AcDbEntity
8
0
100
AcDbCircle
10
34.853079911614884
20
10.210574316236286
30
0
40
6.4500000000000028
210
0
220
0
230
1
100
AcDbArc
50
209.47109337742575
51
270.00000000000051
0
LINE
5
166
100
AcDbEntity
8
0
100
AcDbLine
10
29.237683978761169
20
7.037275005221022
30
0
11
25.48262331306729
21
7.03727500522103
31
0
0
LINE
5
167
100
AcDbEntity
8
0
100
AcDbLine
10
25.48262331306729
20
7.03727500522103
30
0
11
22.557077928488205
21
4.1117296206489353
31
-1.9721522630525295e-30
0
ELLIPSE
5
168
100
AcDbEntity
8
0
100
AcDbEllipse
10
18.444175286968854
20
10.183212850033911
30
0
11
-3.9001814942272479
21
6.2403937656583803
31
0.0
40
0.40329727580375968
41
3.0750937884936307
42
3.2326632428516562
0
ELLIPSE
5
169
100
AcDbEntity
8
0
100
AcDbEllipse
10
19.963030063571104
20
10.919899677074476
30
0
11
-2.0830809781275765
21
7.1111142847859385
31
0.0
40
0.39823170143049602
41
3.0272185406565706
42
3.1855352187995414
0
LINE
5
170
100
AcDbEntity
8
0
100
AcDbLine
10
21.709313993318361
20
3.7605743162260454
30
-1.4518046067585709e-30
11
10.85307991058292
21
3.7605743162363039
31
0
0
ARC
5
171
100
AcDbEntity
8
0
100
AcDbCircle
10
10.8530799116149
20
10.210574316236297
30
0
40
6.4499999999999993
210
0
220
0
230
1
100
AcDbArc
50
180
51
269.99999999083286
0
LINE
5
172
100
AcDbEntity
8
0
100
AcDbLine
10
4.4030799116149009
20
10.210574315797592
30
0
11
4.4030799116149133
21
29.710574316236311
31
0
0
ARC
5
173
100
AcDbEntity
8
0
100
AcDbCircle
10
10.853079911614905
20
29.710574316236304
30
6.0212043388956984e-46
40
6.4499999999999913
210
-2.4408425716853319e-32
220
-1.9721522630525291e-31
230
1
100
AcDbArc
50
90.000000013890343
51
180
0
LINE
5
174
100
AcDbEntity
8
0
100
AcDbLine
10
10.853079910051218
20
36.160574316236293
30
1.272038209630713e-30
11
21.709313985346441
21
36.160574316226047
31
1.8935763768998346e-31
0
ELLIPSE
5
175
100
AcDbEntity
8
0
100
AcDbEllipse
10
20.324388014057348
20
28.959125683629175
30
0
11
1.6547804303949705
21
7.1704698372907192
31
0.0
40
0.40329726925314996
41
6.2166864730078011
42
6.3742559290685179
0
ELLIPSE
5
176
100
AcDbEntity
8
0
100
AcDbEllipse
10
18.729479368780659
20
29.512215454912582
30
0
11
3.5553578698927515
21
6.5012640118885567
31
0.0
40
0.39823198247231367
41
6.1688115335426668
42
6.3271283530998792
0
LINE
5
177
100
AcDbEntity
8
0
100
AcDbLine
10
22.557077931011918
20
35.809419009327939
30
-1.45180242381832e-30
11
25.482465035248339
21
32.884031905084512
31
0
0
LINE
5
178
100
AcDbEntity
8
0
100
AcDbLine
10
25.482465035248339
20
32.884031905084512
30
0
11
29.237773425608886
21
32.884031905084512
31
0
0
ARC
5
179
100
AcDbEntity
8
0
100
AcDbCircle
10
34.853079911614941
20
29.710574316236304
30
3.8316754883881717e-45
40
6.4500000000000091
210
-1.8287846918765011e-31
220
-1.2317780792769385e-31
230
1
100
AcDbArc
50
89.999999999999119
51
150.52729164757457
0
LINE
5
180
100
AcDbEntity
8
0
100
AcDbLine
10
34.85307991161504
20
36.160574316236314
30
7.9449686113364728e-31
11
45.708866349614958
21
36.160574316236321
31
0
0
ARC
5
181
100
AcDbEntity
8
0
100
AcDbCircle
10
45.708866349614951
20
34.960574316236283
30
0
40
1.2000000000000397
210
0
220
-0
230
1
100
AcDbArc
50
44.999999999713324
51
89.999999999999673
0
LINE
5
182
100
AcDbEntity
8
0
100
AcDbLine
10
46.557394487043084
20
35.809102453655925
30
0
11
49.482465035438096
21
32.884031905084512
31
0
0
LINE
5
183
100
AcDbEntity
8
0
100
AcDbLine
10
49.482465035438096
20
32.884031905084512
30
0
11
53.23777342560885
21
32.884031905084512
31
0
0
ARC
5
184
100
AcDbEntity
8
0
100
AcDbCircle
10
58.853079911614934
20
29.71057431623635
30
4.4337959222777415e-45
40
6.4499999999999913
210
-9.7031652179041498e-32
220
-1.7169363401721588e-31
230
1
100
AcDbArc
50
89.999999999998991
51
150.52729164757505
0
LINE
5
185
100
AcDbEntity
8
0
100
AcDbLine
10
58.853079911615048
20
36.160574316236342
30
1.1074239394110564e-30
11
69.708866349615008
21
36.160574316236357
31
0
0
ARC
5
186
100
AcDbEntity
8
0
100
AcDbCircle
10
69.708866349614937
20
34.96057431623634
30
2.3537435142955912e-45
40
1.2000000000000146
210
-7.9479897273423218e-45
220
-1.9721522630525413e-31
230
1
100
AcDbArc
50
44.999999999711896
51
89.999999999996618
0
LINE
5
187
100
AcDbEntity
8
0
100
AcDbLine
10
70.557394487043069
20
35.809102453655939
30
1.6734266864759163e-31
11
73.482465035438111
21
32.884031905084512
31
0
0
LINE
5
188
100
AcDbEntity
8
0
100
AcDbLine
10
73.482465035438111
20
32.884031905084512
30
0
11
77.237683978761652
21
32.884031905084512
31
0
0
LINE
5
189
100
AcDbEntity
8
0
100
AcDbLine
10
107.59615629153973
20
38.310619901184076
30
0
11
-101.61800357670629
21
38.310619901184069
31
2.7192621468943038e-31
0
LINE
5
190
100
AcDbEntity
8
0
100
AcDbLine
10
-101.61800357670629
20
38.310619901184069
30
0
11
-101.61800357670629
21
1.4999999999997993
31
0
0
LINE
5
191
100
AcDbEntity
8
0
100
AcDbLine
10
-101.61800357670629
20
1.4999999999997993
30
0
11
107.59615629153973
21
1.4999999999997891
31
0
0
LINE
5
192
100
AcDbEntity
8
0
100
AcDbLine
10
107.59615629153973
20
1.4999999999997891
30
0
11
107.59615629153973
21
38.310619901184076
31
0
0
LWPOLYLINE
5
193
100
AcDbEntity
8
0
100
AcDbPolyline
90
4
70
1
43
0.0
10
107.59615629153977
20
41.310619901184054
10
-101.61800357670629
20
41.310619901184026
10
-101.61800357670629
20
38.310619901184069
10
107.59615629153973
20
38.310619901184076
0
LWPOLYLINE
5
194
100
AcDbEntity
8
0
100
AcDbPolyline
90
4
70
1
43
0.0
10
107.59615629153973
20
1.4999999999997891
10
-101.61800357670629
20
1.4999999999998064
10
-101.61800357670629
20
-1.5000000000001994
10
107.59615629153973
20
-1.5000000000002169
0
SPLINE
5
195
100
AcDbEntity
8
0
100
AcDbSpline
70
0
71
3
72
9
73
5
74
0
42
0.000000001
43
0.0000000001
44
0.0000000001
40
-0.099998892635555697
40
-0.099998892635555697
40
-0.099998892635555697
40
-0.099998892635555697
40
-0.04762758800911164
40
0
40
0
40
0
40
0
10
-100.06998801082374
20
20.737380564212579
30
0
10
-100.22949829931088
20
20.659454973501113
30
0
10
-100.53407066630589
20
20.51066217876933
30
0
10
-100.73536861658054
20
20.238680299241643
30
0
10
-100.83124303668738
20
20.109140455722589
30
0
0
SPLINE
5
196
100
AcDbEntity
8
0
100
AcDbSpline
70
0
71
3
72
9
73
5
74
0
42
0.000000001
43
0.0000000001
44
0.0000000001
40
-0.093495940922795895
40
-0.093495940922795895
40
-0.093495940922795895
40
-0.093495940922795895
40
-0.047097200464443829
40
0
40
0
40
0
40
0
10
-100.83124303668738
20
20.109140455722589
30
0
10
-100.90167170149626
20
19.969473716216058
30
0
10
-101.04358922380814
20
19.688037774274839
30
0
10
-101.06295917552291
20
19.373376490528226
30
0
10
-101.0727165028453
20
19.214870512485284
30
0
0
SPLINE
5
197
100
AcDbEntity
8
0
100
AcDbSpline
70
0
71
3
72
9
73
5
74
0
42
0.000000001
43
0.0000000001
44
0.0000000001
40
-0.15769291614064801
40
-0.15769291614064801
40
-0.15769291614064801
40
-0.15769291614064801
40
-0.077085542354082645
40
0
40
0
40
0
40
0
10
-101.0727165028453
20
19.214870512485284
30
0
10
-101.04841671951853
20
18.937871413263625
30
0
10
-101.00087883911904
20
18.395975632857045
30
0
10
-100.61754015828902
20
18.011347552989736
30
0
10
-100.43015146106482
20
17.823328554630059
30
0
0
SPLINE
5
198
100
AcDbEntity
8
0
100
AcDbSpline
70
0
71
3
72
9
73
5
74
0
42
0.000000001
43
0.0000000001
44
0.0000000001
40
-0.14501281591293863
40
-0.14501281591293863
40
-0.14501281591293863
40
-0.14501281591293863
40
-0.075765595415873868
40
0
40
0
40
0
40
0
10
-100.43015146106482
20
17.823328554630059
30
0
10
-100.23163086790575
20
17.69805648903829
30
0
10
-99.815902553844055
20
17.435720255810519
30
0
10
-99.32417487277138
20
17.408046342806912
30
0
10
-99.067259369790563
20
17.393587410449761
30
0
0
SPLINE
5
199
100
AcDbEntity
8
0
100
AcDbSpline
70
0
71
3
72
9
73
5
74
0
42
0.000000001
43
0.0000000001
44
0.0000000001
40
-0.15333029337164777
40
-0.15333029337164777
40
-0.15333029337164777
40
-0.15333029337164777
40
-0.073025708620274188
40
0
40
0
40
0
40
0
10
-99.067259369790563
20
17.393587410449761
30
0
10
-98.793205168530079
20
17.410824908773755
30
0
10
-98.26993727281652
20
17.44373748385517
30
0
10
-97.854945529043448
20
17.76185958875757
30
0
10
-97.657299874722966
20
17.913369715213555
30
0
0
SPLINE
5
200
100
AcDbEntity
8
0
100
AcDbSpline
70
0
71
3
72
9
73
5
74
0
42
0.000000001
43
0.0000000001
44
0.0000000001
40
-0.1482323945891551
40
-0.1482323945891551
40
-0.1482323945891551
40
-0.1482323945891551
40
-0.07646383326205039
40
0
40
0
40
0
40
0
10
-97.657299874722966
20
17.913369715213555
30
0
10
-97.50275564721575
20
18.10373241664275
30
0
10
-97.183556537052226
20
18.496911805382322
30
0
10
-97.146435075805954
20
19.002950034287696
30
0
10
-97.127286432683476
20
19.26398354768731
30
0
0
SPLINE
5
201
100
AcDbEntity
8
0
100
AcDbSpline
70
0
71
3
72
9
73
5
74
0
42
0.000000001
43
0.0000000001
44
0.0000000001
40
-0.093611864706402675
40
-0.093611864706402675
40
-0.093611864706402675
40
-0.093611864706402675
40
-0.045794622206465553
40
0
40
0
40
0
40
0
10
-97.127286432683476
20
19.26398354768731
30
0
10
-97.137148265810595
20
19.425390200575837
30
0
10
-97.156454786642584
20
19.74137617055171
30
0
10
-97.311385822270324
20
20.017187970026022
30
0
10
-97.387177585065373
20
20.15211421251275
30
0
0
SPLINE
5
202
100
AcDbEntity
8
0
100
AcDbSpline
70
0
71
3
72
9
73
5
74
0
42
0.000000001
43
0.0000000001
44
0.0000000001
40
-0.096968554759978176
40
-0.096968554759978176
40
-0.096968554759978176
40
-0.096968554759978176
40
-0.050391674411495772
40
0
40
0
40
0
40
0
10
-97.387177585065373
20
20.15211421251275
30
0
10
-97.486839669445985
20
20.273873127814582
30
0
10
-97.694326478662276
20
20.527363399331783
30
0
10
-97.991798449785122
20
20.665562566554723
30
0
10
-98.146385787427434
20
20.737380564212579
30
0
0
SPLINE
5
203
100
AcDbEntity
8
0
100
AcDbSpline
70
0
71
3
72
9
73
5
74
0
42
0.000000001
43
0.0000000001
44
0.0000000001
40
-0.079524464651315685
40
-0.079524464651315685
40
-0.079524464651315685
40
-0.079524464651315685
40
-0.03878764545667119
40
0
40
0
40
0
40
0
10
-98.146385787427434
20
20.737380564212579
30
0
10
-98.023689837508655
20
20.79968624197457
30
0
10
-97.78416868870336
20
20.921316397856021
30
0
10
-97.617738820015802
20
21.131927506261285
30
0
10
-97.536563514173039
20
21.234651982784051
30
0
0
SPLINE
5
204
100
AcDbEntity
8
0
100
AcDbSpline
70
0
71
3
72
9
73
5
74
0
42
0.000000001
43
0.0000000001
44
0.0000000001
40
-0.078266074524622239
40
-0.078266074524622239
40
-0.078266074524622239
40
-0.078266074524622239
40
-0.039815070442187517
40
0
40
0
40
0
40
0
10
-97.536563514173039
20
21.234651982784051
30
0
10
-97.473301658360626
20
21.348120954190215
30
0
10
-97.344533704448025
20
21.579084258900473
30
0
10
-97.328038208909632
20
21.843153813689455
30
0
10
-97.319646714627751
20
21.97748976945855
30
0
0
SPLINE
5
205
100
AcDbEntity
8
0
100
AcDbSpline
70
0
71
3
72
9
73
5
74
0
42
0.000000001
43
0.0000000001
44
0.0000000001
40
-0.12340652126596313
40
-0.12340652126596313
40
-0.12340652126596313
40
-0.12340652126596313
40
-0.060988358247555836
40
0
40
0
40
0
40
0
10
-97.319646714627751
20
21.97748976945855
30
0
10
-97.338414295525894
20
22.190639288433207
30
0
10
-97.375519550778833
20
22.612055737975602
30
0
10
-97.654491663629216
20
22.92966499318776
30
0
10
-97.79236161559821
20
23.086629688739556
30
0
0
SPLINE
5
206
100
AcDbEntity
8
0
100
AcDbSpline
70
0
71
3
72
9
73
5
74
0
42
0.000000001
43
0.0000000001
44
0.0000000001
40
-0.14240256594790496
40
-0.14240256594790496
40
-0.14240256594790496
40
-0.14240256594790496
40
-0.076756848630705907
40
0
40
0
40
0
40
0
10
-97.79236161559821
20
23.086629688739556
30
0
10
-97.975571598556343
20
23.214152410700923
30
0
10
-98.373001510921284
20
23.490782228548952
30
0
10
-98.858678952295151
20
23.512727532471821
30
0
10
-99.120465455949315
20
23.524556338786859
30
0
0
SPLINE
5
207
100
AcDbEntity
8
0
100
AcDbSpline
70
0
71
3
72
9
73
5
74
0
42
0.000000001
43
0.0000000001
44
0.0000000001
40
-0.14282034441795044
40
-0.14282034441795044
40
-0.14282034441795044
40
-0.14282034441795044
40
-0.065557096921179003
40
0
40
0
40
0
40
0
10
-99.120465455949315
20
23.524556338786859
30
0
10
-99.384081618283219
20
23.513092877749294
30
0
10
-99.871373472023151
20
23.491902784054673
30
0
10
-100.2697841238968
20
23.214131626657487
30
0
10
-100.4526617512107
20
23.086629688739556
30
0
0
SPLINE
5
208
100
AcDbEntity
8
0
100
AcDbSpline
70
0
71
3
72
9
73
5
74
0
42
0.000000001
43
0.0000000001
44
0.0000000001
40
-0.12320930048641665
40
-0.12320930048641665
40
-0.12320930048641665
40
-0.12320930048641665
40
-0.062398872879944035
40
0
40
0
40
0
40
0
10
-100.4526617512107
20
23.086629688739556
30
0
10
-100.58933676592116
20
22.929525293040228
30
0
10
-100.86625691957343
20
22.61121273614258
30
0
10
-100.90278459801871
20
22.190538570715624
30
0
10
-100.92128389924765
20
21.97748976945855
30
0
0
SPLINE
5
209
100
AcDbEntity
8
0
100
AcDbSpline
70
0
71
3
72
9
73
5
74
0
42
0.000000001
43
0.0000000001
44
0.0000000001
40
-0.07577098528849352
40
-0.07577098528849352
40
-0.07577098528849352
40
-0.07577098528849352
40
-0.037727743662849506
40
0
40
0
40
0
40
0
10
-100.92128389924765
20
21.97748976945855
30
0
10
-100.91298396567163
20
21.849395291310813
30
0
10
-100.89645293103814
20
21.594268640570114
30
0
10
-100.77778085597737
20
21.367852657492993
30
0
10
-100.71869188398124
20
21.255116045474786
30
0
0
SPLINE
5
210
100
AcDbEntity
8
0
100
AcDbSpline
70
0
71
3
72
9
73
5
74
0
42
0.000000001
43
0.0000000001
44
0.0000000001
40
-0.084031344109264175
40
-0.084031344109264175
40
-0.084031344109264175
40
-0.084031344109264175
40
-0.044540553741769781
40
0
40
0
40
0
40
0
10
-100.71869188398124
20
21.255116045474786
30
0
10
-100.63698393226022
20
21.149544920236011
30
0
10
-100.46311987576411
20
20.92490308677592
30
0
10
-100.20617882118469
20
20.802343103722588
30
0
10
-100.06998801082374
20
20.737380564212579
30
0
0
SPLINE
5
211
100
AcDbEntity
8
0
100
AcDbSpline
70
0
71
3
72
9
73
5
74
0
42
0.000000001
43
0.0000000001
44
0.0000000001
40
-0.056732561713314866
40
-0.056732561713314866
40
-0.056732561713314866
40
-0.056732561713314866
40
-0.027160895418582579
40
0
40
0
40
0
40
0
10
-99.832607148587712
20
21.895634114742059
30
0
10
-99.82590564504423
20
21.996589089454758
30
0
10
-99.813048964613643
20
22.190268886733357
30
0
10
-99.693424842767485
20
22.342523459605378
30
0
10
-99.636154411733159
20
22.415415823459405
30
0
0
SPLINE
5
212
100
AcDbEntity
8
0
100
AcDbSpline
70
0
71
3
72
9
73
5
74
0
42
0.000000001
43
0.0000000001
44
0.0000000001
40
-0.057510259494651939
40
-0.057510259494651939
40
-0.057510259494651939
40
-0.057510259494651939
40
-0.030177240189083663
40
0
40
0
40
0
40
0
10
-99.636154411733159
20
22.415415823459405
30
0
10
-99.562541349964974
20
22.472676455788232
30
0
10
-99.407655194244086
20
22.593156150594137
30
0
10
-99.211247698473187
20
22.605428772605695
30
0
10
-99.108187197148808
20
22.611868560313958
30
0
0
SPLINE
5
213
100
AcDbEntity
8
0
100
AcDbSpline
70
0
71
3
72
9
73
5
74
0
42
0.000000001
43
0.0000000001
44
0.0000000001
40
-0.056072762671800794
40
-0.056072762671800794
40
-0.056072762671800794
40
-0.056072762671800794
40
-0.026862719874614163
40
0
40
0
40
0
40
0
10
-99.108187197148808
20
22.611868560313958
30
0
10
-99.008470326783055
20
22.605213502267741
30
0
10
-98.817049847011191
20
22.592438187524671
30
0
10
-98.666613738346527
20
22.474137049602113
30
0
10
-98.594544468820104
20
22.417462646960992
30
0
0
SPLINE
5
214
100
AcDbEntity
8
0
100
AcDbSpline
70
0
71
3
72
9
73
5
74
0
42
0.000000001
43
0.0000000001
44
0.0000000001
40
-0.056461494275796414
40
-0.056461494275796414
40
-0.056461494275796414
40
-0.056461494275796414
40
-0.029512772013270665
40
0
40
0
40
0
40
0
10
-98.594544468820104
20
22.417462646960992
30
0
10
-98.537874652065938
20
22.345032935584523
30
0
10
-98.419143140304243
20
22.19328215146788
30
0
10
-98.406662148826825
20
22.000497102359052
30
0
10
-98.400138257443913
20
21.899727165698785
30
0
0
SPLINE
5
215
100
AcDbEntity
8
0
100
AcDbSpline
70
0
71
3
72
9
73
5
74
0
42
0.000000001
43
0.0000000001
44
0.0000000001
40
-0.058498135452481323
40
-0.058498135452481323
40
-0.058498135452481323
40
-0.058498135452481323
40
-0.02746241737975464
40
0
40
0
40
0
40
0
10
-98.400138257443913
20
21.899727165698785
30
0
10
-98.406128514240194
20
21.793640032521047
30
0
10
-98.417419338980977
20
21.593680119499084
30
0
10
-98.539349775869439
20
21.435694999444014
30
0
10
-98.596590994298467
20
21.361527621745843
30
0
0
SPLINE
5
216
100
AcDbEntity
8
0
100
AcDbSpline
70
0
71
3
72
9
73
5
74
0
42
0.000000001
43
0.0000000001
44
0.0000000001
40
-0.057030261471691615
40
-0.057030261471691615
40
-0.057030261471691615
40
-0.057030261471691615
40
-0.029866075161623918
40
0
40
0
40
0
40
0
10
-98.596590994298467
20
21.361527621745843
30
0
10
-98.669907017792852
20
21.304860440875572
30
0
10
-98.823831451318043
20
21.185889671605832
30
0
10
-99.018513016743555
20
21.173571823886572
30
0
10
-99.120465455949315
20
21.167121112346429
30
0
0
SPLINE
5
217
100
AcDbEntity
8
0
100
AcDbSpline
70
0
71
3
72
9
73
5
74
0
42
0.000000001
43
0.0000000001
44
0.0000000001
40
-0.056370393929104541
40
-0.056370393929104541
40
-0.056370393929104541
40
-0.056370393929104541
40
-0.026866039778351777
40
0
40
0
40
0
40
0
10
-99.120465455949315
20
21.167121112346429
30
0
10
-99.221179799726229
20
21.173524865074175
30
0
10
-99.413602491102822
20
21.185759739358932
30
0
10
-99.565707591230279
20
21.303409639604993
30
0
10
-99.638200639188298
20
21.359481394290704
30
0
0
SPLINE
5
218
100
AcDbEntity
8
0
100
AcDbSpline
70
0
71
3
72
9
73
5
74
0
42
0.000000001
43
0.0000000001
44
0.0000000001
40
-0.058227689861456926
40
-0.058227689861456926
40
-0.058227689861456926
40
-0.058227689861456926
40
-0.030977098972030801
40
0
40
0
40
0
40
0
10
-99.638200639188298
20
21.359481394290704
30
0
10
-99.694840173845037
20
21.43318558185948
30
0
10
-99.815864678277734
20
21.590672977001081
30
0
10
-99.826793187626521
20
21.789733843355744
30
0
10
-99.832607148587712
20
21.895634114742059
30
0
0
SPLINE
5
219
100
AcDbEntity
8
0
100
AcDbSpline
70
0
71
3
72
9
73
5
74
0
42
0.000000001
43
0.0000000001
44
0.0000000001
40
-0.067170284606849651
40
-0.067170284606849651
40
-0.067170284606849651
40
-0.067170284606849651
40
-0.034022930187892965
40
0
40
0
40
0
40
0
10
-99.939019320905217
20
19.325375139713067
30
0
10
-99.929967057039747
20
19.437176413947917
30
0
10
-99.911623416926133
20
19.663732153957994
30
0
10
-99.792614607284293
20
19.857509331873054
30
0
10
-99.732334552705296
20
19.955660879611749
30
0
0
SPLINE
5
220
100
AcDbEntity
8
0
100
AcDbSpline
70
0
71
3
72
9
73
5
74
0
42
0.000000001
43
0.0000000001
44
0.0000000001
40
-0.071451244448509116
40
-0.071451244448509116
40
-0.071451244448509116
40
-0.071451244448509116
40
-0.037494296841835306
40
0
40
0
40
0
40
0
10
-99.732334552705296
20
19.955660879611749
30
0
10
-99.651294645570289
20
20.040358854518423
30
0
10
-99.480772775293246
20
20.218577927076087
30
0
10
-99.23373047794297
20
20.236725056658727
30
0
10
-99.104094146192082
20
20.246247828006524
30
0
0
SPLINE
5
221
100
AcDbEntity
8
0
100
AcDbSpline
70
0
71
3
72
9
73
5
74
0
42
0.000000001
43
0.0000000001
44
0.0000000001
40
-0.066911569571810603
40
-0.066911569571810603
40
-0.066911569571810603
40
-0.066911569571810603
40
-0.033048517223450639
40
0
40
0
40
0
40
0
10
-99.104094146192082
20
20.246247828006524
30
0
10
-98.988456996662961
20
20.236118001804321
30
0
10
-98.759964210596124
20
20.216102010224279
30
0
10
-98.587593349543141
20
20.065054237457367
30
0
10
-98.502457080781468
20
19.990449726581353
30
0
0
SPLINE
5
222
100
AcDbEntity
8
0
100
AcDbSpline
70
0
71
3
72
9
73
5
74
0
42
0.000000001
43
0.0000000001
44
0.0000000001
40
-0.073119787603004055
40
-0.073119787603004055
40
-0.073119787603004055
40
-0.073119787603004055
40
-0.03847202522659688
40
0
40
0
40
0
40
0
10
-98.502457080781468
20
19.990449726581353
30
0
10
-98.43327261299514
20
19.894931727657713
30
0
10
-98.287267409686308
20
19.693352886355207
30
0
10
-98.272726975667538
20
19.444192491527811
30
0
10
-98.265076516568669
20
19.313096582889337
30
0
0
SPLINE
5
223
100
AcDbEntity
8
0
100
AcDbSpline
70
0
71
3
72
9
73
5
74
0
42
0.000000001
43
0.0000000001
44
0.0000000001
40
-0.078835314831237097
40
-0.078835314831237097
40
-0.078835314831237097
40
-0.078835314831237097
40
-0.035822193284843006
40
0
40
0
40
0
40
0
10
-98.265076516568669
20
19.313096582889337
30
0
10
-98.270716353302504
20
19.166421888152072
30
0
10
-98.281053159572892
20
18.897593555734595
30
0
10
-98.430470277115376
20
18.675341543809175
30
0
10
-98.498364327847966
20
18.574351847171563
30
0
0
SPLINE
5
224
100
AcDbEntity
8
0
100
AcDbSpline
70
0
71
3
72
9
73
5
74
0
42
0.000000001
43
0.0000000001
44
0.0000000001
40
-0.065793287653916566
40
-0.065793287653916566
40
-0.065793287653916566
40
-0.065793287653916566
40
-0.03316000606777017
40
0
40
0
40
0
40
0
10
-98.498364327847966
20
18.574351847171563
30
0
10
-98.581711103946134
20
18.49974557117881
30
0
10
-98.749749932660819
20
18.349328820591804
30
0
10
-98.974465727849037
20
18.328866708864936
30
0
10
-99.087723134458074
20
18.318553745746392
30
0
0
SPLINE
5
225
100
AcDbEntity
8
0
100
AcDbSpline
70
0
71
3
72
9
73
5
74
0
42
0.000000001
43
0.0000000001
44
0.0000000001
40
-0.067933661516469096
40
-0.067933661516469096
40
-0.067933661516469096
40
-0.067933661516469096
40
-0.033870846217388076
40
0
40
0
40
0
40
0
10
-99.087723134458074
20
18.318553745746392
30
0
10
-99.203995864749544
20
18.329512198437484
30
0
10
-99.435886042759279
20
18.351367344858133
30
0
10
-99.609125046534487
20
18.506991424424733
30
0
10
-99.695499776303777
20
18.584583580493707
30
0
0
SPLINE
5
226
100
AcDbEntity
8
0
100
AcDbSpline
70
0
71
3
72
9
73
5
74
0
42
0.000000001
43
0.0000000001
44
0.0000000001
40
-0.079384307195688106
40
-0.079384307195688106
40
-0.079384307195688106
40
-0.079384307195688106
40
-0.042694193292618483
40
0
40
0
40
0
40
0
10
-99.695499776303777
20
18.584583580493707
30
0
10
-99.766418387654454
20
18.687192716770948
30
0
10
-99.919860942895014
20
18.90920225364064
30
0
10
-99.932319111690077
20
19.179828089494958
30
0
10
-99.939019320905217
20
19.325375139713067
30
0
0
LINE
5
227
100
AcDbEntity
8
0
100
AcDbLine
10
105.91787030398849
20
17.499999582767266
30
0
11
105.91787030398849
21
23.524556338786855
31
0
0
LINE
5
228
100
AcDbEntity
8
0
100
AcDbLine
10
105.91787030398849
20
17.499999582767266
30
0
11
105.91787030398849
21
23.524556338786855
31
0
0
LINE
5
229
100
AcDbEntity
8
0
100
AcDbLine
10
105.91787030398849
20
23.524556338786855
30
0
11
104.98471905887131
21
23.524556338786859
31
0
0
SPLINE
5
230
100
AcDbEntity
8
0
100
AcDbSpline
70
0
71
3
72
9
73
5
74
0
42
0.000000001
43
0.0000000001
44
0.0000000001
40
-0.12149456133225527
40
-0.12149456133225527
40
-0.12149456133225527
40
-0.12149456133225527
40
-0.062981226223173509
40
0
40
0
40
0
40
0
10
104.98471905887131
20
23.524556338786859
30
0
10
104.90237911180552
20
23.345131388876176
30
0
10
104.7314120026802
20
22.972581173770141
30
0
10
104.4211397023367
20
22.704020282631504
30
0
10
104.26029851138595
20
22.564801752567071
30
0
0
SPLINE
5
231
100
AcDbEntity
8
0
100
AcDbSpline
70
0
71
3
72
9
73
5
74
0
42
0.000000001
43
0.0000000001
44
0.0000000001
40
-0.11305234743905967
40
-0.11305234743905967
40
-0.11305234743905967
40
-0.11305234743905967
40
-0.05158282807166964
40
0
40
0
40
0
40
0
10
104.26029851138595
20
22.564801752567071
30
0
10
104.09542346171166
20
22.441436889277554
30
0
10
103.79219168779123
20
22.214549034452755
30
0
10
103.44193819170378
20
22.07143701284156
30
0
10
103.28212668597702
20
22.006138741969842
30
0
0
LINE
5
232
100
AcDbEntity
8
0
100
AcDbLine
10
103.282126685977
20
22.006138741969838
30
0
11
103.28212668597702
21
20.962482273578424
31
0
0
SPLINE
5
233
100
AcDbEntity
8
0
100
AcDbSpline
70
0
71
3
72
9
73
5
74
0
42
0.000000001
43
0.0000000001
44
0.0000000001
40
-0.17329306528995478
40
-0.17329306528995478
40
-0.17329306528995478
40
-0.17329306528995478
40
-0.085682339679994612
40
0
40
0
40
0
40
0
10
103.28212668597702
20
20.962482273578424
30
0
10
103.55667940253353
20
21.068291452352838
30
0
10
104.09974169889639
20
21.277580860675535
30
0
10
104.54677338008733
20
21.6500703090679
30
0
10
104.76780196130279
20
21.834242522716302
30
0
0
LINE
5
234
100
AcDbEntity
8
0
100
AcDbLine
10
104.76780196130279
20
21.834242522716302
30
0
11
104.76780196130279
21
17.499999582767266
31
0
0
LINE
5
235
100
AcDbEntity
8
0
100
AcDbLine
10
104.76780196130279
20
17.499999582767266
30
0
11
105.91787030398849
21
17.499999582767266
31
0
0
ENDSEC
0
SECTION
2
OBJECTS
0
DICTIONARY
5
C
100
AcDbDictionary
3
ACAD_GROUP
350
D
3
ACAD_MLINESTYLE
350
17
0
DICTIONARY
5
D
100
AcDbDictionary
0
DICTIONARY
5
1A
330
C
100
AcDbDictionary
0
DICTIONARY
5
17
100
AcDbDictionary
0
ENDSEC
0
EOF
