0
SECTION
2
HEADER
9
$INSUNITS
70
4
9
$ACADVER
1
AC1014
9
$HANDSEED
5
FFFF
0
ENDSEC
0
SECTION
2
TABLES
0
TABLE
2
VPORT
5
8
100
AcDbSymbolTable
0
ENDTAB
0
TABLE
2
LTYPE
5
5
100
AcDbSymbolTable
0
LTYPE
5
14
100
AcDbSymbolTableRecord
100
AcDbLinetypeTableRecord
2
BYBLOCK
70
0
0
LTYPE
5
15
100
AcDbSymbolTableRecord
100
AcDbLinetypeTableRecord
2
BYLAYER
70
0
0
LTYPE
5
16
100
AcDbSymbolTableRecord
100
AcDbLinetypeTableRecord
2
DASHED
70
0
3
Dashed __ __ __ __ __ __ __ __ __ __ __ __ __ _
72
65
73
2
40
0.75
49
0.5
74
0
49
-0.25
74
0
0
ENDTAB
0
TABLE
2
LAYER
5
2
100
AcDbSymbolTable
70
2
0
LAYER
5
50
100
AcDbSymbolTableRecord
100
AcDbLayerTableRecord
2
0
70
0
62
7
6
CONTINUOUS
0
ENDTAB
0
TABLE
2
STYLE
5
3
100
AcDbSymbolTable
70
1
0
STYLE
5
11
100
AcDbSymbolTableRecord
100
AcDbTextStyleTableRecord
2
STANDARD
70
0
0
ENDTAB
0
TABLE
2
VIEW
5
6
100
AcDbSymbolTable
70
0
0
ENDTAB
0
TABLE
2
UCS
5
7
100
AcDbSymbolTable
70
0
0
ENDTAB
0
TABLE
2
APPID
5
9
100
AcDbSymbolTable
70
2
0
APPID
5
12
100
AcDbSymbolTableRecord
100
AcDbRegAppTableRecord
2
ACAD
70
0
0
ENDTAB
0
TABLE
2
DIMSTYLE
5
A
100
AcDbSymbolTable
70
1
0
ENDTAB
0
TABLE
2
BLOCK_RECORD
5
1
100
AcDbSymbolTable
70
1
0
BLOCK_RECORD
5
1F
100
AcDbSymbolTableRecord
100
AcDbBlockTableRecord
2
*MODEL_SPACE
0
BLOCK_RECORD
5
1B
100
AcDbSymbolTableRecord
100
AcDbBlockTableRecord
2
*PAPER_SPACE
0
ENDTAB
0
ENDSEC
0
SECTION
2
BLOCKS
0
BLOCK
5
20
100
AcDbEntity
100
AcDbBlockBegin
2
*MODEL_SPACE
0
ENDBLK
5
21
100
AcDbEntity
100
AcDbBlockEnd
0
BLOCK
5
1C
100
AcDbEntity
100
AcDbBlockBegin
2
*PAPER_SPACE
0
ENDBLK
5
1D
100
AcDbEntity
100
AcDbBlockEnd
0
ENDSEC
0
SECTION
2
ENTITIES
0
LWPOLYLINE
5
100
100
AcDbEntity
8
0
100
AcDbPolyline
90
12
70
1
43
0.0
10
-72.010923642560257
20
3.2000000000001121
10
77.989076357439743
20
3.1999999999998634
10
78.489076357439743
20
3.1999999999998634
10
78.489076357439728
20
0.1999999999998564
10
109.59615629153974
20
0.19999999999982088
42
0.41421356237309453
10
111.09615629153973
20
1.6999999999998039
10
111.09615629153981
20
39.899999999999828
10
-105.1180035767062
20
39.900000000000205
10
-105.11800357666026
20
1.7000000000001636
42
0.41421356237309537
10
-103.61800357666026
20
0.20000000000015838
10
-72.510923642560257
20
0.20000000000010512
10
-72.510923642560257
20
3.2000000000001121
0
LINE
5
101
100
AcDbEntity
8
0
100
AcDbLine
10
4.4030799116149097
20
10.210574315798029
30
0
11
4.403079911614924
21
29.710574316236738
31
0
0
ARC
5
102
100
AcDbEntity
8
0
100
AcDbCircle
10
10.853079911614918
20
29.710574316236723
30
-7.6633509767763434e-46
40
6.4499999999999957
210
2.7376438433286123e-32
220
1.9721522630525275e-31
230
1
100
AcDbArc
50
90.000000013890428
51
180
0
LINE
5
103
100
AcDbEntity
8
0
100
AcDbLine
10
10.853079910051221
20
36.160574316236719
30
-1.2720382096260719e-30
11
21.709313985346441
21
36.160574316226473
31
3.3741198897011681e-30
0
SPLINE
5
104
100
AcDbEntity
8
0
100
AcDbSpline
70
0
71
3
72
11
73
7
74
0
42
0.000000001
43
0.0000000001
44
0.0000000001
40
-0.00055981320322757164
40
-0.00055981320322757164
40
-0.00055981320322757164
40
-0.00055981320322757164
40
0
40
0
40
0
40
0.5
40
0.5
40
0.5
40
0.5
10
21.709313985346451
20
36.160574316226473
30
0
10
21.709463206932682
20
36.160573648200639
30
0
10
21.709612428519041
20
36.160572980174791
30
0
10
21.709761650105506
20
36.16057231214895
30
0
10
21.86785165007954
20
36.159864584747922
30
0
10
22.022351996339644
20
36.129213662831205
30
0
10
22.167672678938168
20
36.069400591741115
30
0
0
SPLINE
5
105
100
AcDbEntity
8
0
100
AcDbSpline
70
0
71
3
72
11
73
7
74
0
42
0.000000001
43
0.0000000001
44
0.0000000001
40
0.5
40
0.5
40
0.5
40
0.5
40
1
40
1
40
1
40
1.0005533892398326
40
1.0005533892398326
40
1.0005533892398326
40
1.0005533892398326
10
22.16767265291255
20
36.069400602453094
30
0
10
22.312465516662037
20
36.009804802079877
30
0
10
22.44357484516172
20
35.921910368184051
30
0
10
22.556759961027588
20
35.809734145038952
30
0
10
22.556865951022331
20
35.80962909980213
30
0
10
22.556971941017075
20
35.809524054565301
30
0
10
22.557077931011932
20
35.809419009328359
30
0
0
LINE
5
106
100
AcDbEntity
8
0
100
AcDbLine
10
22.557077931011928
20
35.809419009328359
30
0
11
28.407852139482547
21
29.958644800843764
31
0
0
ARC
5
107
100
AcDbEntity
8
0
100
AcDbCircle
10
34.853079911614955
20
29.71057431623673
30
1.625040943736055e-45
40
6.4500000000000091
210
8.1485995641500112e-32
220
1.9422493409061374e-31
230
1
100
AcDbArc
50
89.99999999999919
51
177.79582973173345
0
LINE
5
108
100
AcDbEntity
8
0
100
AcDbLine
10
34.853079911615048
20
36.16057431623674
30
-1.2527508248844661e-30
11
45.708866349614965
21
36.160574316236747
31
0
0
ARC
5
109
100
AcDbEntity
8
0
100
AcDbCircle
10
45.708866349614965
20
34.96057431623673
30
-5.1453927986926877e-45
40
1.2000000000000177
210
-1.3575078873146665e-45
220
-1.9721522630525593e-31
230
1
100
AcDbArc
50
44.999999999712841
51
90
0
LINE
5
110
100
AcDbEntity
8
0
100
AcDbLine
10
46.557394487043091
20
35.809102453656351
30
1.6734266864758274e-31
11
52.407852139483282
21
29.958644800863343
31
0
0
ARC
5
111
100
AcDbEntity
8
0
100
AcDbCircle
10
58.853079911614955
20
29.710574316236752
30
2.8463875056597847e-45
40
6.4500000000000179
210
-1.1085148723864946e-31
220
4.2665648341820497e-33
230
1
100
AcDbArc
50
89.999999999999119
51
177.79582973155962
0
LINE
5
112
100
AcDbEntity
8
0
100
AcDbLine
10
58.853079911615055
20
36.160574316236769
30
-2.7519343180459636e-32
11
69.708866349615008
21
36.160574316236762
31
-6.5143642023834993e-31
0
ARC
5
113
100
AcDbEntity
8
0
100
AcDbCircle
10
69.708866349614965
20
34.960574316236745
30
-9.2233902827629561e-45
40
1.2000000000000335
210
-1.0947644252537633e-45
220
-1.9721522630525737e-31
230
1
100
AcDbArc
50
44.999999999712607
51
89.999999999997954
0
LINE
5
114
100
AcDbEntity
8
0
100
AcDbLine
10
70.557394487043098
20
35.809102453656365
30
1.6734266864758051e-31
11
76.407852139483325
21
29.958644800863294
31
0
0
ARC
5
115
100
AcDbEntity
8
0
100
AcDbCircle
10
82.853079911614969
20
29.710574316236688
30
8.7581154020301067e-46
40
6.4499999999999824
210
5.2120504045531185e-32
220
3.9271643301491472e-31
230
1
100
AcDbArc
50
90.000000013890244
51
177.79582973155948
0
LINE
5
116
100
AcDbEntity
8
0
100
AcDbLine
10
82.853079910051292
20
36.160574316236669
30
-2.5330209928646925e-30
11
93.709313985346014
21
36.160574316226459
31
-2.6110056596851549e-30
0
SPLINE
5
117
100
AcDbEntity
8
0
100
AcDbSpline
70
0
71
3
72
11
73
7
74
0
42
0.000000001
43
0.0000000001
44
0.0000000001
40
-0.00055981320414493505
40
-0.00055981320414493505
40
-0.00055981320414493505
40
-0.00055981320414493505
40
0
40
0
40
0
40
0.5
40
0.5
40
0.5
40
0.5
10
93.709313985346014
20
36.160574316226459
30
0
10
93.709463206932512
20
36.160573648200611
30
0
10
93.709612428518923
20
36.160572980174777
30
0
10
93.709761650105293
20
36.160572312148929
30
0
10
93.867851650079558
20
36.159864584747901
30
0
10
94.022351996339651
20
36.129213662831177
30
0
10
94.167672678938175
20
36.0694005917411
30
0
0
SPLINE
5
118
100
AcDbEntity
8
0
100
AcDbSpline
70
0
71
3
72
11
73
7
74
0
42
0.000000001
43
0.0000000001
44
0.0000000001
40
0.5
40
0.5
40
0.5
40
0.5
40
1
40
1
40
1
40
1.0005533892376419
40
1.0005533892376419
40
1.0005533892376419
40
1.0005533892376419
10
94.167672652912557
20
36.069400602453079
30
0
10
94.312465516662058
20
36.009804802079863
30
0
10
94.443574845161734
20
35.921910368184015
30
0
10
94.556759961027581
20
35.809734145038938
30
0
10
94.556865951021862
20
35.809629099802585
30
0
10
94.556971941016144
20
35.809524054566211
30
0
10
94.557077931010198
20
35.809419009330057
30
0
0
LINE
5
119
100
AcDbEntity
8
0
100
AcDbLine
10
94.557077931010198
20
35.80941900933005
30
0
11
100.80307991161499
21
29.563417028711338
31
0
0
LINE
5
120
100
AcDbEntity
8
0
100
AcDbLine
10
100.80307991161499
20
29.563417028711338
30
0
11
100.80307991161499
21
10.357731603762094
31
0
0
LINE
5
121
100
AcDbEntity
8
0
100
AcDbLine
10
100.80307991161499
20
10.357731603762094
30
0
11
94.557077928488269
21
4.1117296206493705
31
-1.9721522630525295e-30
0
SPLINE
5
122
100
AcDbEntity
8
0
100
AcDbSpline
70
0
71
3
72
11
73
7
74
0
42
0.000000001
43
0.0000000001
44
0.0000000001
40
-0.00055981718643204406
40
-0.00055981718643204406
40
-0.00055981718643204406
40
-0.00055981718643204406
40
0
40
0
40
0
40
0.5
40
0.5
40
0.5
40
0.5
10
94.557077928488269
20
4.1117296206493705
30
0
10
94.556971939776346
20
4.1116245766819839
30
0
10
94.556865951065873
20
4.111519532716005
30
0
10
94.556759962355187
20
4.1114144887498218
30
0
10
94.444473016513101
20
4.000128427570921
30
0
10
94.313551304198867
20
3.9125536688309759
30
0
10
94.168499842045435
20
3.8520906628993918
30
0
0
SPLINE
5
123
100
AcDbEntity
8
0
100
AcDbSpline
70
0
71
3
72
11
73
7
74
0
42
0.000000001
43
0.0000000001
44
0.0000000001
40
0.5
40
0.5
40
0.5
40
0.5
40
1
40
1
40
1
40
1.0005533994513314
40
1.0005533994513314
40
1.0005533994513314
40
1.0005533994513314
10
94.168499860250265
20
3.8520906704878626
30
0
10
94.02397526407654
20
3.7918472657505782
30
0
10
93.869116221178558
20
3.7612897287317764
30
0
10
93.709761675022278
20
3.7605763204356184
30
0
10
93.709612447787762
20
3.760575652365898
30
0
10
93.709463220553232
20
3.7605749842961771
30
0
10
93.709313993318361
20
3.7605743162264553
30
0
0
LINE
5
124
100
AcDbEntity
8
0
100
AcDbLine
10
93.709313993318375
20
3.7605743162264549
30
0
11
82.853079910582963
21
3.7605743162367173
31
-3.8224429967486741e-31
0
ARC
5
125
100
AcDbEntity
8
0
100
AcDbCircle
10
82.853079911615367
20
10.210574316236695
30
-4.3790577010150533e-46
40
6.449999999999978
210
-3.156671112887332e-41
220
-1.9721522630525295e-31
230
1
100
AcDbArc
50
182.20417026826274
51
269.99999999082905
0
LINE
5
126
100
AcDbEntity
8
0
100
AcDbLine
10
76.407852139482969
20
9.9625038316300856
30
-4.8923276964801567e-32
11
70.55739448703882
21
4.1120461788128377
31
0
0
ARC
5
127
100
AcDbEntity
8
0
100
AcDbCircle
10
69.708866349615022
20
4.9605743162367588
30
-1.2042408677791397e-45
40
1.2000000000000033
210
2.7890444774734751e-31
220
-2.7890444774738981e-31
230
1
100
AcDbArc
50
270
51
314.99999999999591
0
LINE
5
128
100
AcDbEntity
8
0
100
AcDbLine
10
69.708866349615022
20
3.7605743162367555
30
-3.346853372968699e-31
11
58.853079911614962
21
3.7605743162367116
31
0
0
ARC
5
129
100
AcDbEntity
8
0
100
AcDbCircle
10
58.853079911614927
20
10.210574316236711
30
-2.294736883711296e-59
40
6.4500000000000037
210
-1.4012984643248155e-45
220
-3.8699376259198964e-60
230
1
100
AcDbArc
50
182.20417026826652
51
270.00000000000034
0
LINE
5
130
100
AcDbEntity
8
0
100
AcDbLine
10
52.407852139482515
20
9.9625038316296681
30
-9.0316877793128175e-45
11
46.557394487038849
21
4.1120461788128102
31
0
0
ARC
5
131
100
AcDbEntity
8
0
100
AcDbCircle
10
45.708866349614979
20
4.9605743162367224
30
5.248026963560228e-45
40
1.2000000000000473
210
1.3945222387368917e-31
220
1.3945222387367573e-31
230
1
100
AcDbArc
50
269.99999999051295
51
314.99999999999858
0
LINE
5
132
100
AcDbEntity
8
0
100
AcDbLine
10
45.708866349416283
20
3.7605743162366756
30
1.6734266867613231e-31
11
34.853079911614948
21
3.760574316236724
31
0
0
ARC
5
133
100
AcDbEntity
8
0
100
AcDbCircle
10
34.853079911614898
20
10.210574316236727
30
-1.8669045833583425e-59
40
6.4500000000000002
210
2.8025969286496373e-45
220
2.2655664995963219e-59
230
1
100
AcDbArc
50
182.20417026826686
51
270.0000000000004
0
LINE
5
134
100
AcDbEntity
8
0
100
AcDbLine
10
28.407852139482497
20
9.9625038316296592
30
1.8063375558625598e-44
11
22.557077928488212
21
4.1117296206493661
31
0
0
SPLINE
5
135
100
AcDbEntity
8
0
100
AcDbSpline
70
0
71
3
72
11
73
7
74
0
42
0.000000001
43
0.0000000001
44
0.0000000001
40
-0.00055981718640307136
40
-0.00055981718640307136
40
-0.00055981718640307136
40
-0.00055981718640307136
40
0
40
0
40
0
40
0.5
40
0.5
40
0.5
40
0.5
10
22.557077928488212
20
4.1117296206493652
30
0
10
22.556971939776581
20
4.111624576682245
30
0
10
22.556865951066566
20
4.1115195327167333
30
0
10
22.55675996235658
20
4.1114144887512465
30
0
10
22.444473016513101
20
4.0001284275709361
30
0
10
22.313551304198857
20
3.912553668830995
30
0
10
22.168499842045406
20
3.8520906628994096
30
0
0
SPLINE
5
136
100
AcDbEntity
8
0
100
AcDbSpline
70
0
71
3
72
11
73
7
74
0
42
0.000000001
43
0.0000000001
44
0.0000000001
40
0.5
40
0.5
40
0.5
40
0.5
40
1
40
1
40
1
40
1.0005533994513425
40
1.0005533994513425
40
1.0005533994513425
40
1.0005533994513425
10
22.168499860250243
20
3.8520906704878826
30
0
10
22.023975264076519
20
3.7918472657505964
30
0
10
21.869116221178558
20
3.7612897287317963
30
0
10
21.709761675022257
20
3.7605763204356384
30
0
10
21.709612447787741
20
3.760575652365918
30
0
10
21.709463220553214
20
3.7605749842961971
30
0
10
21.709313993318379
20
3.7605743162264753
30
0
0
LINE
5
137
100
AcDbEntity
8
0
100
AcDbLine
10
21.709313993318375
20
3.7605743162264749
30
0
11
10.853079910582931
21
3.7605743162367351
31
1.3859633023615956e-30
0
ARC
5
138
100
AcDbEntity
8
0
100
AcDbCircle
10
10.853079911614909
20
10.210574316236734
30
0
40
6.4499999999999993
210
0
220
0
230
1
100
AcDbArc
50
180
51
269.99999999083286
0
LINE
5
139
100
AcDbEntity
8
0
100
AcDbLine
10
-65.146920088385031
20
36.160574316236776
30
0
11
-54.291133650385106
21
36.16057431623679
31
0
0
ARC
5
140
100
AcDbEntity
8
0
100
AcDbCircle
10
-54.291133650385092
20
34.960574316236823
30
1.5354071064184031e-44
40
1.1999999999999706
210
2.4413246683158922e-45
220
-1.97215226305247e-31
230
1
100
AcDbArc
50
44.999999999711413
51
90.000000000000696
0
LINE
5
141
100
AcDbEntity
8
0
100
AcDbLine
10
-53.44260551295698
20
35.809102453656386
30
1.6734266864758276e-31
11
-47.592147860516789
21
29.958644800863382
31
0
0
ARC
5
142
100
AcDbEntity
8
0
100
AcDbCircle
10
-41.146920088385116
20
29.71057431623678
30
2.7369110631344083e-45
40
6.4500000000000224
210
-9.8534655323243949e-32
220
3.7925020748286052e-33
230
1
100
AcDbArc
50
89.999999999999119
51
177.79582973155962
0
LINE
5
143
100
AcDbEntity
8
0
100
AcDbLine
10
-41.146920088385016
20
36.160574316236804
30
-2.4461638382631349e-32
11
-30.291133650385078
21
36.160574316236804
31
-3.7951020554894057e-31
0
ARC
5
144
100
AcDbEntity
8
0
100
AcDbCircle
10
-30.291133650385088
20
34.960574316236816
30
-5.8826941298531105e-59
40
1.1999999999999926
210
-2.8025969286496584e-45
220
-1.8046744305797311e-59
230
1
100
AcDbArc
50
44.99999999971201
51
89.999999999999503
0
LINE
5
145
100
AcDbEntity
8
0
100
AcDbLine
10
-29.442605512956973
20
35.809102453656401
30
2.3780823518288066e-45
11
-23.592147860516732
21
29.958644800863322
31
0
0
ARC
5
146
100
AcDbEntity
8
0
100
AcDbCircle
10
-17.146920088385073
20
29.710574316236702
30
7.6633509767763434e-46
40
6.4500000000000091
210
-1.4780198298486556e-31
220
5.6887531122430381e-33
230
1
100
AcDbArc
50
90.0000000138903
51
177.79582973155931
0
LINE
5
147
100
AcDbEntity
8
0
100
AcDbLine
10
-17.146920089948757
20
36.160574316236712
30
-3.6692457805082917e-32
11
-6.2906860146507064
21
36.160574316226473
31
3.9179723190701707e-30
0
SPLINE
5
148
100
AcDbEntity
8
0
100
AcDbSpline
70
0
71
3
72
11
73
7
74
0
42
0.000000001
43
0.0000000001
44
0.0000000001
40
-0.00055981319958824322
40
-0.00055981319958824322
40
-0.00055981319958824322
40
-0.00055981319958824322
40
0
40
0
40
0
40
0.5
40
0.5
40
0.5
40
0.5
10
-6.29068601465314
20
36.160574316226494
30
0
10
-6.2905367930654208
20
36.160573648200639
30
0
10
-6.2903875714800321
20
36.160572980174805
30
0
10
-6.2902383498945387
20
36.160572312148965
30
0
10
-6.1321483499205041
20
36.159864584747943
30
0
10
-5.9776480036604092
20
36.129213662831219
30
0
10
-5.8323273210618973
20
36.069400591741136
30
0
0
SPLINE
5
149
100
AcDbEntity
8
0
100
AcDbSpline
70
0
71
3
72
11
73
7
74
0
42
0.000000001
43
0.0000000001
44
0.0000000001
40
0.5
40
0.5
40
0.5
40
0.5
40
1
40
1
40
1
40
1.0005533892392495
40
1.0005533892392495
40
1.0005533892392495
40
1.0005533892392495
10
-5.8323273470875217
20
36.069400602453115
30
0
10
-5.6875344833380295
20
36.009804802079898
30
0
10
-5.5564251548383385
20
35.921910368184072
30
0
10
-5.4432400389724789
20
35.809734145038959
30
0
10
-5.4431340489777815
20
35.809629099802173
30
0
10
-5.4430280589831028
20
35.809524054565408
30
0
10
-5.442922068988171
20
35.809419009328394
30
0
0
LINE
5
150
100
AcDbEntity
8
0
100
AcDbLine
10
-5.4429220689881692
20
35.809419009328394
30
0
11
0.80307991161492454
21
29.563417028711374
31
0
0
LINE
5
151
100
AcDbEntity
8
0
100
AcDbLine
10
0.80307991161492454
20
29.563417028711374
30
0
11
0.80307991161491799
21
10.357731603762129
31
0
0
LINE
5
152
100
AcDbEntity
8
0
100
AcDbLine
10
0.80307991161491799
20
10.357731603762129
30
0
11
-5.4429220715125286
21
4.1117296206487186
31
1.9721522630525295e-30
0
SPLINE
5
153
100
AcDbEntity
8
0
100
AcDbSpline
70
0
71
3
72
11
73
7
74
0
42
0.000000001
43
0.0000000001
44
0.0000000001
40
-0.00055981718757426211
40
-0.00055981718757426211
40
-0.00055981718757426211
40
-0.00055981718757426211
40
0
40
0
40
0
40
0.5
40
0.5
40
0.5
40
0.5
10
-5.4429220715125286
20
4.1117296206487195
30
0
10
-5.443028060222888
20
4.1116245766828632
30
0
10
-5.4431340489330786
20
4.1115195327171721
30
0
10
-5.4432400376432621
20
4.1114144887514881
30
0
10
-5.5555269834869572
20
4.0001284275709601
30
0
10
-5.6864486958011904
20
3.9125536688310119
30
0
10
-5.8315001579546566
20
3.8520906628994251
30
0
0
SPLINE
5
154
100
AcDbEntity
8
0
100
AcDbSpline
70
0
71
3
72
11
73
7
74
0
42
0.000000001
43
0.0000000001
44
0.0000000001
40
0.5
40
0.5
40
0.5
40
0.5
40
1
40
1
40
1
40
1.0005533994513571
40
1.0005533994513571
40
1.0005533994513571
40
1.0005533994513571
10
-5.8315001397498172
20
3.8520906704879003
30
0
10
-5.9760247359235379
20
3.791847265750615
30
0
10
-6.1308837788215031
20
3.7612897287318141
30
0
10
-6.2902383249777944
20
3.7605763204356562
30
0
10
-6.2903875522123158
20
3.7605756523659348
30
0
10
-6.2905367794468443
20
3.760574984296214
30
0
10
-6.2906860066816748
20
3.7605743162264926
30
0
0
LINE
5
155
100
AcDbEntity
8
0
100
AcDbLine
10
-6.2906860066816765
20
3.7605743162264922
30
0
11
-17.146920089417108
21
3.7605743162367493
31
2.979148403290913e-31
0
ARC
5
156
100
AcDbEntity
8
0
100
AcDbCircle
10
-17.146920088384707
20
10.210574316236746
30
0
40
6.4499999999999966
210
0
220
0
230
1
100
AcDbArc
50
182.20417026826306
51
269.99999999082911
0
LINE
5
157
100
AcDbEntity
8
0
100
AcDbLine
10
-23.592147860517123
20
9.9625038316301016
30
0
11
-29.442605512961247
21
4.1120461788128821
31
0
0
ARC
5
158
100
AcDbEntity
8
0
100
AcDbCircle
10
-30.291133650385053
20
4.9605743162367988
30
-3.8590445990195158e-45
40
1.200000000000006
210
-1.3945222387367595e-31
220
1.3945222387369456e-31
230
1
100
AcDbArc
50
270.00000000000034
51
314.99999999999619
0
LINE
5
159
100
AcDbEntity
8
0
100
AcDbLine
10
-30.291133650385046
20
3.7605743162367928
30
1.6734266864843171e-31
11
-41.146920088385109
21
3.7605743162367493
31
0
0
ARC
5
160
100
AcDbEntity
8
0
100
AcDbCircle
10
-41.146920088385144
20
10.210574316236748
30
2.0613738107915032e-59
40
6.4500000000000037
210
1.401298464324816e-45
220
3.8893845486632125e-60
230
1
100
AcDbArc
50
182.20417026826652
51
270.00000000000034
0
LINE
5
161
100
AcDbEntity
8
0
100
AcDbLine
10
-47.592147860517557
20
9.9625038316297072
30
9.0316877793128175e-45
11
-53.442605512961222
21
4.1120461788128493
31
0
0
ARC
5
162
100
AcDbEntity
8
0
100
AcDbCircle
10
-54.291133650385063
20
4.9605743162367162
30
-2.0034188982143869e-44
40
1.2000000000000033
210
2.7890444774736227e-31
220
6.8691605509433133e-45
230
1
100
AcDbArc
50
269.99999999051153
51
314.99999999999915
0
LINE
5
163
100
AcDbEntity
8
0
100
AcDbLine
10
-54.291133650583788
20
3.7605743162367133
30
5.5414867784826887e-41
11
-65.146920088385116
21
3.760574316236764
31
0
0
ARC
5
164
100
AcDbEntity
8
0
100
AcDbCircle
10
-65.146920088385173
20
10.210574316236753
30
-9.3345229167917126e-60
40
6.4499999999999948
210
-2.8025969286496329e-45
220
-2.603942955330021e-59
230
1
100
AcDbArc
50
182.20417026826669
51
270.00000000000051
0
LINE
5
165
100
AcDbEntity
8
0
100
AcDbLine
10
-71.592147860517571
20
9.9625038316297054
30
-1.8063375558625588e-44
11
-77.442922071514715
21
4.1117296206465674
31
0
0
SPLINE
5
166
100
AcDbEntity
8
0
100
AcDbSpline
70
0
71
3
72
11
73
7
74
0
42
0.000000001
43
0.0000000001
44
0.0000000001
40
-0.00055981718436752146
40
-0.00055981718436752146
40
-0.00055981718436752146
40
-0.00055981718436752146
40
0
40
0
40
0
40
0.5
40
0.5
40
0.5
40
0.5
10
-77.442922071518566
20
4.1117296206427643
30
0
10
-77.443028060224407
20
4.1116245766813728
30
0
10
-77.443134048934056
20
4.1115195327162208
30
0
10
-77.443240037643648
20
4.1114144887511168
30
0
10
-77.55552698348697
20
4.0001284275709734
30
0
10
-77.686448695801204
20
3.9125536688310323
30
0
10
-77.831500157954665
20
3.8520906628994473
30
0
0
SPLINE
5
167
100
AcDbEntity
8
0
100
AcDbSpline
70
0
71
3
72
11
73
7
74
0
42
0.000000001
43
0.0000000001
44
0.0000000001
40
0.5
40
0.5
40
0.5
40
0.5
40
1
40
1
40
1
40
1.0005533994509568
40
1.0005533994509568
40
1.0005533994509568
40
1.0005533994509568
10
-77.831500139749835
20
3.8520906704879203
30
0
10
-77.976024735923545
20
3.7918472657506341
30
0
10
-78.130883778821513
20
3.7612897287318341
30
0
10
-78.290238324977807
20
3.7605763204356761
30
0
10
-78.290387552212223
20
3.7605756523659561
30
0
10
-78.290536779446654
20
3.7605749842962362
30
0
10
-78.290686006681014
20
3.7605743162265166
30
0
0
LINE
5
168
100
AcDbEntity
8
0
100
AcDbLine
10
-78.290686006681014
20
3.7605743162265162
30
0
11
-89.146920089417137
21
3.760574316236764
31
-2.4593758905067329e-31
0
ARC
5
169
100
AcDbEntity
8
0
100
AcDbCircle
10
-89.146920088385144
20
10.210574316236784
30
0
40
6.4500000000000135
210
0
220
0
230
1
100
AcDbArc
50
180
51
269.99999999083269
0
LINE
5
170
100
AcDbEntity
8
0
100
AcDbLine
10
-95.596920088385161
20
10.210574315798064
30
0
11
-95.596920088385133
21
29.71057431623678
31
0
0
ARC
5
171
100
AcDbEntity
8
0
100
AcDbCircle
10
-89.146920088385173
20
29.710574316236791
30
3.7221990458627953e-45
40
6.4499999999999691
210
1.4383464953527129e-31
220
-1.9721522630525304e-31
230
1
100
AcDbArc
50
90.000000013890244
51
180
0
LINE
5
172
100
AcDbEntity
8
0
100
AcDbLine
10
-89.14692008994885
20
36.160574316236762
30
1.2720382098937901e-30
11
-78.29068601465076
21
36.160574316226501
31
2.5583412456225529e-30
0
SPLINE
5
173
100
AcDbEntity
8
0
100
AcDbSpline
70
0
71
3
72
11
73
7
74
0
42
0.000000001
43
0.0000000001
44
0.0000000001
40
-0.00055981319990837906
40
-0.00055981319990837906
40
-0.00055981319990837906
40
-0.00055981319990837906
40
0
40
0
40
0
40
0.5
40
0.5
40
0.5
40
0.5
10
-78.290686014650362
20
36.160574316226501
30
0
10
-78.290536793065385
20
36.160573648200668
30
0
10
-78.290387571479911
20
36.16057298017482
30
0
10
-78.290238349894338
20
36.160572312148986
30
0
10
-78.132148349920527
20
36.15986458474795
30
0
10
-77.97764800366042
20
36.129213662831248
30
0
10
-77.832327321061896
20
36.06940059174115
30
0
0
SPLINE
5
174
100
AcDbEntity
8
0
100
AcDbSpline
70
0
71
3
72
11
73
7
74
0
42
0.000000001
43
0.0000000001
44
0.0000000001
40
0.5
40
0.5
40
0.5
40
0.5
40
1
40
1
40
1
40
1.0005533892381711
40
1.0005533892381711
40
1.0005533892381711
40
1.0005533892381711
10
-77.832327347087528
20
36.069400602453129
30
0
10
-77.687534483338027
20
36.00980480207992
30
0
10
-77.556425154838351
20
35.921910368184086
30
0
10
-77.44324003897249
20
35.809734145038988
30
0
10
-77.443134048978152
20
35.809629099802564
30
0
10
-77.443028058983785
20
35.809524054566111
30
0
10
-77.442922068985794
20
35.809419009326078
30
0
0
LINE
5
175
100
AcDbEntity
8
0
100
AcDbLine
10
-77.442922068985794
20
35.809419009326071
30
0
11
-71.592147860517528
21
29.9586448008438
31
0
0
ARC
5
176
100
AcDbEntity
8
0
100
AcDbCircle
10
-65.146920088385116
20
29.710574316236777
30
5.254869241218064e-45
40
6.4500000000000002
210
2.8531763827040736e-33
220
7.7541957707697387e-46
230
1
100
AcDbArc
50
89.999999999999247
51
177.79582973173345
0
SPLINE
5
177
100
AcDbEntity
8
0
100
AcDbSpline
70
0
71
3
72
9
73
5
74
0
42
0.000000001
43
0.0000000001
44
0.0000000001
40
-0.099998892635555697
40
-0.099998892635555697
40
-0.099998892635555697
40
-0.099998892635555697
40
-0.04762758800911164
40
0
40
0
40
0
40
0
10
-101.96998801082373
20
20.237380564213016
30
0
10
-102.12949829931088
20
20.159454973501553
30
0
10
-102.43407066630589
20
20.010662178769767
30
0
10
-102.63536861658054
20
19.738680299242077
30
0
10
-102.73124303668737
20
19.609140455723026
30
0
0
SPLINE
5
178
100
AcDbEntity
8
0
100
AcDbSpline
70
0
71
3
72
9
73
5
74
0
42
0.000000001
43
0.0000000001
44
0.0000000001
40
-0.093495940922795895
40
-0.093495940922795895
40
-0.093495940922795895
40
-0.093495940922795895
40
-0.047097200464443829
40
0
40
0
40
0
40
0
10
-102.73124303668737
20
19.609140455723026
30
0
10
-102.80167170149625
20
19.469473716216491
30
0
10
-102.94358922380815
20
19.188037774275276
30
0
10
-102.96295917552291
20
18.873376490528663
30
0
10
-102.97271650284529
20
18.714870512485721
30
0
0
SPLINE
5
179
100
AcDbEntity
8
0
100
AcDbSpline
70
0
71
3
72
9
73
5
74
0
42
0.000000001
43
0.0000000001
44
0.0000000001
40
-0.15769291614064801
40
-0.15769291614064801
40
-0.15769291614064801
40
-0.15769291614064801
40
-0.077085542354082645
40
0
40
0
40
0
40
0
10
-102.97271650284529
20
18.714870512485721
30
0
10
-102.94841671951852
20
18.437871413264062
30
0
10
-102.90087883911903
20
17.895975632857485
30
0
10
-102.51754015828901
20
17.511347552990173
30
0
10
-102.33015146106482
20
17.323328554630496
30
0
0
SPLINE
5
180
100
AcDbEntity
8
0
100
AcDbSpline
70
0
71
3
72
9
73
5
74
0
42
0.000000001
43
0.0000000001
44
0.0000000001
40
-0.14501281591293863
40
-0.14501281591293863
40
-0.14501281591293863
40
-0.14501281591293863
40
-0.075765595415873868
40
0
40
0
40
0
40
0
10
-102.33015146106482
20
17.323328554630496
30
0
10
-102.13163086790574
20
17.198056489038727
30
0
10
-101.71590255384405
20
16.935720255810956
30
0
10
-101.22417487277139
20
16.908046342807349
30
0
10
-100.96725936979055
20
16.893587410450198
30
0
0
SPLINE
5
181
100
AcDbEntity
8
0
100
AcDbSpline
70
0
71
3
72
9
73
5
74
0
42
0.000000001
43
0.0000000001
44
0.0000000001
40
-0.15333029337164777
40
-0.15333029337164777
40
-0.15333029337164777
40
-0.15333029337164777
40
-0.073025708620274188
40
0
40
0
40
0
40
0
10
-100.96725936979055
20
16.893587410450198
30
0
10
-100.69320516853008
20
16.910824908774192
30
0
10
-100.16993727281651
20
16.943737483855607
30
0
10
-99.754945529043439
20
17.261859588758007
30
0
10
-99.557299874722958
20
17.413369715213992
30
0
0
SPLINE
5
182
100
AcDbEntity
8
0
100
AcDbSpline
70
0
71
3
72
9
73
5
74
0
42
0.000000001
43
0.0000000001
44
0.0000000001
40
-0.1482323945891551
40
-0.1482323945891551
40
-0.1482323945891551
40
-0.1482323945891551
40
-0.07646383326205039
40
0
40
0
40
0
40
0
10
-99.557299874722958
20
17.413369715213992
30
0
10
-99.402755647215741
20
17.603732416643187
30
0
10
-99.083556537052218
20
17.996911805382759
30
0
10
-99.046435075805945
20
18.502950034288137
30
0
10
-99.027286432683468
20
18.763983547687747
30
0
0
SPLINE
5
183
100
AcDbEntity
8
0
100
AcDbSpline
70
0
71
3
72
9
73
5
74
0
42
0.000000001
43
0.0000000001
44
0.0000000001
40
-0.093611864706402675
40
-0.093611864706402675
40
-0.093611864706402675
40
-0.093611864706402675
40
-0.045794622206465553
40
0
40
0
40
0
40
0
10
-99.027286432683468
20
18.763983547687747
30
0
10
-99.037148265810586
20
18.925390200576274
30
0
10
-99.056454786642576
20
19.241376170552144
30
0
10
-99.211385822270316
20
19.517187970026452
30
0
10
-99.287177585065365
20
19.652114212513187
30
0
0
SPLINE
5
184
100
AcDbEntity
8
0
100
AcDbSpline
70
0
71
3
72
9
73
5
74
0
42
0.000000001
43
0.0000000001
44
0.0000000001
40
-0.096968554759978176
40
-0.096968554759978176
40
-0.096968554759978176
40
-0.096968554759978176
40
-0.050391674411495772
40
0
40
0
40
0
40
0
10
-99.287177585065365
20
19.652114212513187
30
0
10
-99.386839669445976
20
19.773873127815015
30
0
10
-99.594326478662282
20
20.02736339933222
30
0
10
-99.891798449785114
20
20.16556256655516
30
0
10
-100.04638578742743
20
20.237380564213016
30
0
0
SPLINE
5
185
100
AcDbEntity
8
0
100
AcDbSpline
70
0
71
3
72
9
73
5
74
0
42
0.000000001
43
0.0000000001
44
0.0000000001
40
-0.079524464651315685
40
-0.079524464651315685
40
-0.079524464651315685
40
-0.079524464651315685
40
-0.03878764545667119
40
0
40
0
40
0
40
0
10
-100.04638578742743
20
20.237380564213016
30
0
10
-99.923689837508647
20
20.299686241975007
30
0
10
-99.684168688703352
20
20.421316397856458
30
0
10
-99.517738820015808
20
20.631927506261722
30
0
10
-99.436563514173031
20
20.734651982784488
30
0
0
SPLINE
5
186
100
AcDbEntity
8
0
100
AcDbSpline
70
0
71
3
72
9
73
5
74
0
42
0.000000001
43
0.0000000001
44
0.0000000001
40
-0.078266074524622239
40
-0.078266074524622239
40
-0.078266074524622239
40
-0.078266074524622239
40
-0.039815070442187517
40
0
40
0
40
0
40
0
10
-99.436563514173031
20
20.734651982784488
30
0
10
-99.373301658360617
20
20.848120954190648
30
0
10
-99.244533704448017
20
21.07908425890091
30
0
10
-99.228038208909624
20
21.343153813689892
30
0
10
-99.219646714627743
20
21.477489769458987
30
0
0
SPLINE
5
187
100
AcDbEntity
8
0
100
AcDbSpline
70
0
71
3
72
9
73
5
74
0
42
0.000000001
43
0.0000000001
44
0.0000000001
40
-0.12340652126596313
40
-0.12340652126596313
40
-0.12340652126596313
40
-0.12340652126596313
40
-0.060988358247555836
40
0
40
0
40
0
40
0
10
-99.219646714627743
20
21.477489769458987
30
0
10
-99.238414295525885
20
21.690639288433644
30
0
10
-99.275519550778824
20
22.112055737976036
30
0
10
-99.554491663629221
20
22.429664993188197
30
0
10
-99.692361615598202
20
22.586629688739993
30
0
0
SPLINE
5
188
100
AcDbEntity
8
0
100
AcDbSpline
70
0
71
3
72
9
73
5
74
0
42
0.000000001
43
0.0000000001
44
0.0000000001
40
-0.14240256594790496
40
-0.14240256594790496
40
-0.14240256594790496
40
-0.14240256594790496
40
-0.076756848630705907
40
0
40
0
40
0
40
0
10
-99.692361615598202
20
22.586629688739993
30
0
10
-99.875571598556334
20
22.714152410701359
30
0
10
-100.27300151092128
20
22.990782228549385
30
0
10
-100.75867895229514
20
23.012727532472258
30
0
10
-101.02046545594931
20
23.024556338787296
30
0
0
SPLINE
5
189
100
AcDbEntity
8
0
100
AcDbSpline
70
0
71
3
72
9
73
5
74
0
42
0.000000001
43
0.0000000001
44
0.0000000001
40
-0.14282034441795044
40
-0.14282034441795044
40
-0.14282034441795044
40
-0.14282034441795044
40
-0.065557096921179003
40
0
40
0
40
0
40
0
10
-101.02046545594931
20
23.024556338787296
30
0
10
-101.28408161828321
20
23.013092877749731
30
0
10
-101.77137347202316
20
22.99190278405511
30
0
10
-102.16978412389679
20
22.714131626657924
30
0
10
-102.35266175121069
20
22.586629688739993
30
0
0
SPLINE
5
190
100
AcDbEntity
8
0
100
AcDbSpline
70
0
71
3
72
9
73
5
74
0
42
0.000000001
43
0.0000000001
44
0.0000000001
40
-0.12320930048641665
40
-0.12320930048641665
40
-0.12320930048641665
40
-0.12320930048641665
40
-0.062398872879944035
40
0
40
0
40
0
40
0
10
-102.35266175121069
20
22.586629688739993
30
0
10
-102.48933676592115
20
22.429525293040665
30
0
10
-102.76625691957342
20
22.111212736143017
30
0
10
-102.8027845980187
20
21.690538570716061
30
0
10
-102.82128389924765
20
21.477489769458987
30
0
0
SPLINE
5
191
100
AcDbEntity
8
0
100
AcDbSpline
70
0
71
3
72
9
73
5
74
0
42
0.000000001
43
0.0000000001
44
0.0000000001
40
-0.07577098528849352
40
-0.07577098528849352
40
-0.07577098528849352
40
-0.07577098528849352
40
-0.037727743662849506
40
0
40
0
40
0
40
0
10
-102.82128389924765
20
21.477489769458987
30
0
10
-102.81298396567163
20
21.349395291311247
30
0
10
-102.79645293103813
20
21.094268640570554
30
0
10
-102.67778085597737
20
20.86785265749343
30
0
10
-102.61869188398123
20
20.755116045475223
30
0
0
SPLINE
5
192
100
AcDbEntity
8
0
100
AcDbSpline
70
0
71
3
72
9
73
5
74
0
42
0.000000001
43
0.0000000001
44
0.0000000001
40
-0.084031344109264175
40
-0.084031344109264175
40
-0.084031344109264175
40
-0.084031344109264175
40
-0.044540553741769781
40
0
40
0
40
0
40
0
10
-102.61869188398123
20
20.755116045475223
30
0
10
-102.53698393226023
20
20.649544920236448
30
0
10
-102.36311987576411
20
20.424903086776357
30
0
10
-102.10617882118468
20
20.302343103723025
30
0
10
-101.96998801082373
20
20.237380564213016
30
0
0
SPLINE
5
193
100
AcDbEntity
8
0
100
AcDbSpline
70
0
71
3
72
9
73
5
74
0
42
0.000000001
43
0.0000000001
44
0.0000000001
40
-0.056732561713314866
40
-0.056732561713314866
40
-0.056732561713314866
40
-0.056732561713314866
40
-0.027160895418582579
40
0
40
0
40
0
40
0
10
-101.7326071485877
20
21.395634114742496
30
0
10
-101.72590564504424
20
21.496589089455192
30
0
10
-101.71304896461363
20
21.690268886733794
30
0
10
-101.59342484276748
20
21.842523459605815
30
0
10
-101.53615441173315
20
21.915415823459842
30
0
0
SPLINE
5
194
100
AcDbEntity
8
0
100
AcDbSpline
70
0
71
3
72
9
73
5
74
0
42
0.000000001
43
0.0000000001
44
0.0000000001
40
-0.057510259494651939
40
-0.057510259494651939
40
-0.057510259494651939
40
-0.057510259494651939
40
-0.030177240189083663
40
0
40
0
40
0
40
0
10
-101.53615441173315
20
21.915415823459842
30
0
10
-101.46254134996497
20
21.972676455788669
30
0
10
-101.30765519424408
20
22.093156150594574
30
0
10
-101.11124769847319
20
22.105428772606132
30
0
10
-101.0081871971488
20
22.111868560314395
30
0
0
SPLINE
5
195
100
AcDbEntity
8
0
100
AcDbSpline
70
0
71
3
72
9
73
5
74
0
42
0.000000001
43
0.0000000001
44
0.0000000001
40
-0.056072762671800794
40
-0.056072762671800794
40
-0.056072762671800794
40
-0.056072762671800794
40
-0.026862719874614163
40
0
40
0
40
0
40
0
10
-101.0081871971488
20
22.111868560314395
30
0
10
-100.90847032678305
20
22.105213502268178
30
0
10
-100.7170498470112
20
22.092438187525111
30
0
10
-100.56661373834652
20
21.97413704960255
30
0
10
-100.4945444688201
20
21.917462646961429
30
0
0
SPLINE
5
196
100
AcDbEntity
8
0
100
AcDbSpline
70
0
71
3
72
9
73
5
74
0
42
0.000000001
43
0.0000000001
44
0.0000000001
40
-0.056461494275796414
40
-0.056461494275796414
40
-0.056461494275796414
40
-0.056461494275796414
40
-0.029512772013270665
40
0
40
0
40
0
40
0
10
-100.4945444688201
20
21.917462646961429
30
0
10
-100.43787465206593
20
21.84503293558496
30
0
10
-100.31914314030423
20
21.693282151468317
30
0
10
-100.30666214882683
20
21.500497102359489
30
0
10
-100.3001382574439
20
21.399727165699222
30
0
0
SPLINE
5
197
100
AcDbEntity
8
0
100
AcDbSpline
70
0
71
3
72
9
73
5
74
0
42
0.000000001
43
0.0000000001
44
0.0000000001
40
-0.058498135452481323
40
-0.058498135452481323
40
-0.058498135452481323
40
-0.058498135452481323
40
-0.02746241737975464
40
0
40
0
40
0
40
0
10
-100.3001382574439
20
21.399727165699222
30
0
10
-100.30612851424019
20
21.293640032521488
30
0
10
-100.31741933898097
20
21.09368011949952
30
0
10
-100.43934977586943
20
20.935694999444451
30
0
10
-100.49659099429846
20
20.86152762174628
30
0
0
SPLINE
5
198
100
AcDbEntity
8
0
100
AcDbSpline
70
0
71
3
72
9
73
5
74
0
42
0.000000001
43
0.0000000001
44
0.0000000001
40
-0.057030261471691615
40
-0.057030261471691615
40
-0.057030261471691615
40
-0.057030261471691615
40
-0.029866075161623918
40
0
40
0
40
0
40
0
10
-100.49659099429846
20
20.86152762174628
30
0
10
-100.56990701779284
20
20.804860440876006
30
0
10
-100.72383145131803
20
20.685889671606269
30
0
10
-100.91851301674355
20
20.673571823887009
30
0
10
-101.02046545594931
20
20.667121112346866
30
0
0
SPLINE
5
199
100
AcDbEntity
8
0
100
AcDbSpline
70
0
71
3
72
9
73
5
74
0
42
0.000000001
43
0.0000000001
44
0.0000000001
40
-0.056370393929104541
40
-0.056370393929104541
40
-0.056370393929104541
40
-0.056370393929104541
40
-0.026866039778351777
40
0
40
0
40
0
40
0
10
-101.02046545594931
20
20.667121112346866
30
0
10
-101.12117979972622
20
20.673524865074612
30
0
10
-101.31360249110281
20
20.685759739359369
30
0
10
-101.46570759123028
20
20.80340963960543
30
0
10
-101.53820063918829
20
20.859481394291141
30
0
0
SPLINE
5
200
100
AcDbEntity
8
0
100
AcDbSpline
70
0
71
3
72
9
73
5
74
0
42
0.000000001
43
0.0000000001
44
0.0000000001
40
-0.058227689861456926
40
-0.058227689861456926
40
-0.058227689861456926
40
-0.058227689861456926
40
-0.030977098972030801
40
0
40
0
40
0
40
0
10
-101.53820063918829
20
20.859481394291141
30
0
10
-101.59484017384503
20
20.933185581859917
30
0
10
-101.71586467827773
20
21.090672977001518
30
0
10
-101.72679318762653
20
21.289733843356181
30
0
10
-101.7326071485877
20
21.395634114742496
30
0
0
SPLINE
5
201
100
AcDbEntity
8
0
100
AcDbSpline
70
0
71
3
72
9
73
5
74
0
42
0.000000001
43
0.0000000001
44
0.0000000001
40
-0.067170284606849651
40
-0.067170284606849651
40
-0.067170284606849651
40
-0.067170284606849651
40
-0.034022930187892965
40
0
40
0
40
0
40
0
10
-101.83901932090521
20
18.825375139713504
30
0
10
-101.82996705703974
20
18.93717641394835
30
0
10
-101.81162341692612
20
19.163732153958431
30
0
10
-101.69261460728428
20
19.357509331873487
30
0
10
-101.63233455270529
20
19.455660879612186
30
0
0
SPLINE
5
202
100
AcDbEntity
8
0
100
AcDbSpline
70
0
71
3
72
9
73
5
74
0
42
0.000000001
43
0.0000000001
44
0.0000000001
40
-0.071451244448509116
40
-0.071451244448509116
40
-0.071451244448509116
40
-0.071451244448509116
40
-0.037494296841835306
40
0
40
0
40
0
40
0
10
-101.63233455270529
20
19.455660879612186
30
0
10
-101.55129464557028
20
19.54035885451886
30
0
10
-101.38077277529325
20
19.718577927076524
30
0
10
-101.13373047794296
20
19.736725056659161
30
0
10
-101.00409414619207
20
19.746247828006961
30
0
0
SPLINE
5
203
100
AcDbEntity
8
0
100
AcDbSpline
70
0
71
3
72
9
73
5
74
0
42
0.000000001
43
0.0000000001
44
0.0000000001
40
-0.066911569571810603
40
-0.066911569571810603
40
-0.066911569571810603
40
-0.066911569571810603
40
-0.033048517223450639
40
0
40
0
40
0
40
0
10
-101.00409414619207
20
19.746247828006961
30
0
10
-100.88845699666295
20
19.736118001804755
30
0
10
-100.65996421059612
20
19.716102010224713
30
0
10
-100.48759334954313
20
19.565054237457801
30
0
10
-100.40245708078146
20
19.49044972658179
30
0
0
SPLINE
5
204
100
AcDbEntity
8
0
100
AcDbSpline
70
0
71
3
72
9
73
5
74
0
42
0.000000001
43
0.0000000001
44
0.0000000001
40
-0.073119787603004055
40
-0.073119787603004055
40
-0.073119787603004055
40
-0.073119787603004055
40
-0.03847202522659688
40
0
40
0
40
0
40
0
10
-100.40245708078146
20
19.49044972658179
30
0
10
-100.33327261299513
20
19.39493172765815
30
0
10
-100.1872674096863
20
19.193352886355644
30
0
10
-100.17272697566753
20
18.944192491528248
30
0
10
-100.16507651656866
20
18.813096582889774
30
0
0
SPLINE
5
205
100
AcDbEntity
8
0
100
AcDbSpline
70
0
71
3
72
9
73
5
74
0
42
0.000000001
43
0.0000000001
44
0.0000000001
40
-0.078835314831237097
40
-0.078835314831237097
40
-0.078835314831237097
40
-0.078835314831237097
40
-0.035822193284843006
40
0
40
0
40
0
40
0
10
-100.16507651656866
20
18.813096582889774
30
0
10
-100.17071635330251
20
18.666421888152513
30
0
10
-100.18105315957288
20
18.397593555735032
30
0
10
-100.33047027711538
20
18.175341543809612
30
0
10
-100.39836432784796
20
18.074351847172
30
0
0
SPLINE
5
206
100
AcDbEntity
8
0
100
AcDbSpline
70
0
71
3
72
9
73
5
74
0
42
0.000000001
43
0.0000000001
44
0.0000000001
40
-0.065793287653916566
40
-0.065793287653916566
40
-0.065793287653916566
40
-0.065793287653916566
40
-0.03316000606777017
40
0
40
0
40
0
40
0
10
-100.39836432784796
20
18.074351847172
30
0
10
-100.48171110394613
20
17.999745571179243
30
0
10
-100.64974993266082
20
17.849328820592241
30
0
10
-100.87446572784904
20
17.828866708865373
30
0
10
-100.98772313445807
20
17.818553745746829
30
0
0
SPLINE
5
207
100
AcDbEntity
8
0
100
AcDbSpline
70
0
71
3
72
9
73
5
74
0
42
0.000000001
43
0.0000000001
44
0.0000000001
40
-0.067933661516469096
40
-0.067933661516469096
40
-0.067933661516469096
40
-0.067933661516469096
40
-0.033870846217388076
40
0
40
0
40
0
40
0
10
-100.98772313445807
20
17.818553745746829
30
0
10
-101.10399586474954
20
17.829512198437921
30
0
10
-101.33588604275927
20
17.85136734485857
30
0
10
-101.50912504653448
20
18.006991424425166
30
0
10
-101.59549977630377
20
18.084583580494144
30
0
0
SPLINE
5
208
100
AcDbEntity
8
0
100
AcDbSpline
70
0
71
3
72
9
73
5
74
0
42
0.000000001
43
0.0000000001
44
0.0000000001
40
-0.079384307195688106
40
-0.079384307195688106
40
-0.079384307195688106
40
-0.079384307195688106
40
-0.042694193292618483
40
0
40
0
40
0
40
0
10
-101.59549977630377
20
18.084583580494144
30
0
10
-101.66641838765445
20
18.187192716771385
30
0
10
-101.819860942895
20
18.409202253641077
30
0
10
-101.83231911169008
20
18.679828089495395
30
0
10
-101.83901932090521
20
18.825375139713504
30
0
0
LINE
5
209
100
AcDbEntity
8
0
100
AcDbLine
10
107.31787030398849
20
16.999999582767703
30
0
11
107.31787030398849
21
23.024556338787292
31
0
0
LINE
5
210
100
AcDbEntity
8
0
100
AcDbLine
10
107.31787030398849
20
23.024556338787292
30
0
11
106.3847190588713
21
23.024556338787296
31
0
0
SPLINE
5
211
100
AcDbEntity
8
0
100
AcDbSpline
70
0
71
3
72
9
73
5
74
0
42
0.000000001
43
0.0000000001
44
0.0000000001
40
-0.12149456133225527
40
-0.12149456133225527
40
-0.12149456133225527
40
-0.12149456133225527
40
-0.062981226223173509
40
0
40
0
40
0
40
0
10
106.3847190588713
20
23.024556338787296
30
0
10
106.30237911180551
20
22.845131388876613
30
0
10
106.13141200268019
20
22.472581173770578
30
0
10
105.82113970233669
20
22.204020282631941
30
0
10
105.66029851138595
20
22.064801752567508
30
0
0
SPLINE
5
212
100
AcDbEntity
8
0
100
AcDbSpline
70
0
71
3
72
9
73
5
74
0
42
0.000000001
43
0.0000000001
44
0.0000000001
40
-0.11305234743905967
40
-0.11305234743905967
40
-0.11305234743905967
40
-0.11305234743905967
40
-0.05158282807166964
40
0
40
0
40
0
40
0
10
105.66029851138595
20
22.064801752567508
30
0
10
105.49542346171165
20
21.941436889277991
30
0
10
105.19219168779122
20
21.714549034453192
30
0
10
104.84193819170378
20
21.571437012841997
30
0
10
104.68212668597701
20
21.506138741970279
30
0
0
LINE
5
213
100
AcDbEntity
8
0
100
AcDbLine
10
104.682126685977
20
21.506138741970275
30
0
11
104.68212668597701
21
20.462482273578861
31
0
0
SPLINE
5
214
100
AcDbEntity
8
0
100
AcDbSpline
70
0
71
3
72
9
73
5
74
0
42
0.000000001
43
0.0000000001
44
0.0000000001
40
-0.17329306528995478
40
-0.17329306528995478
40
-0.17329306528995478
40
-0.17329306528995478
40
-0.085682339679994612
40
0
40
0
40
0
40
0
10
104.68212668597701
20
20.462482273578861
30
0
10
104.95667940253352
20
20.568291452353272
30
0
10
105.49974169889639
20
20.777580860675972
30
0
10
105.94677338008731
20
21.15007030906834
30
0
10
106.16780196130279
20
21.334242522716739
30
0
0
LINE
5
215
100
AcDbEntity
8
0
100
AcDbLine
10
106.16780196130279
20
21.334242522716739
30
0
11
106.16780196130279
21
16.999999582767703
31
0
0
LINE
5
216
100
AcDbEntity
8
0
100
AcDbLine
10
106.16780196130279
20
16.999999582767703
30
0
11
107.31787030398849
21
16.999999582767703
31
0
0
CIRCLE
5
217
100
AcDbEntity
8
0
100
AcDbCircle
10
-100.01092364258321
20
32.200000000000422
30
0
40
1.6000000000000014
210
-9.9500988215193532e-76
220
-1.9721522630525295e-31
230
1
0
CIRCLE
5
218
100
AcDbEntity
8
0
100
AcDbCircle
10
-100.01092364258325
20
12.200000000000419
30
0
40
1.6000000000000014
210
-9.9500988215193532e-76
220
-1.9721522630525295e-31
230
1
0
CIRCLE
5
219
100
AcDbEntity
8
0
100
AcDbCircle
10
105.98907635741691
20
32.200000000000458
30
0
40
1.6000000000000014
210
-9.9500988215193532e-76
220
-1.9721522630525295e-31
230
1
0
CIRCLE
5
220
100
AcDbEntity
8
0
100
AcDbCircle
10
105.98907635741681
20
12.20000000000045
30
0
40
1.6000000000000014
210
-9.9500988215193532e-76
220
-1.9721522630525295e-31
230
1
0
ENDSEC
0
SECTION
2
OBJECTS
0
DICTIONARY
5
C
100
AcDbDictionary
3
ACAD_GROUP
350
D
3
ACAD_MLINESTYLE
350
17
0
DICTIONARY
5
D
100
AcDbDictionary
0
DICTIONARY
5
1A
330
C
100
AcDbDictionary
0
DICTIONARY
5
17
100
AcDbDictionary
0
ENDSEC
0
EOF
