0
SECTION
2
HEADER
9
$INSUNITS
70
4
9
$ACADVER
1
AC1014
9
$HANDSEED
5
FFFF
0
ENDSEC
0
SECTION
2
TABLES
0
TABLE
2
VPORT
5
8
100
AcDbSymbolTable
0
ENDTAB
0
TABLE
2
LTYPE
5
5
100
AcDbSymbolTable
0
LTYPE
5
14
100
AcDbSymbolTableRecord
100
AcDbLinetypeTableRecord
2
BYBLOCK
70
0
0
LTYPE
5
15
100
AcDbSymbolTableRecord
100
AcDbLinetypeTableRecord
2
BYLAYER
70
0
0
LTYPE
5
16
100
AcDbSymbolTableRecord
100
AcDbLinetypeTableRecord
2
DASHED
70
0
3
Dashed __ __ __ __ __ __ __ __ __ __ __ __ __ _
72
65
73
2
40
0.75
49
0.5
74
0
49
-0.25
74
0
0
ENDTAB
0
TABLE
2
LAYER
5
2
100
AcDbSymbolTable
70
2
0
LAYER
5
50
100
AcDbSymbolTableRecord
100
AcDbLayerTableRecord
2
0
70
0
62
7
6
CONTINUOUS
0
ENDTAB
0
TABLE
2
STYLE
5
3
100
AcDbSymbolTable
70
1
0
STYLE
5
11
100
AcDbSymbolTableRecord
100
AcDbTextStyleTableRecord
2
STANDARD
70
0
0
ENDTAB
0
TABLE
2
VIEW
5
6
100
AcDbSymbolTable
70
0
0
ENDTAB
0
TABLE
2
UCS
5
7
100
AcDbSymbolTable
70
0
0
ENDTAB
0
TABLE
2
APPID
5
9
100
AcDbSymbolTable
70
2
0
APPID
5
12
100
AcDbSymbolTableRecord
100
AcDbRegAppTableRecord
2
ACAD
70
0
0
ENDTAB
0
TABLE
2
DIMSTYLE
5
A
100
AcDbSymbolTable
70
1
0
ENDTAB
0
TABLE
2
BLOCK_RECORD
5
1
100
AcDbSymbolTable
70
1
0
BLOCK_RECORD
5
1F
100
AcDbSymbolTableRecord
100
AcDbBlockTableRecord
2
*MODEL_SPACE
0
BLOCK_RECORD
5
1B
100
AcDbSymbolTableRecord
100
AcDbBlockTableRecord
2
*PAPER_SPACE
0
ENDTAB
0
ENDSEC
0
SECTION
2
BLOCKS
0
BLOCK
5
20
100
AcDbEntity
100
AcDbBlockBegin
2
*MODEL_SPACE
0
ENDBLK
5
21
100
AcDbEntity
100
AcDbBlockEnd
0
BLOCK
5
1C
100
AcDbEntity
100
AcDbBlockBegin
2
*PAPER_SPACE
0
ENDBLK
5
1D
100
AcDbEntity
100
AcDbBlockEnd
0
ENDSEC
0
SECTION
2
ENTITIES
0
SPLINE
5
100
100
AcDbEntity
8
0
100
AcDbSpline
70
6
71
3
72
26
73
22
74
0
42
0.000000001
43
0.0000000001
44
0.0000000001
40
-1.6261945519736511
40
-1.6261945519736511
40
-1.6261945519736511
40
-1.6261945519736511
40
-1.5738782893868695
40
-1.5738782893868695
40
-1.3599011283437454
40
-1.3599011283437454
40
-1.1486930820276886
40
-1.1486930820276886
40
-0.94154830527274336
40
-0.94154830527274336
40
-0.74213554847995544
40
-0.74213554847995544
40
-0.55785993206550555
40
-0.55785993206550555
40
-0.38766912719760266
40
-0.38766912719760266
40
-0.22253188605955307
40
-0.22253188605955307
40
-0.085589186945981943
40
-0.085589186945981943
40
0
40
0
40
0
40
0
41
1
41
1
41
1
41
1
41
1
41
1
41
1
41
1
41
1
41
1
41
1
41
1
41
1
41
1
41
1
41
1
41
1
41
1
41
1
41
1
41
1
41
1
10
101.56730747235315
20
14.200000000000392
30
0
10
101.56730747235235
20
14.024816119316624
30
0
10
101.58507288955127
20
13.849636831616079
30
0
10
101.76409323512689
20
12.976087947121391
30
0
10
102.21243954253615
20
12.342073740201347
30
0
10
103.43221484612195
20
11.607735456276792
30
0
10
104.19034986549542
20
11.505623498003585
30
0
10
105.53892156879407
20
11.88487369200795
30
0
10
106.12332358219956
20
12.351991438140928
30
0
10
106.77158288112857
20
13.549126487849577
30
0
10
106.85098907194346
20
14.261156955561693
30
0
10
106.50312084293117
20
15.497974935206969
30
0
10
106.11679434883554
20
16.027638933619841
30
0
10
105.12697008601791
20
16.682706027845036
30
0
10
104.54619798874791
20
16.834620204679609
30
0
10
103.42631396393409
20
16.752784520690341
30
0
10
102.88958093336532
20
16.530921604207393
30
0
10
102.12312429832066
20
15.870806696729025
30
0
10
101.85707811756271
20
15.47793631797412
30
0
10
101.61512297241634
20
14.773145057228321
30
0
10
101.56730747235315
20
14.486600096650832
30
0
10
101.56730747235315
20
14.200000000000392
30
0
0
SPLINE
5
101
100
AcDbEntity
8
0
100
AcDbSpline
70
6
71
3
72
26
73
22
74
0
42
0.000000001
43
0.0000000001
44
0.0000000001
40
-1.626194551973652
40
-1.626194551973652
40
-1.626194551973652
40
-1.626194551973652
40
-1.5738782893910956
40
-1.5738782893910956
40
-1.3599011283465128
40
-1.3599011283465128
40
-1.1486930820288832
40
-1.1486930820288832
40
-0.94154830527368549
40
-0.94154830527368549
40
-0.74213554848036589
40
-0.74213554848036589
40
-0.55785993206533679
40
-0.55785993206533679
40
-0.38766912719714519
40
-0.38766912719714519
40
-0.22253188605955171
40
-0.22253188605955171
40
-0.08558918694598143
40
-0.08558918694598143
40
0
40
0
40
0
40
0
41
1
41
1
41
1
41
1
41
1
41
1
41
1
41
1
41
1
41
1
41
1
41
1
41
1
41
1
41
1
41
1
41
1
41
1
41
1
41
1
41
1
41
1
10
-100.73269252764689
20
34.200000000000415
30
0
10
-100.73269252764766
20
34.024816119330794
30
0
10
-100.71492711045164
20
33.849636831644389
30
0
10
-100.53590676489215
20
32.976087947155982
30
0
10
-100.08756045748797
20
32.342073740224834
30
0
10
-98.867785153901323
20
31.607735456281976
30
0
10
-98.10965013452234
20
31.50562349800196
30
0
10
-96.761078431215395
20
31.884873692002014
30
0
10
-96.176676417807641
20
32.351991438133012
30
0
10
-95.528417118872952
20
33.549126487841768
30
0
10
-95.449010928055969
20
34.261156955555691
30
0
10
-95.796879157067394
20
35.497974935205249
30
0
10
-96.183205651164087
20
36.027638933620096
30
0
10
-97.17302991398472
20
36.682706027846301
30
0
10
-97.753802011255829
20
36.83462020468037
30
0
10
-98.873686036069088
20
36.752784520689126
30
0
10
-99.410419066635967
20
36.530921604206334
30
0
10
-100.17687570167942
20
35.870806696728948
30
0
10
-100.44292188243739
20
35.477936317974056
30
0
10
-100.68487702758372
20
34.773145057228326
30
0
10
-100.73269252764689
20
34.486600096650847
30
0
10
-100.73269252764689
20
34.200000000000415
30
0
0
LINE
5
102
100
AcDbEntity
8
0
100
AcDbLine
10
-95.510923642583307
20
9.1608320801838783
30
0
11
-95.510923642583293
21
30.76031655228978
31
0
0
ARC
5
103
100
AcDbEntity
8
0
100
AcDbCircle
10
-89.146920088385201
20
29.710574316236794
30
2.5179581780836557e-45
40
6.4499999999999647
210
9.7292899313846338e-32
220
-1.6048461445377735e-32
230
1
100
AcDbArc
50
90.000000013890002
51
170.63340510466361
0
LINE
5
104
100
AcDbEntity
8
0
100
AcDbLine
10
-89.14692008994885
20
36.160574316236762
30
1.0351257647482096e-31
11
-78.290686014650362
21
36.160574316226501
31
2.9391682443472223e-30
0
SPLINE
5
105
100
AcDbEntity
8
0
100
AcDbSpline
70
0
71
3
72
11
73
7
74
0
42
0.000000001
43
0.0000000001
44
0.0000000001
40
-0.00055981319941968816
40
-0.00055981319941968816
40
-0.00055981319941968816
40
-0.00055981319941968816
40
0
40
0
40
0
40
0.5
40
0.5
40
0.5
40
0.5
10
-78.290686014650319
20
36.160574316226501
30
0
10
-78.290536793065115
20
36.160573648200668
30
0
10
-78.290387571479783
20
36.160572980174827
30
0
10
-78.290238349894338
20
36.160572312148986
30
0
10
-78.132148349920527
20
36.15986458474795
30
0
10
-77.97764800366042
20
36.129213662831248
30
0
10
-77.832327321061896
20
36.06940059174115
30
0
0
SPLINE
5
106
100
AcDbEntity
8
0
100
AcDbSpline
70
0
71
3
72
11
73
7
74
0
42
0.000000001
43
0.0000000001
44
0.0000000001
40
0.5
40
0.5
40
0.5
40
0.5
40
1
40
1
40
1
40
1.0005533892381711
40
1.0005533892381711
40
1.0005533892381711
40
1.0005533892381711
10
-77.832327347087528
20
36.069400602453129
30
0
10
-77.687534483338027
20
36.00980480207992
30
0
10
-77.556425154838351
20
35.921910368184086
30
0
10
-77.44324003897249
20
35.809734145038988
30
0
10
-77.443134048978152
20
35.809629099802564
30
0
10
-77.443028058983785
20
35.809524054566111
30
0
10
-77.442922068985794
20
35.809419009326078
30
0
0
LINE
5
107
100
AcDbEntity
8
0
100
AcDbLine
10
-77.442922068985794
20
35.809419009326071
30
0
11
-74.517534964751661
21
32.884031905085152
31
0
0
LINE
5
108
100
AcDbEntity
8
0
100
AcDbLine
10
-74.517534964751661
20
32.884031905085152
30
0
11
-70.762226574391107
21
32.884031905085102
31
0
0
ARC
5
109
100
AcDbEntity
8
0
100
AcDbCircle
10
-65.146920088385102
20
29.710574316236755
30
0
40
6.4500000000000224
210
0
220
-0
230
1
100
AcDbArc
50
89.999999999999375
51
150.52729164757329
0
LINE
5
110
100
AcDbEntity
8
0
100
AcDbLine
10
-65.146920088385031
20
36.160574316236776
30
0
11
-54.291133650385106
21
36.16057431623679
31
0
0
ARC
5
111
100
AcDbEntity
8
0
100
AcDbCircle
10
-54.291133650385106
20
34.960574316236773
30
0
40
1.2000000000000177
210
0
220
-0
230
1
100
AcDbArc
50
44.999999999712607
51
90
0
LINE
5
112
100
AcDbEntity
8
0
100
AcDbLine
10
-53.44260551295698
20
35.809102453656386
30
0
11
-50.517534964561925
21
32.884031905085152
31
0
0
LINE
5
113
100
AcDbEntity
8
0
100
AcDbLine
10
-50.517534964561925
20
32.884031905085152
30
0
11
-46.762226574391136
21
32.884031905085102
31
0
0
ARC
5
114
100
AcDbEntity
8
0
100
AcDbCircle
10
-41.146920088385116
20
29.710574316236787
30
-4.3243194797523652e-45
40
6.4500000000000179
210
-1.8287846918765157e-31
220
-1.2317780792769186e-31
230
1
100
AcDbArc
50
89.999999999999119
51
150.52729164757361
0
LINE
5
115
100
AcDbEntity
8
0
100
AcDbLine
10
-41.146920088385016
20
36.160574316236804
30
7.9449686113362977e-31
11
-30.291133650385078
21
36.160574316236804
31
0
0
ARC
5
116
100
AcDbEntity
8
0
100
AcDbCircle
10
-30.291133650385081
20
34.96057431623683
30
7.2528143173061821e-45
40
1.199999999999974
210
2.1895288505075267e-45
220
-1.9721522630525002e-31
230
1
100
AcDbArc
50
44.999999999711768
51
89.999999999999844
0
LINE
5
117
100
AcDbEntity
8
0
100
AcDbLine
10
-29.442605512956973
20
35.809102453656401
30
1.6734266864757836e-31
11
-26.517534964561918
21
32.884031905085152
31
0
0
LINE
5
118
100
AcDbEntity
8
0
100
AcDbLine
10
-26.517534964561918
20
32.884031905085152
30
0
11
-22.762226574391036
21
32.884031905085102
31
0
0
ARC
5
119
100
AcDbEntity
8
0
100
AcDbCircle
10
-17.146920088385038
20
29.710574316236645
30
7.1159687641494617e-45
40
6.4500000000000712
210
-8.5846817008606245e-32
220
4.8515826089524619e-32
230
1
100
AcDbArc
50
90.000000013890727
51
150.52729164757241
0
LINE
5
120
100
AcDbEntity
8
0
100
AcDbLine
10
-17.146920089948768
20
36.160574316236719
30
-3.1292707841167123e-31
11
-6.29068601465314
21
36.160574316226494
31
-2.2301786609712474e-30
0
SPLINE
5
121
100
AcDbEntity
8
0
100
AcDbSpline
70
0
71
3
72
11
73
7
74
0
42
0.000000001
43
0.0000000001
44
0.0000000001
40
-0.00055981319958824322
40
-0.00055981319958824322
40
-0.00055981319958824322
40
-0.00055981319958824322
40
0
40
0
40
0
40
0.5
40
0.5
40
0.5
40
0.5
10
-6.29068601465314
20
36.160574316226494
30
0
10
-6.2905367930654208
20
36.160573648200639
30
0
10
-6.2903875714800321
20
36.160572980174805
30
0
10
-6.2902383498945387
20
36.160572312148965
30
0
10
-6.1321483499205041
20
36.159864584747943
30
0
10
-5.9776480036604092
20
36.129213662831219
30
0
10
-5.8323273210618973
20
36.069400591741136
30
0
0
SPLINE
5
122
100
AcDbEntity
8
0
100
AcDbSpline
70
0
71
3
72
11
73
7
74
0
42
0.000000001
43
0.0000000001
44
0.0000000001
40
0.5
40
0.5
40
0.5
40
0.5
40
1
40
1
40
1
40
1.0005533892392495
40
1.0005533892392495
40
1.0005533892392495
40
1.0005533892392495
10
-5.8323273470875217
20
36.069400602453115
30
0
10
-5.6875344833380295
20
36.009804802079898
30
0
10
-5.5564251548383385
20
35.921910368184072
30
0
10
-5.4432400389724789
20
35.809734145038959
30
0
10
-5.4431340489777815
20
35.809629099802173
30
0
10
-5.4430280589831028
20
35.809524054565408
30
0
10
-5.442922068988171
20
35.809419009328394
30
0
0
LINE
5
123
100
AcDbEntity
8
0
100
AcDbLine
10
-5.4429220689881692
20
35.809419009328394
30
0
11
0.80307991161492454
21
29.563417028711374
31
0
0
LINE
5
124
100
AcDbEntity
8
0
100
AcDbLine
10
0.80307991161492454
20
29.563417028711374
30
0
11
0.80307991161491799
21
10.357731603762129
31
0
0
LINE
5
125
100
AcDbEntity
8
0
100
AcDbLine
10
0.80307991161491799
20
10.357731603762129
30
0
11
-5.4429220715125286
21
4.1117296206487186
31
0
0
SPLINE
5
126
100
AcDbEntity
8
0
100
AcDbSpline
70
0
71
3
72
11
73
7
74
0
42
0.000000001
43
0.0000000001
44
0.0000000001
40
-0.00055981718757426211
40
-0.00055981718757426211
40
-0.00055981718757426211
40
-0.00055981718757426211
40
0
40
0
40
0
40
0.5
40
0.5
40
0.5
40
0.5
10
-5.4429220715125286
20
4.1117296206487195
30
0
10
-5.443028060222888
20
4.1116245766828632
30
0
10
-5.4431340489330786
20
4.1115195327171721
30
0
10
-5.4432400376432621
20
4.1114144887514881
30
0
10
-5.5555269834869572
20
4.0001284275709601
30
0
10
-5.6864486958011904
20
3.9125536688310119
30
0
10
-5.8315001579546566
20
3.8520906628994251
30
0
0
SPLINE
5
127
100
AcDbEntity
8
0
100
AcDbSpline
70
0
71
3
72
11
73
7
74
0
42
0.000000001
43
0.0000000001
44
0.0000000001
40
0.5
40
0.5
40
0.5
40
0.5
40
1
40
1
40
1
40
1.0005533994513571
40
1.0005533994513571
40
1.0005533994513571
40
1.0005533994513571
10
-5.8315001397498172
20
3.8520906704879003
30
0
10
-5.9760247359235379
20
3.791847265750615
30
0
10
-6.1308837788215031
20
3.7612897287318141
30
0
10
-6.2902383249777944
20
3.7605763204356562
30
0
10
-6.2903875522123158
20
3.7605756523659348
30
0
10
-6.2905367794468443
20
3.760574984296214
30
0
10
-6.2906860066816748
20
3.7605743162264926
30
0
0
LINE
5
128
100
AcDbEntity
8
0
100
AcDbLine
10
-6.2906860066816765
20
3.7605743162264922
30
0
11
-17.146920089417108
21
3.7605743162367515
31
0
0
ARC
5
129
100
AcDbEntity
8
0
100
AcDbCircle
10
-17.146920088384704
20
10.210574316236759
30
0
40
6.4500000000000046
210
0
220
0
230
1
100
AcDbArc
50
209.47109337742438
51
269.99999999082905
0
LINE
5
130
100
AcDbEntity
8
0
100
AcDbLine
10
-22.762316021238501
20
7.037275005221626
30
0
11
-26.517376686739222
21
7.0372750052216784
31
0
0
LINE
5
131
100
AcDbEntity
8
0
100
AcDbLine
10
-26.517376686739222
20
7.0372750052216784
30
0
11
-29.442605512961251
21
4.1120461788128813
31
0
0
ARC
5
132
100
AcDbEntity
8
0
100
AcDbCircle
10
-30.291133650385056
20
4.9605743162368032
30
0
40
1.2000000000000104
210
0
220
0
230
1
100
AcDbArc
50
270.00000000000034
51
314.99999999999608
0
LINE
5
133
100
AcDbEntity
8
0
100
AcDbLine
10
-30.291133650385049
20
3.7605743162367928
30
0
11
-41.146920088385109
21
3.7605743162367418
31
0
0
ARC
5
134
100
AcDbEntity
8
0
100
AcDbCircle
10
-41.14692008838513
20
10.210574316236766
30
0
40
6.4500000000000268
210
0
220
0
230
1
100
AcDbArc
50
209.47109337742438
51
270.00000000000023
0
LINE
5
135
100
AcDbEntity
8
0
100
AcDbLine
10
-46.762316021238945
20
7.0372750052216224
30
0
11
-50.517376686739212
21
7.0372750052216784
31
0
0
LINE
5
136
100
AcDbEntity
8
0
100
AcDbLine
10
-50.517376686739212
20
7.0372750052216784
30
0
11
-53.442605512961222
21
4.1120461788128431
31
0
0
ARC
5
137
100
AcDbEntity
8
0
100
AcDbCircle
10
-54.291133650385049
20
4.9605743162366975
30
-5.8159360091606177e-45
40
1.1999999999999844
210
1.3945222387368418e-31
220
1.3945222387368742e-31
230
1
100
AcDbArc
50
269.9999999905109
51
314.99999999999909
0
LINE
5
138
100
AcDbEntity
8
0
100
AcDbLine
10
-54.291133650583788
20
3.7605743162367133
30
1.6734266867613148e-31
11
-65.146920088385116
21
3.7605743162367582
31
0
0
ARC
5
139
100
AcDbEntity
8
0
100
AcDbCircle
10
-65.146920088385158
20
10.210574316236789
30
0
40
6.450000000000033
210
0
220
0
230
1
100
AcDbArc
50
209.47109337742464
51
270.00000000000034
0
LINE
5
140
100
AcDbEntity
8
0
100
AcDbLine
10
-70.762316021238959
20
7.037275005221618
30
0
11
-74.51737668693282
21
7.0372750052216784
31
0
0
LINE
5
141
100
AcDbEntity
8
0
100
AcDbLine
10
-74.51737668693282
20
7.0372750052216784
30
0
11
-77.442922071518566
21
4.1117296206427651
31
9.8607613152626476e-31
0
SPLINE
5
142
100
AcDbEntity
8
0
100
AcDbSpline
70
0
71
3
72
11
73
7
74
0
42
0.000000001
43
0.0000000001
44
0.0000000001
40
-0.00055981717760493857
40
-0.00055981717760493857
40
-0.00055981717760493857
40
-0.00055981717760493857
40
0
40
0
40
0
40
0.5
40
0.5
40
0.5
40
0.5
10
-77.442922071519178
20
4.1117296206421541
30
0
10
-77.443028060226965
20
4.1116245766788353
30
0
10
-77.443134048935335
20
4.1115195327149516
30
0
10
-77.443240037643648
20
4.1114144887511168
30
0
10
-77.55552698348697
20
4.0001284275709734
30
0
10
-77.686448695801204
20
3.9125536688310323
30
0
10
-77.831500157954665
20
3.8520906628994473
30
0
0
SPLINE
5
143
100
AcDbEntity
8
0
100
AcDbSpline
70
0
71
3
72
11
73
7
74
0
42
0.000000001
43
0.0000000001
44
0.0000000001
40
0.5
40
0.5
40
0.5
40
0.5
40
1
40
1
40
1
40
1.0005533994508797
40
1.0005533994508797
40
1.0005533994508797
40
1.0005533994508797
10
-77.831500139749835
20
3.8520906704879203
30
0
10
-77.976024735923545
20
3.7918472657506341
30
0
10
-78.130883778821513
20
3.7612897287318341
30
0
10
-78.290238324977807
20
3.7605763204356761
30
0
10
-78.290387552212209
20
3.7605756523659566
30
0
10
-78.290536779446597
20
3.7605749842962362
30
0
10
-78.290686006681327
20
3.7605743162265148
30
0
0
LINE
5
144
100
AcDbEntity
8
0
100
AcDbLine
10
-78.290686006681327
20
3.7605743162265144
30
0
11
-89.146920089417137
21
3.7605743162367693
31
0
0
ARC
5
145
100
AcDbEntity
8
0
100
AcDbCircle
10
-89.14692008838513
20
10.210574316236801
30
0
40
6.4500000000000366
210
0
220
0
230
1
100
AcDbArc
50
189.36659489533571
51
269.99999999083263
0
ARC
5
146
100
AcDbEntity
8
0
100
AcDbCircle
10
34.853079911614905
20
10.210574316236734
30
1.7516230804060213e-45
40
6.4499999999998989
210
4.4009529895201274e-45
220
-1.9721522630525291e-31
230
1
100
AcDbArc
50
209.47109337742413
51
270.0000000000004
0
LINE
5
147
100
AcDbEntity
8
0
100
AcDbLine
10
29.237683978761186
20
7.0372750052216766
30
-6.2582294175611101e-31
11
25.482623313067307
21
7.0372750052216784
31
0
0
LINE
5
148
100
AcDbEntity
8
0
100
AcDbLine
10
25.482623313067307
20
7.0372750052216784
30
0
11
22.557077928488212
21
4.1117296206493661
31
0
0
ELLIPSE
5
149
100
AcDbEntity
8
0
100
AcDbEllipse
10
18.4441681811847
20
10.183224122620828
30
0
11
-3.9001886085388069
21
6.2404050329238157
31
0.0
40
0.40329691008095842
41
3.0750938453433765
42
3.2326631569883073
0
ELLIPSE
5
150
100
AcDbEntity
8
0
100
AcDbEllipse
10
19.962999637004124
20
10.920009082720814
30
0
11
-2.0831111211371685
21
7.1112237734666834
31
0.0
40
0.39822865036007959
41
3.0272195174793106
42
3.1855349815166458
0
LINE
5
151
100
AcDbEntity
8
0
100
AcDbLine
10
21.709313993318375
20
3.7605743162264735
30
0
11
10.853079910582931
21
3.7605743162367351
31
0
0
ARC
5
152
100
AcDbEntity
8
0
100
AcDbCircle
10
10.853079911614909
20
10.210574316236734
30
0
40
6.4499999999999993
210
0
220
0
230
1
100
AcDbArc
50
180
51
269.99999999083286
0
LINE
5
153
100
AcDbEntity
8
0
100
AcDbLine
10
4.4030799116149097
20
10.210574315798029
30
0
11
4.4030799116149266
21
29.710574316236738
31
0
0
ARC
5
154
100
AcDbEntity
8
0
100
AcDbCircle
10
10.853079911614918
20
29.71057431623673
30
1.0947644252537633e-46
40
6.4499999999999913
210
-7.174522670694233e-32
220
1.9721522630525313e-31
230
1
100
AcDbArc
50
90.000000013890428
51
180
0
LINE
5
155
100
AcDbEntity
8
0
100
AcDbLine
10
10.853079910051221
20
36.160574316236719
30
-1.2720382097810687e-30
11
21.709313985346451
21
36.160574316226473
31
3.7549468884150756e-30
0
ELLIPSE
5
156
100
AcDbEntity
8
0
100
AcDbEllipse
10
20.324385068546217
20
28.95911269201639
30
0
11
1.6547833661187072
21
7.1704828311700188
31
0.0
40
0.40329690363883586
41
6.2166865298413381
42
6.3742558432313015
0
ELLIPSE
5
157
100
AcDbEntity
8
0
100
AcDbEllipse
10
18.729423529427923
20
29.512116591622394
30
0
11
3.5554139684204804
21
6.5013627334125079
31
0.0
40
0.39822893179530061
41
6.1688125102317963
42
6.3271281158399661
0
LINE
5
158
100
AcDbEntity
8
0
100
AcDbLine
10
22.557077931011932
20
35.809419009328359
30
-1.4850325664619755e-30
11
25.48246503524836
21
32.884031905085152
31
0
0
LINE
5
159
100
AcDbEntity
8
0
100
AcDbLine
10
25.48246503524836
20
32.884031905085152
30
0
11
29.237773425608978
21
32.884031905085102
31
0
0
ARC
5
160
100
AcDbEntity
8
0
100
AcDbCircle
10
34.853079911614962
20
29.71057431623672
30
-1.0947644252537633e-45
40
6.4500000000000179
210
1.7169363401721256e-31
220
-9.703165217904671e-32
230
1
100
AcDbArc
50
89.999999999999247
51
150.52729164757292
0
LINE
5
161
100
AcDbEntity
8
0
100
AcDbLine
10
34.853079911615048
20
36.16057431623674
30
6.2585415655483747e-31
11
45.708866349614965
21
36.160574316236747
31
0
0
ARC
5
162
100
AcDbEntity
8
0
100
AcDbCircle
10
45.708866349614979
20
34.960574316236787
30
0
40
1.1999999999999675
210
0
220
-0
230
1
100
AcDbArc
50
44.999999999711413
51
90.000000000000696
0
LINE
5
163
100
AcDbEntity
8
0
100
AcDbLine
10
46.557394487043091
20
35.809102453656351
30
0
11
49.482465035438111
21
32.884031905085152
31
0
0
LINE
5
164
100
AcDbEntity
8
0
100
AcDbLine
10
49.482465035438111
20
32.884031905085152
30
0
11
53.23777342560895
21
32.884031905085102
31
0
0
ARC
5
165
100
AcDbEntity
8
0
100
AcDbCircle
10
58.853079911614941
20
29.710574316236752
30
-9.3054976146569884e-46
40
6.4500000000000135
210
-9.7031652179046162e-32
220
-1.7169363401721317e-31
230
1
100
AcDbArc
50
89.999999999998991
51
150.52729164757321
0
LINE
5
166
100
AcDbEntity
8
0
100
AcDbLine
10
58.853079911615055
20
36.160574316236762
30
1.1074239394110375e-30
11
69.708866349615008
21
36.160574316236776
31
0
0
ARC
5
167
100
AcDbEntity
8
0
100
AcDbCircle
10
69.708866349614965
20
34.960574316236752
30
0
40
1.2000000000000208
210
0
220
-0
230
1
100
AcDbArc
50
44.999999999712372
51
89.999999999997954
0
LINE
5
168
100
AcDbEntity
8
0
100
AcDbLine
10
70.557394487043098
20
35.809102453656365
30
0
11
73.482465035438111
21
32.884031905085152
31
0
0
LINE
5
169
100
AcDbEntity
8
0
100
AcDbLine
10
73.482465035438111
20
32.884031905085152
30
0
11
77.237683978761652
21
32.884031905085152
31
0
0
LINE
5
170
100
AcDbEntity
8
0
100
AcDbLine
10
77.237683978761652
20
32.884031905085152
30
0
11
77.237683978761723
21
32.883873627252768
31
0
0
ARC
5
171
100
AcDbEntity
8
0
100
AcDbCircle
10
82.853079911614969
20
29.710574316236663
30
-1.0947644252537633e-45
40
6.4500000000000091
210
1.1178628203212318e-32
220
2.2020977528208024e-31
230
1
100
AcDbArc
50
90.000000013890372
51
150.52890662256567
0
LINE
5
172
100
AcDbEntity
8
0
100
AcDbLine
10
82.853079910051278
20
36.160574316236669
30
-1.4203530505519407e-30
11
93.709313985346014
21
36.160574316226459
31
-2.2301786609712474e-30
0
ELLIPSE
5
173
100
AcDbEntity
8
0
100
AcDbEllipse
10
92.324385071781109
20
28.959112706283015
30
0
11
1.6547833628945532
21
7.1704828169008907
31
0.0
40
0.40329690404040497
41
6.2166865297789338
42
6.3742558433256917
0
ELLIPSE
5
174
100
AcDbEntity
8
0
100
AcDbEllipse
10
90.729423527313429
20
29.512116587917504
30
0
11
3.5554139705479058
21
6.5013627371103215
31
0.0
40
0.39822893168079021
41
6.1688125102705014
42
6.3271281158322683
0
LINE
5
175
100
AcDbEntity
8
0
100
AcDbLine
10
94.557077931010198
20
35.809419009330064
30
-3.3207735765894349e-32
11
100.80307991161499
21
29.563417028711338
31
0
0
LINE
5
176
100
AcDbEntity
8
0
100
AcDbLine
10
100.80307991161499
20
29.563417028711338
30
0
11
100.80307991161499
21
10.357731603762094
31
0
0
LINE
5
177
100
AcDbEntity
8
0
100
AcDbLine
10
100.80307991161499
20
10.357731603762094
30
0
11
94.557077928488269
21
4.1117296206493705
31
0
0
ELLIPSE
5
178
100
AcDbEntity
8
0
100
AcDbEllipse
10
90.44416818141238
20
10.183224122262009
30
0
11
-3.9001886083106592
21
6.2404050325653078
31
0.0
40
0.40329691009274654
41
3.0750938453416596
42
3.2326631569911086
0
ELLIPSE
5
179
100
AcDbEntity
8
0
100
AcDbEllipse
10
91.962999637379866
20
10.920009081356524
30
0
11
-2.0831111207656265
21
7.1112237721011882
31
0.0
40
0.39822865039807609
41
3.0272195174669028
42
3.1855349815193734
0
LINE
5
180
100
AcDbEntity
8
0
100
AcDbLine
10
93.709313993318375
20
3.7605743162264527
30
-3.320786163619336e-32
11
82.853079910582963
21
3.7605743162367231
31
0
0
ARC
5
181
100
AcDbEntity
8
0
100
AcDbCircle
10
82.853079911615367
20
10.21057431623667
30
0
40
6.4499999999999513
210
0
220
0
230
1
100
AcDbArc
50
209.47109337742376
51
269.99999999082905
0
LINE
5
182
100
AcDbEntity
8
0
100
AcDbLine
10
77.237683978761581
20
7.037275005221618
30
0
11
73.482623313260888
21
7.0372750052216784
31
0
0
LINE
5
183
100
AcDbEntity
8
0
100
AcDbLine
10
73.482623313260888
20
7.0372750052216784
30
0
11
70.55739448703882
21
4.1120461788128368
31
0
0
ARC
5
184
100
AcDbEntity
8
0
100
AcDbCircle
10
69.708866349615022
20
4.9605743162367686
30
-2.2168979611388708e-45
40
1.2000000000000133
210
-1.3945222387367378e-31
220
1.3945222387369605e-31
230
1
100
AcDbArc
50
270
51
314.99999999999551
0
LINE
5
185
100
AcDbEntity
8
0
100
AcDbLine
10
69.708866349615022
20
3.7605743162367555
30
1.6734266864843486e-31
11
58.853079911614962
21
3.7605743162367125
31
0
0
ARC
5
186
100
AcDbEntity
8
0
100
AcDbCircle
10
58.853079911614934
20
10.210574316236736
30
0
40
6.4500000000000215
210
0
220
0
230
1
100
AcDbArc
50
209.47109337742413
51
270.00000000000023
0
LINE
5
187
100
AcDbEntity
8
0
100
AcDbLine
10
53.237683978761112
20
7.0372750052216198
30
0
11
49.482623313260909
21
7.0372750052216784
31
0
0
LINE
5
188
100
AcDbEntity
8
0
100
AcDbLine
10
49.482623313260909
20
7.0372750052216784
30
0
11
46.557394487038849
21
4.112046178812812
31
0
0
ARC
5
189
100
AcDbEntity
8
0
100
AcDbCircle
10
45.708866349614972
20
4.9605743162367402
30
0
40
1.200000000000065
210
0
220
0
230
1
100
AcDbArc
50
269.99999999051329
51
314.99999999999829
0
LINE
5
190
100
AcDbEntity
8
0
100
AcDbLine
10
45.708866349416283
20
3.7605743162366756
30
0
11
34.853079911614955
21
3.7605743162368332
31
-1.2720382096688599e-30
0
LWPOLYLINE
5
191
100
AcDbEntity
8
0
100
AcDbPolyline
90
12
70
1
43
0.0
10
-74.010923642560314
20
3.199999999998016
10
75.989076357439686
20
3.199999999998016
10
76.489076357439671
20
3.199999999998016
10
76.489076357439671
20
0.58913189399575849
10
106.86324710796922
20
0.58913189399575849
42
0.41421356237309503
10
108.36324710796919
20
2.0891318939957442
10
108.36324710796923
20
39.899999999997945
10
-102.6180035767063
20
39.899999999997945
10
-102.61800357670636
20
2.0891318939957459
42
0.41421356237309537
10
-101.11800357670633
20
0.58913189399574073
10
-74.510923642560329
20
0.5891318939957586
10
-74.510923642560329
20
3.199999999998016
0
SPLINE
5
192
100
AcDbEntity
8
0
100
AcDbSpline
70
6
71
3
72
26
73
22
74
0
42
0.000000001
43
0.0000000001
44
0.0000000001
40
-1.626194551973652
40
-1.626194551973652
40
-1.626194551973652
40
-1.626194551973652
40
-1.5738782893863845
40
-1.5738782893863845
40
-1.359901128342738
40
-1.359901128342738
40
-1.1486930820263228
40
-1.1486930820263228
40
-0.94154830527101774
40
-0.94154830527101774
40
-0.74213554847933838
40
-0.74213554847933838
40
-0.55785993206497986
40
-0.55785993206497986
40
-0.3876691271974908
40
-0.3876691271974908
40
-0.22253188605955054
40
-0.22253188605955054
40
-0.085589186945980986
40
-0.085589186945980986
40
0
40
0
40
0
40
0
41
1
41
1
41
1
41
1
41
1
41
1
41
1
41
1
41
1
41
1
41
1
41
1
41
1
41
1
41
1
41
1
41
1
41
1
41
1
41
1
41
1
41
1
10
-100.73269252764689
20
14.20000000000041
30
0
10
-100.73269252764767
20
14.024816119315009
30
0
10
-100.7149271104484
20
13.849636831612829
30
0
10
-100.53590676487048
20
12.976087947115257
30
0
10
-100.08756045745839
20
12.342073740194838
30
0
10
-98.867785153866976
20
11.607735456273288
30
0
10
-98.109650134491844
20
11.505623498003326
30
0
10
-96.761078431192473
20
11.884873692015532
30
0
10
-96.176676417788769
20
12.351991438152876
30
0
10
-95.528417118868902
20
13.549126487863703
30
0
10
-95.449010928057717
20
14.26115695557167
30
0
10
-95.796879157071885
20
15.497974935212241
30
0
10
-96.183205651168677
20
16.027638933624115
30
0
10
-97.173029913985943
20
16.682706027846152
30
0
10
-97.753802011254805
20
16.834620204679677
30
0
10
-98.873686036066715
20
16.752784520690035
30
0
10
-99.410419066635086
20
16.530921604207101
30
0
10
-100.17687570167945
20
15.870806696728941
30
0
10
-100.44292188243737
20
15.477936317973992
30
0
10
-100.6848770275837
20
14.773145057228289
30
0
10
-100.73269252764689
20
14.486600096650852
30
0
10
-100.73269252764689
20
14.20000000000041
30
0
0
SPLINE
5
193
100
AcDbEntity
8
0
100
AcDbSpline
70
6
71
3
72
26
73
22
74
0
42
0.000000001
43
0.0000000001
44
0.0000000001
40
-1.6261945519736527
40
-1.6261945519736527
40
-1.6261945519736527
40
-1.6261945519736527
40
-1.5738782893917349
40
-1.5738782893917349
40
-1.3599011283465969
40
-1.3599011283465969
40
-1.1486930820299412
40
-1.1486930820299412
40
-0.94154830527461231
40
-0.94154830527461231
40
-0.74213554848155083
40
-0.74213554848155083
40
-0.55785993206568651
40
-0.55785993206568651
40
-0.38766912719813257
40
-0.38766912719813257
40
-0.22253188605954299
40
-0.22253188605954299
40
-0.085589186945978071
40
-0.085589186945978071
40
0
40
0
40
0
40
0
41
1
41
1
41
1
41
1
41
1
41
1
41
1
41
1
41
1
41
1
41
1
41
1
41
1
41
1
41
1
41
1
41
1
41
1
41
1
41
1
41
1
41
1
10
101.56730747235312
20
34.200000000000415
30
0
10
101.56730747235235
20
34.024816119332911
30
0
10
101.58507288954796
20
33.849636831648652
30
0
10
101.76409323510526
20
32.976087947159968
30
0
10
102.2124395425098
20
32.342073740226425
30
0
10
103.43221484609516
20
31.607735456283809
30
0
10
104.19034986547003
20
31.505623498002819
30
0
10
105.53892156877529
20
31.884873691996415
30
0
10
106.12332358218558
20
32.351991438125623
30
0
10
106.77158288112437
20
33.549126487831757
30
0
10
106.85098907194408
20
34.261156955544358
30
0
10
106.50312084293788
20
35.497974935197135
30
0
10
106.11679434884074
20
36.027638933615918
30
0
10
105.12697008602055
20
36.682706027843793
30
0
10
104.54619798875216
20
36.834620204678778
30
0
10
103.42631396393736
20
36.752784520691712
30
0
10
102.88958093336667
20
36.530921604208586
30
0
10
102.12312429832053
20
35.87080669672887
30
0
10
101.85707811756268
20
35.477936317974091
30
0
10
101.61512297241632
20
34.773145057228312
30
0
10
101.56730747235312
20
34.486600096650825
30
0
10
101.56730747235312
20
34.200000000000415
30
0
0
SPLINE
5
194
100
AcDbEntity
8
0
100
AcDbSpline
70
0
71
3
72
9
73
5
74
0
42
0.000000001
43
0.0000000001
44
0.0000000001
40
-0.099998892635555697
40
-0.099998892635555697
40
-0.099998892635555697
40
-0.099998892635555697
40
-0.04762758800911164
40
0
40
0
40
0
40
0
10
-100.76998801082374
20
24.237380564213016
30
0
10
-100.92949829931088
20
24.15945497350155
30
0
10
-101.2340706663059
20
24.010662178769767
30
0
10
-101.43536861658055
20
23.738680299242077
30
0
10
-101.53124303668739
20
23.609140455723026
30
0
0
SPLINE
5
195
100
AcDbEntity
8
0
100
AcDbSpline
70
0
71
3
72
9
73
5
74
0
42
0.000000001
43
0.0000000001
44
0.0000000001
40
-0.093495940922795895
40
-0.093495940922795895
40
-0.093495940922795895
40
-0.093495940922795895
40
-0.047097200464443829
40
0
40
0
40
0
40
0
10
-101.53124303668739
20
23.609140455723026
30
0
10
-101.60167170149626
20
23.469473716216495
30
0
10
-101.74358922380816
20
23.188037774275276
30
0
10
-101.76295917552292
20
22.873376490528663
30
0
10
-101.7727165028453
20
22.714870512485721
30
0
0
SPLINE
5
196
100
AcDbEntity
8
0
100
AcDbSpline
70
0
71
3
72
9
73
5
74
0
42
0.000000001
43
0.0000000001
44
0.0000000001
40
-0.15769291614064801
40
-0.15769291614064801
40
-0.15769291614064801
40
-0.15769291614064801
40
-0.077085542354082645
40
0
40
0
40
0
40
0
10
-101.7727165028453
20
22.714870512485721
30
0
10
-101.74841671951853
20
22.437871413264062
30
0
10
-101.70087883911904
20
21.895975632857482
30
0
10
-101.31754015828902
20
21.511347552990173
30
0
10
-101.13015146106483
20
21.323328554630496
30
0
0
SPLINE
5
197
100
AcDbEntity
8
0
100
AcDbSpline
70
0
71
3
72
9
73
5
74
0
42
0.000000001
43
0.0000000001
44
0.0000000001
40
-0.14501281591293863
40
-0.14501281591293863
40
-0.14501281591293863
40
-0.14501281591293863
40
-0.075765595415873868
40
0
40
0
40
0
40
0
10
-101.13015146106483
20
21.323328554630496
30
0
10
-100.93163086790575
20
21.198056489038727
30
0
10
-100.51590255384406
20
20.93572025581096
30
0
10
-100.0241748727714
20
20.908046342807349
30
0
10
-99.767259369790565
20
20.893587410450198
30
0
0
SPLINE
5
198
100
AcDbEntity
8
0
100
AcDbSpline
70
0
71
3
72
9
73
5
74
0
42
0.000000001
43
0.0000000001
44
0.0000000001
40
-0.15333029337164777
40
-0.15333029337164777
40
-0.15333029337164777
40
-0.15333029337164777
40
-0.073025708620274188
40
0
40
0
40
0
40
0
10
-99.767259369790565
20
20.893587410450198
30
0
10
-99.493205168530082
20
20.910824908774192
30
0
10
-98.969937272816523
20
20.943737483855607
30
0
10
-98.554945529043451
20
21.261859588758011
30
0
10
-98.357299874722969
20
21.413369715213992
30
0
0
SPLINE
5
199
100
AcDbEntity
8
0
100
AcDbSpline
70
0
71
3
72
9
73
5
74
0
42
0.000000001
43
0.0000000001
44
0.0000000001
40
-0.1482323945891551
40
-0.1482323945891551
40
-0.1482323945891551
40
-0.1482323945891551
40
-0.07646383326205039
40
0
40
0
40
0
40
0
10
-98.357299874722969
20
21.413369715213992
30
0
10
-98.202755647215753
20
21.603732416643187
30
0
10
-97.883556537052229
20
21.996911805382759
30
0
10
-97.846435075805957
20
22.502950034288137
30
0
10
-97.827286432683479
20
22.763983547687747
30
0
0
SPLINE
5
200
100
AcDbEntity
8
0
100
AcDbSpline
70
0
71
3
72
9
73
5
74
0
42
0.000000001
43
0.0000000001
44
0.0000000001
40
-0.093611864706402675
40
-0.093611864706402675
40
-0.093611864706402675
40
-0.093611864706402675
40
-0.045794622206465553
40
0
40
0
40
0
40
0
10
-97.827286432683479
20
22.763983547687747
30
0
10
-97.837148265810598
20
22.925390200576278
30
0
10
-97.856454786642587
20
23.241376170552147
30
0
10
-98.011385822270327
20
23.517187970026455
30
0
10
-98.087177585065376
20
23.652114212513187
30
0
0
SPLINE
5
201
100
AcDbEntity
8
0
100
AcDbSpline
70
0
71
3
72
9
73
5
74
0
42
0.000000001
43
0.0000000001
44
0.0000000001
40
-0.096968554759978176
40
-0.096968554759978176
40
-0.096968554759978176
40
-0.096968554759978176
40
-0.050391674411495772
40
0
40
0
40
0
40
0
10
-98.087177585065376
20
23.652114212513187
30
0
10
-98.186839669445988
20
23.773873127815015
30
0
10
-98.394326478662293
20
24.02736339933222
30
0
10
-98.691798449785125
20
24.16556256655516
30
0
10
-98.846385787427437
20
24.237380564213016
30
0
0
SPLINE
5
202
100
AcDbEntity
8
0
100
AcDbSpline
70
0
71
3
72
9
73
5
74
0
42
0.000000001
43
0.0000000001
44
0.0000000001
40
-0.079524464651315685
40
-0.079524464651315685
40
-0.079524464651315685
40
-0.079524464651315685
40
-0.03878764545667119
40
0
40
0
40
0
40
0
10
-98.846385787427437
20
24.237380564213016
30
0
10
-98.723689837508658
20
24.299686241975003
30
0
10
-98.484168688703363
20
24.421316397856458
30
0
10
-98.317738820015819
20
24.631927506261722
30
0
10
-98.236563514173042
20
24.734651982784488
30
0
0
SPLINE
5
203
100
AcDbEntity
8
0
100
AcDbSpline
70
0
71
3
72
9
73
5
74
0
42
0.000000001
43
0.0000000001
44
0.0000000001
40
-0.078266074524622239
40
-0.078266074524622239
40
-0.078266074524622239
40
-0.078266074524622239
40
-0.039815070442187517
40
0
40
0
40
0
40
0
10
-98.236563514173042
20
24.734651982784488
30
0
10
-98.173301658360629
20
24.848120954190648
30
0
10
-98.044533704448028
20
25.079084258900906
30
0
10
-98.028038208909635
20
25.343153813689892
30
0
10
-98.019646714627754
20
25.477489769458987
30
0
0
SPLINE
5
204
100
AcDbEntity
8
0
100
AcDbSpline
70
0
71
3
72
9
73
5
74
0
42
0.000000001
43
0.0000000001
44
0.0000000001
40
-0.12340652126596313
40
-0.12340652126596313
40
-0.12340652126596313
40
-0.12340652126596313
40
-0.060988358247555836
40
0
40
0
40
0
40
0
10
-98.019646714627754
20
25.477489769458987
30
0
10
-98.038414295525897
20
25.690639288433644
30
0
10
-98.075519550778836
20
26.112055737976036
30
0
10
-98.354491663629219
20
26.429664993188197
30
0
10
-98.492361615598213
20
26.586629688739993
30
0
0
SPLINE
5
205
100
AcDbEntity
8
0
100
AcDbSpline
70
0
71
3
72
9
73
5
74
0
42
0.000000001
43
0.0000000001
44
0.0000000001
40
-0.14240256594790496
40
-0.14240256594790496
40
-0.14240256594790496
40
-0.14240256594790496
40
-0.076756848630705907
40
0
40
0
40
0
40
0
10
-98.492361615598213
20
26.586629688739993
30
0
10
-98.675571598556346
20
26.714152410701359
30
0
10
-99.073001510921287
20
26.990782228549385
30
0
10
-99.558678952295153
20
27.012727532472258
30
0
10
-99.820465455949318
20
27.024556338787296
30
0
0
SPLINE
5
206
100
AcDbEntity
8
0
100
AcDbSpline
70
0
71
3
72
9
73
5
74
0
42
0.000000001
43
0.0000000001
44
0.0000000001
40
-0.14282034441795044
40
-0.14282034441795044
40
-0.14282034441795044
40
-0.14282034441795044
40
-0.065557096921179003
40
0
40
0
40
0
40
0
10
-99.820465455949318
20
27.024556338787296
30
0
10
-100.08408161828322
20
27.013092877749727
30
0
10
-100.57137347202315
20
26.991902784055107
30
0
10
-100.9697841238968
20
26.714131626657924
30
0
10
-101.1526617512107
20
26.586629688739993
30
0
0
SPLINE
5
207
100
AcDbEntity
8
0
100
AcDbSpline
70
0
71
3
72
9
73
5
74
0
42
0.000000001
43
0.0000000001
44
0.0000000001
40
-0.12320930048641665
40
-0.12320930048641665
40
-0.12320930048641665
40
-0.12320930048641665
40
-0.062398872879944035
40
0
40
0
40
0
40
0
10
-101.1526617512107
20
26.586629688739993
30
0
10
-101.28933676592115
20
26.429525293040665
30
0
10
-101.56625691957343
20
26.111212736143017
30
0
10
-101.60278459801872
20
25.690538570716058
30
0
10
-101.62128389924766
20
25.477489769458987
30
0
0
SPLINE
5
208
100
AcDbEntity
8
0
100
AcDbSpline
70
0
71
3
72
9
73
5
74
0
42
0.000000001
43
0.0000000001
44
0.0000000001
40
-0.07577098528849352
40
-0.07577098528849352
40
-0.07577098528849352
40
-0.07577098528849352
40
-0.037727743662849506
40
0
40
0
40
0
40
0
10
-101.62128389924766
20
25.477489769458987
30
0
10
-101.61298396567163
20
25.349395291311247
30
0
10
-101.59645293103814
20
25.094268640570551
30
0
10
-101.47778085597737
20
24.86785265749343
30
0
10
-101.41869188398124
20
24.755116045475223
30
0
0
SPLINE
5
209
100
AcDbEntity
8
0
100
AcDbSpline
70
0
71
3
72
9
73
5
74
0
42
0.000000001
43
0.0000000001
44
0.0000000001
40
-0.084031344109264175
40
-0.084031344109264175
40
-0.084031344109264175
40
-0.084031344109264175
40
-0.044540553741769781
40
0
40
0
40
0
40
0
10
-101.41869188398124
20
24.755116045475223
30
0
10
-101.33698393226024
20
24.649544920236444
30
0
10
-101.16311987576411
20
24.424903086776357
30
0
10
-100.90617882118468
20
24.302343103723025
30
0
10
-100.76998801082374
20
24.237380564213016
30
0
0
SPLINE
5
210
100
AcDbEntity
8
0
100
AcDbSpline
70
0
71
3
72
9
73
5
74
0
42
0.000000001
43
0.0000000001
44
0.0000000001
40
-0.056732561713314866
40
-0.056732561713314866
40
-0.056732561713314866
40
-0.056732561713314866
40
-0.027160895418582579
40
0
40
0
40
0
40
0
10
-100.53260714858772
20
25.395634114742496
30
0
10
-100.52590564504425
20
25.496589089455192
30
0
10
-100.51304896461363
20
25.690268886733794
30
0
10
-100.39342484276747
20
25.842523459605815
30
0
10
-100.33615441173316
20
25.915415823459842
30
0
0
SPLINE
5
211
100
AcDbEntity
8
0
100
AcDbSpline
70
0
71
3
72
9
73
5
74
0
42
0.000000001
43
0.0000000001
44
0.0000000001
40
-0.057510259494651939
40
-0.057510259494651939
40
-0.057510259494651939
40
-0.057510259494651939
40
-0.030177240189083663
40
0
40
0
40
0
40
0
10
-100.33615441173316
20
25.915415823459842
30
0
10
-100.26254134996498
20
25.972676455788669
30
0
10
-100.10765519424409
20
26.093156150594574
30
0
10
-99.91124769847319
20
26.105428772606132
30
0
10
-99.808187197148811
20
26.111868560314395
30
0
0
SPLINE
5
212
100
AcDbEntity
8
0
100
AcDbSpline
70
0
71
3
72
9
73
5
74
0
42
0.000000001
43
0.0000000001
44
0.0000000001
40
-0.056072762671800794
40
-0.056072762671800794
40
-0.056072762671800794
40
-0.056072762671800794
40
-0.026862719874614163
40
0
40
0
40
0
40
0
10
-99.808187197148811
20
26.111868560314395
30
0
10
-99.708470326783058
20
26.105213502268178
30
0
10
-99.517049847011208
20
26.092438187525108
30
0
10
-99.36661373834653
20
25.97413704960255
30
0
10
-99.294544468820106
20
25.917462646961429
30
0
0
SPLINE
5
213
100
AcDbEntity
8
0
100
AcDbSpline
70
0
71
3
72
9
73
5
74
0
42
0.000000001
43
0.0000000001
44
0.0000000001
40
-0.056461494275796414
40
-0.056461494275796414
40
-0.056461494275796414
40
-0.056461494275796414
40
-0.029512772013270665
40
0
40
0
40
0
40
0
10
-99.294544468820106
20
25.917462646961429
30
0
10
-99.23787465206594
20
25.84503293558496
30
0
10
-99.119143140304246
20
25.693282151468317
30
0
10
-99.106662148826828
20
25.500497102359489
30
0
10
-99.100138257443916
20
25.399727165699222
30
0
0
SPLINE
5
214
100
AcDbEntity
8
0
100
AcDbSpline
70
0
71
3
72
9
73
5
74
0
42
0.000000001
43
0.0000000001
44
0.0000000001
40
-0.058498135452481323
40
-0.058498135452481323
40
-0.058498135452481323
40
-0.058498135452481323
40
-0.02746241737975464
40
0
40
0
40
0
40
0
10
-99.100138257443916
20
25.399727165699222
30
0
10
-99.106128514240197
20
25.293640032521484
30
0
10
-99.11741933898098
20
25.09368011949952
30
0
10
-99.239349775869442
20
24.935694999444451
30
0
10
-99.296590994298469
20
24.86152762174628
30
0
0
SPLINE
5
215
100
AcDbEntity
8
0
100
AcDbSpline
70
0
71
3
72
9
73
5
74
0
42
0.000000001
43
0.0000000001
44
0.0000000001
40
-0.057030261471691615
40
-0.057030261471691615
40
-0.057030261471691615
40
-0.057030261471691615
40
-0.029866075161623918
40
0
40
0
40
0
40
0
10
-99.296590994298469
20
24.86152762174628
30
0
10
-99.369907017792855
20
24.804860440876006
30
0
10
-99.523831451318046
20
24.685889671606269
30
0
10
-99.718513016743557
20
24.673571823887009
30
0
10
-99.820465455949318
20
24.667121112346866
30
0
0
SPLINE
5
216
100
AcDbEntity
8
0
100
AcDbSpline
70
0
71
3
72
9
73
5
74
0
42
0.000000001
43
0.0000000001
44
0.0000000001
40
-0.056370393929104541
40
-0.056370393929104541
40
-0.056370393929104541
40
-0.056370393929104541
40
-0.026866039778351777
40
0
40
0
40
0
40
0
10
-99.820465455949318
20
24.667121112346866
30
0
10
-99.921179799726218
20
24.673524865074612
30
0
10
-100.11360249110282
20
24.685759739359369
30
0
10
-100.2657075912303
20
24.80340963960543
30
0
10
-100.3382006391883
20
24.859481394291141
30
0
0
SPLINE
5
217
100
AcDbEntity
8
0
100
AcDbSpline
70
0
71
3
72
9
73
5
74
0
42
0.000000001
43
0.0000000001
44
0.0000000001
40
-0.058227689861456926
40
-0.058227689861456926
40
-0.058227689861456926
40
-0.058227689861456926
40
-0.030977098972030801
40
0
40
0
40
0
40
0
10
-100.3382006391883
20
24.859481394291141
30
0
10
-100.39484017384504
20
24.933185581859917
30
0
10
-100.51586467827774
20
25.090672977001518
30
0
10
-100.52679318762654
20
25.289733843356181
30
0
10
-100.53260714858772
20
25.395634114742496
30
0
0
SPLINE
5
218
100
AcDbEntity
8
0
100
AcDbSpline
70
0
71
3
72
9
73
5
74
0
42
0.000000001
43
0.0000000001
44
0.0000000001
40
-0.067170284606849651
40
-0.067170284606849651
40
-0.067170284606849651
40
-0.067170284606849651
40
-0.034022930187892965
40
0
40
0
40
0
40
0
10
-100.63901932090522
20
22.825375139713504
30
0
10
-100.62996705703975
20
22.937176413948354
30
0
10
-100.61162341692614
20
23.163732153958435
30
0
10
-100.4926146072843
20
23.357509331873491
30
0
10
-100.4323345527053
20
23.455660879612186
30
0
0
SPLINE
5
219
100
AcDbEntity
8
0
100
AcDbSpline
70
0
71
3
72
9
73
5
74
0
42
0.000000001
43
0.0000000001
44
0.0000000001
40
-0.071451244448509116
40
-0.071451244448509116
40
-0.071451244448509116
40
-0.071451244448509116
40
-0.037494296841835306
40
0
40
0
40
0
40
0
10
-100.4323345527053
20
23.455660879612186
30
0
10
-100.35129464557029
20
23.54035885451886
30
0
10
-100.18077277529326
20
23.718577927076524
30
0
10
-99.933730477942959
20
23.736725056659161
30
0
10
-99.804094146192085
20
23.746247828006961
30
0
0
SPLINE
5
220
100
AcDbEntity
8
0
100
AcDbSpline
70
0
71
3
72
9
73
5
74
0
42
0.000000001
43
0.0000000001
44
0.0000000001
40
-0.066911569571810603
40
-0.066911569571810603
40
-0.066911569571810603
40
-0.066911569571810603
40
-0.033048517223450639
40
0
40
0
40
0
40
0
10
-99.804094146192085
20
23.746247828006961
30
0
10
-99.688456996662964
20
23.736118001804755
30
0
10
-99.459964210596127
20
23.716102010224716
30
0
10
-99.287593349543144
20
23.565054237457804
30
0
10
-99.202457080781471
20
23.49044972658179
30
0
0
SPLINE
5
221
100
AcDbEntity
8
0
100
AcDbSpline
70
0
71
3
72
9
73
5
74
0
42
0.000000001
43
0.0000000001
44
0.0000000001
40
-0.073119787603004055
40
-0.073119787603004055
40
-0.073119787603004055
40
-0.073119787603004055
40
-0.03847202522659688
40
0
40
0
40
0
40
0
10
-99.202457080781471
20
23.49044972658179
30
0
10
-99.133272612995142
20
23.39493172765815
30
0
10
-98.987267409686297
20
23.193352886355644
30
0
10
-98.972726975667541
20
22.944192491528248
30
0
10
-98.965076516568672
20
22.813096582889774
30
0
0
SPLINE
5
222
100
AcDbEntity
8
0
100
AcDbSpline
70
0
71
3
72
9
73
5
74
0
42
0.000000001
43
0.0000000001
44
0.0000000001
40
-0.078835314831237097
40
-0.078835314831237097
40
-0.078835314831237097
40
-0.078835314831237097
40
-0.035822193284843006
40
0
40
0
40
0
40
0
10
-98.965076516568672
20
22.813096582889774
30
0
10
-98.970716353302507
20
22.666421888152509
30
0
10
-98.981053159572895
20
22.397593555735035
30
0
10
-99.130470277115393
20
22.175341543809616
30
0
10
-99.198364327847969
20
22.074351847172
30
0
0
SPLINE
5
223
100
AcDbEntity
8
0
100
AcDbSpline
70
0
71
3
72
9
73
5
74
0
42
0.000000001
43
0.0000000001
44
0.0000000001
40
-0.065793287653916566
40
-0.065793287653916566
40
-0.065793287653916566
40
-0.065793287653916566
40
-0.03316000606777017
40
0
40
0
40
0
40
0
10
-99.198364327847969
20
22.074351847172
30
0
10
-99.281711103946137
20
21.999745571179247
30
0
10
-99.449749932660836
20
21.849328820592241
30
0
10
-99.674465727849054
20
21.828866708865373
30
0
10
-99.787723134458076
20
21.818553745746829
30
0
0
SPLINE
5
224
100
AcDbEntity
8
0
100
AcDbSpline
70
0
71
3
72
9
73
5
74
0
42
0.000000001
43
0.0000000001
44
0.0000000001
40
-0.067933661516469096
40
-0.067933661516469096
40
-0.067933661516469096
40
-0.067933661516469096
40
-0.033870846217388076
40
0
40
0
40
0
40
0
10
-99.787723134458076
20
21.818553745746829
30
0
10
-99.903995864749533
20
21.829512198437921
30
0
10
-100.13588604275927
20
21.85136734485857
30
0
10
-100.30912504653449
20
22.00699142442517
30
0
10
-100.39549977630378
20
22.084583580494144
30
0
0
SPLINE
5
225
100
AcDbEntity
8
0
100
AcDbSpline
70
0
71
3
72
9
73
5
74
0
42
0.000000001
43
0.0000000001
44
0.0000000001
40
-0.079384307195688106
40
-0.079384307195688106
40
-0.079384307195688106
40
-0.079384307195688106
40
-0.042694193292618483
40
0
40
0
40
0
40
0
10
-100.39549977630378
20
22.084583580494144
30
0
10
-100.46641838765446
20
22.187192716771385
30
0
10
-100.61986094289502
20
22.409202253641077
30
0
10
-100.63231911169009
20
22.679828089495398
30
0
10
-100.63901932090522
20
22.825375139713504
30
0
0
LINE
5
226
100
AcDbEntity
8
0
100
AcDbLine
10
106.31787030398849
20
20.999999582767703
30
0
11
106.31787030398849
21
27.024556338787296
31
0
0
LINE
5
227
100
AcDbEntity
8
0
100
AcDbLine
10
106.31787030398849
20
27.024556338787296
30
0
11
105.3847190588713
21
27.024556338787296
31
0
0
SPLINE
5
228
100
AcDbEntity
8
0
100
AcDbSpline
70
0
71
3
72
9
73
5
74
0
42
0.000000001
43
0.0000000001
44
0.0000000001
40
-0.12149456133225527
40
-0.12149456133225527
40
-0.12149456133225527
40
-0.12149456133225527
40
-0.062981226223173509
40
0
40
0
40
0
40
0
10
105.3847190588713
20
27.024556338787296
30
0
10
105.30237911180551
20
26.845131388876613
30
0
10
105.13141200268021
20
26.472581173770578
30
0
10
104.82113970233669
20
26.204020282631937
30
0
10
104.66029851138595
20
26.064801752567508
30
0
0
SPLINE
5
229
100
AcDbEntity
8
0
100
AcDbSpline
70
0
71
3
72
9
73
5
74
0
42
0.000000001
43
0.0000000001
44
0.0000000001
40
-0.11305234743905967
40
-0.11305234743905967
40
-0.11305234743905967
40
-0.11305234743905967
40
-0.05158282807166964
40
0
40
0
40
0
40
0
10
104.66029851138595
20
26.064801752567508
30
0
10
104.49542346171165
20
25.941436889277991
30
0
10
104.19219168779122
20
25.714549034453192
30
0
10
103.84193819170378
20
25.571437012841997
30
0
10
103.68212668597701
20
25.506138741970279
30
0
0
LINE
5
230
100
AcDbEntity
8
0
100
AcDbLine
10
103.682126685977
20
25.506138741970279
30
0
11
103.68212668597701
21
24.462482273578861
31
0
0
SPLINE
5
231
100
AcDbEntity
8
0
100
AcDbSpline
70
0
71
3
72
9
73
5
74
0
42
0.000000001
43
0.0000000001
44
0.0000000001
40
-0.17329306528995478
40
-0.17329306528995478
40
-0.17329306528995478
40
-0.17329306528995478
40
-0.085682339679994612
40
0
40
0
40
0
40
0
10
103.68212668597701
20
24.462482273578861
30
0
10
103.95667940253352
20
24.568291452353272
30
0
10
104.4997416988964
20
24.777580860675972
30
0
10
104.94677338008731
20
25.150070309068337
30
0
10
105.16780196130279
20
25.334242522716739
30
0
0
LINE
5
232
100
AcDbEntity
8
0
100
AcDbLine
10
105.16780196130279
20
25.334242522716739
30
0
11
105.16780196130279
21
20.999999582767703
31
0
0
LINE
5
233
100
AcDbEntity
8
0
100
AcDbLine
10
105.16780196130279
20
20.999999582767703
30
0
11
106.31787030398849
21
20.999999582767703
31
0
0
ENDSEC
0
SECTION
2
OBJECTS
0
DICTIONARY
5
C
100
AcDbDictionary
3
ACAD_GROUP
350
D
3
ACAD_MLINESTYLE
350
17
0
DICTIONARY
5
D
100
AcDbDictionary
0
DICTIONARY
5
1A
330
C
100
AcDbDictionary
0
DICTIONARY
5
17
100
AcDbDictionary
0
ENDSEC
0
EOF
