<?xml version="1.0" encoding="UTF-8"?>
<svg width="150mm" height="100mm" viewBox="0 0 150 100" xmlns="http://www.w3.org/2000/svg">
  <!-- EU/IEC/ENEC Rating Label - Clean B&W Version -->
  
  <!-- Outer Border -->
  <rect width="150" height="100" fill="#FFFFFF" stroke="#000000" stroke-width="1"/>
  <rect x="2" y="2" width="146" height="96" fill="none" stroke="#000000" stroke-width="0.5"/>
  
  <!-- Header -->
  <rect x="4" y="4" width="142" height="12" fill="#000000"/>
  <text x="75" y="12" font-family="Arial, sans-serif" font-size="7" font-weight="bold" 
        fill="#FFFFFF" text-anchor="middle" letter-spacing="0.5">
    ENERGIS - 10IN MANAGED PDU
  </text>
  
  <!-- Warning Symbol -->
  <g transform="translate(7, 23)">
    <polygon points="6,1 11.5,10 0.5,10" fill="none" stroke="#000000" stroke-width="0.8"/>
    <text x="6" y="8.5" font-family="Arial, sans-serif" font-size="6" font-weight="bold" 
          text-anchor="middle">!</text>
  </g>
  
  <!-- Specifications - Left Column -->
  <g font-family="Arial, sans-serif" fill="#000000">
    <text x="20" y="24" font-size="5.5" font-weight="bold">INPUT</text>
    <text x="20" y="30" font-size="5">85-305 VAC, 50/60 Hz</text>
    <text x="20" y="37" font-size="6" font-weight="bold">Max. 10A</text>
    
    <!-- Specifications - Right Column -->
    <text x="75" y="24" font-size="5.5" font-weight="bold">OUTLETS</text>
    <text x="75" y="30" font-size="5">8 × IEC C13</text>
    <text x="75" y="37" font-size="5">Max. 10A per outlet</text>
  </g>
  
  <!-- Critical Load Limit -->
  <rect x="6" y="40" width="138" height="8" fill="#000000"/>
  <text x="75" y="46" font-family="Arial, sans-serif" font-size="5.5" font-weight="bold" 
        fill="#FFFFFF" text-anchor="middle">
    TOTAL LOAD LIMIT: 10A (all outlets combined)
  </text>
  
  <!-- Technical Details Table -->
  <g font-family="Arial, sans-serif" font-size="4.5" fill="#000000">
    <!-- Table outer border -->
    <rect x="6" y="50" width="138" height="18" fill="none" stroke="#000000" stroke-width="0.5"/>
    
    <!-- Table rows -->
    <line x1="6" y1="56" x2="144" y2="56" stroke="#000000" stroke-width="0.3"/>
    <line x1="6" y1="62" x2="144" y2="62" stroke="#000000" stroke-width="0.3"/>
    
    <!-- Table column divider -->
    <line x1="55" y1="50" x2="55" y2="68" stroke="#000000" stroke-width="0.3"/>
    
    <!-- Row 1 -->
    <text x="8" y="54" font-weight="bold">Internal Protection:</text>
    <text x="57" y="54">T10A 250VAC Fuse</text>
    
    <!-- Row 2 -->
    <text x="8" y="60" font-weight="bold">Power Consumption:</text>
    <text x="57" y="60">3.6W (230V 16mA)</text>
    
    <!-- Row 3 -->
    <text x="8" y="66" font-weight="bold">Operating Temp:</text>
    <text x="57" y="66">0°C to 50°C (Indoor use only)</text>
  </g>
  
  <!-- Divider Line -->
  <line x1="6" y1="70" x2="144" y2="70" stroke="#000000" stroke-width="0.5"/>
  
  <!-- Compliance Section -->
  <g font-family="Arial, sans-serif" fill="#000000">
        <!-- IEC Logo -->
    <g transform="translate(7, 74) scale(0.03)">
      <rect width="400" height="400" fill="#000000"/>
      <g fill="#fff">
        <path d="m76.201 86.521h-32.884v162.03h32.884z"/>
        <path d="m218.56 82.719h-80.086c-7.7143 0-19.12 8.6576-19.12 20.867v118.79c0 9.6844 8.797 25.917 23.865 25.917h76.895v-13.68h-54.556c-9.6569 0-14.263-4.6618-14.263-10.545v-44.315c0-4.634-1.9703-12.237 3.8297-12.237h47.979v-12.237h-46.814c-6.1879 0-4.995-4.4398-4.995-8.2136v-37.35c0-4.2178-0.13854-11.488 7.9919-11.488h59.274z"/>
        <path d="m359.78 109.72s-17.815-30.385-58.052-30.385c-32.855 0-75.813 30.801-75.813 87.77 0 62.019 48.729 84.801 78.144 84.801 44.872 0 61.133-41.762 61.133-41.762l-7.7421-7.187s-20.618 36.934-51.365 36.934c-18.953 0-49.228-18.786-49.228-72.785 0-59.938 25.641-75.116 49.228-75.116 29.026 0 45.565 26.167 45.565 26.167z"/>
        <path d="m338.83 334.48c12.515 0 22.672-10.6 22.672-23.697 0-13.098-10.157-23.725-22.672-23.725-12.543 0-22.672 10.628-22.672 23.725 0 13.097 10.128 23.697 22.672 23.697"/>
        <path d="m43.317 326.63v6.8539l271.53 0.11082c-1.9425-2.0534-3.5521-4.3843-4.9672-6.8539zm262.74-20.257h-262.74v7.7974h262.62c-0.1119-1.1377-0.33033-2.2199-0.33033-3.3853 0-1.5262 0.2504-2.9692 0.44218-4.4121m-262.74-18.398v6.965h266.37s0.16518-0.22217 0.44222-0.555c1.332-2.3032 2.8585-4.4953 4.6902-6.41z"/>
      </g>
    </g>
    
    <!-- ENEC Logo -->
    <g transform="translate(20, 72) scale(0.006)">
      <svg xmlns="http://www.w3.org/2000/svg" width="2500" height="2500" viewBox="0 0 192.756 192.756"><g fill-rule="evenodd" clip-rule="evenodd"><path fill="#fff" d="M0 0h192.756v192.756H0V0z"/><path d="M55.352 118.611l-10.368-10.346h28.142l-9.929-9.908H21.802l51.104 51h42.122l-9.928-9.908H76.232L64.769 128.01h24.873l-9.417-9.398H55.352v-.001zm12.261-56.384l10.368-10.346h28.14l9.93-9.909H74.655l-51.104 51h42.123l9.929-9.909H46.734l11.462-11.439h24.873l9.417-9.397H67.613zm48.821.291l-12.268 30.455H117.6l51.102-51H155.45l-30.297 30.236h-.818l12.051-30.236h-13.344l-51.104 51h13.255l30.517-30.455h.724zm63.685-24.474H71.109L12.677 96.357h-.041l.021.021-.021.02h.041l58.433 58.314h109.01l-58.453-58.334 58.452-58.334zm-43.724 93.317c6.283 7.357 5.023 9.545-.514 9.545-4.176 0-13.498-1.604-28.463-16.539-16.21-16.174-10.152-17.559-6.066-17.559 5.174 0 10.756 1.676 18.893 8.889h12.98c-4.764-4.664-20.742-18.797-42.348-18.797-20.697 0-9.815 15.299 2.815 27.904 18.835 18.797 35.88 26.021 51.585 26.021 15.16 0 15.512-6.715 4.279-19.465h-13.161v.001z"/></g></svg>
    </g>
    
    <!-- CE Mark -->
<g transform="translate(35, 73.5)">
      <g transform="scale(0.24)">
        <path d="M22 42C12.0589 42 4 33.9411 4 24C4 14.0589 12.0589 6 22 6" 
              fill="none" stroke="#000000" stroke-width="4" stroke-linecap="round" stroke-linejoin="round"/>
        <path d="M44 42C34.0589 42 26 33.9411 26 24C26 14.0589 34.0589 6 44 6" 
              fill="none" stroke="#000000" stroke-width="4" stroke-linecap="round" stroke-linejoin="round"/>
        <path d="M26 24H37" 
              fill="none" stroke="#000000" stroke-width="4" stroke-linecap="round" stroke-linejoin="round"/>
      </g>
    </g>
    
    <!-- Ground Symbol -->
    <g transform="translate(49, 73) scale(0.065)">
      <circle cx="100" cy="100" r="75" fill="none" stroke="#000" stroke-width="5"/>
      <path d="m47 119.07h106" fill="none" stroke="#000" stroke-width="5"/>
      <path d="m64 136.15h72" fill="none" stroke="#000" stroke-width="5"/>
      <path d="m80 153.22h40" fill="none" stroke="#000" stroke-width="5"/>
      <path d="m100 119.07v-72" fill="none" stroke="#000" stroke-width="5"/>
    </g>
    
    <!-- WEEE Symbol -->
    <g transform="translate(65, 74) scale(0.019)">
      <path d="M236.379,48.548h-34.999v5.502h34.999V48.548z M136.377,65.629c-5.415,2.942-9.624,6.535-11.948,10.919h11.948V65.629z M318.088,117.987l-13.185,13.43l-0.637,6.83h15.825v-20.26H318.088z M199.088,225.298l-68.126-71.864L142.13,283.26 L199.088,225.298z M212.563,225.475l65.129,68.592l13.516-145.03h-1.333v-2.314L212.563,225.475z M129.647,138.151l76.208,80.26 l45.077-45.87h-63.552v-24h73.501v13.875l28.994-29.504v-25.715h5.232l1.691-18.151H125.423L129.647,138.151z M313.64,346.135 c0.314,1.874,0.478,3.799,0.478,5.763c0,19.089-15.474,34.562-34.562,34.562c-13.255,0-24.768-7.461-30.566-18.413h-84.52v18.055 h-22.237v-18.101c-2.604-0.366-5.102-2.842-5.325-5.439l-4.748-55.187L14.359,427.368l-7.042-6.92L131.055,294.53l-13.339-155.069 L0,15.286V1.611l116.403,122.592l-3.067-35.654H98.88v-12h12.719c0.219-0.674,0.509-1.462,0.89-2.342 c4.229-9.775,12.964-16.763,23.889-21.734v-7.931h20.505v1.227c10.683-2.455,21.978-3.79,32.499-4.468v-4.752h58.999V66.05h-58.999 V53.588c-10.451,0.781-21.987,2.208-32.499,4.709v18.252h139.444c-5.472-12.912-26.749-18.958-47.947-21.699V42.631 c21.275,2.637,43.143,8.586,54.121,21.438c2.929-3.729,7.48-6.125,12.59-6.125c8.837,0,16,7.163,16,16c0,8.836-7.163,16-16,16 c-2.2,0-4.297-0.444-6.205-1.248l-1.725,18.5h7.986L420.487,0v13.682l-91.805,93.513h1.911v41.842h-27.331l-14.594,156.588 L396.623,419.32l-7.162,6.797L313.64,346.135z M244.992,351.898c0-17.718,13.331-32.322,30.51-34.328l0.99-10.621l-70.699-74.578 l-62.56,63.724l5.157,59.953h96.848C245.076,354.687,244.992,353.302,244.992,351.898z M261.58,351.898 c0,9.927,8.047,17.975,17.975,17.975c9.927,0,17.975-8.048,17.975-17.975c0-9.928-8.048-17.975-17.975-17.975 C269.627,333.923,261.58,341.97,261.58,351.898z M267.881,351.898c0-6.447,5.227-11.674,11.674-11.674s11.674,5.227,11.674,11.674 s-5.227,11.673-11.674,11.673S267.881,358.345,267.881,351.898z M33.878,512.379h347.673v84.661H33.878V512.379z" fill="#000000"/>
    </g>
  </g>
  
  <!-- Network Configuration -->
  <rect x="80" y="73" width="62" height="6" fill="none" stroke="#000000" stroke-width="0.5"/>
  <text x="82" y="77.5" font-family="Courier New, monospace" font-size="4">
    Default IP: 192.168.0.12/24
  </text>
  
  <!-- Serial Number -->
  <rect x="80" y="80" width="62" height="6" fill="none" stroke="#000000" stroke-width="0.5"/>
  <text x="82" y="84.5" font-family="Courier New, monospace" font-size="4">
    S/N: SN-0167662
  </text>
  
  <!-- Footer -->
  <text x="75" y="93" font-family="Arial, sans-serif" font-size="3.5" text-anchor="middle">
    DvidMakesThings | https://github.com/DvidMakesThings/HW_10-In-Rack_PDU
  </text>
</svg>